M48
;GenerationSoftware,Autodesk,EAGLE,9.6.2*%
;CreationDate,2021-04-03T14:15:55Z*%
FMAT,2
ICI,OFF
METRIC,TZ,000.000
T6C0.350
T5C1.000
T4C1.016
T3C1.100
T2C3.000
T1C3.000
%
G90
M71
T1
X6985Y74795
T2
X60579Y97155
X2540Y97155
X2540Y31115
T3
X54594Y41574
X59674Y36494
X54594Y36494
X59674Y39034
X54594Y39034
X59674Y41574
X59674Y44114
X54594Y44114
X59674Y46654
X54594Y46654
T4
X1905Y48260
X1905Y45720
X1905Y43180
X1905Y40640
X1905Y38100
X1905Y35560
X35560Y55880
X35560Y50800
X35560Y53340
X35560Y58420
X35560Y60960
X1905Y58420
X1905Y55880
X1905Y53340
X1905Y50800
T5
X56278Y72151
X56278Y77231
X58818Y72151
X58818Y77231
T6
X14986Y58801
X31750Y41910
X53000Y63000
X22225Y46990
X24130Y46990
X26035Y48895
X26035Y50800
X26035Y52705
X24130Y55880
X33000Y60000
X22225Y55880
X10160Y72390
X37465Y36830
X9525Y43815
X18415Y76200
X45000Y87000
X39670Y92305
X1270Y83820
X11430Y68580
X37195Y90900
X16510Y52070
X3810Y76200
X9525Y46355
X45000Y67000
X3810Y78105
X9525Y50165
X10668Y39116
X8890Y47625
X8890Y48895
X15240Y41910
X13970Y43815
X39000Y77000
X4445Y67945
X3175Y80645
X18288Y55626
X15494Y56896
M30