M48
;GenerationSoftware,Autodesk,EAGLE,9.6.2*%
;CreationDate,2021-04-03T13:59:29Z*%
FMAT,2
ICI,OFF
METRIC,TZ,000.000
T3C1.016
T2C1.100
T1C3.000
%
G90
M71
T1
X4000Y4000
X4000Y28000
X46000Y28000
X46000Y4000
T2
X6500Y19380
X11580Y19380
X6500Y16840
X11580Y16840
X6500Y14300
X11580Y14300
X6500Y11760
X11580Y11760
X6500Y9220
X11580Y9220
T3
X23640Y27790
X26180Y27790
X28720Y27790
X31260Y27790
X33800Y27790
X36340Y27790
X38880Y27790
X41420Y27790
X23620Y4300
X26160Y4300
X28700Y4300
X31240Y4300
X33780Y4300
X36320Y4300
X38860Y4300
X41400Y4300
M30