G04 EAGLE Gerber RS-274X export*
G75*
%MOMM*%
%FSLAX34Y34*%
%LPD*%
%INTop Copper*%
%IPPOS*%
%AMOC8*
5,1,8,0,0,1.08239X$1,22.5*%
G01*
%ADD10C,1.879600*%
%ADD11C,1.650000*%
%ADD12C,0.304800*%

G36*
X489098Y10164D02*
X489098Y10164D01*
X489117Y10162D01*
X489219Y10184D01*
X489321Y10200D01*
X489338Y10210D01*
X489358Y10214D01*
X489447Y10267D01*
X489538Y10316D01*
X489552Y10330D01*
X489569Y10340D01*
X489636Y10419D01*
X489708Y10494D01*
X489716Y10512D01*
X489729Y10527D01*
X489768Y10623D01*
X489811Y10717D01*
X489813Y10737D01*
X489821Y10755D01*
X489839Y10922D01*
X489839Y309078D01*
X489836Y309098D01*
X489838Y309117D01*
X489816Y309219D01*
X489800Y309321D01*
X489790Y309338D01*
X489786Y309358D01*
X489733Y309447D01*
X489684Y309538D01*
X489670Y309552D01*
X489660Y309569D01*
X489581Y309636D01*
X489506Y309708D01*
X489488Y309716D01*
X489473Y309729D01*
X489377Y309768D01*
X489283Y309811D01*
X489263Y309813D01*
X489245Y309821D01*
X489078Y309839D01*
X10922Y309839D01*
X10902Y309836D01*
X10883Y309838D01*
X10781Y309816D01*
X10679Y309800D01*
X10662Y309790D01*
X10642Y309786D01*
X10553Y309733D01*
X10462Y309684D01*
X10448Y309670D01*
X10431Y309660D01*
X10364Y309581D01*
X10292Y309506D01*
X10284Y309488D01*
X10271Y309473D01*
X10232Y309377D01*
X10189Y309283D01*
X10187Y309263D01*
X10179Y309245D01*
X10161Y309078D01*
X10161Y10922D01*
X10164Y10902D01*
X10162Y10883D01*
X10184Y10781D01*
X10200Y10679D01*
X10210Y10662D01*
X10214Y10642D01*
X10267Y10553D01*
X10316Y10462D01*
X10330Y10448D01*
X10340Y10431D01*
X10419Y10364D01*
X10494Y10292D01*
X10512Y10284D01*
X10527Y10271D01*
X10623Y10232D01*
X10717Y10189D01*
X10737Y10187D01*
X10755Y10179D01*
X10922Y10161D01*
X489078Y10161D01*
X489098Y10164D01*
G37*
%LPC*%
G36*
X361027Y32077D02*
X361027Y32077D01*
X357013Y33740D01*
X353940Y36813D01*
X352277Y40827D01*
X352277Y45173D01*
X353383Y47841D01*
X353409Y47955D01*
X353438Y48068D01*
X353437Y48075D01*
X353439Y48081D01*
X353428Y48197D01*
X353419Y48314D01*
X353416Y48319D01*
X353416Y48326D01*
X353368Y48433D01*
X353322Y48540D01*
X353318Y48546D01*
X353316Y48550D01*
X353303Y48564D01*
X353218Y48671D01*
X262160Y139728D01*
X262086Y139781D01*
X262017Y139841D01*
X261987Y139853D01*
X261960Y139872D01*
X261873Y139899D01*
X261789Y139933D01*
X261748Y139937D01*
X261725Y139944D01*
X261693Y139943D01*
X261622Y139951D01*
X125626Y139951D01*
X125511Y139932D01*
X125395Y139915D01*
X125389Y139913D01*
X125383Y139912D01*
X125281Y139857D01*
X125176Y139804D01*
X125171Y139799D01*
X125166Y139796D01*
X125086Y139712D01*
X125003Y139628D01*
X125000Y139622D01*
X124996Y139618D01*
X124989Y139601D01*
X124923Y139481D01*
X124087Y137463D01*
X121337Y134713D01*
X117744Y133225D01*
X113856Y133225D01*
X110263Y134713D01*
X107513Y137463D01*
X106677Y139481D01*
X106616Y139581D01*
X106556Y139681D01*
X106551Y139685D01*
X106548Y139690D01*
X106458Y139765D01*
X106369Y139841D01*
X106363Y139843D01*
X106358Y139847D01*
X106250Y139889D01*
X106141Y139933D01*
X106133Y139934D01*
X106129Y139935D01*
X106110Y139936D01*
X105974Y139951D01*
X74826Y139951D01*
X74711Y139932D01*
X74595Y139915D01*
X74589Y139913D01*
X74583Y139912D01*
X74481Y139857D01*
X74376Y139804D01*
X74371Y139799D01*
X74366Y139796D01*
X74286Y139712D01*
X74203Y139628D01*
X74200Y139622D01*
X74196Y139618D01*
X74189Y139601D01*
X74123Y139481D01*
X73287Y137463D01*
X70537Y134713D01*
X66944Y133225D01*
X63056Y133225D01*
X59463Y134713D01*
X56713Y137463D01*
X55225Y141056D01*
X55225Y144944D01*
X56713Y148537D01*
X59463Y151287D01*
X63056Y152775D01*
X66944Y152775D01*
X70537Y151287D01*
X73287Y148537D01*
X74123Y146519D01*
X74184Y146419D01*
X74244Y146319D01*
X74249Y146315D01*
X74252Y146310D01*
X74342Y146235D01*
X74431Y146159D01*
X74437Y146157D01*
X74442Y146153D01*
X74550Y146111D01*
X74659Y146067D01*
X74667Y146066D01*
X74671Y146065D01*
X74690Y146064D01*
X74826Y146049D01*
X105974Y146049D01*
X106089Y146068D01*
X106205Y146085D01*
X106211Y146087D01*
X106217Y146088D01*
X106319Y146143D01*
X106424Y146196D01*
X106429Y146201D01*
X106434Y146204D01*
X106514Y146288D01*
X106597Y146372D01*
X106600Y146378D01*
X106604Y146382D01*
X106611Y146399D01*
X106677Y146519D01*
X107513Y148537D01*
X110263Y151287D01*
X113856Y152775D01*
X117744Y152775D01*
X121337Y151287D01*
X124087Y148537D01*
X124923Y146519D01*
X124984Y146419D01*
X125044Y146319D01*
X125049Y146315D01*
X125052Y146310D01*
X125142Y146235D01*
X125231Y146159D01*
X125237Y146157D01*
X125242Y146153D01*
X125350Y146111D01*
X125459Y146067D01*
X125467Y146066D01*
X125471Y146065D01*
X125490Y146064D01*
X125626Y146049D01*
X264463Y146049D01*
X357529Y52982D01*
X357623Y52915D01*
X357639Y52903D01*
X357641Y52901D01*
X357642Y52901D01*
X357718Y52844D01*
X357724Y52842D01*
X357729Y52839D01*
X357840Y52805D01*
X357952Y52768D01*
X357958Y52768D01*
X357964Y52766D01*
X358081Y52770D01*
X358198Y52771D01*
X358205Y52773D01*
X358210Y52773D01*
X358227Y52779D01*
X358359Y52817D01*
X361027Y53923D01*
X365373Y53923D01*
X369387Y52260D01*
X372460Y49187D01*
X374123Y45173D01*
X374123Y40827D01*
X372460Y36813D01*
X369387Y33740D01*
X365373Y32077D01*
X361027Y32077D01*
G37*
%LPD*%
%LPC*%
G36*
X335627Y32077D02*
X335627Y32077D01*
X331613Y33740D01*
X328540Y36813D01*
X326877Y40827D01*
X326877Y45173D01*
X327983Y47841D01*
X328009Y47955D01*
X328038Y48068D01*
X328037Y48075D01*
X328039Y48081D01*
X328028Y48197D01*
X328019Y48314D01*
X328016Y48319D01*
X328016Y48326D01*
X327968Y48433D01*
X327922Y48540D01*
X327918Y48546D01*
X327916Y48550D01*
X327903Y48564D01*
X327818Y48671D01*
X262160Y114328D01*
X262086Y114381D01*
X262017Y114441D01*
X261987Y114453D01*
X261960Y114472D01*
X261873Y114499D01*
X261789Y114533D01*
X261748Y114537D01*
X261725Y114544D01*
X261693Y114543D01*
X261622Y114551D01*
X125626Y114551D01*
X125511Y114532D01*
X125395Y114515D01*
X125389Y114513D01*
X125383Y114512D01*
X125281Y114457D01*
X125176Y114404D01*
X125171Y114399D01*
X125166Y114396D01*
X125086Y114312D01*
X125003Y114228D01*
X125000Y114222D01*
X124996Y114218D01*
X124989Y114201D01*
X124923Y114081D01*
X124087Y112063D01*
X121337Y109313D01*
X117744Y107825D01*
X113856Y107825D01*
X110263Y109313D01*
X107513Y112063D01*
X106677Y114081D01*
X106616Y114181D01*
X106556Y114281D01*
X106551Y114285D01*
X106548Y114290D01*
X106458Y114365D01*
X106369Y114441D01*
X106363Y114443D01*
X106358Y114447D01*
X106250Y114489D01*
X106141Y114533D01*
X106133Y114534D01*
X106129Y114535D01*
X106110Y114536D01*
X105974Y114551D01*
X74826Y114551D01*
X74711Y114532D01*
X74595Y114515D01*
X74589Y114513D01*
X74583Y114512D01*
X74481Y114457D01*
X74376Y114404D01*
X74371Y114399D01*
X74366Y114396D01*
X74286Y114312D01*
X74203Y114228D01*
X74200Y114222D01*
X74196Y114218D01*
X74189Y114201D01*
X74123Y114081D01*
X73287Y112063D01*
X70537Y109313D01*
X66944Y107825D01*
X63056Y107825D01*
X59463Y109313D01*
X56713Y112063D01*
X55225Y115656D01*
X55225Y119544D01*
X56713Y123137D01*
X59463Y125887D01*
X63056Y127375D01*
X66944Y127375D01*
X70537Y125887D01*
X73287Y123137D01*
X74123Y121119D01*
X74184Y121019D01*
X74244Y120919D01*
X74249Y120915D01*
X74252Y120910D01*
X74342Y120835D01*
X74431Y120759D01*
X74437Y120757D01*
X74442Y120753D01*
X74550Y120711D01*
X74659Y120667D01*
X74667Y120666D01*
X74671Y120665D01*
X74690Y120664D01*
X74826Y120649D01*
X105974Y120649D01*
X106089Y120668D01*
X106205Y120685D01*
X106211Y120687D01*
X106217Y120688D01*
X106319Y120743D01*
X106424Y120796D01*
X106429Y120801D01*
X106434Y120804D01*
X106514Y120888D01*
X106597Y120972D01*
X106600Y120978D01*
X106604Y120982D01*
X106611Y120999D01*
X106677Y121119D01*
X107513Y123137D01*
X110263Y125887D01*
X113856Y127375D01*
X117744Y127375D01*
X121337Y125887D01*
X124087Y123137D01*
X124923Y121119D01*
X124984Y121019D01*
X125044Y120919D01*
X125049Y120915D01*
X125052Y120910D01*
X125142Y120835D01*
X125231Y120759D01*
X125237Y120757D01*
X125242Y120753D01*
X125350Y120711D01*
X125459Y120667D01*
X125467Y120666D01*
X125471Y120665D01*
X125490Y120664D01*
X125626Y120649D01*
X264463Y120649D01*
X332129Y52982D01*
X332223Y52915D01*
X332239Y52903D01*
X332241Y52901D01*
X332242Y52901D01*
X332318Y52844D01*
X332324Y52842D01*
X332329Y52839D01*
X332440Y52805D01*
X332552Y52768D01*
X332558Y52768D01*
X332564Y52766D01*
X332681Y52770D01*
X332798Y52771D01*
X332805Y52773D01*
X332810Y52773D01*
X332827Y52779D01*
X332959Y52817D01*
X335627Y53923D01*
X339973Y53923D01*
X343987Y52260D01*
X347060Y49187D01*
X348723Y45173D01*
X348723Y40827D01*
X347060Y36813D01*
X343987Y33740D01*
X339973Y32077D01*
X335627Y32077D01*
G37*
%LPD*%
%LPC*%
G36*
X63056Y184025D02*
X63056Y184025D01*
X59463Y185513D01*
X56713Y188263D01*
X55225Y191856D01*
X55225Y195744D01*
X56713Y199337D01*
X59463Y202087D01*
X63056Y203575D01*
X66944Y203575D01*
X70537Y202087D01*
X73287Y199337D01*
X74123Y197319D01*
X74184Y197219D01*
X74244Y197119D01*
X74249Y197115D01*
X74252Y197110D01*
X74342Y197035D01*
X74431Y196959D01*
X74437Y196957D01*
X74442Y196953D01*
X74550Y196911D01*
X74659Y196867D01*
X74667Y196866D01*
X74671Y196865D01*
X74690Y196864D01*
X74826Y196849D01*
X105974Y196849D01*
X106089Y196868D01*
X106205Y196885D01*
X106211Y196887D01*
X106217Y196888D01*
X106319Y196943D01*
X106424Y196996D01*
X106429Y197001D01*
X106434Y197004D01*
X106514Y197088D01*
X106597Y197172D01*
X106600Y197178D01*
X106604Y197182D01*
X106611Y197199D01*
X106677Y197319D01*
X107513Y199337D01*
X110263Y202087D01*
X113856Y203575D01*
X117744Y203575D01*
X121337Y202087D01*
X124087Y199337D01*
X124923Y197319D01*
X124984Y197219D01*
X125044Y197119D01*
X125049Y197115D01*
X125052Y197110D01*
X125142Y197035D01*
X125231Y196959D01*
X125237Y196957D01*
X125242Y196953D01*
X125350Y196911D01*
X125459Y196867D01*
X125467Y196866D01*
X125471Y196865D01*
X125490Y196864D01*
X125626Y196849D01*
X176122Y196849D01*
X176212Y196863D01*
X176303Y196871D01*
X176333Y196883D01*
X176365Y196888D01*
X176445Y196931D01*
X176529Y196967D01*
X176561Y196993D01*
X176582Y197004D01*
X176604Y197027D01*
X176660Y197072D01*
X251818Y272229D01*
X251885Y272323D01*
X251956Y272418D01*
X251958Y272424D01*
X251961Y272429D01*
X251995Y272540D01*
X252032Y272652D01*
X252032Y272658D01*
X252034Y272664D01*
X252030Y272781D01*
X252029Y272898D01*
X252027Y272905D01*
X252027Y272910D01*
X252021Y272927D01*
X251983Y273059D01*
X250877Y275727D01*
X250877Y280073D01*
X252540Y284087D01*
X255613Y287160D01*
X259627Y288823D01*
X263973Y288823D01*
X267987Y287160D01*
X271060Y284087D01*
X272723Y280073D01*
X272723Y275727D01*
X271060Y271713D01*
X267987Y268640D01*
X263973Y266977D01*
X259627Y266977D01*
X256959Y268083D01*
X256845Y268109D01*
X256732Y268138D01*
X256725Y268137D01*
X256719Y268139D01*
X256603Y268128D01*
X256486Y268119D01*
X256481Y268116D01*
X256474Y268116D01*
X256367Y268068D01*
X256260Y268022D01*
X256254Y268018D01*
X256250Y268016D01*
X256236Y268003D01*
X256129Y267918D01*
X178963Y190751D01*
X125626Y190751D01*
X125511Y190732D01*
X125395Y190715D01*
X125389Y190713D01*
X125383Y190712D01*
X125281Y190657D01*
X125176Y190604D01*
X125171Y190599D01*
X125166Y190596D01*
X125086Y190512D01*
X125003Y190428D01*
X125000Y190422D01*
X124996Y190418D01*
X124989Y190401D01*
X124923Y190281D01*
X124087Y188263D01*
X121337Y185513D01*
X117744Y184025D01*
X113856Y184025D01*
X110263Y185513D01*
X107513Y188263D01*
X106677Y190281D01*
X106616Y190381D01*
X106556Y190481D01*
X106551Y190485D01*
X106548Y190490D01*
X106458Y190565D01*
X106369Y190641D01*
X106363Y190643D01*
X106358Y190647D01*
X106250Y190689D01*
X106141Y190733D01*
X106133Y190734D01*
X106129Y190735D01*
X106110Y190736D01*
X105974Y190751D01*
X74826Y190751D01*
X74711Y190732D01*
X74595Y190715D01*
X74589Y190713D01*
X74583Y190712D01*
X74481Y190657D01*
X74376Y190604D01*
X74371Y190599D01*
X74366Y190596D01*
X74286Y190512D01*
X74203Y190428D01*
X74200Y190422D01*
X74196Y190418D01*
X74189Y190401D01*
X74123Y190281D01*
X73287Y188263D01*
X70537Y185513D01*
X66944Y184025D01*
X63056Y184025D01*
G37*
%LPD*%
%LPC*%
G36*
X259427Y32077D02*
X259427Y32077D01*
X255413Y33740D01*
X252340Y36813D01*
X250677Y40827D01*
X250677Y45173D01*
X251783Y47841D01*
X251809Y47955D01*
X251838Y48068D01*
X251837Y48075D01*
X251839Y48081D01*
X251828Y48197D01*
X251819Y48314D01*
X251816Y48319D01*
X251816Y48326D01*
X251768Y48433D01*
X251722Y48540D01*
X251718Y48546D01*
X251716Y48550D01*
X251703Y48564D01*
X251618Y48671D01*
X211360Y88928D01*
X211286Y88981D01*
X211217Y89041D01*
X211187Y89053D01*
X211160Y89072D01*
X211073Y89099D01*
X210989Y89133D01*
X210948Y89137D01*
X210925Y89144D01*
X210893Y89143D01*
X210822Y89151D01*
X125626Y89151D01*
X125511Y89132D01*
X125395Y89115D01*
X125389Y89113D01*
X125383Y89112D01*
X125281Y89057D01*
X125176Y89004D01*
X125171Y88999D01*
X125166Y88996D01*
X125086Y88912D01*
X125003Y88828D01*
X125000Y88822D01*
X124996Y88818D01*
X124989Y88801D01*
X124923Y88681D01*
X124087Y86663D01*
X121337Y83913D01*
X117744Y82425D01*
X113856Y82425D01*
X110263Y83913D01*
X107513Y86663D01*
X106677Y88681D01*
X106616Y88781D01*
X106556Y88881D01*
X106551Y88885D01*
X106548Y88890D01*
X106458Y88965D01*
X106369Y89041D01*
X106363Y89043D01*
X106358Y89047D01*
X106250Y89089D01*
X106141Y89133D01*
X106133Y89134D01*
X106129Y89135D01*
X106110Y89136D01*
X105974Y89151D01*
X74826Y89151D01*
X74711Y89132D01*
X74595Y89115D01*
X74589Y89113D01*
X74583Y89112D01*
X74481Y89057D01*
X74376Y89004D01*
X74371Y88999D01*
X74366Y88996D01*
X74286Y88912D01*
X74203Y88828D01*
X74200Y88822D01*
X74196Y88818D01*
X74189Y88801D01*
X74123Y88681D01*
X73287Y86663D01*
X70537Y83913D01*
X66944Y82425D01*
X63056Y82425D01*
X59463Y83913D01*
X56713Y86663D01*
X55225Y90256D01*
X55225Y94144D01*
X56713Y97737D01*
X59463Y100487D01*
X63056Y101975D01*
X66944Y101975D01*
X70537Y100487D01*
X73287Y97737D01*
X74123Y95719D01*
X74184Y95619D01*
X74244Y95519D01*
X74249Y95515D01*
X74252Y95510D01*
X74342Y95435D01*
X74431Y95359D01*
X74437Y95357D01*
X74442Y95353D01*
X74550Y95311D01*
X74659Y95267D01*
X74667Y95266D01*
X74671Y95265D01*
X74690Y95264D01*
X74826Y95249D01*
X105974Y95249D01*
X106089Y95268D01*
X106205Y95285D01*
X106211Y95287D01*
X106217Y95288D01*
X106319Y95343D01*
X106424Y95396D01*
X106429Y95401D01*
X106434Y95404D01*
X106514Y95488D01*
X106597Y95572D01*
X106600Y95578D01*
X106604Y95582D01*
X106611Y95599D01*
X106677Y95719D01*
X107513Y97737D01*
X110263Y100487D01*
X113856Y101975D01*
X117744Y101975D01*
X121337Y100487D01*
X124087Y97737D01*
X124923Y95719D01*
X124984Y95619D01*
X125044Y95519D01*
X125049Y95515D01*
X125052Y95510D01*
X125142Y95435D01*
X125231Y95359D01*
X125237Y95357D01*
X125242Y95353D01*
X125350Y95311D01*
X125459Y95267D01*
X125467Y95266D01*
X125471Y95265D01*
X125490Y95264D01*
X125626Y95249D01*
X213663Y95249D01*
X255929Y52982D01*
X256023Y52915D01*
X256039Y52903D01*
X256041Y52901D01*
X256042Y52901D01*
X256118Y52844D01*
X256124Y52842D01*
X256129Y52839D01*
X256240Y52805D01*
X256352Y52768D01*
X256358Y52768D01*
X256364Y52766D01*
X256481Y52770D01*
X256598Y52771D01*
X256605Y52773D01*
X256610Y52773D01*
X256627Y52779D01*
X256759Y52817D01*
X259427Y53923D01*
X263773Y53923D01*
X267787Y52260D01*
X270860Y49187D01*
X272523Y45173D01*
X272523Y40827D01*
X270860Y36813D01*
X267787Y33740D01*
X263773Y32077D01*
X259427Y32077D01*
G37*
%LPD*%
%LPC*%
G36*
X456688Y254839D02*
X456688Y254839D01*
X450288Y256554D01*
X444551Y259866D01*
X439866Y264551D01*
X436554Y270288D01*
X434839Y276688D01*
X434839Y283312D01*
X436554Y289712D01*
X439866Y295449D01*
X444551Y300134D01*
X450288Y303446D01*
X456688Y305161D01*
X463312Y305161D01*
X469712Y303446D01*
X475449Y300134D01*
X480134Y295449D01*
X483446Y289712D01*
X485161Y283312D01*
X485161Y276688D01*
X483446Y270288D01*
X480134Y264551D01*
X475449Y259866D01*
X469712Y256554D01*
X463312Y254839D01*
X456688Y254839D01*
G37*
%LPD*%
%LPC*%
G36*
X36688Y254839D02*
X36688Y254839D01*
X30288Y256554D01*
X24551Y259866D01*
X19866Y264551D01*
X16554Y270288D01*
X14839Y276688D01*
X14839Y283312D01*
X16554Y289712D01*
X19866Y295449D01*
X24551Y300134D01*
X30288Y303446D01*
X36688Y305161D01*
X43312Y305161D01*
X49712Y303446D01*
X55449Y300134D01*
X60134Y295449D01*
X63446Y289712D01*
X65161Y283312D01*
X65161Y276688D01*
X63446Y270288D01*
X60134Y264551D01*
X55449Y259866D01*
X49712Y256554D01*
X43312Y254839D01*
X36688Y254839D01*
G37*
%LPD*%
%LPC*%
G36*
X36688Y14839D02*
X36688Y14839D01*
X30288Y16554D01*
X24551Y19866D01*
X19866Y24551D01*
X16554Y30288D01*
X14839Y36688D01*
X14839Y43312D01*
X16554Y49712D01*
X19866Y55449D01*
X24551Y60134D01*
X30288Y63446D01*
X36688Y65161D01*
X43312Y65161D01*
X49712Y63446D01*
X55449Y60134D01*
X60134Y55449D01*
X63446Y49712D01*
X65161Y43312D01*
X65161Y36688D01*
X63446Y30288D01*
X60134Y24551D01*
X55449Y19866D01*
X49712Y16554D01*
X43312Y14839D01*
X36688Y14839D01*
G37*
%LPD*%
%LPC*%
G36*
X456688Y14839D02*
X456688Y14839D01*
X450288Y16554D01*
X444551Y19866D01*
X439866Y24551D01*
X436554Y30288D01*
X434839Y36688D01*
X434839Y43312D01*
X436554Y49712D01*
X439866Y55449D01*
X444551Y60134D01*
X450288Y63446D01*
X456688Y65161D01*
X463312Y65161D01*
X469712Y63446D01*
X475449Y60134D01*
X480134Y55449D01*
X483446Y49712D01*
X485161Y43312D01*
X485161Y36688D01*
X483446Y30288D01*
X480134Y24551D01*
X475449Y19866D01*
X469712Y16554D01*
X463312Y14839D01*
X456688Y14839D01*
G37*
%LPD*%
%LPC*%
G36*
X386427Y32077D02*
X386427Y32077D01*
X382413Y33740D01*
X379340Y36813D01*
X377677Y40827D01*
X377677Y45173D01*
X379340Y49187D01*
X382413Y52260D01*
X386427Y53923D01*
X390773Y53923D01*
X394787Y52260D01*
X397860Y49187D01*
X399523Y45173D01*
X399523Y40827D01*
X397860Y36813D01*
X394787Y33740D01*
X390773Y32077D01*
X386427Y32077D01*
G37*
%LPD*%
%LPC*%
G36*
X284827Y32077D02*
X284827Y32077D01*
X280813Y33740D01*
X277740Y36813D01*
X276077Y40827D01*
X276077Y45173D01*
X277740Y49187D01*
X280813Y52260D01*
X284827Y53923D01*
X289173Y53923D01*
X293187Y52260D01*
X296260Y49187D01*
X297923Y45173D01*
X297923Y40827D01*
X296260Y36813D01*
X293187Y33740D01*
X289173Y32077D01*
X284827Y32077D01*
G37*
%LPD*%
%LPC*%
G36*
X335827Y266977D02*
X335827Y266977D01*
X331813Y268640D01*
X328740Y271713D01*
X327077Y275727D01*
X327077Y280073D01*
X328740Y284087D01*
X331813Y287160D01*
X335827Y288823D01*
X340173Y288823D01*
X344187Y287160D01*
X347260Y284087D01*
X348923Y280073D01*
X348923Y275727D01*
X347260Y271713D01*
X344187Y268640D01*
X340173Y266977D01*
X335827Y266977D01*
G37*
%LPD*%
%LPC*%
G36*
X234027Y32077D02*
X234027Y32077D01*
X230013Y33740D01*
X226940Y36813D01*
X225277Y40827D01*
X225277Y45173D01*
X226940Y49187D01*
X230013Y52260D01*
X234027Y53923D01*
X238373Y53923D01*
X242387Y52260D01*
X245460Y49187D01*
X247123Y45173D01*
X247123Y40827D01*
X245460Y36813D01*
X242387Y33740D01*
X238373Y32077D01*
X234027Y32077D01*
G37*
%LPD*%
%LPC*%
G36*
X386627Y266977D02*
X386627Y266977D01*
X382613Y268640D01*
X379540Y271713D01*
X377877Y275727D01*
X377877Y280073D01*
X379540Y284087D01*
X382613Y287160D01*
X386627Y288823D01*
X390973Y288823D01*
X394987Y287160D01*
X398060Y284087D01*
X399723Y280073D01*
X399723Y275727D01*
X398060Y271713D01*
X394987Y268640D01*
X390973Y266977D01*
X386627Y266977D01*
G37*
%LPD*%
%LPC*%
G36*
X412027Y266977D02*
X412027Y266977D01*
X408013Y268640D01*
X404940Y271713D01*
X403277Y275727D01*
X403277Y280073D01*
X404940Y284087D01*
X408013Y287160D01*
X412027Y288823D01*
X416373Y288823D01*
X420387Y287160D01*
X423460Y284087D01*
X425123Y280073D01*
X425123Y275727D01*
X423460Y271713D01*
X420387Y268640D01*
X416373Y266977D01*
X412027Y266977D01*
G37*
%LPD*%
%LPC*%
G36*
X310227Y32077D02*
X310227Y32077D01*
X306213Y33740D01*
X303140Y36813D01*
X301477Y40827D01*
X301477Y45173D01*
X303140Y49187D01*
X306213Y52260D01*
X310227Y53923D01*
X314573Y53923D01*
X318587Y52260D01*
X321660Y49187D01*
X323323Y45173D01*
X323323Y40827D01*
X321660Y36813D01*
X318587Y33740D01*
X314573Y32077D01*
X310227Y32077D01*
G37*
%LPD*%
%LPC*%
G36*
X310427Y266977D02*
X310427Y266977D01*
X306413Y268640D01*
X303340Y271713D01*
X301677Y275727D01*
X301677Y280073D01*
X303340Y284087D01*
X306413Y287160D01*
X310427Y288823D01*
X314773Y288823D01*
X318787Y287160D01*
X321860Y284087D01*
X323523Y280073D01*
X323523Y275727D01*
X321860Y271713D01*
X318787Y268640D01*
X314773Y266977D01*
X310427Y266977D01*
G37*
%LPD*%
%LPC*%
G36*
X285027Y266977D02*
X285027Y266977D01*
X281013Y268640D01*
X277940Y271713D01*
X276277Y275727D01*
X276277Y280073D01*
X277940Y284087D01*
X281013Y287160D01*
X285027Y288823D01*
X289373Y288823D01*
X293387Y287160D01*
X296460Y284087D01*
X298123Y280073D01*
X298123Y275727D01*
X296460Y271713D01*
X293387Y268640D01*
X289373Y266977D01*
X285027Y266977D01*
G37*
%LPD*%
%LPC*%
G36*
X364923Y279423D02*
X364923Y279423D01*
X364923Y289746D01*
X366196Y289545D01*
X367983Y288964D01*
X369657Y288111D01*
X371178Y287006D01*
X372506Y285678D01*
X373611Y284157D01*
X374464Y282483D01*
X375045Y280696D01*
X375246Y279423D01*
X364923Y279423D01*
G37*
%LPD*%
%LPC*%
G36*
X237923Y279423D02*
X237923Y279423D01*
X237923Y289746D01*
X239196Y289545D01*
X240983Y288964D01*
X242657Y288111D01*
X244178Y287006D01*
X245506Y285678D01*
X246611Y284157D01*
X247464Y282483D01*
X248045Y280696D01*
X248246Y279423D01*
X237923Y279423D01*
G37*
%LPD*%
%LPC*%
G36*
X415523Y44523D02*
X415523Y44523D01*
X415523Y54846D01*
X416796Y54645D01*
X418583Y54064D01*
X420257Y53211D01*
X421778Y52106D01*
X423106Y50778D01*
X424211Y49257D01*
X425064Y47583D01*
X425645Y45796D01*
X425846Y44523D01*
X415523Y44523D01*
G37*
%LPD*%
%LPC*%
G36*
X351554Y279423D02*
X351554Y279423D01*
X351755Y280696D01*
X352336Y282483D01*
X353189Y284157D01*
X354294Y285678D01*
X355622Y287006D01*
X357143Y288111D01*
X358817Y288964D01*
X360604Y289545D01*
X361877Y289746D01*
X361877Y279423D01*
X351554Y279423D01*
G37*
%LPD*%
%LPC*%
G36*
X224554Y279423D02*
X224554Y279423D01*
X224755Y280696D01*
X225336Y282483D01*
X226189Y284157D01*
X227294Y285678D01*
X228622Y287006D01*
X230143Y288111D01*
X231817Y288964D01*
X233604Y289545D01*
X234877Y289746D01*
X234877Y279423D01*
X224554Y279423D01*
G37*
%LPD*%
%LPC*%
G36*
X364923Y276377D02*
X364923Y276377D01*
X375246Y276377D01*
X375045Y275104D01*
X374464Y273317D01*
X373611Y271643D01*
X372506Y270122D01*
X371178Y268794D01*
X369657Y267689D01*
X367983Y266836D01*
X366196Y266255D01*
X364923Y266054D01*
X364923Y276377D01*
G37*
%LPD*%
%LPC*%
G36*
X237923Y276377D02*
X237923Y276377D01*
X248246Y276377D01*
X248045Y275104D01*
X247464Y273317D01*
X246611Y271643D01*
X245506Y270122D01*
X244178Y268794D01*
X242657Y267689D01*
X240983Y266836D01*
X239196Y266255D01*
X237923Y266054D01*
X237923Y276377D01*
G37*
%LPD*%
%LPC*%
G36*
X402154Y44523D02*
X402154Y44523D01*
X402355Y45796D01*
X402936Y47583D01*
X403789Y49257D01*
X404894Y50778D01*
X406222Y52106D01*
X407743Y53211D01*
X409417Y54064D01*
X411204Y54645D01*
X412477Y54846D01*
X412477Y44523D01*
X402154Y44523D01*
G37*
%LPD*%
%LPC*%
G36*
X415523Y41477D02*
X415523Y41477D01*
X425846Y41477D01*
X425645Y40204D01*
X425064Y38417D01*
X424211Y36743D01*
X423106Y35222D01*
X421778Y33894D01*
X420257Y32789D01*
X418583Y31936D01*
X416796Y31355D01*
X415523Y31154D01*
X415523Y41477D01*
G37*
%LPD*%
%LPC*%
G36*
X233604Y266255D02*
X233604Y266255D01*
X231817Y266836D01*
X230143Y267689D01*
X228622Y268794D01*
X227294Y270122D01*
X226189Y271643D01*
X225336Y273317D01*
X224755Y275104D01*
X224554Y276377D01*
X234877Y276377D01*
X234877Y266054D01*
X233604Y266255D01*
G37*
%LPD*%
%LPC*%
G36*
X360604Y266255D02*
X360604Y266255D01*
X358817Y266836D01*
X357143Y267689D01*
X355622Y268794D01*
X354294Y270122D01*
X353189Y271643D01*
X352336Y273317D01*
X351755Y275104D01*
X351554Y276377D01*
X361877Y276377D01*
X361877Y266054D01*
X360604Y266255D01*
G37*
%LPD*%
%LPC*%
G36*
X411204Y31355D02*
X411204Y31355D01*
X409417Y31936D01*
X407743Y32789D01*
X406222Y33894D01*
X404894Y35222D01*
X403789Y36743D01*
X402936Y38417D01*
X402355Y40204D01*
X402154Y41477D01*
X412477Y41477D01*
X412477Y31154D01*
X411204Y31355D01*
G37*
%LPD*%
%LPC*%
G36*
X117323Y169923D02*
X117323Y169923D01*
X117323Y179084D01*
X118327Y178925D01*
X119942Y178400D01*
X121455Y177629D01*
X122830Y176631D01*
X124031Y175430D01*
X125029Y174055D01*
X125800Y172542D01*
X126325Y170927D01*
X126484Y169923D01*
X117323Y169923D01*
G37*
%LPD*%
%LPC*%
G36*
X66523Y169923D02*
X66523Y169923D01*
X66523Y179084D01*
X67527Y178925D01*
X69142Y178400D01*
X70655Y177629D01*
X72030Y176631D01*
X73231Y175430D01*
X74229Y174055D01*
X75000Y172542D01*
X75525Y170927D01*
X75684Y169923D01*
X66523Y169923D01*
G37*
%LPD*%
%LPC*%
G36*
X66523Y166877D02*
X66523Y166877D01*
X75684Y166877D01*
X75525Y165873D01*
X75000Y164258D01*
X74229Y162745D01*
X73231Y161370D01*
X72030Y160169D01*
X70655Y159171D01*
X69142Y158400D01*
X67527Y157875D01*
X66523Y157716D01*
X66523Y166877D01*
G37*
%LPD*%
%LPC*%
G36*
X117323Y166877D02*
X117323Y166877D01*
X126484Y166877D01*
X126325Y165873D01*
X125800Y164258D01*
X125029Y162745D01*
X124031Y161370D01*
X122830Y160169D01*
X121455Y159171D01*
X119942Y158400D01*
X118327Y157875D01*
X117323Y157716D01*
X117323Y166877D01*
G37*
%LPD*%
%LPC*%
G36*
X105116Y169923D02*
X105116Y169923D01*
X105275Y170927D01*
X105800Y172542D01*
X106571Y174055D01*
X107569Y175430D01*
X108770Y176631D01*
X110145Y177629D01*
X111658Y178400D01*
X113273Y178925D01*
X114277Y179084D01*
X114277Y169923D01*
X105116Y169923D01*
G37*
%LPD*%
%LPC*%
G36*
X54316Y169923D02*
X54316Y169923D01*
X54475Y170927D01*
X55000Y172542D01*
X55771Y174055D01*
X56769Y175430D01*
X57970Y176631D01*
X59345Y177629D01*
X60858Y178400D01*
X62473Y178925D01*
X63477Y179084D01*
X63477Y169923D01*
X54316Y169923D01*
G37*
%LPD*%
%LPC*%
G36*
X62473Y157875D02*
X62473Y157875D01*
X60858Y158400D01*
X59345Y159171D01*
X57970Y160169D01*
X56769Y161370D01*
X55771Y162745D01*
X55000Y164258D01*
X54475Y165873D01*
X54316Y166877D01*
X63477Y166877D01*
X63477Y157716D01*
X62473Y157875D01*
G37*
%LPD*%
%LPC*%
G36*
X113273Y157875D02*
X113273Y157875D01*
X111658Y158400D01*
X110145Y159171D01*
X108770Y160169D01*
X107569Y161370D01*
X106571Y162745D01*
X105800Y164258D01*
X105275Y165873D01*
X105116Y166877D01*
X114277Y166877D01*
X114277Y157716D01*
X113273Y157875D01*
G37*
%LPD*%
%LPC*%
G36*
X363399Y277899D02*
X363399Y277899D01*
X363399Y277901D01*
X363401Y277901D01*
X363401Y277899D01*
X363399Y277899D01*
G37*
%LPD*%
%LPC*%
G36*
X236399Y277899D02*
X236399Y277899D01*
X236399Y277901D01*
X236401Y277901D01*
X236401Y277899D01*
X236399Y277899D01*
G37*
%LPD*%
%LPC*%
G36*
X115799Y168399D02*
X115799Y168399D01*
X115799Y168401D01*
X115801Y168401D01*
X115801Y168399D01*
X115799Y168399D01*
G37*
%LPD*%
%LPC*%
G36*
X64999Y168399D02*
X64999Y168399D01*
X64999Y168401D01*
X65001Y168401D01*
X65001Y168399D01*
X64999Y168399D01*
G37*
%LPD*%
%LPC*%
G36*
X413999Y42999D02*
X413999Y42999D01*
X413999Y43001D01*
X414001Y43001D01*
X414001Y42999D01*
X413999Y42999D01*
G37*
%LPD*%
D10*
X236400Y277900D03*
X261800Y277900D03*
X287200Y277900D03*
X312600Y277900D03*
X338000Y277900D03*
X363400Y277900D03*
X388800Y277900D03*
X414200Y277900D03*
X236200Y43000D03*
X261600Y43000D03*
X287000Y43000D03*
X312400Y43000D03*
X337800Y43000D03*
X363200Y43000D03*
X388600Y43000D03*
X414000Y43000D03*
D11*
X65000Y193800D03*
X115800Y193800D03*
X65000Y168400D03*
X115800Y168400D03*
X65000Y143000D03*
X115800Y143000D03*
X65000Y117600D03*
X115800Y117600D03*
X65000Y92200D03*
X115800Y92200D03*
D12*
X212400Y92200D01*
X261600Y43000D01*
X115800Y92200D02*
X65000Y92200D01*
X115800Y143000D02*
X263200Y143000D01*
X363200Y43000D01*
X115800Y143000D02*
X65000Y143000D01*
X115800Y117600D02*
X263200Y117600D01*
X337800Y43000D01*
X115800Y117600D02*
X65000Y117600D01*
X115800Y193800D02*
X177700Y193800D01*
X261800Y277900D01*
X115800Y193800D02*
X65000Y193800D01*
M02*
