G04 EAGLE Gerber RS-274X export*
G75*
%MOMM*%
%FSLAX34Y34*%
%LPD*%
%INBottom Copper*%
%IPPOS*%
%AMOC8*
5,1,8,0,0,1.08239X$1,22.5*%
G01*
%ADD10C,1.879600*%
%ADD11C,1.650000*%

G36*
X488342Y10164D02*
X488342Y10164D01*
X488368Y10162D01*
X488515Y10184D01*
X488662Y10201D01*
X488687Y10209D01*
X488713Y10213D01*
X488851Y10268D01*
X488990Y10318D01*
X489012Y10332D01*
X489037Y10342D01*
X489158Y10427D01*
X489283Y10507D01*
X489301Y10526D01*
X489323Y10541D01*
X489422Y10651D01*
X489525Y10758D01*
X489539Y10780D01*
X489556Y10800D01*
X489628Y10930D01*
X489704Y11057D01*
X489712Y11082D01*
X489725Y11105D01*
X489765Y11248D01*
X489810Y11389D01*
X489812Y11415D01*
X489820Y11440D01*
X489839Y11684D01*
X489839Y308316D01*
X489836Y308342D01*
X489838Y308368D01*
X489816Y308515D01*
X489799Y308662D01*
X489791Y308687D01*
X489787Y308713D01*
X489732Y308851D01*
X489682Y308990D01*
X489668Y309012D01*
X489658Y309037D01*
X489573Y309158D01*
X489493Y309283D01*
X489474Y309301D01*
X489459Y309323D01*
X489349Y309422D01*
X489242Y309525D01*
X489220Y309539D01*
X489200Y309556D01*
X489070Y309628D01*
X488943Y309704D01*
X488918Y309712D01*
X488895Y309725D01*
X488752Y309765D01*
X488611Y309810D01*
X488585Y309812D01*
X488560Y309820D01*
X488316Y309839D01*
X11684Y309839D01*
X11658Y309836D01*
X11632Y309838D01*
X11485Y309816D01*
X11338Y309799D01*
X11313Y309791D01*
X11287Y309787D01*
X11149Y309732D01*
X11010Y309682D01*
X10988Y309668D01*
X10963Y309658D01*
X10842Y309573D01*
X10717Y309493D01*
X10699Y309474D01*
X10677Y309459D01*
X10578Y309349D01*
X10475Y309242D01*
X10461Y309220D01*
X10444Y309200D01*
X10372Y309070D01*
X10296Y308943D01*
X10288Y308918D01*
X10275Y308895D01*
X10235Y308752D01*
X10190Y308611D01*
X10188Y308585D01*
X10180Y308560D01*
X10161Y308316D01*
X10161Y11684D01*
X10164Y11658D01*
X10162Y11632D01*
X10184Y11485D01*
X10201Y11338D01*
X10209Y11313D01*
X10213Y11287D01*
X10268Y11149D01*
X10318Y11010D01*
X10332Y10988D01*
X10342Y10963D01*
X10427Y10842D01*
X10507Y10717D01*
X10526Y10699D01*
X10541Y10677D01*
X10651Y10578D01*
X10758Y10475D01*
X10780Y10461D01*
X10800Y10444D01*
X10930Y10372D01*
X11057Y10296D01*
X11082Y10288D01*
X11105Y10275D01*
X11248Y10235D01*
X11389Y10190D01*
X11415Y10188D01*
X11440Y10180D01*
X11684Y10161D01*
X488316Y10161D01*
X488342Y10164D01*
G37*
%LPC*%
G36*
X456688Y254839D02*
X456688Y254839D01*
X450288Y256554D01*
X444551Y259866D01*
X439866Y264551D01*
X436554Y270288D01*
X434839Y276688D01*
X434839Y283312D01*
X436554Y289712D01*
X439866Y295449D01*
X444551Y300134D01*
X450288Y303446D01*
X456688Y305161D01*
X463312Y305161D01*
X469712Y303446D01*
X475449Y300134D01*
X480134Y295449D01*
X483446Y289712D01*
X485161Y283312D01*
X485161Y276688D01*
X483446Y270288D01*
X480134Y264551D01*
X475449Y259866D01*
X469712Y256554D01*
X463312Y254839D01*
X456688Y254839D01*
G37*
%LPD*%
%LPC*%
G36*
X36688Y254839D02*
X36688Y254839D01*
X30288Y256554D01*
X24551Y259866D01*
X19866Y264551D01*
X16554Y270288D01*
X14839Y276688D01*
X14839Y283312D01*
X16554Y289712D01*
X19866Y295449D01*
X24551Y300134D01*
X30288Y303446D01*
X36688Y305161D01*
X43312Y305161D01*
X49712Y303446D01*
X55449Y300134D01*
X60134Y295449D01*
X63446Y289712D01*
X65161Y283312D01*
X65161Y276688D01*
X63446Y270288D01*
X60134Y264551D01*
X55449Y259866D01*
X49712Y256554D01*
X43312Y254839D01*
X36688Y254839D01*
G37*
%LPD*%
%LPC*%
G36*
X456688Y14839D02*
X456688Y14839D01*
X450288Y16554D01*
X444551Y19866D01*
X439866Y24551D01*
X436554Y30288D01*
X434839Y36688D01*
X434839Y43312D01*
X436554Y49712D01*
X439866Y55449D01*
X444551Y60134D01*
X450288Y63446D01*
X456688Y65161D01*
X463312Y65161D01*
X469712Y63446D01*
X475449Y60134D01*
X480134Y55449D01*
X483446Y49712D01*
X485161Y43312D01*
X485161Y36688D01*
X483446Y30288D01*
X480134Y24551D01*
X475449Y19866D01*
X469712Y16554D01*
X463312Y14839D01*
X456688Y14839D01*
G37*
%LPD*%
%LPC*%
G36*
X36688Y14839D02*
X36688Y14839D01*
X30288Y16554D01*
X24551Y19866D01*
X19866Y24551D01*
X16554Y30288D01*
X14839Y36688D01*
X14839Y43312D01*
X16554Y49712D01*
X19866Y55449D01*
X24551Y60134D01*
X30288Y63446D01*
X36688Y65161D01*
X43312Y65161D01*
X49712Y63446D01*
X55449Y60134D01*
X60134Y55449D01*
X63446Y49712D01*
X65161Y43312D01*
X65161Y36688D01*
X63446Y30288D01*
X60134Y24551D01*
X55449Y19866D01*
X49712Y16554D01*
X43312Y14839D01*
X36688Y14839D01*
G37*
%LPD*%
%LPC*%
G36*
X238939Y276884D02*
X238939Y276884D01*
X238936Y276910D01*
X238938Y276936D01*
X238916Y277083D01*
X238899Y277230D01*
X238891Y277255D01*
X238887Y277281D01*
X238832Y277418D01*
X238782Y277558D01*
X238768Y277580D01*
X238758Y277605D01*
X238673Y277726D01*
X238593Y277851D01*
X238574Y277869D01*
X238559Y277891D01*
X238543Y277905D01*
X238625Y277990D01*
X238639Y278013D01*
X238656Y278032D01*
X238728Y278162D01*
X238804Y278289D01*
X238812Y278314D01*
X238825Y278337D01*
X238865Y278480D01*
X238910Y278621D01*
X238912Y278647D01*
X238920Y278672D01*
X238939Y278916D01*
X238939Y289585D01*
X239196Y289545D01*
X240983Y288964D01*
X242657Y288111D01*
X244178Y287006D01*
X245506Y285678D01*
X246611Y284157D01*
X247464Y282483D01*
X248045Y280696D01*
X248055Y280633D01*
X248083Y280531D01*
X248102Y280428D01*
X248130Y280364D01*
X248148Y280297D01*
X248199Y280205D01*
X248241Y280108D01*
X248282Y280052D01*
X248316Y279991D01*
X248386Y279913D01*
X248449Y279829D01*
X248502Y279784D01*
X248548Y279732D01*
X248634Y279671D01*
X248715Y279603D01*
X248777Y279572D01*
X248834Y279532D01*
X248931Y279493D01*
X249025Y279445D01*
X249092Y279428D01*
X249157Y279402D01*
X249261Y279386D01*
X249363Y279360D01*
X249433Y279359D01*
X249501Y279349D01*
X249606Y279357D01*
X249712Y279355D01*
X249780Y279370D01*
X249849Y279376D01*
X249949Y279407D01*
X250052Y279430D01*
X250115Y279460D01*
X250181Y279481D01*
X250272Y279534D01*
X250367Y279579D01*
X250421Y279623D01*
X250481Y279658D01*
X250557Y279731D01*
X250639Y279797D01*
X250682Y279851D01*
X250733Y279900D01*
X250790Y279988D01*
X250855Y280070D01*
X250897Y280153D01*
X250923Y280192D01*
X250936Y280228D01*
X250967Y280288D01*
X252540Y284087D01*
X255613Y287160D01*
X259627Y288823D01*
X263973Y288823D01*
X267987Y287160D01*
X271060Y284087D01*
X272723Y280073D01*
X272723Y275727D01*
X271060Y271713D01*
X267987Y268640D01*
X263973Y266977D01*
X259627Y266977D01*
X255613Y268640D01*
X252540Y271713D01*
X250967Y275512D01*
X250915Y275604D01*
X250873Y275700D01*
X250831Y275756D01*
X250797Y275816D01*
X250726Y275894D01*
X250663Y275978D01*
X250610Y276023D01*
X250563Y276075D01*
X250476Y276135D01*
X250396Y276202D01*
X250334Y276233D01*
X250276Y276273D01*
X250178Y276311D01*
X250085Y276359D01*
X250017Y276375D01*
X249952Y276401D01*
X249848Y276416D01*
X249746Y276441D01*
X249676Y276441D01*
X249607Y276451D01*
X249502Y276443D01*
X249397Y276444D01*
X249329Y276428D01*
X249260Y276423D01*
X249160Y276390D01*
X249057Y276367D01*
X248995Y276337D01*
X248928Y276315D01*
X248838Y276261D01*
X248744Y276215D01*
X248689Y276172D01*
X248630Y276136D01*
X248554Y276062D01*
X248473Y275996D01*
X248430Y275942D01*
X248380Y275893D01*
X248323Y275804D01*
X248258Y275721D01*
X248229Y275658D01*
X248192Y275600D01*
X248156Y275501D01*
X248112Y275405D01*
X248090Y275315D01*
X248075Y275271D01*
X248071Y275233D01*
X248055Y275167D01*
X248045Y275104D01*
X247464Y273317D01*
X246611Y271643D01*
X245506Y270122D01*
X244178Y268794D01*
X242657Y267689D01*
X240983Y266836D01*
X239196Y266255D01*
X238939Y266215D01*
X238939Y276884D01*
G37*
%LPD*%
%LPC*%
G36*
X365939Y276884D02*
X365939Y276884D01*
X365936Y276910D01*
X365938Y276936D01*
X365916Y277083D01*
X365899Y277230D01*
X365891Y277255D01*
X365887Y277281D01*
X365832Y277418D01*
X365782Y277558D01*
X365768Y277580D01*
X365758Y277605D01*
X365673Y277726D01*
X365593Y277851D01*
X365574Y277869D01*
X365559Y277891D01*
X365543Y277905D01*
X365625Y277990D01*
X365639Y278013D01*
X365656Y278032D01*
X365728Y278162D01*
X365804Y278289D01*
X365812Y278314D01*
X365825Y278337D01*
X365865Y278480D01*
X365910Y278621D01*
X365912Y278647D01*
X365920Y278672D01*
X365939Y278916D01*
X365939Y289585D01*
X366196Y289545D01*
X367983Y288964D01*
X369657Y288111D01*
X371178Y287006D01*
X372506Y285678D01*
X373611Y284157D01*
X374464Y282483D01*
X375045Y280696D01*
X375055Y280633D01*
X375083Y280531D01*
X375102Y280428D01*
X375130Y280364D01*
X375148Y280297D01*
X375199Y280205D01*
X375241Y280108D01*
X375282Y280052D01*
X375316Y279991D01*
X375386Y279913D01*
X375449Y279829D01*
X375502Y279784D01*
X375548Y279732D01*
X375634Y279671D01*
X375715Y279603D01*
X375777Y279572D01*
X375834Y279532D01*
X375931Y279493D01*
X376025Y279445D01*
X376092Y279428D01*
X376157Y279402D01*
X376261Y279386D01*
X376363Y279360D01*
X376433Y279359D01*
X376501Y279349D01*
X376606Y279357D01*
X376712Y279355D01*
X376780Y279370D01*
X376849Y279376D01*
X376949Y279407D01*
X377052Y279430D01*
X377115Y279460D01*
X377181Y279481D01*
X377272Y279534D01*
X377367Y279579D01*
X377421Y279623D01*
X377481Y279658D01*
X377557Y279731D01*
X377639Y279797D01*
X377682Y279851D01*
X377733Y279900D01*
X377790Y279988D01*
X377855Y280070D01*
X377897Y280153D01*
X377923Y280192D01*
X377936Y280228D01*
X377967Y280288D01*
X379540Y284087D01*
X382613Y287160D01*
X386627Y288823D01*
X390973Y288823D01*
X394987Y287160D01*
X398060Y284087D01*
X399723Y280073D01*
X399723Y275727D01*
X398060Y271713D01*
X394987Y268640D01*
X390973Y266977D01*
X386627Y266977D01*
X382613Y268640D01*
X379540Y271713D01*
X377967Y275512D01*
X377915Y275604D01*
X377873Y275700D01*
X377831Y275756D01*
X377797Y275816D01*
X377726Y275894D01*
X377663Y275978D01*
X377610Y276023D01*
X377563Y276075D01*
X377476Y276135D01*
X377396Y276202D01*
X377334Y276233D01*
X377276Y276273D01*
X377178Y276311D01*
X377085Y276359D01*
X377017Y276375D01*
X376952Y276401D01*
X376848Y276416D01*
X376746Y276441D01*
X376676Y276441D01*
X376607Y276451D01*
X376502Y276443D01*
X376397Y276444D01*
X376329Y276428D01*
X376260Y276423D01*
X376160Y276390D01*
X376057Y276367D01*
X375995Y276337D01*
X375928Y276315D01*
X375838Y276261D01*
X375744Y276215D01*
X375689Y276172D01*
X375630Y276136D01*
X375554Y276062D01*
X375473Y275996D01*
X375430Y275942D01*
X375380Y275893D01*
X375323Y275804D01*
X375258Y275721D01*
X375229Y275658D01*
X375192Y275600D01*
X375156Y275501D01*
X375112Y275405D01*
X375090Y275315D01*
X375075Y275271D01*
X375071Y275233D01*
X375055Y275167D01*
X375045Y275104D01*
X374464Y273317D01*
X373611Y271643D01*
X372506Y270122D01*
X371178Y268794D01*
X369657Y267689D01*
X367983Y266836D01*
X366196Y266255D01*
X365939Y266215D01*
X365939Y276884D01*
G37*
%LPD*%
%LPC*%
G36*
X360604Y266255D02*
X360604Y266255D01*
X358817Y266836D01*
X357143Y267689D01*
X355622Y268794D01*
X354294Y270122D01*
X353189Y271643D01*
X352336Y273317D01*
X351755Y275104D01*
X351745Y275167D01*
X351717Y275269D01*
X351698Y275372D01*
X351670Y275436D01*
X351652Y275503D01*
X351601Y275595D01*
X351559Y275692D01*
X351518Y275748D01*
X351484Y275809D01*
X351414Y275887D01*
X351351Y275971D01*
X351298Y276016D01*
X351252Y276068D01*
X351166Y276129D01*
X351085Y276197D01*
X351023Y276228D01*
X350966Y276268D01*
X350869Y276307D01*
X350775Y276355D01*
X350708Y276372D01*
X350643Y276398D01*
X350539Y276414D01*
X350437Y276440D01*
X350367Y276441D01*
X350299Y276451D01*
X350194Y276443D01*
X350088Y276445D01*
X350020Y276430D01*
X349951Y276424D01*
X349851Y276393D01*
X349748Y276370D01*
X349685Y276340D01*
X349619Y276319D01*
X349528Y276266D01*
X349433Y276221D01*
X349379Y276177D01*
X349319Y276142D01*
X349243Y276069D01*
X349161Y276003D01*
X349118Y275949D01*
X349067Y275900D01*
X349010Y275812D01*
X348945Y275730D01*
X348903Y275647D01*
X348877Y275608D01*
X348864Y275572D01*
X348833Y275512D01*
X347260Y271713D01*
X344187Y268640D01*
X340173Y266977D01*
X335827Y266977D01*
X331813Y268640D01*
X328740Y271713D01*
X327077Y275727D01*
X327077Y280073D01*
X328740Y284087D01*
X331813Y287160D01*
X335827Y288823D01*
X340173Y288823D01*
X344187Y287160D01*
X347260Y284087D01*
X348833Y280288D01*
X348885Y280196D01*
X348927Y280100D01*
X348969Y280044D01*
X349003Y279984D01*
X349074Y279906D01*
X349137Y279822D01*
X349190Y279777D01*
X349237Y279725D01*
X349324Y279665D01*
X349404Y279598D01*
X349466Y279567D01*
X349524Y279527D01*
X349622Y279489D01*
X349715Y279441D01*
X349783Y279425D01*
X349848Y279399D01*
X349952Y279384D01*
X350054Y279359D01*
X350124Y279359D01*
X350193Y279349D01*
X350298Y279357D01*
X350403Y279356D01*
X350471Y279372D01*
X350540Y279377D01*
X350640Y279410D01*
X350743Y279433D01*
X350805Y279463D01*
X350872Y279485D01*
X350962Y279539D01*
X351056Y279585D01*
X351111Y279628D01*
X351170Y279664D01*
X351246Y279738D01*
X351327Y279804D01*
X351370Y279858D01*
X351420Y279907D01*
X351477Y279996D01*
X351542Y280079D01*
X351571Y280142D01*
X351608Y280200D01*
X351644Y280299D01*
X351688Y280395D01*
X351710Y280485D01*
X351725Y280529D01*
X351729Y280567D01*
X351745Y280633D01*
X351755Y280696D01*
X352336Y282483D01*
X353189Y284157D01*
X354294Y285678D01*
X355622Y287006D01*
X357143Y288111D01*
X358817Y288964D01*
X360604Y289545D01*
X360861Y289585D01*
X360861Y278916D01*
X360864Y278890D01*
X360862Y278864D01*
X360884Y278717D01*
X360901Y278570D01*
X360909Y278545D01*
X360913Y278519D01*
X360968Y278382D01*
X361018Y278242D01*
X361032Y278220D01*
X361042Y278195D01*
X361127Y278074D01*
X361207Y277949D01*
X361226Y277931D01*
X361241Y277909D01*
X361257Y277895D01*
X361175Y277810D01*
X361161Y277787D01*
X361144Y277768D01*
X361072Y277638D01*
X360996Y277511D01*
X360988Y277486D01*
X360975Y277463D01*
X360935Y277320D01*
X360890Y277179D01*
X360887Y277153D01*
X360880Y277128D01*
X360861Y276884D01*
X360861Y266215D01*
X360604Y266255D01*
G37*
%LPD*%
%LPC*%
G36*
X411204Y31355D02*
X411204Y31355D01*
X409417Y31936D01*
X407743Y32789D01*
X406222Y33894D01*
X404894Y35222D01*
X403789Y36743D01*
X402936Y38417D01*
X402355Y40204D01*
X402345Y40267D01*
X402317Y40369D01*
X402298Y40472D01*
X402270Y40536D01*
X402252Y40603D01*
X402201Y40695D01*
X402159Y40792D01*
X402118Y40848D01*
X402084Y40909D01*
X402014Y40987D01*
X401951Y41071D01*
X401898Y41116D01*
X401852Y41168D01*
X401766Y41229D01*
X401685Y41297D01*
X401623Y41328D01*
X401566Y41368D01*
X401469Y41407D01*
X401375Y41455D01*
X401308Y41472D01*
X401243Y41498D01*
X401139Y41514D01*
X401037Y41540D01*
X400967Y41541D01*
X400899Y41551D01*
X400794Y41543D01*
X400688Y41545D01*
X400620Y41530D01*
X400551Y41524D01*
X400451Y41493D01*
X400348Y41470D01*
X400285Y41440D01*
X400219Y41419D01*
X400128Y41366D01*
X400033Y41321D01*
X399979Y41277D01*
X399919Y41242D01*
X399843Y41169D01*
X399761Y41103D01*
X399718Y41049D01*
X399667Y41000D01*
X399610Y40912D01*
X399545Y40830D01*
X399503Y40747D01*
X399477Y40708D01*
X399464Y40672D01*
X399433Y40612D01*
X397860Y36813D01*
X394787Y33740D01*
X390773Y32077D01*
X386427Y32077D01*
X382413Y33740D01*
X379340Y36813D01*
X377677Y40827D01*
X377677Y45173D01*
X379340Y49187D01*
X382413Y52260D01*
X386427Y53923D01*
X390773Y53923D01*
X394787Y52260D01*
X397860Y49187D01*
X399433Y45388D01*
X399485Y45296D01*
X399527Y45200D01*
X399569Y45144D01*
X399603Y45084D01*
X399674Y45006D01*
X399737Y44922D01*
X399790Y44877D01*
X399837Y44825D01*
X399924Y44765D01*
X400004Y44698D01*
X400066Y44667D01*
X400124Y44627D01*
X400222Y44589D01*
X400315Y44541D01*
X400383Y44525D01*
X400448Y44499D01*
X400552Y44484D01*
X400654Y44459D01*
X400724Y44459D01*
X400793Y44449D01*
X400898Y44457D01*
X401003Y44456D01*
X401071Y44472D01*
X401140Y44477D01*
X401240Y44510D01*
X401343Y44533D01*
X401405Y44563D01*
X401472Y44585D01*
X401562Y44639D01*
X401656Y44685D01*
X401711Y44728D01*
X401770Y44764D01*
X401846Y44838D01*
X401927Y44904D01*
X401970Y44958D01*
X402020Y45007D01*
X402077Y45096D01*
X402142Y45179D01*
X402171Y45242D01*
X402208Y45300D01*
X402244Y45399D01*
X402288Y45495D01*
X402310Y45585D01*
X402325Y45629D01*
X402329Y45667D01*
X402345Y45733D01*
X402355Y45796D01*
X402936Y47583D01*
X403789Y49257D01*
X404894Y50778D01*
X406222Y52106D01*
X407743Y53211D01*
X409417Y54064D01*
X411204Y54645D01*
X411461Y54685D01*
X411461Y44016D01*
X411464Y43990D01*
X411462Y43964D01*
X411484Y43817D01*
X411501Y43670D01*
X411509Y43645D01*
X411513Y43619D01*
X411568Y43482D01*
X411618Y43342D01*
X411632Y43320D01*
X411642Y43295D01*
X411727Y43174D01*
X411807Y43049D01*
X411826Y43031D01*
X411841Y43009D01*
X411857Y42995D01*
X411775Y42910D01*
X411761Y42887D01*
X411744Y42868D01*
X411672Y42738D01*
X411596Y42611D01*
X411588Y42586D01*
X411575Y42563D01*
X411535Y42420D01*
X411490Y42279D01*
X411487Y42253D01*
X411480Y42228D01*
X411461Y41984D01*
X411461Y31315D01*
X411204Y31355D01*
G37*
%LPD*%
%LPC*%
G36*
X412027Y266977D02*
X412027Y266977D01*
X408013Y268640D01*
X404940Y271713D01*
X403277Y275727D01*
X403277Y280073D01*
X404940Y284087D01*
X408013Y287160D01*
X412027Y288823D01*
X416373Y288823D01*
X420387Y287160D01*
X423460Y284087D01*
X425123Y280073D01*
X425123Y275727D01*
X423460Y271713D01*
X420387Y268640D01*
X416373Y266977D01*
X412027Y266977D01*
G37*
%LPD*%
%LPC*%
G36*
X310427Y266977D02*
X310427Y266977D01*
X306413Y268640D01*
X303340Y271713D01*
X301677Y275727D01*
X301677Y280073D01*
X303340Y284087D01*
X306413Y287160D01*
X310427Y288823D01*
X314773Y288823D01*
X318787Y287160D01*
X321860Y284087D01*
X323523Y280073D01*
X323523Y275727D01*
X321860Y271713D01*
X318787Y268640D01*
X314773Y266977D01*
X310427Y266977D01*
G37*
%LPD*%
%LPC*%
G36*
X285027Y266977D02*
X285027Y266977D01*
X281013Y268640D01*
X277940Y271713D01*
X276277Y275727D01*
X276277Y280073D01*
X277940Y284087D01*
X281013Y287160D01*
X285027Y288823D01*
X289373Y288823D01*
X293387Y287160D01*
X296460Y284087D01*
X298123Y280073D01*
X298123Y275727D01*
X296460Y271713D01*
X293387Y268640D01*
X289373Y266977D01*
X285027Y266977D01*
G37*
%LPD*%
%LPC*%
G36*
X361027Y32077D02*
X361027Y32077D01*
X357013Y33740D01*
X353940Y36813D01*
X352277Y40827D01*
X352277Y45173D01*
X353940Y49187D01*
X357013Y52260D01*
X361027Y53923D01*
X365373Y53923D01*
X369387Y52260D01*
X372460Y49187D01*
X374123Y45173D01*
X374123Y40827D01*
X372460Y36813D01*
X369387Y33740D01*
X365373Y32077D01*
X361027Y32077D01*
G37*
%LPD*%
%LPC*%
G36*
X335627Y32077D02*
X335627Y32077D01*
X331613Y33740D01*
X328540Y36813D01*
X326877Y40827D01*
X326877Y45173D01*
X328540Y49187D01*
X331613Y52260D01*
X335627Y53923D01*
X339973Y53923D01*
X343987Y52260D01*
X347060Y49187D01*
X348723Y45173D01*
X348723Y40827D01*
X347060Y36813D01*
X343987Y33740D01*
X339973Y32077D01*
X335627Y32077D01*
G37*
%LPD*%
%LPC*%
G36*
X310227Y32077D02*
X310227Y32077D01*
X306213Y33740D01*
X303140Y36813D01*
X301477Y40827D01*
X301477Y45173D01*
X303140Y49187D01*
X306213Y52260D01*
X310227Y53923D01*
X314573Y53923D01*
X318587Y52260D01*
X321660Y49187D01*
X323323Y45173D01*
X323323Y40827D01*
X321660Y36813D01*
X318587Y33740D01*
X314573Y32077D01*
X310227Y32077D01*
G37*
%LPD*%
%LPC*%
G36*
X284827Y32077D02*
X284827Y32077D01*
X280813Y33740D01*
X277740Y36813D01*
X276077Y40827D01*
X276077Y45173D01*
X277740Y49187D01*
X280813Y52260D01*
X284827Y53923D01*
X289173Y53923D01*
X293187Y52260D01*
X296260Y49187D01*
X297923Y45173D01*
X297923Y40827D01*
X296260Y36813D01*
X293187Y33740D01*
X289173Y32077D01*
X284827Y32077D01*
G37*
%LPD*%
%LPC*%
G36*
X259427Y32077D02*
X259427Y32077D01*
X255413Y33740D01*
X252340Y36813D01*
X250677Y40827D01*
X250677Y45173D01*
X252340Y49187D01*
X255413Y52260D01*
X259427Y53923D01*
X263773Y53923D01*
X267787Y52260D01*
X270860Y49187D01*
X272523Y45173D01*
X272523Y40827D01*
X270860Y36813D01*
X267787Y33740D01*
X263773Y32077D01*
X259427Y32077D01*
G37*
%LPD*%
%LPC*%
G36*
X234027Y32077D02*
X234027Y32077D01*
X230013Y33740D01*
X226940Y36813D01*
X225277Y40827D01*
X225277Y45173D01*
X226940Y49187D01*
X230013Y52260D01*
X234027Y53923D01*
X238373Y53923D01*
X242387Y52260D01*
X245460Y49187D01*
X247123Y45173D01*
X247123Y40827D01*
X245460Y36813D01*
X242387Y33740D01*
X238373Y32077D01*
X234027Y32077D01*
G37*
%LPD*%
%LPC*%
G36*
X113856Y133225D02*
X113856Y133225D01*
X110263Y134713D01*
X107513Y137463D01*
X106025Y141056D01*
X106025Y144944D01*
X107513Y148537D01*
X110263Y151287D01*
X113856Y152775D01*
X117744Y152775D01*
X121337Y151287D01*
X124087Y148537D01*
X125575Y144944D01*
X125575Y141056D01*
X124087Y137463D01*
X121337Y134713D01*
X117744Y133225D01*
X113856Y133225D01*
G37*
%LPD*%
%LPC*%
G36*
X113856Y184025D02*
X113856Y184025D01*
X110263Y185513D01*
X107513Y188263D01*
X106025Y191856D01*
X106025Y195744D01*
X107513Y199337D01*
X110263Y202087D01*
X113856Y203575D01*
X117744Y203575D01*
X121337Y202087D01*
X124087Y199337D01*
X125575Y195744D01*
X125575Y191856D01*
X124087Y188263D01*
X121337Y185513D01*
X117744Y184025D01*
X113856Y184025D01*
G37*
%LPD*%
%LPC*%
G36*
X63056Y184025D02*
X63056Y184025D01*
X59463Y185513D01*
X56713Y188263D01*
X55225Y191856D01*
X55225Y195744D01*
X56713Y199337D01*
X59463Y202087D01*
X63056Y203575D01*
X66944Y203575D01*
X70537Y202087D01*
X73287Y199337D01*
X74775Y195744D01*
X74775Y191856D01*
X73287Y188263D01*
X70537Y185513D01*
X66944Y184025D01*
X63056Y184025D01*
G37*
%LPD*%
%LPC*%
G36*
X63056Y82425D02*
X63056Y82425D01*
X59463Y83913D01*
X56713Y86663D01*
X55225Y90256D01*
X55225Y94144D01*
X56713Y97737D01*
X59463Y100487D01*
X63056Y101975D01*
X66944Y101975D01*
X70537Y100487D01*
X73287Y97737D01*
X74775Y94144D01*
X74775Y90256D01*
X73287Y86663D01*
X70537Y83913D01*
X66944Y82425D01*
X63056Y82425D01*
G37*
%LPD*%
%LPC*%
G36*
X113856Y82425D02*
X113856Y82425D01*
X110263Y83913D01*
X107513Y86663D01*
X106025Y90256D01*
X106025Y94144D01*
X107513Y97737D01*
X110263Y100487D01*
X113856Y101975D01*
X117744Y101975D01*
X121337Y100487D01*
X124087Y97737D01*
X125575Y94144D01*
X125575Y90256D01*
X124087Y86663D01*
X121337Y83913D01*
X117744Y82425D01*
X113856Y82425D01*
G37*
%LPD*%
%LPC*%
G36*
X63056Y107825D02*
X63056Y107825D01*
X59463Y109313D01*
X56713Y112063D01*
X55225Y115656D01*
X55225Y119544D01*
X56713Y123137D01*
X59463Y125887D01*
X63056Y127375D01*
X66944Y127375D01*
X70537Y125887D01*
X73287Y123137D01*
X74775Y119544D01*
X74775Y115656D01*
X73287Y112063D01*
X70537Y109313D01*
X66944Y107825D01*
X63056Y107825D01*
G37*
%LPD*%
%LPC*%
G36*
X113856Y107825D02*
X113856Y107825D01*
X110263Y109313D01*
X107513Y112063D01*
X106025Y115656D01*
X106025Y119544D01*
X107513Y123137D01*
X110263Y125887D01*
X113856Y127375D01*
X117744Y127375D01*
X121337Y125887D01*
X124087Y123137D01*
X125575Y119544D01*
X125575Y115656D01*
X124087Y112063D01*
X121337Y109313D01*
X117744Y107825D01*
X113856Y107825D01*
G37*
%LPD*%
%LPC*%
G36*
X63056Y133225D02*
X63056Y133225D01*
X59463Y134713D01*
X56713Y137463D01*
X55225Y141056D01*
X55225Y144944D01*
X56713Y148537D01*
X59463Y151287D01*
X63056Y152775D01*
X66944Y152775D01*
X70537Y151287D01*
X73287Y148537D01*
X74775Y144944D01*
X74775Y141056D01*
X73287Y137463D01*
X70537Y134713D01*
X66944Y133225D01*
X63056Y133225D01*
G37*
%LPD*%
%LPC*%
G36*
X416539Y45539D02*
X416539Y45539D01*
X416539Y54685D01*
X416796Y54645D01*
X418583Y54064D01*
X420257Y53211D01*
X421778Y52106D01*
X423106Y50778D01*
X424211Y49257D01*
X425064Y47583D01*
X425645Y45796D01*
X425685Y45539D01*
X416539Y45539D01*
G37*
%LPD*%
%LPC*%
G36*
X416539Y40461D02*
X416539Y40461D01*
X425685Y40461D01*
X425645Y40204D01*
X425064Y38417D01*
X424211Y36743D01*
X423106Y35222D01*
X421778Y33894D01*
X420257Y32789D01*
X418583Y31936D01*
X416796Y31355D01*
X416539Y31315D01*
X416539Y40461D01*
G37*
%LPD*%
%LPC*%
G36*
X224715Y280439D02*
X224715Y280439D01*
X224755Y280696D01*
X225336Y282483D01*
X226189Y284157D01*
X227294Y285678D01*
X228622Y287006D01*
X230143Y288111D01*
X231817Y288964D01*
X233604Y289545D01*
X233861Y289585D01*
X233861Y280439D01*
X224715Y280439D01*
G37*
%LPD*%
%LPC*%
G36*
X233604Y266255D02*
X233604Y266255D01*
X231817Y266836D01*
X230143Y267689D01*
X228622Y268794D01*
X227294Y270122D01*
X226189Y271643D01*
X225336Y273317D01*
X224755Y275104D01*
X224715Y275361D01*
X233861Y275361D01*
X233861Y266215D01*
X233604Y266255D01*
G37*
%LPD*%
%LPC*%
G36*
X67749Y171149D02*
X67749Y171149D01*
X67749Y178853D01*
X69142Y178400D01*
X70656Y177629D01*
X72030Y176631D01*
X73231Y175430D01*
X74229Y174056D01*
X75000Y172542D01*
X75453Y171149D01*
X67749Y171149D01*
G37*
%LPD*%
%LPC*%
G36*
X118549Y171149D02*
X118549Y171149D01*
X118549Y178853D01*
X119942Y178400D01*
X121456Y177629D01*
X122830Y176631D01*
X124031Y175430D01*
X125029Y174056D01*
X125800Y172542D01*
X126253Y171149D01*
X118549Y171149D01*
G37*
%LPD*%
%LPC*%
G36*
X118549Y165651D02*
X118549Y165651D01*
X126253Y165651D01*
X125800Y164258D01*
X125029Y162744D01*
X124031Y161370D01*
X122830Y160169D01*
X121456Y159171D01*
X119942Y158400D01*
X118549Y157947D01*
X118549Y165651D01*
G37*
%LPD*%
%LPC*%
G36*
X54547Y171149D02*
X54547Y171149D01*
X55000Y172542D01*
X55771Y174056D01*
X56769Y175430D01*
X57970Y176631D01*
X59344Y177629D01*
X60858Y178400D01*
X62251Y178853D01*
X62251Y171149D01*
X54547Y171149D01*
G37*
%LPD*%
%LPC*%
G36*
X105347Y171149D02*
X105347Y171149D01*
X105800Y172542D01*
X106571Y174056D01*
X107569Y175430D01*
X108770Y176631D01*
X110144Y177629D01*
X111658Y178400D01*
X113051Y178853D01*
X113051Y171149D01*
X105347Y171149D01*
G37*
%LPD*%
%LPC*%
G36*
X67749Y165651D02*
X67749Y165651D01*
X75453Y165651D01*
X75000Y164258D01*
X74229Y162744D01*
X73231Y161370D01*
X72030Y160169D01*
X70656Y159171D01*
X69142Y158400D01*
X67749Y157947D01*
X67749Y165651D01*
G37*
%LPD*%
%LPC*%
G36*
X111658Y158400D02*
X111658Y158400D01*
X110144Y159171D01*
X108770Y160169D01*
X107569Y161370D01*
X106571Y162744D01*
X105800Y164258D01*
X105347Y165651D01*
X113051Y165651D01*
X113051Y157947D01*
X111658Y158400D01*
G37*
%LPD*%
%LPC*%
G36*
X60858Y158400D02*
X60858Y158400D01*
X59344Y159171D01*
X57970Y160169D01*
X56769Y161370D01*
X55771Y162744D01*
X55000Y164258D01*
X54547Y165651D01*
X62251Y165651D01*
X62251Y157947D01*
X60858Y158400D01*
G37*
%LPD*%
D10*
X236400Y277900D03*
X261800Y277900D03*
X287200Y277900D03*
X312600Y277900D03*
X338000Y277900D03*
X363400Y277900D03*
X388800Y277900D03*
X414200Y277900D03*
X236200Y43000D03*
X261600Y43000D03*
X287000Y43000D03*
X312400Y43000D03*
X337800Y43000D03*
X363200Y43000D03*
X388600Y43000D03*
X414000Y43000D03*
D11*
X65000Y193800D03*
X115800Y193800D03*
X65000Y168400D03*
X115800Y168400D03*
X65000Y143000D03*
X115800Y143000D03*
X65000Y117600D03*
X115800Y117600D03*
X65000Y92200D03*
X115800Y92200D03*
M02*
