M48
;GenerationSoftware,Autodesk,EAGLE,9.6.2*%
;CreationDate,2021-04-07T15:03:57Z*%
FMAT,2
ICI,OFF
METRIC,TZ,000.000
T6C0.350
T5C0.813
T4C1.000
T3C1.016
T2C1.100
T1C3.000
%
G90
M71
T1
X2540Y97155
X60579Y97155
X2540Y31115
T2
X54594Y46654
X59674Y46654
X54594Y44114
X59674Y44114
X54594Y41574
X59674Y41574
X54594Y39034
X59674Y39034
X54594Y36494
X59674Y36494
T3
X1905Y35560
X1905Y40640
X1905Y43180
X1905Y45720
X1905Y48260
X1905Y50800
X1905Y53340
X1905Y55880
X1905Y58420
X35560Y60960
X35560Y58420
X35560Y55880
X35560Y53340
X35560Y50800
X1905Y38100
T4
X56278Y77231
X56278Y72151
X58818Y72151
X58818Y77231
T5
X15350Y93160
X12810Y93160
X10270Y93160
X7730Y93160
X5190Y93160
X2650Y93160
X15350Y72840
X12810Y72840
X10270Y72840
X7730Y72840
X5190Y72840
X2650Y72840
T6
X8890Y47625
X15240Y41910
X8890Y48895
X10400Y75800
X10668Y39116
X9525Y50165
X45000Y67000
X9525Y46355
X6010Y71000
X16510Y52070
X40195Y90900
X11430Y68580
X39800Y92300
X1870Y84520
X26500Y87000
X6915Y78600
X50000Y87000
X26415Y76200
X9525Y43815
X37465Y36830
X31750Y41910
X22225Y55880
X24130Y55880
X26035Y52705
X26035Y50800
X26035Y48895
X24130Y46990
X13970Y43815
X42000Y77000
X18288Y55626
X4445Y67945
X3175Y80645
X9500Y77700
X5000Y77700
X53000Y63000
X33000Y60000
X14986Y58801
X15494Y56896
X22225Y46990
M30