G04 EAGLE Gerber RS-274X export*
G75*
%MOMM*%
%FSLAX34Y34*%
%LPD*%
%INBottom Copper*%
%IPPOS*%
%AMOC8*
5,1,8,0,0,1.08239X$1,22.5*%
G01*
%ADD10C,1.879600*%
%ADD11C,1.650000*%
%ADD12C,1.508000*%
%ADD13P,0.818720X8X22.500000*%
%ADD14C,0.609600*%
%ADD15C,1.016000*%
%ADD16C,0.756400*%

G36*
X625618Y295917D02*
X625618Y295917D01*
X625694Y295915D01*
X625863Y295937D01*
X626034Y295951D01*
X626108Y295969D01*
X626183Y295979D01*
X626347Y296028D01*
X626513Y296069D01*
X626582Y296099D01*
X626656Y296121D01*
X626809Y296197D01*
X626966Y296264D01*
X627030Y296305D01*
X627099Y296338D01*
X627238Y296437D01*
X627382Y296529D01*
X627439Y296580D01*
X627501Y296624D01*
X627622Y296744D01*
X627750Y296858D01*
X627798Y296917D01*
X627852Y296971D01*
X627953Y297109D01*
X628060Y297242D01*
X628097Y297308D01*
X628142Y297369D01*
X628219Y297522D01*
X628304Y297670D01*
X628330Y297742D01*
X628365Y297810D01*
X628416Y297973D01*
X628475Y298133D01*
X628490Y298208D01*
X628513Y298280D01*
X628525Y298385D01*
X628570Y298617D01*
X628577Y298853D01*
X628589Y298958D01*
X628589Y951410D01*
X628586Y951448D01*
X628588Y951486D01*
X628566Y951694D01*
X628549Y951902D01*
X628540Y951939D01*
X628536Y951977D01*
X628481Y952178D01*
X628431Y952380D01*
X628416Y952415D01*
X628405Y952452D01*
X628318Y952642D01*
X628236Y952834D01*
X628216Y952866D01*
X628200Y952901D01*
X628083Y953074D01*
X627971Y953250D01*
X627946Y953278D01*
X627924Y953310D01*
X627781Y953462D01*
X627642Y953618D01*
X627613Y953642D01*
X627587Y953670D01*
X627421Y953797D01*
X627258Y953928D01*
X627225Y953947D01*
X627195Y953970D01*
X627011Y954069D01*
X626830Y954172D01*
X626794Y954185D01*
X626760Y954203D01*
X626563Y954271D01*
X626367Y954343D01*
X626330Y954351D01*
X626294Y954363D01*
X626087Y954398D01*
X625883Y954438D01*
X625845Y954439D01*
X625807Y954446D01*
X625598Y954447D01*
X625390Y954453D01*
X625352Y954448D01*
X625314Y954449D01*
X625107Y954416D01*
X624901Y954389D01*
X624864Y954378D01*
X624827Y954372D01*
X624628Y954307D01*
X624429Y954246D01*
X624394Y954230D01*
X624358Y954218D01*
X624173Y954121D01*
X623985Y954030D01*
X623954Y954008D01*
X623920Y953990D01*
X623848Y953932D01*
X623583Y953744D01*
X623461Y953623D01*
X623387Y953565D01*
X621239Y951416D01*
X615502Y948104D01*
X609103Y946389D01*
X602477Y946389D01*
X596078Y948104D01*
X590341Y951416D01*
X585656Y956101D01*
X582344Y961838D01*
X580629Y968237D01*
X580629Y974863D01*
X582344Y981262D01*
X584657Y985268D01*
X584714Y985389D01*
X584780Y985504D01*
X584820Y985611D01*
X584869Y985714D01*
X584905Y985842D01*
X584952Y985967D01*
X584974Y986079D01*
X585005Y986188D01*
X585021Y986321D01*
X585046Y986451D01*
X585050Y986565D01*
X585063Y986678D01*
X585058Y986811D01*
X585062Y986944D01*
X585047Y987057D01*
X585042Y987171D01*
X585015Y987301D01*
X584997Y987433D01*
X584964Y987542D01*
X584941Y987654D01*
X584893Y987778D01*
X584855Y987906D01*
X584805Y988008D01*
X584764Y988114D01*
X584696Y988229D01*
X584638Y988349D01*
X584572Y988441D01*
X584514Y988540D01*
X584429Y988643D01*
X584352Y988751D01*
X584272Y988832D01*
X584200Y988920D01*
X584099Y989007D01*
X584006Y989102D01*
X583914Y989169D01*
X583828Y989244D01*
X583714Y989314D01*
X583607Y989392D01*
X583505Y989444D01*
X583408Y989504D01*
X583285Y989555D01*
X583167Y989615D01*
X583058Y989649D01*
X582953Y989693D01*
X582823Y989723D01*
X582696Y989763D01*
X582612Y989772D01*
X582472Y989805D01*
X582083Y989832D01*
X582018Y989839D01*
X49172Y989839D01*
X49039Y989829D01*
X48906Y989828D01*
X48793Y989809D01*
X48680Y989799D01*
X48551Y989767D01*
X48420Y989745D01*
X48312Y989708D01*
X48201Y989681D01*
X48079Y989628D01*
X47953Y989585D01*
X47853Y989531D01*
X47748Y989486D01*
X47636Y989415D01*
X47518Y989352D01*
X47428Y989282D01*
X47332Y989221D01*
X47233Y989132D01*
X47127Y989051D01*
X47049Y988968D01*
X46964Y988892D01*
X46880Y988789D01*
X46789Y988692D01*
X46726Y988597D01*
X46654Y988508D01*
X46588Y988393D01*
X46514Y988282D01*
X46466Y988179D01*
X46410Y988080D01*
X46364Y987955D01*
X46308Y987834D01*
X46278Y987724D01*
X46238Y987617D01*
X46213Y987487D01*
X46178Y987358D01*
X46165Y987245D01*
X46144Y987133D01*
X46140Y987000D01*
X46125Y986868D01*
X46132Y986754D01*
X46128Y986640D01*
X46146Y986508D01*
X46153Y986375D01*
X46178Y986264D01*
X46193Y986151D01*
X46231Y986023D01*
X46260Y985893D01*
X46294Y985817D01*
X46335Y985679D01*
X46506Y985329D01*
X46533Y985268D01*
X48846Y981262D01*
X50561Y974863D01*
X50561Y968237D01*
X48846Y961838D01*
X45534Y956101D01*
X40849Y951416D01*
X35112Y948104D01*
X28713Y946389D01*
X22087Y946389D01*
X15688Y948104D01*
X14732Y948656D01*
X14611Y948713D01*
X14496Y948779D01*
X14389Y948819D01*
X14286Y948868D01*
X14158Y948904D01*
X14033Y948951D01*
X13921Y948973D01*
X13812Y949004D01*
X13680Y949020D01*
X13549Y949045D01*
X13435Y949049D01*
X13322Y949062D01*
X13189Y949057D01*
X13056Y949061D01*
X12943Y949046D01*
X12829Y949041D01*
X12699Y949014D01*
X12567Y948996D01*
X12458Y948963D01*
X12346Y948940D01*
X12222Y948892D01*
X12094Y948854D01*
X11992Y948804D01*
X11886Y948763D01*
X11771Y948695D01*
X11651Y948637D01*
X11558Y948571D01*
X11460Y948513D01*
X11358Y948429D01*
X11249Y948352D01*
X11168Y948271D01*
X11080Y948199D01*
X10993Y948098D01*
X10898Y948005D01*
X10831Y947913D01*
X10756Y947827D01*
X10686Y947714D01*
X10608Y947606D01*
X10556Y947504D01*
X10496Y947407D01*
X10445Y947284D01*
X10385Y947166D01*
X10351Y947057D01*
X10307Y946952D01*
X10277Y946822D01*
X10237Y946695D01*
X10228Y946612D01*
X10195Y946471D01*
X10168Y946082D01*
X10161Y946017D01*
X10161Y846554D01*
X10167Y846478D01*
X10165Y846402D01*
X10187Y846233D01*
X10201Y846062D01*
X10219Y845988D01*
X10229Y845913D01*
X10278Y845749D01*
X10319Y845583D01*
X10349Y845514D01*
X10371Y845440D01*
X10447Y845287D01*
X10514Y845130D01*
X10555Y845066D01*
X10588Y844997D01*
X10687Y844858D01*
X10779Y844714D01*
X10830Y844657D01*
X10874Y844595D01*
X10994Y844474D01*
X11108Y844346D01*
X11167Y844298D01*
X11221Y844244D01*
X11359Y844143D01*
X11492Y844036D01*
X11558Y843999D01*
X11619Y843954D01*
X11772Y843877D01*
X11920Y843792D01*
X11992Y843766D01*
X12060Y843731D01*
X12223Y843680D01*
X12383Y843621D01*
X12458Y843606D01*
X12530Y843583D01*
X12635Y843571D01*
X12867Y843526D01*
X13103Y843519D01*
X13208Y843507D01*
X14898Y843507D01*
X18007Y840398D01*
X18007Y835665D01*
X17972Y835563D01*
X17908Y835404D01*
X17892Y835330D01*
X17867Y835258D01*
X17839Y835089D01*
X17802Y834923D01*
X17797Y834847D01*
X17785Y834771D01*
X17784Y834600D01*
X17774Y834430D01*
X17782Y834354D01*
X17782Y834278D01*
X17808Y834109D01*
X17826Y833940D01*
X17846Y833866D01*
X17858Y833791D01*
X17912Y833628D01*
X17957Y833464D01*
X17989Y833395D01*
X18012Y833322D01*
X18091Y833171D01*
X18162Y833015D01*
X18205Y832952D01*
X18240Y832884D01*
X18306Y832802D01*
X18438Y832606D01*
X18600Y832433D01*
X18666Y832351D01*
X20052Y830965D01*
X20139Y830891D01*
X20219Y830810D01*
X20326Y830732D01*
X20428Y830646D01*
X20525Y830587D01*
X20618Y830520D01*
X20736Y830460D01*
X20850Y830391D01*
X20956Y830349D01*
X21058Y830297D01*
X21185Y830257D01*
X21308Y830208D01*
X21419Y830183D01*
X21529Y830149D01*
X21622Y830139D01*
X21790Y830101D01*
X22114Y830083D01*
X22206Y830073D01*
X301644Y830073D01*
X301757Y830082D01*
X301872Y830081D01*
X302003Y830102D01*
X302135Y830113D01*
X302246Y830140D01*
X302359Y830158D01*
X302485Y830199D01*
X302614Y830231D01*
X302719Y830276D01*
X302828Y830312D01*
X302946Y830374D01*
X303068Y830426D01*
X303164Y830487D01*
X303265Y830540D01*
X303339Y830599D01*
X303484Y830691D01*
X303726Y830907D01*
X303798Y830965D01*
X324735Y851902D01*
X324809Y851989D01*
X324890Y852069D01*
X324968Y852176D01*
X325054Y852278D01*
X325113Y852375D01*
X325180Y852468D01*
X325240Y852586D01*
X325309Y852700D01*
X325351Y852806D01*
X325403Y852908D01*
X325443Y853035D01*
X325492Y853158D01*
X325517Y853269D01*
X325551Y853379D01*
X325561Y853472D01*
X325599Y853640D01*
X325617Y853964D01*
X325627Y854056D01*
X325627Y896260D01*
X326323Y897940D01*
X355310Y926927D01*
X356990Y927623D01*
X392506Y927623D01*
X392619Y927632D01*
X392734Y927631D01*
X392865Y927652D01*
X392997Y927663D01*
X393108Y927690D01*
X393221Y927708D01*
X393347Y927749D01*
X393476Y927781D01*
X393581Y927826D01*
X393690Y927862D01*
X393808Y927924D01*
X393930Y927976D01*
X394026Y928037D01*
X394127Y928090D01*
X394201Y928149D01*
X394346Y928241D01*
X394475Y928357D01*
X398898Y928357D01*
X402007Y925248D01*
X402007Y920852D01*
X398898Y917743D01*
X394489Y917743D01*
X394386Y917818D01*
X394284Y917904D01*
X394187Y917963D01*
X394094Y918030D01*
X393976Y918090D01*
X393862Y918159D01*
X393756Y918201D01*
X393654Y918253D01*
X393527Y918293D01*
X393404Y918342D01*
X393293Y918367D01*
X393183Y918401D01*
X393090Y918411D01*
X392922Y918449D01*
X392598Y918467D01*
X392506Y918477D01*
X377334Y918477D01*
X377296Y918474D01*
X377258Y918476D01*
X377050Y918454D01*
X376843Y918437D01*
X376806Y918428D01*
X376768Y918424D01*
X376566Y918369D01*
X376364Y918319D01*
X376329Y918304D01*
X376292Y918293D01*
X376102Y918206D01*
X375910Y918124D01*
X375878Y918104D01*
X375844Y918088D01*
X375670Y917971D01*
X375494Y917859D01*
X375466Y917834D01*
X375434Y917812D01*
X375282Y917669D01*
X375126Y917530D01*
X375102Y917501D01*
X375075Y917475D01*
X374947Y917308D01*
X374816Y917146D01*
X374798Y917114D01*
X374774Y917083D01*
X374675Y916899D01*
X374572Y916718D01*
X374559Y916682D01*
X374541Y916648D01*
X374474Y916451D01*
X374401Y916255D01*
X374394Y916218D01*
X374381Y916182D01*
X374346Y915975D01*
X374306Y915771D01*
X374305Y915733D01*
X374299Y915695D01*
X374297Y915486D01*
X374291Y915278D01*
X374296Y915240D01*
X374296Y915202D01*
X374328Y914995D01*
X374355Y914789D01*
X374366Y914752D01*
X374372Y914715D01*
X374437Y914516D01*
X374498Y914317D01*
X374515Y914282D01*
X374526Y914246D01*
X374623Y914061D01*
X374715Y913873D01*
X374737Y913842D01*
X374754Y913808D01*
X374812Y913736D01*
X375000Y913471D01*
X375121Y913349D01*
X375180Y913275D01*
X377257Y911198D01*
X377257Y906789D01*
X377182Y906686D01*
X377096Y906585D01*
X377037Y906487D01*
X376970Y906394D01*
X376910Y906276D01*
X376841Y906162D01*
X376799Y906056D01*
X376747Y905954D01*
X376707Y905827D01*
X376658Y905704D01*
X376633Y905592D01*
X376599Y905483D01*
X376589Y905390D01*
X376551Y905222D01*
X376533Y904898D01*
X376523Y904806D01*
X376523Y707590D01*
X375827Y705910D01*
X351840Y681923D01*
X350160Y681227D01*
X118494Y681227D01*
X118381Y681218D01*
X118266Y681219D01*
X118135Y681198D01*
X118003Y681187D01*
X117892Y681160D01*
X117779Y681142D01*
X117653Y681101D01*
X117524Y681069D01*
X117419Y681024D01*
X117310Y680988D01*
X117192Y680926D01*
X117070Y680874D01*
X116974Y680813D01*
X116873Y680760D01*
X116799Y680701D01*
X116654Y680609D01*
X116525Y680493D01*
X112102Y680493D01*
X108993Y683602D01*
X108993Y687998D01*
X109720Y688725D01*
X109745Y688754D01*
X109774Y688780D01*
X109904Y688942D01*
X110040Y689101D01*
X110060Y689134D01*
X110084Y689164D01*
X110187Y689345D01*
X110295Y689524D01*
X110309Y689559D01*
X110328Y689592D01*
X110400Y689788D01*
X110478Y689982D01*
X110486Y690019D01*
X110499Y690055D01*
X110539Y690259D01*
X110584Y690463D01*
X110587Y690502D01*
X110594Y690539D01*
X110600Y690747D01*
X110612Y690956D01*
X110608Y690994D01*
X110609Y691032D01*
X110582Y691238D01*
X110560Y691447D01*
X110550Y691483D01*
X110545Y691521D01*
X110484Y691721D01*
X110429Y691922D01*
X110413Y691957D01*
X110402Y691994D01*
X110310Y692181D01*
X110223Y692371D01*
X110202Y692402D01*
X110185Y692437D01*
X110065Y692607D01*
X109948Y692780D01*
X109922Y692808D01*
X109900Y692839D01*
X109753Y692987D01*
X109610Y693140D01*
X109580Y693163D01*
X109553Y693190D01*
X109385Y693313D01*
X109219Y693440D01*
X109185Y693458D01*
X109154Y693480D01*
X108968Y693574D01*
X108784Y693673D01*
X108748Y693685D01*
X108714Y693703D01*
X108514Y693766D01*
X108317Y693833D01*
X108280Y693839D01*
X108243Y693851D01*
X108151Y693861D01*
X107831Y693916D01*
X107659Y693917D01*
X107566Y693927D01*
X66656Y693927D01*
X66543Y693918D01*
X66428Y693919D01*
X66297Y693898D01*
X66165Y693887D01*
X66054Y693860D01*
X65941Y693842D01*
X65815Y693801D01*
X65686Y693769D01*
X65581Y693724D01*
X65472Y693688D01*
X65354Y693626D01*
X65232Y693574D01*
X65136Y693513D01*
X65035Y693460D01*
X64961Y693401D01*
X64816Y693309D01*
X64574Y693093D01*
X64502Y693035D01*
X50649Y679182D01*
X50575Y679095D01*
X50494Y679015D01*
X50416Y678908D01*
X50330Y678806D01*
X50271Y678709D01*
X50204Y678616D01*
X50144Y678498D01*
X50075Y678384D01*
X50033Y678278D01*
X49981Y678176D01*
X49941Y678049D01*
X49892Y677926D01*
X49867Y677815D01*
X49833Y677705D01*
X49823Y677612D01*
X49785Y677444D01*
X49776Y677271D01*
X46648Y674143D01*
X42252Y674143D01*
X42033Y674362D01*
X42004Y674387D01*
X41978Y674416D01*
X41816Y674547D01*
X41657Y674682D01*
X41624Y674702D01*
X41594Y674726D01*
X41413Y674829D01*
X41234Y674937D01*
X41199Y674951D01*
X41166Y674970D01*
X40970Y675042D01*
X40776Y675120D01*
X40739Y675128D01*
X40703Y675141D01*
X40499Y675181D01*
X40295Y675226D01*
X40256Y675229D01*
X40219Y675236D01*
X40011Y675242D01*
X39802Y675254D01*
X39764Y675250D01*
X39726Y675251D01*
X39520Y675224D01*
X39311Y675202D01*
X39275Y675192D01*
X39237Y675187D01*
X39037Y675126D01*
X38836Y675071D01*
X38801Y675055D01*
X38764Y675044D01*
X38577Y674952D01*
X38387Y674865D01*
X38356Y674844D01*
X38321Y674827D01*
X38151Y674707D01*
X37978Y674590D01*
X37950Y674564D01*
X37919Y674542D01*
X37771Y674395D01*
X37618Y674252D01*
X37595Y674222D01*
X37568Y674195D01*
X37445Y674027D01*
X37318Y673861D01*
X37300Y673827D01*
X37278Y673796D01*
X37184Y673610D01*
X37085Y673426D01*
X37073Y673390D01*
X37055Y673356D01*
X36992Y673156D01*
X36925Y672959D01*
X36919Y672922D01*
X36907Y672885D01*
X36897Y672793D01*
X36842Y672473D01*
X36841Y672301D01*
X36831Y672208D01*
X36831Y638156D01*
X36840Y638043D01*
X36839Y637928D01*
X36860Y637797D01*
X36871Y637665D01*
X36898Y637554D01*
X36916Y637441D01*
X36957Y637315D01*
X36989Y637186D01*
X37034Y637081D01*
X37070Y636972D01*
X37132Y636854D01*
X37184Y636732D01*
X37245Y636636D01*
X37298Y636535D01*
X37357Y636461D01*
X37449Y636316D01*
X37665Y636074D01*
X37723Y636002D01*
X39610Y634115D01*
X39697Y634041D01*
X39777Y633960D01*
X39884Y633882D01*
X39985Y633796D01*
X40083Y633737D01*
X40176Y633670D01*
X40294Y633610D01*
X40408Y633541D01*
X40514Y633499D01*
X40616Y633447D01*
X40743Y633407D01*
X40866Y633358D01*
X40977Y633333D01*
X41087Y633299D01*
X41180Y633289D01*
X41348Y633251D01*
X41672Y633233D01*
X41764Y633223D01*
X187960Y633223D01*
X188036Y633229D01*
X188112Y633227D01*
X188281Y633249D01*
X188452Y633263D01*
X188526Y633281D01*
X188601Y633291D01*
X188765Y633340D01*
X188931Y633381D01*
X189000Y633411D01*
X189074Y633433D01*
X189227Y633509D01*
X189384Y633576D01*
X189448Y633617D01*
X189517Y633650D01*
X189656Y633749D01*
X189800Y633841D01*
X189857Y633892D01*
X189919Y633936D01*
X190040Y634056D01*
X190168Y634170D01*
X190216Y634229D01*
X190270Y634283D01*
X190371Y634421D01*
X190478Y634554D01*
X190515Y634620D01*
X190560Y634681D01*
X190637Y634834D01*
X190722Y634982D01*
X190748Y635054D01*
X190783Y635122D01*
X190834Y635285D01*
X190893Y635445D01*
X190908Y635520D01*
X190931Y635592D01*
X190943Y635697D01*
X190988Y635929D01*
X190995Y636165D01*
X191007Y636270D01*
X191007Y661310D01*
X191703Y662990D01*
X202590Y673877D01*
X204270Y674573D01*
X445806Y674573D01*
X445919Y674582D01*
X446034Y674581D01*
X446165Y674602D01*
X446297Y674613D01*
X446408Y674640D01*
X446521Y674658D01*
X446647Y674699D01*
X446776Y674731D01*
X446881Y674776D01*
X446990Y674812D01*
X447108Y674874D01*
X447230Y674926D01*
X447326Y674987D01*
X447427Y675040D01*
X447501Y675099D01*
X447646Y675191D01*
X447775Y675307D01*
X452198Y675307D01*
X455307Y672198D01*
X455307Y667802D01*
X452198Y664693D01*
X447789Y664693D01*
X447686Y664768D01*
X447584Y664854D01*
X447487Y664913D01*
X447394Y664980D01*
X447276Y665040D01*
X447162Y665109D01*
X447056Y665151D01*
X446954Y665203D01*
X446827Y665243D01*
X446704Y665292D01*
X446593Y665317D01*
X446483Y665351D01*
X446390Y665361D01*
X446222Y665399D01*
X445898Y665417D01*
X445806Y665427D01*
X208336Y665427D01*
X208223Y665418D01*
X208108Y665419D01*
X207977Y665398D01*
X207845Y665387D01*
X207734Y665360D01*
X207621Y665342D01*
X207495Y665301D01*
X207366Y665269D01*
X207261Y665224D01*
X207152Y665188D01*
X207034Y665126D01*
X206912Y665074D01*
X206816Y665013D01*
X206715Y664960D01*
X206641Y664901D01*
X206496Y664809D01*
X206254Y664593D01*
X206182Y664535D01*
X201045Y659398D01*
X200971Y659311D01*
X200890Y659231D01*
X200812Y659124D01*
X200726Y659022D01*
X200667Y658925D01*
X200600Y658832D01*
X200540Y658714D01*
X200471Y658600D01*
X200429Y658494D01*
X200377Y658392D01*
X200337Y658265D01*
X200288Y658142D01*
X200263Y658031D01*
X200229Y657921D01*
X200219Y657828D01*
X200181Y657660D01*
X200163Y657336D01*
X200153Y657244D01*
X200153Y633076D01*
X200162Y632963D01*
X200161Y632848D01*
X200182Y632717D01*
X200193Y632585D01*
X200220Y632474D01*
X200238Y632361D01*
X200279Y632235D01*
X200311Y632106D01*
X200356Y632001D01*
X200392Y631892D01*
X200454Y631774D01*
X200506Y631652D01*
X200567Y631556D01*
X200620Y631455D01*
X200679Y631381D01*
X200771Y631236D01*
X200987Y630994D01*
X201045Y630922D01*
X201155Y630812D01*
X211712Y620255D01*
X213427Y618540D01*
X214123Y616860D01*
X214123Y475340D01*
X213427Y473660D01*
X199440Y459673D01*
X197760Y458977D01*
X99444Y458977D01*
X99331Y458968D01*
X99216Y458969D01*
X99085Y458948D01*
X98953Y458937D01*
X98842Y458910D01*
X98729Y458892D01*
X98603Y458851D01*
X98474Y458819D01*
X98369Y458774D01*
X98260Y458738D01*
X98142Y458676D01*
X98020Y458624D01*
X97924Y458563D01*
X97823Y458510D01*
X97749Y458451D01*
X97604Y458359D01*
X97475Y458243D01*
X93052Y458243D01*
X89943Y461352D01*
X89943Y463470D01*
X89940Y463508D01*
X89942Y463546D01*
X89920Y463754D01*
X89903Y463961D01*
X89894Y463999D01*
X89890Y464036D01*
X89835Y464238D01*
X89785Y464440D01*
X89770Y464475D01*
X89759Y464512D01*
X89672Y464702D01*
X89590Y464894D01*
X89570Y464926D01*
X89554Y464960D01*
X89437Y465134D01*
X89325Y465310D01*
X89300Y465338D01*
X89278Y465370D01*
X89135Y465522D01*
X88996Y465678D01*
X88967Y465702D01*
X88941Y465729D01*
X88775Y465857D01*
X88612Y465988D01*
X88579Y466006D01*
X88549Y466030D01*
X88365Y466128D01*
X88184Y466232D01*
X88148Y466245D01*
X88114Y466263D01*
X87917Y466331D01*
X87721Y466403D01*
X87684Y466410D01*
X87648Y466423D01*
X87441Y466458D01*
X87237Y466498D01*
X87199Y466499D01*
X87161Y466505D01*
X86952Y466507D01*
X86744Y466513D01*
X86706Y466508D01*
X86668Y466508D01*
X86461Y466476D01*
X86255Y466449D01*
X86218Y466438D01*
X86181Y466432D01*
X85982Y466367D01*
X85783Y466306D01*
X85748Y466289D01*
X85712Y466278D01*
X85527Y466181D01*
X85339Y466089D01*
X85308Y466067D01*
X85274Y466050D01*
X85202Y465992D01*
X84937Y465804D01*
X84815Y465683D01*
X84741Y465624D01*
X74155Y455038D01*
X72440Y453323D01*
X70760Y452627D01*
X31015Y452627D01*
X30797Y452610D01*
X30579Y452596D01*
X30551Y452590D01*
X30523Y452587D01*
X30312Y452535D01*
X30098Y452486D01*
X30072Y452475D01*
X30044Y452469D01*
X29844Y452383D01*
X29641Y452300D01*
X29617Y452285D01*
X29591Y452274D01*
X29407Y452157D01*
X29220Y452043D01*
X29199Y452024D01*
X29175Y452009D01*
X29012Y451864D01*
X28846Y451721D01*
X28828Y451699D01*
X28807Y451680D01*
X28670Y451511D01*
X28529Y451343D01*
X28518Y451322D01*
X28497Y451296D01*
X28369Y451072D01*
X25237Y447940D01*
X23729Y447315D01*
X23695Y447298D01*
X23659Y447285D01*
X23476Y447186D01*
X23290Y447090D01*
X23259Y447068D01*
X23225Y447049D01*
X23060Y446921D01*
X22893Y446797D01*
X22866Y446770D01*
X22836Y446747D01*
X22694Y446593D01*
X22548Y446444D01*
X22526Y446413D01*
X22500Y446385D01*
X22385Y446211D01*
X22265Y446040D01*
X22249Y446006D01*
X22228Y445974D01*
X22142Y445784D01*
X22051Y445596D01*
X22040Y445559D01*
X22025Y445524D01*
X21971Y445323D01*
X21912Y445122D01*
X21907Y445084D01*
X21897Y445048D01*
X21876Y444840D01*
X21850Y444633D01*
X21852Y444595D01*
X21848Y444557D01*
X21861Y444348D01*
X21869Y444140D01*
X21876Y444102D01*
X21879Y444064D01*
X21925Y443861D01*
X21967Y443656D01*
X21980Y443621D01*
X21989Y443583D01*
X22068Y443389D01*
X22141Y443195D01*
X22160Y443162D01*
X22175Y443127D01*
X22284Y442948D01*
X22388Y442768D01*
X22412Y442738D01*
X22432Y442706D01*
X22568Y442547D01*
X22700Y442386D01*
X22729Y442361D01*
X22754Y442332D01*
X22913Y442198D01*
X23070Y442059D01*
X23103Y442039D01*
X23132Y442015D01*
X23213Y441970D01*
X23488Y441797D01*
X23647Y441730D01*
X23729Y441685D01*
X25237Y441060D01*
X28310Y437987D01*
X29973Y433973D01*
X29973Y429627D01*
X28310Y425613D01*
X25237Y422540D01*
X23729Y421915D01*
X23695Y421898D01*
X23659Y421885D01*
X23476Y421786D01*
X23290Y421690D01*
X23259Y421668D01*
X23225Y421649D01*
X23060Y421521D01*
X22893Y421397D01*
X22866Y421370D01*
X22836Y421347D01*
X22694Y421193D01*
X22548Y421044D01*
X22526Y421013D01*
X22500Y420985D01*
X22385Y420811D01*
X22265Y420640D01*
X22249Y420606D01*
X22228Y420574D01*
X22142Y420384D01*
X22051Y420196D01*
X22040Y420159D01*
X22025Y420124D01*
X21971Y419923D01*
X21912Y419722D01*
X21907Y419684D01*
X21897Y419648D01*
X21876Y419440D01*
X21850Y419233D01*
X21852Y419195D01*
X21848Y419157D01*
X21861Y418948D01*
X21869Y418740D01*
X21876Y418702D01*
X21879Y418664D01*
X21925Y418461D01*
X21967Y418256D01*
X21980Y418221D01*
X21989Y418183D01*
X22067Y417990D01*
X22141Y417795D01*
X22160Y417762D01*
X22175Y417727D01*
X22284Y417548D01*
X22388Y417368D01*
X22412Y417338D01*
X22432Y417306D01*
X22568Y417147D01*
X22700Y416986D01*
X22729Y416961D01*
X22754Y416932D01*
X22913Y416798D01*
X23070Y416659D01*
X23103Y416639D01*
X23132Y416615D01*
X23213Y416570D01*
X23488Y416397D01*
X23647Y416330D01*
X23729Y416285D01*
X25237Y415660D01*
X28310Y412587D01*
X29973Y408573D01*
X29973Y404227D01*
X28310Y400213D01*
X25237Y397140D01*
X24964Y397027D01*
X24817Y396952D01*
X24666Y396884D01*
X24598Y396839D01*
X24525Y396802D01*
X24392Y396704D01*
X24254Y396613D01*
X24194Y396557D01*
X24128Y396509D01*
X24013Y396391D01*
X23891Y396279D01*
X23841Y396214D01*
X23784Y396156D01*
X23689Y396020D01*
X23587Y395890D01*
X23547Y395819D01*
X23501Y395752D01*
X23429Y395602D01*
X23349Y395458D01*
X23322Y395381D01*
X23287Y395307D01*
X23240Y395149D01*
X23185Y394993D01*
X23170Y394912D01*
X23147Y394834D01*
X23126Y394670D01*
X23097Y394507D01*
X23096Y394426D01*
X23086Y394344D01*
X23092Y394179D01*
X23089Y394014D01*
X23101Y393933D01*
X23104Y393851D01*
X23137Y393689D01*
X23161Y393526D01*
X23186Y393448D01*
X23202Y393368D01*
X23260Y393214D01*
X23311Y393056D01*
X23348Y392983D01*
X23376Y392906D01*
X23459Y392763D01*
X23534Y392616D01*
X23582Y392550D01*
X23623Y392479D01*
X23728Y392352D01*
X23826Y392218D01*
X23884Y392161D01*
X23936Y392097D01*
X24059Y391988D01*
X24178Y391872D01*
X24231Y391837D01*
X24306Y391771D01*
X24723Y391509D01*
X24737Y391503D01*
X24747Y391497D01*
X25307Y391211D01*
X26828Y390106D01*
X28156Y388778D01*
X29261Y387257D01*
X30114Y385583D01*
X30613Y384047D01*
X19050Y384047D01*
X18974Y384041D01*
X18898Y384044D01*
X18729Y384021D01*
X18559Y384007D01*
X18485Y383989D01*
X18409Y383979D01*
X18245Y383930D01*
X18080Y383889D01*
X18010Y383859D01*
X17937Y383837D01*
X17783Y383762D01*
X17626Y383694D01*
X17562Y383653D01*
X17494Y383620D01*
X17354Y383521D01*
X17210Y383429D01*
X17154Y383378D01*
X17091Y383334D01*
X16970Y383214D01*
X16842Y383100D01*
X16795Y383041D01*
X16740Y382988D01*
X16640Y382849D01*
X16533Y382717D01*
X16495Y382650D01*
X16450Y382589D01*
X16373Y382436D01*
X16289Y382288D01*
X16262Y382216D01*
X16228Y382148D01*
X16176Y381986D01*
X16117Y381825D01*
X16102Y381751D01*
X16079Y381678D01*
X16068Y381573D01*
X16022Y381341D01*
X16015Y381105D01*
X16003Y381000D01*
X16009Y380924D01*
X16007Y380848D01*
X16029Y380678D01*
X16043Y380508D01*
X16061Y380434D01*
X16071Y380359D01*
X16121Y380195D01*
X16162Y380029D01*
X16192Y379959D01*
X16214Y379886D01*
X16289Y379733D01*
X16356Y379576D01*
X16397Y379512D01*
X16431Y379443D01*
X16530Y379304D01*
X16621Y379160D01*
X16672Y379103D01*
X16716Y379041D01*
X16836Y378919D01*
X16950Y378792D01*
X17009Y378744D01*
X17063Y378690D01*
X17201Y378589D01*
X17334Y378482D01*
X17400Y378444D01*
X17462Y378399D01*
X17614Y378323D01*
X17763Y378238D01*
X17834Y378211D01*
X17902Y378177D01*
X18065Y378126D01*
X18225Y378066D01*
X18300Y378052D01*
X18373Y378029D01*
X18477Y378017D01*
X18709Y377972D01*
X18945Y377964D01*
X19050Y377953D01*
X30613Y377953D01*
X30114Y376417D01*
X29261Y374743D01*
X28156Y373222D01*
X26828Y371894D01*
X25307Y370789D01*
X24747Y370503D01*
X24606Y370417D01*
X24461Y370338D01*
X24396Y370288D01*
X24327Y370245D01*
X24201Y370136D01*
X24071Y370035D01*
X24016Y369975D01*
X23954Y369922D01*
X23848Y369794D01*
X23736Y369673D01*
X23691Y369605D01*
X23638Y369542D01*
X23554Y369400D01*
X23463Y369262D01*
X23429Y369188D01*
X23388Y369117D01*
X23328Y368963D01*
X23260Y368812D01*
X23239Y368734D01*
X23209Y368657D01*
X23175Y368495D01*
X23132Y368336D01*
X23124Y368255D01*
X23107Y368175D01*
X23100Y368009D01*
X23083Y367845D01*
X23088Y367764D01*
X23085Y367682D01*
X23104Y367517D01*
X23114Y367353D01*
X23132Y367273D01*
X23142Y367192D01*
X23187Y367033D01*
X23224Y366872D01*
X23255Y366796D01*
X23277Y366718D01*
X23348Y366568D01*
X23410Y366415D01*
X23453Y366345D01*
X23487Y366271D01*
X23581Y366135D01*
X23667Y365994D01*
X23720Y365932D01*
X23767Y365865D01*
X23881Y365745D01*
X23989Y365620D01*
X24052Y365567D01*
X24108Y365509D01*
X24240Y365409D01*
X24367Y365303D01*
X24423Y365272D01*
X24503Y365212D01*
X24940Y364983D01*
X24954Y364978D01*
X24964Y364973D01*
X25237Y364860D01*
X28310Y361787D01*
X29973Y357773D01*
X29973Y353427D01*
X28310Y349413D01*
X25237Y346340D01*
X21223Y344677D01*
X16877Y344677D01*
X14374Y345714D01*
X14202Y345769D01*
X14033Y345832D01*
X13968Y345845D01*
X13905Y345865D01*
X13726Y345892D01*
X13549Y345927D01*
X13483Y345929D01*
X13417Y345939D01*
X13236Y345937D01*
X13056Y345942D01*
X12990Y345934D01*
X12923Y345933D01*
X12746Y345901D01*
X12567Y345878D01*
X12503Y345859D01*
X12438Y345847D01*
X12268Y345788D01*
X12094Y345735D01*
X12035Y345706D01*
X11972Y345684D01*
X11813Y345598D01*
X11651Y345519D01*
X11597Y345480D01*
X11539Y345448D01*
X11396Y345337D01*
X11249Y345233D01*
X11202Y345186D01*
X11149Y345145D01*
X11026Y345013D01*
X10898Y344886D01*
X10859Y344833D01*
X10814Y344784D01*
X10714Y344633D01*
X10608Y344488D01*
X10578Y344428D01*
X10541Y344373D01*
X10467Y344208D01*
X10385Y344047D01*
X10365Y343984D01*
X10338Y343923D01*
X10291Y343749D01*
X10237Y343577D01*
X10231Y343524D01*
X10210Y343447D01*
X10161Y342956D01*
X10163Y342922D01*
X10161Y342899D01*
X10161Y336683D01*
X10172Y336550D01*
X10172Y336417D01*
X10191Y336305D01*
X10201Y336191D01*
X10233Y336062D01*
X10255Y335930D01*
X10292Y335823D01*
X10319Y335712D01*
X10372Y335590D01*
X10415Y335464D01*
X10469Y335363D01*
X10514Y335259D01*
X10585Y335147D01*
X10648Y335029D01*
X10718Y334939D01*
X10779Y334843D01*
X10868Y334743D01*
X10949Y334638D01*
X11032Y334560D01*
X11108Y334475D01*
X11211Y334391D01*
X11308Y334300D01*
X11403Y334236D01*
X11492Y334165D01*
X11607Y334099D01*
X11718Y334025D01*
X11821Y333977D01*
X11920Y333921D01*
X12045Y333875D01*
X12166Y333819D01*
X12276Y333789D01*
X12383Y333749D01*
X12514Y333724D01*
X12642Y333688D01*
X12755Y333676D01*
X12867Y333655D01*
X13000Y333650D01*
X13132Y333636D01*
X13246Y333643D01*
X13360Y333639D01*
X13492Y333657D01*
X13625Y333664D01*
X13736Y333689D01*
X13849Y333704D01*
X13977Y333742D01*
X14107Y333771D01*
X14184Y333805D01*
X14321Y333846D01*
X14671Y334017D01*
X14732Y334044D01*
X15688Y334596D01*
X22087Y336311D01*
X28713Y336311D01*
X35112Y334596D01*
X40849Y331284D01*
X45534Y326599D01*
X48846Y320862D01*
X50561Y314463D01*
X50561Y307837D01*
X48846Y301438D01*
X48294Y300482D01*
X48237Y300361D01*
X48171Y300246D01*
X48131Y300139D01*
X48082Y300036D01*
X48046Y299908D01*
X47999Y299783D01*
X47977Y299671D01*
X47946Y299562D01*
X47930Y299430D01*
X47905Y299299D01*
X47901Y299185D01*
X47888Y299072D01*
X47893Y298939D01*
X47889Y298806D01*
X47904Y298693D01*
X47909Y298579D01*
X47936Y298449D01*
X47954Y298317D01*
X47987Y298208D01*
X48010Y298096D01*
X48058Y297972D01*
X48096Y297844D01*
X48146Y297742D01*
X48187Y297636D01*
X48255Y297521D01*
X48313Y297401D01*
X48379Y297308D01*
X48437Y297210D01*
X48521Y297108D01*
X48598Y296999D01*
X48679Y296918D01*
X48751Y296830D01*
X48852Y296743D01*
X48945Y296648D01*
X49037Y296581D01*
X49123Y296506D01*
X49236Y296436D01*
X49344Y296358D01*
X49446Y296306D01*
X49543Y296246D01*
X49666Y296195D01*
X49784Y296135D01*
X49893Y296101D01*
X49998Y296057D01*
X50128Y296027D01*
X50255Y295987D01*
X50338Y295978D01*
X50479Y295945D01*
X50868Y295918D01*
X50933Y295911D01*
X625542Y295911D01*
X625618Y295917D01*
G37*
G36*
X45910Y688458D02*
X45910Y688458D01*
X45948Y688458D01*
X46155Y688490D01*
X46361Y688517D01*
X46398Y688528D01*
X46435Y688534D01*
X46634Y688599D01*
X46833Y688660D01*
X46868Y688677D01*
X46904Y688688D01*
X47089Y688785D01*
X47277Y688877D01*
X47308Y688899D01*
X47342Y688916D01*
X47414Y688974D01*
X47679Y689162D01*
X47801Y689283D01*
X47875Y689342D01*
X53195Y694662D01*
X60910Y702377D01*
X62590Y703073D01*
X104794Y703073D01*
X104907Y703082D01*
X105022Y703081D01*
X105153Y703102D01*
X105285Y703113D01*
X105396Y703140D01*
X105509Y703158D01*
X105635Y703199D01*
X105764Y703231D01*
X105869Y703276D01*
X105978Y703312D01*
X106096Y703374D01*
X106218Y703426D01*
X106314Y703487D01*
X106415Y703540D01*
X106489Y703599D01*
X106634Y703691D01*
X106876Y703907D01*
X106948Y703965D01*
X108835Y705852D01*
X108909Y705939D01*
X108990Y706019D01*
X109068Y706126D01*
X109154Y706228D01*
X109213Y706325D01*
X109280Y706418D01*
X109340Y706536D01*
X109409Y706650D01*
X109451Y706756D01*
X109503Y706858D01*
X109543Y706985D01*
X109592Y707108D01*
X109617Y707219D01*
X109651Y707329D01*
X109661Y707422D01*
X109699Y707590D01*
X109717Y707914D01*
X109727Y708006D01*
X109727Y790594D01*
X109718Y790707D01*
X109719Y790822D01*
X109698Y790953D01*
X109687Y791085D01*
X109660Y791196D01*
X109642Y791309D01*
X109601Y791435D01*
X109569Y791564D01*
X109524Y791669D01*
X109488Y791778D01*
X109426Y791896D01*
X109374Y792018D01*
X109313Y792114D01*
X109260Y792215D01*
X109201Y792289D01*
X109109Y792434D01*
X108893Y792676D01*
X108835Y792748D01*
X100598Y800985D01*
X100511Y801059D01*
X100431Y801140D01*
X100324Y801218D01*
X100222Y801304D01*
X100125Y801363D01*
X100032Y801430D01*
X99914Y801490D01*
X99800Y801559D01*
X99694Y801601D01*
X99592Y801653D01*
X99465Y801693D01*
X99342Y801742D01*
X99231Y801767D01*
X99121Y801801D01*
X99028Y801811D01*
X98860Y801849D01*
X98536Y801867D01*
X98444Y801877D01*
X35944Y801877D01*
X35831Y801868D01*
X35716Y801869D01*
X35585Y801848D01*
X35453Y801837D01*
X35342Y801810D01*
X35229Y801792D01*
X35103Y801751D01*
X34974Y801719D01*
X34869Y801674D01*
X34760Y801638D01*
X34642Y801576D01*
X34520Y801524D01*
X34424Y801463D01*
X34323Y801410D01*
X34249Y801351D01*
X34104Y801259D01*
X33975Y801143D01*
X29552Y801143D01*
X26443Y804252D01*
X26443Y808648D01*
X29552Y811757D01*
X33961Y811757D01*
X34064Y811682D01*
X34166Y811596D01*
X34263Y811537D01*
X34356Y811470D01*
X34474Y811410D01*
X34588Y811341D01*
X34694Y811299D01*
X34796Y811247D01*
X34923Y811207D01*
X35046Y811158D01*
X35157Y811133D01*
X35267Y811099D01*
X35360Y811089D01*
X35528Y811051D01*
X35852Y811033D01*
X35944Y811023D01*
X102510Y811023D01*
X104190Y810327D01*
X118177Y796340D01*
X118873Y794660D01*
X118873Y703940D01*
X118177Y702260D01*
X116462Y700545D01*
X112226Y696309D01*
X112201Y696280D01*
X112172Y696254D01*
X112042Y696092D01*
X111906Y695933D01*
X111886Y695900D01*
X111862Y695870D01*
X111759Y695689D01*
X111651Y695510D01*
X111637Y695475D01*
X111618Y695442D01*
X111546Y695246D01*
X111468Y695052D01*
X111460Y695015D01*
X111447Y694979D01*
X111407Y694774D01*
X111362Y694570D01*
X111359Y694532D01*
X111352Y694495D01*
X111346Y694287D01*
X111334Y694078D01*
X111338Y694040D01*
X111337Y694002D01*
X111364Y693795D01*
X111386Y693587D01*
X111396Y693551D01*
X111401Y693513D01*
X111462Y693313D01*
X111517Y693112D01*
X111533Y693077D01*
X111544Y693040D01*
X111636Y692852D01*
X111723Y692663D01*
X111744Y692632D01*
X111761Y692597D01*
X111881Y692427D01*
X111998Y692254D01*
X112024Y692226D01*
X112046Y692195D01*
X112193Y692047D01*
X112336Y691894D01*
X112366Y691871D01*
X112393Y691844D01*
X112562Y691721D01*
X112727Y691594D01*
X112761Y691576D01*
X112792Y691554D01*
X112978Y691460D01*
X113162Y691361D01*
X113198Y691348D01*
X113232Y691331D01*
X113431Y691269D01*
X113629Y691201D01*
X113666Y691195D01*
X113703Y691183D01*
X113795Y691173D01*
X114115Y691118D01*
X114287Y691117D01*
X114380Y691107D01*
X116511Y691107D01*
X116614Y691032D01*
X116716Y690946D01*
X116813Y690887D01*
X116906Y690820D01*
X117024Y690760D01*
X117138Y690691D01*
X117244Y690649D01*
X117346Y690597D01*
X117473Y690557D01*
X117596Y690508D01*
X117707Y690483D01*
X117817Y690449D01*
X117910Y690439D01*
X118078Y690401D01*
X118402Y690383D01*
X118494Y690373D01*
X346094Y690373D01*
X346207Y690382D01*
X346322Y690381D01*
X346453Y690402D01*
X346585Y690413D01*
X346696Y690440D01*
X346809Y690458D01*
X346935Y690499D01*
X347064Y690531D01*
X347169Y690576D01*
X347278Y690612D01*
X347396Y690674D01*
X347518Y690726D01*
X347614Y690787D01*
X347715Y690840D01*
X347789Y690899D01*
X347934Y690991D01*
X348176Y691207D01*
X348248Y691265D01*
X366485Y709502D01*
X366559Y709589D01*
X366640Y709669D01*
X366718Y709776D01*
X366804Y709878D01*
X366863Y709975D01*
X366930Y710068D01*
X366990Y710186D01*
X367059Y710300D01*
X367101Y710406D01*
X367153Y710508D01*
X367193Y710635D01*
X367242Y710758D01*
X367267Y710869D01*
X367301Y710979D01*
X367311Y711072D01*
X367349Y711240D01*
X367367Y711564D01*
X367377Y711656D01*
X367377Y904806D01*
X367368Y904920D01*
X367369Y905034D01*
X367348Y905165D01*
X367337Y905297D01*
X367310Y905408D01*
X367292Y905521D01*
X367251Y905647D01*
X367219Y905776D01*
X367174Y905881D01*
X367138Y905990D01*
X367076Y906108D01*
X367024Y906230D01*
X366963Y906326D01*
X366910Y906427D01*
X366851Y906501D01*
X366759Y906646D01*
X366643Y906775D01*
X366643Y911198D01*
X368720Y913275D01*
X368745Y913304D01*
X368774Y913330D01*
X368904Y913492D01*
X369040Y913651D01*
X369060Y913684D01*
X369084Y913714D01*
X369187Y913895D01*
X369295Y914074D01*
X369309Y914109D01*
X369328Y914142D01*
X369400Y914338D01*
X369478Y914532D01*
X369486Y914569D01*
X369499Y914605D01*
X369539Y914810D01*
X369584Y915014D01*
X369587Y915052D01*
X369594Y915089D01*
X369600Y915297D01*
X369612Y915506D01*
X369608Y915544D01*
X369609Y915582D01*
X369582Y915789D01*
X369560Y915997D01*
X369550Y916033D01*
X369545Y916071D01*
X369484Y916271D01*
X369429Y916472D01*
X369413Y916507D01*
X369402Y916544D01*
X369310Y916731D01*
X369223Y916921D01*
X369202Y916952D01*
X369185Y916987D01*
X369065Y917157D01*
X368948Y917330D01*
X368922Y917358D01*
X368900Y917389D01*
X368753Y917537D01*
X368610Y917690D01*
X368580Y917713D01*
X368553Y917740D01*
X368384Y917863D01*
X368219Y917990D01*
X368185Y918008D01*
X368154Y918030D01*
X367968Y918124D01*
X367784Y918223D01*
X367748Y918236D01*
X367714Y918253D01*
X367515Y918315D01*
X367317Y918383D01*
X367280Y918389D01*
X367243Y918401D01*
X367151Y918411D01*
X366831Y918466D01*
X366659Y918467D01*
X366566Y918477D01*
X361056Y918477D01*
X360943Y918468D01*
X360828Y918469D01*
X360697Y918448D01*
X360565Y918437D01*
X360454Y918410D01*
X360341Y918392D01*
X360215Y918351D01*
X360086Y918319D01*
X359981Y918274D01*
X359872Y918238D01*
X359754Y918176D01*
X359632Y918124D01*
X359536Y918063D01*
X359435Y918010D01*
X359361Y917951D01*
X359216Y917859D01*
X358974Y917643D01*
X358902Y917585D01*
X335665Y894348D01*
X335591Y894261D01*
X335510Y894181D01*
X335432Y894074D01*
X335346Y893972D01*
X335287Y893875D01*
X335220Y893782D01*
X335160Y893664D01*
X335091Y893550D01*
X335049Y893444D01*
X334997Y893342D01*
X334957Y893215D01*
X334908Y893092D01*
X334883Y892981D01*
X334849Y892871D01*
X334839Y892778D01*
X334801Y892610D01*
X334783Y892286D01*
X334773Y892194D01*
X334773Y849990D01*
X334077Y848310D01*
X307390Y821623D01*
X305710Y820927D01*
X18140Y820927D01*
X16460Y821623D01*
X15363Y822720D01*
X15334Y822745D01*
X15308Y822774D01*
X15146Y822905D01*
X14987Y823040D01*
X14954Y823060D01*
X14924Y823084D01*
X14743Y823187D01*
X14564Y823295D01*
X14529Y823309D01*
X14496Y823328D01*
X14300Y823400D01*
X14106Y823478D01*
X14069Y823486D01*
X14033Y823499D01*
X13829Y823539D01*
X13625Y823584D01*
X13586Y823587D01*
X13549Y823594D01*
X13341Y823600D01*
X13132Y823612D01*
X13094Y823608D01*
X13056Y823609D01*
X12850Y823582D01*
X12641Y823560D01*
X12605Y823550D01*
X12567Y823545D01*
X12367Y823484D01*
X12166Y823429D01*
X12131Y823413D01*
X12094Y823402D01*
X11907Y823310D01*
X11717Y823223D01*
X11686Y823202D01*
X11651Y823185D01*
X11481Y823065D01*
X11308Y822948D01*
X11280Y822922D01*
X11249Y822900D01*
X11101Y822753D01*
X10948Y822610D01*
X10925Y822580D01*
X10898Y822553D01*
X10775Y822385D01*
X10648Y822219D01*
X10630Y822185D01*
X10608Y822154D01*
X10514Y821968D01*
X10415Y821784D01*
X10403Y821748D01*
X10385Y821714D01*
X10322Y821514D01*
X10255Y821317D01*
X10249Y821280D01*
X10237Y821243D01*
X10227Y821151D01*
X10172Y820831D01*
X10171Y820659D01*
X10161Y820566D01*
X10161Y766934D01*
X10164Y766896D01*
X10162Y766858D01*
X10184Y766650D01*
X10201Y766443D01*
X10210Y766406D01*
X10214Y766368D01*
X10269Y766167D01*
X10319Y765964D01*
X10334Y765929D01*
X10345Y765892D01*
X10431Y765702D01*
X10514Y765510D01*
X10534Y765478D01*
X10550Y765443D01*
X10667Y765270D01*
X10779Y765094D01*
X10804Y765066D01*
X10826Y765034D01*
X10969Y764882D01*
X11108Y764726D01*
X11137Y764702D01*
X11164Y764675D01*
X11329Y764548D01*
X11492Y764416D01*
X11525Y764398D01*
X11555Y764374D01*
X11739Y764276D01*
X11920Y764172D01*
X11956Y764159D01*
X11990Y764141D01*
X12187Y764074D01*
X12383Y764001D01*
X12420Y763994D01*
X12456Y763981D01*
X12663Y763946D01*
X12867Y763906D01*
X12905Y763905D01*
X12943Y763899D01*
X13152Y763897D01*
X13360Y763891D01*
X13398Y763896D01*
X13436Y763896D01*
X13643Y763928D01*
X13849Y763955D01*
X13886Y763966D01*
X13923Y763972D01*
X14121Y764037D01*
X14321Y764098D01*
X14356Y764115D01*
X14392Y764126D01*
X14577Y764223D01*
X14765Y764315D01*
X14796Y764337D01*
X14830Y764354D01*
X14902Y764412D01*
X15167Y764600D01*
X15289Y764721D01*
X15363Y764780D01*
X16888Y766305D01*
X16889Y766305D01*
X31901Y781318D01*
X31925Y781346D01*
X31952Y781370D01*
X32000Y781430D01*
X32056Y781485D01*
X32134Y781592D01*
X32220Y781694D01*
X32241Y781728D01*
X32262Y781754D01*
X32298Y781818D01*
X32346Y781884D01*
X32406Y782002D01*
X32475Y782116D01*
X32491Y782156D01*
X32506Y782183D01*
X32531Y782249D01*
X32569Y782324D01*
X32609Y782451D01*
X32658Y782574D01*
X32668Y782618D01*
X32678Y782646D01*
X32691Y782711D01*
X32717Y782795D01*
X32727Y782888D01*
X32765Y783056D01*
X32767Y783103D01*
X32773Y783130D01*
X32776Y783231D01*
X35902Y786357D01*
X40298Y786357D01*
X43407Y783248D01*
X43407Y778852D01*
X40289Y775734D01*
X40163Y775714D01*
X40031Y775703D01*
X39920Y775676D01*
X39807Y775658D01*
X39681Y775617D01*
X39552Y775585D01*
X39447Y775540D01*
X39338Y775504D01*
X39221Y775442D01*
X39098Y775390D01*
X39002Y775329D01*
X38901Y775276D01*
X38827Y775217D01*
X38682Y775125D01*
X38440Y774909D01*
X38368Y774851D01*
X36026Y772509D01*
X36001Y772480D01*
X35972Y772454D01*
X35842Y772292D01*
X35706Y772133D01*
X35686Y772100D01*
X35662Y772070D01*
X35559Y771889D01*
X35451Y771710D01*
X35437Y771675D01*
X35418Y771642D01*
X35346Y771446D01*
X35268Y771252D01*
X35260Y771215D01*
X35247Y771179D01*
X35207Y770974D01*
X35162Y770770D01*
X35159Y770732D01*
X35152Y770695D01*
X35146Y770487D01*
X35134Y770278D01*
X35138Y770240D01*
X35137Y770202D01*
X35164Y769995D01*
X35186Y769787D01*
X35196Y769751D01*
X35201Y769713D01*
X35262Y769513D01*
X35317Y769312D01*
X35333Y769277D01*
X35344Y769240D01*
X35436Y769053D01*
X35523Y768863D01*
X35544Y768832D01*
X35561Y768797D01*
X35681Y768627D01*
X35798Y768454D01*
X35824Y768426D01*
X35846Y768395D01*
X35993Y768247D01*
X36136Y768094D01*
X36166Y768071D01*
X36193Y768044D01*
X36361Y767921D01*
X36527Y767794D01*
X36561Y767776D01*
X36592Y767754D01*
X36777Y767660D01*
X36962Y767561D01*
X36998Y767548D01*
X37032Y767531D01*
X37231Y767469D01*
X37429Y767401D01*
X37466Y767394D01*
X37503Y767383D01*
X37595Y767373D01*
X37915Y767318D01*
X38087Y767317D01*
X38180Y767307D01*
X40298Y767307D01*
X43407Y764198D01*
X43407Y763843D01*
X43422Y763654D01*
X43430Y763464D01*
X43442Y763408D01*
X43447Y763351D01*
X43492Y763167D01*
X43531Y762981D01*
X43552Y762928D01*
X43565Y762872D01*
X43640Y762698D01*
X43709Y762521D01*
X43737Y762471D01*
X43760Y762419D01*
X43862Y762259D01*
X43958Y762095D01*
X43994Y762051D01*
X44025Y762003D01*
X44151Y761861D01*
X44273Y761715D01*
X44316Y761678D01*
X44354Y761635D01*
X44501Y761516D01*
X44645Y761391D01*
X44693Y761361D01*
X44738Y761325D01*
X44902Y761231D01*
X45064Y761131D01*
X45117Y761109D01*
X45166Y761081D01*
X45344Y761015D01*
X45520Y760942D01*
X45575Y760929D01*
X45629Y760909D01*
X45815Y760873D01*
X46000Y760830D01*
X46057Y760826D01*
X46113Y760815D01*
X46303Y760809D01*
X46492Y760796D01*
X46549Y760801D01*
X46606Y760799D01*
X46794Y760824D01*
X46983Y760842D01*
X47039Y760856D01*
X47095Y760864D01*
X47277Y760919D01*
X47461Y760967D01*
X47513Y760990D01*
X47567Y761006D01*
X47738Y761090D01*
X47912Y761167D01*
X47959Y761198D01*
X48011Y761223D01*
X48165Y761333D01*
X48324Y761437D01*
X48366Y761476D01*
X48413Y761509D01*
X48548Y761642D01*
X48688Y761770D01*
X48715Y761807D01*
X48764Y761855D01*
X49054Y762254D01*
X49075Y762294D01*
X49093Y762319D01*
X49716Y763399D01*
X54401Y768084D01*
X60138Y771396D01*
X66537Y773111D01*
X73163Y773111D01*
X79562Y771396D01*
X85299Y768084D01*
X89984Y763399D01*
X93296Y757662D01*
X95011Y751263D01*
X95011Y744637D01*
X93296Y738238D01*
X89984Y732501D01*
X85299Y727816D01*
X79562Y724504D01*
X73163Y722789D01*
X66537Y722789D01*
X60138Y724504D01*
X54401Y727816D01*
X49716Y732501D01*
X48359Y734852D01*
X48251Y735009D01*
X48149Y735168D01*
X48111Y735211D01*
X48079Y735258D01*
X47947Y735395D01*
X47820Y735536D01*
X47776Y735572D01*
X47736Y735613D01*
X47584Y735727D01*
X47436Y735846D01*
X47387Y735874D01*
X47341Y735909D01*
X47172Y735996D01*
X47008Y736090D01*
X46954Y736110D01*
X46904Y736136D01*
X46723Y736196D01*
X46545Y736262D01*
X46489Y736273D01*
X46435Y736291D01*
X46247Y736320D01*
X46061Y736357D01*
X46004Y736358D01*
X45948Y736367D01*
X45757Y736366D01*
X45568Y736372D01*
X45512Y736364D01*
X45454Y736364D01*
X45267Y736332D01*
X45079Y736307D01*
X45024Y736291D01*
X44968Y736281D01*
X44788Y736220D01*
X44606Y736165D01*
X44555Y736140D01*
X44501Y736121D01*
X44334Y736032D01*
X44163Y735948D01*
X44117Y735915D01*
X44067Y735888D01*
X43916Y735772D01*
X43761Y735663D01*
X43720Y735623D01*
X43675Y735588D01*
X43545Y735449D01*
X43410Y735316D01*
X43376Y735270D01*
X43337Y735228D01*
X43231Y735071D01*
X43120Y734917D01*
X43094Y734866D01*
X43062Y734819D01*
X42983Y734646D01*
X42897Y734477D01*
X42880Y734422D01*
X42856Y734370D01*
X42806Y734187D01*
X42749Y734006D01*
X42744Y733961D01*
X42726Y733895D01*
X42674Y733404D01*
X42676Y733359D01*
X42673Y733328D01*
X42673Y691496D01*
X42676Y691458D01*
X42674Y691420D01*
X42696Y691212D01*
X42713Y691005D01*
X42722Y690968D01*
X42726Y690930D01*
X42781Y690728D01*
X42831Y690526D01*
X42846Y690491D01*
X42857Y690454D01*
X42944Y690264D01*
X43026Y690072D01*
X43046Y690040D01*
X43062Y690006D01*
X43179Y689832D01*
X43291Y689656D01*
X43316Y689628D01*
X43338Y689596D01*
X43481Y689444D01*
X43620Y689288D01*
X43649Y689264D01*
X43675Y689237D01*
X43841Y689109D01*
X44004Y688978D01*
X44037Y688960D01*
X44067Y688936D01*
X44251Y688838D01*
X44432Y688734D01*
X44468Y688721D01*
X44502Y688703D01*
X44699Y688635D01*
X44895Y688563D01*
X44932Y688556D01*
X44968Y688543D01*
X45175Y688508D01*
X45379Y688468D01*
X45417Y688467D01*
X45455Y688461D01*
X45664Y688459D01*
X45872Y688453D01*
X45910Y688458D01*
G37*
%LPC*%
G36*
X150202Y413793D02*
X150202Y413793D01*
X147093Y416902D01*
X147093Y421298D01*
X150202Y424407D01*
X154611Y424407D01*
X154714Y424332D01*
X154815Y424246D01*
X154913Y424187D01*
X155006Y424120D01*
X155124Y424060D01*
X155238Y423991D01*
X155344Y423949D01*
X155446Y423897D01*
X155573Y423857D01*
X155696Y423808D01*
X155808Y423783D01*
X155917Y423749D01*
X156010Y423739D01*
X156178Y423701D01*
X156502Y423683D01*
X156594Y423673D01*
X301644Y423673D01*
X301757Y423682D01*
X301872Y423681D01*
X302003Y423702D01*
X302135Y423713D01*
X302246Y423740D01*
X302359Y423758D01*
X302485Y423799D01*
X302614Y423831D01*
X302719Y423876D01*
X302828Y423912D01*
X302946Y423974D01*
X303068Y424026D01*
X303164Y424087D01*
X303265Y424140D01*
X303339Y424199D01*
X303484Y424291D01*
X303726Y424507D01*
X303798Y424565D01*
X331085Y451852D01*
X331159Y451939D01*
X331240Y452019D01*
X331318Y452126D01*
X331404Y452228D01*
X331463Y452325D01*
X331530Y452418D01*
X331590Y452536D01*
X331659Y452650D01*
X331701Y452756D01*
X331753Y452858D01*
X331793Y452985D01*
X331842Y453108D01*
X331867Y453219D01*
X331901Y453329D01*
X331911Y453422D01*
X331949Y453590D01*
X331967Y453914D01*
X331977Y454006D01*
X331977Y527960D01*
X332673Y529640D01*
X340310Y537277D01*
X341990Y537973D01*
X343635Y537973D01*
X343853Y537990D01*
X344071Y538004D01*
X344099Y538010D01*
X344127Y538013D01*
X344338Y538065D01*
X344552Y538114D01*
X344578Y538125D01*
X344606Y538131D01*
X344806Y538217D01*
X345009Y538300D01*
X345033Y538315D01*
X345059Y538326D01*
X345243Y538443D01*
X345430Y538557D01*
X345451Y538576D01*
X345475Y538591D01*
X345638Y538736D01*
X345804Y538879D01*
X345822Y538901D01*
X345843Y538920D01*
X345980Y539089D01*
X346121Y539257D01*
X346132Y539278D01*
X346153Y539304D01*
X346281Y539528D01*
X349413Y542660D01*
X350921Y543285D01*
X350955Y543302D01*
X350991Y543315D01*
X351174Y543414D01*
X351360Y543510D01*
X351391Y543532D01*
X351425Y543551D01*
X351590Y543679D01*
X351757Y543803D01*
X351784Y543830D01*
X351814Y543853D01*
X351956Y544007D01*
X352102Y544156D01*
X352124Y544187D01*
X352150Y544215D01*
X352265Y544389D01*
X352385Y544560D01*
X352401Y544594D01*
X352422Y544626D01*
X352508Y544816D01*
X352599Y545004D01*
X352610Y545041D01*
X352625Y545076D01*
X352679Y545277D01*
X352738Y545478D01*
X352743Y545516D01*
X352753Y545552D01*
X352774Y545760D01*
X352800Y545967D01*
X352798Y546005D01*
X352802Y546043D01*
X352789Y546252D01*
X352781Y546460D01*
X352774Y546498D01*
X352771Y546536D01*
X352725Y546739D01*
X352683Y546944D01*
X352670Y546979D01*
X352661Y547017D01*
X352583Y547210D01*
X352509Y547405D01*
X352490Y547438D01*
X352475Y547473D01*
X352366Y547652D01*
X352262Y547832D01*
X352238Y547862D01*
X352218Y547894D01*
X352082Y548053D01*
X351950Y548214D01*
X351921Y548239D01*
X351896Y548268D01*
X351737Y548402D01*
X351580Y548541D01*
X351547Y548561D01*
X351518Y548585D01*
X351437Y548630D01*
X351162Y548803D01*
X351003Y548870D01*
X350921Y548915D01*
X349413Y549540D01*
X346292Y552661D01*
X346255Y552737D01*
X346239Y552760D01*
X346226Y552785D01*
X346096Y552961D01*
X345969Y553139D01*
X345950Y553159D01*
X345933Y553182D01*
X345776Y553335D01*
X345623Y553490D01*
X345600Y553507D01*
X345580Y553526D01*
X345400Y553652D01*
X345224Y553780D01*
X345199Y553793D01*
X345175Y553809D01*
X344978Y553904D01*
X344784Y554003D01*
X344757Y554011D01*
X344731Y554023D01*
X344521Y554085D01*
X344313Y554151D01*
X344290Y554154D01*
X344258Y554163D01*
X343768Y554224D01*
X343688Y554221D01*
X343635Y554227D01*
X333356Y554227D01*
X333243Y554218D01*
X333128Y554219D01*
X332997Y554198D01*
X332865Y554187D01*
X332754Y554160D01*
X332641Y554142D01*
X332515Y554101D01*
X332386Y554069D01*
X332281Y554024D01*
X332172Y553988D01*
X332054Y553926D01*
X331932Y553874D01*
X331836Y553813D01*
X331735Y553760D01*
X331661Y553701D01*
X331516Y553609D01*
X331274Y553393D01*
X331202Y553335D01*
X322965Y545098D01*
X322891Y545011D01*
X322810Y544931D01*
X322732Y544824D01*
X322646Y544722D01*
X322587Y544625D01*
X322520Y544532D01*
X322460Y544414D01*
X322391Y544300D01*
X322349Y544194D01*
X322297Y544092D01*
X322257Y543965D01*
X322208Y543842D01*
X322183Y543731D01*
X322149Y543621D01*
X322139Y543528D01*
X322101Y543360D01*
X322083Y543036D01*
X322073Y542944D01*
X322073Y462640D01*
X321377Y460960D01*
X294690Y434273D01*
X293010Y433577D01*
X143894Y433577D01*
X143781Y433568D01*
X143666Y433569D01*
X143535Y433548D01*
X143403Y433537D01*
X143292Y433510D01*
X143179Y433492D01*
X143053Y433451D01*
X142924Y433419D01*
X142819Y433374D01*
X142710Y433338D01*
X142592Y433276D01*
X142470Y433224D01*
X142374Y433163D01*
X142273Y433110D01*
X142199Y433051D01*
X142054Y432959D01*
X141925Y432843D01*
X137502Y432843D01*
X134393Y435952D01*
X134393Y440348D01*
X137502Y443457D01*
X141911Y443457D01*
X142014Y443382D01*
X142116Y443296D01*
X142213Y443237D01*
X142306Y443170D01*
X142424Y443110D01*
X142538Y443041D01*
X142644Y442999D01*
X142746Y442947D01*
X142873Y442907D01*
X142996Y442858D01*
X143107Y442833D01*
X143217Y442799D01*
X143310Y442789D01*
X143478Y442751D01*
X143802Y442733D01*
X143894Y442723D01*
X288944Y442723D01*
X289057Y442732D01*
X289172Y442731D01*
X289303Y442752D01*
X289435Y442763D01*
X289546Y442790D01*
X289659Y442808D01*
X289785Y442849D01*
X289914Y442881D01*
X290019Y442926D01*
X290128Y442962D01*
X290246Y443024D01*
X290368Y443076D01*
X290464Y443137D01*
X290565Y443190D01*
X290639Y443249D01*
X290784Y443341D01*
X291026Y443557D01*
X291098Y443615D01*
X312035Y464552D01*
X312109Y464639D01*
X312190Y464719D01*
X312268Y464826D01*
X312354Y464928D01*
X312413Y465025D01*
X312480Y465118D01*
X312540Y465236D01*
X312609Y465350D01*
X312651Y465456D01*
X312703Y465558D01*
X312743Y465685D01*
X312792Y465808D01*
X312817Y465919D01*
X312851Y466029D01*
X312861Y466122D01*
X312899Y466290D01*
X312917Y466614D01*
X312927Y466706D01*
X312927Y547010D01*
X313623Y548690D01*
X327610Y562677D01*
X329290Y563373D01*
X343635Y563373D01*
X343853Y563390D01*
X344071Y563404D01*
X344099Y563410D01*
X344127Y563413D01*
X344338Y563465D01*
X344552Y563514D01*
X344578Y563525D01*
X344606Y563531D01*
X344806Y563617D01*
X345009Y563700D01*
X345033Y563715D01*
X345059Y563726D01*
X345243Y563843D01*
X345430Y563957D01*
X345451Y563976D01*
X345475Y563991D01*
X345638Y564136D01*
X345804Y564279D01*
X345822Y564301D01*
X345843Y564320D01*
X345980Y564489D01*
X346121Y564657D01*
X346132Y564678D01*
X346153Y564704D01*
X346281Y564928D01*
X349413Y568060D01*
X350921Y568685D01*
X350955Y568702D01*
X350991Y568715D01*
X351174Y568814D01*
X351360Y568910D01*
X351391Y568932D01*
X351425Y568951D01*
X351590Y569079D01*
X351757Y569203D01*
X351784Y569230D01*
X351814Y569253D01*
X351956Y569407D01*
X352102Y569556D01*
X352124Y569587D01*
X352150Y569615D01*
X352265Y569789D01*
X352385Y569960D01*
X352401Y569994D01*
X352422Y570026D01*
X352508Y570216D01*
X352599Y570404D01*
X352610Y570441D01*
X352625Y570476D01*
X352679Y570677D01*
X352738Y570878D01*
X352743Y570916D01*
X352753Y570952D01*
X352774Y571160D01*
X352800Y571367D01*
X352798Y571405D01*
X352802Y571443D01*
X352789Y571652D01*
X352781Y571860D01*
X352774Y571898D01*
X352771Y571936D01*
X352725Y572139D01*
X352683Y572344D01*
X352670Y572379D01*
X352661Y572417D01*
X352583Y572610D01*
X352509Y572805D01*
X352490Y572838D01*
X352475Y572873D01*
X352366Y573052D01*
X352262Y573232D01*
X352238Y573262D01*
X352218Y573294D01*
X352082Y573453D01*
X351950Y573614D01*
X351921Y573639D01*
X351896Y573668D01*
X351737Y573802D01*
X351580Y573941D01*
X351547Y573961D01*
X351518Y573985D01*
X351437Y574030D01*
X351162Y574203D01*
X351003Y574270D01*
X350921Y574315D01*
X349413Y574940D01*
X346340Y578013D01*
X344677Y582027D01*
X344677Y586373D01*
X346340Y590387D01*
X349413Y593460D01*
X349686Y593573D01*
X349833Y593648D01*
X349984Y593716D01*
X350052Y593761D01*
X350125Y593798D01*
X350258Y593896D01*
X350396Y593987D01*
X350456Y594043D01*
X350522Y594091D01*
X350637Y594209D01*
X350759Y594321D01*
X350809Y594386D01*
X350866Y594444D01*
X350961Y594580D01*
X351063Y594710D01*
X351103Y594781D01*
X351149Y594848D01*
X351221Y594998D01*
X351301Y595142D01*
X351328Y595219D01*
X351363Y595293D01*
X351410Y595451D01*
X351465Y595607D01*
X351480Y595688D01*
X351503Y595766D01*
X351524Y595930D01*
X351553Y596093D01*
X351554Y596174D01*
X351564Y596256D01*
X351558Y596421D01*
X351561Y596586D01*
X351549Y596667D01*
X351546Y596749D01*
X351513Y596911D01*
X351489Y597074D01*
X351464Y597152D01*
X351448Y597232D01*
X351390Y597386D01*
X351339Y597544D01*
X351302Y597617D01*
X351274Y597694D01*
X351191Y597837D01*
X351116Y597984D01*
X351068Y598050D01*
X351027Y598121D01*
X350922Y598248D01*
X350824Y598382D01*
X350766Y598439D01*
X350714Y598503D01*
X350591Y598612D01*
X350472Y598728D01*
X350419Y598763D01*
X350344Y598829D01*
X349927Y599091D01*
X349913Y599097D01*
X349903Y599103D01*
X349343Y599389D01*
X347822Y600494D01*
X346494Y601822D01*
X345389Y603343D01*
X344536Y605017D01*
X344037Y606553D01*
X355600Y606553D01*
X367163Y606553D01*
X366664Y605017D01*
X365811Y603343D01*
X364706Y601822D01*
X363378Y600494D01*
X361857Y599389D01*
X361297Y599103D01*
X361156Y599017D01*
X361011Y598938D01*
X360946Y598888D01*
X360877Y598845D01*
X360751Y598736D01*
X360621Y598635D01*
X360566Y598575D01*
X360504Y598522D01*
X360398Y598394D01*
X360286Y598273D01*
X360241Y598205D01*
X360188Y598142D01*
X360104Y598000D01*
X360013Y597862D01*
X359979Y597788D01*
X359938Y597717D01*
X359878Y597563D01*
X359810Y597412D01*
X359789Y597334D01*
X359759Y597257D01*
X359725Y597095D01*
X359682Y596936D01*
X359674Y596855D01*
X359657Y596775D01*
X359650Y596609D01*
X359633Y596445D01*
X359638Y596364D01*
X359635Y596282D01*
X359654Y596117D01*
X359664Y595953D01*
X359682Y595873D01*
X359692Y595792D01*
X359737Y595633D01*
X359774Y595472D01*
X359805Y595396D01*
X359827Y595318D01*
X359898Y595168D01*
X359960Y595015D01*
X360003Y594945D01*
X360037Y594871D01*
X360131Y594735D01*
X360217Y594594D01*
X360270Y594532D01*
X360317Y594465D01*
X360431Y594345D01*
X360539Y594220D01*
X360602Y594167D01*
X360658Y594109D01*
X360790Y594009D01*
X360917Y593903D01*
X360973Y593872D01*
X361053Y593812D01*
X361490Y593583D01*
X361504Y593578D01*
X361514Y593573D01*
X361787Y593460D01*
X364860Y590387D01*
X366523Y586373D01*
X366523Y582027D01*
X364860Y578013D01*
X361787Y574940D01*
X360279Y574315D01*
X360245Y574298D01*
X360209Y574285D01*
X360025Y574185D01*
X359840Y574090D01*
X359809Y574068D01*
X359775Y574049D01*
X359611Y573921D01*
X359443Y573797D01*
X359416Y573770D01*
X359386Y573747D01*
X359244Y573593D01*
X359098Y573444D01*
X359076Y573413D01*
X359050Y573385D01*
X358935Y573210D01*
X358815Y573040D01*
X358799Y573006D01*
X358778Y572974D01*
X358692Y572784D01*
X358601Y572595D01*
X358590Y572559D01*
X358575Y572524D01*
X358521Y572322D01*
X358462Y572122D01*
X358457Y572085D01*
X358447Y572048D01*
X358426Y571839D01*
X358400Y571633D01*
X358402Y571595D01*
X358398Y571557D01*
X358411Y571348D01*
X358419Y571140D01*
X358426Y571102D01*
X358429Y571064D01*
X358475Y570861D01*
X358517Y570656D01*
X358530Y570621D01*
X358539Y570583D01*
X358617Y570390D01*
X358691Y570195D01*
X358710Y570162D01*
X358725Y570126D01*
X358834Y569948D01*
X358938Y569768D01*
X358962Y569738D01*
X358982Y569706D01*
X359118Y569547D01*
X359250Y569386D01*
X359279Y569360D01*
X359304Y569332D01*
X359464Y569197D01*
X359620Y569059D01*
X359653Y569039D01*
X359682Y569015D01*
X359763Y568970D01*
X360038Y568797D01*
X360196Y568730D01*
X360279Y568685D01*
X361787Y568060D01*
X364860Y564987D01*
X366523Y560973D01*
X366523Y556627D01*
X364860Y552613D01*
X361787Y549540D01*
X360279Y548915D01*
X360245Y548898D01*
X360209Y548885D01*
X360025Y548785D01*
X359840Y548690D01*
X359809Y548668D01*
X359775Y548649D01*
X359611Y548521D01*
X359443Y548397D01*
X359416Y548370D01*
X359386Y548347D01*
X359244Y548193D01*
X359098Y548044D01*
X359076Y548013D01*
X359050Y547985D01*
X358935Y547811D01*
X358815Y547640D01*
X358799Y547606D01*
X358778Y547574D01*
X358692Y547384D01*
X358601Y547195D01*
X358590Y547159D01*
X358575Y547124D01*
X358521Y546922D01*
X358462Y546722D01*
X358457Y546685D01*
X358447Y546648D01*
X358426Y546439D01*
X358400Y546233D01*
X358402Y546195D01*
X358398Y546157D01*
X358411Y545948D01*
X358419Y545740D01*
X358426Y545702D01*
X358429Y545664D01*
X358475Y545461D01*
X358517Y545256D01*
X358530Y545221D01*
X358539Y545183D01*
X358617Y544990D01*
X358691Y544795D01*
X358710Y544762D01*
X358725Y544726D01*
X358834Y544548D01*
X358938Y544368D01*
X358962Y544338D01*
X358982Y544306D01*
X359118Y544147D01*
X359250Y543986D01*
X359279Y543960D01*
X359304Y543932D01*
X359464Y543797D01*
X359620Y543659D01*
X359653Y543639D01*
X359682Y543615D01*
X359763Y543570D01*
X360038Y543397D01*
X360196Y543330D01*
X360279Y543285D01*
X361787Y542660D01*
X364860Y539587D01*
X366523Y535573D01*
X366523Y531227D01*
X364860Y527213D01*
X361787Y524140D01*
X360279Y523515D01*
X360245Y523498D01*
X360209Y523485D01*
X360025Y523385D01*
X359840Y523290D01*
X359809Y523268D01*
X359775Y523249D01*
X359611Y523121D01*
X359443Y522997D01*
X359416Y522970D01*
X359386Y522947D01*
X359244Y522793D01*
X359098Y522644D01*
X359076Y522613D01*
X359050Y522585D01*
X358935Y522411D01*
X358815Y522240D01*
X358799Y522206D01*
X358778Y522174D01*
X358692Y521984D01*
X358601Y521795D01*
X358590Y521759D01*
X358575Y521724D01*
X358521Y521522D01*
X358462Y521322D01*
X358457Y521285D01*
X358447Y521248D01*
X358426Y521039D01*
X358400Y520833D01*
X358402Y520795D01*
X358398Y520757D01*
X358411Y520548D01*
X358419Y520340D01*
X358426Y520302D01*
X358429Y520264D01*
X358475Y520061D01*
X358517Y519856D01*
X358530Y519821D01*
X358539Y519783D01*
X358617Y519590D01*
X358691Y519395D01*
X358710Y519362D01*
X358725Y519326D01*
X358834Y519148D01*
X358938Y518968D01*
X358962Y518938D01*
X358982Y518906D01*
X359118Y518747D01*
X359250Y518586D01*
X359279Y518560D01*
X359304Y518532D01*
X359464Y518397D01*
X359620Y518259D01*
X359653Y518239D01*
X359682Y518215D01*
X359763Y518170D01*
X360038Y517997D01*
X360196Y517930D01*
X360279Y517885D01*
X361787Y517260D01*
X364860Y514187D01*
X366523Y510173D01*
X366523Y505827D01*
X364860Y501813D01*
X361787Y498740D01*
X357773Y497077D01*
X353427Y497077D01*
X349413Y498740D01*
X346325Y501828D01*
X346296Y501853D01*
X346270Y501881D01*
X346108Y502012D01*
X345949Y502148D01*
X345916Y502167D01*
X345886Y502191D01*
X345705Y502294D01*
X345526Y502402D01*
X345491Y502416D01*
X345458Y502435D01*
X345262Y502508D01*
X345068Y502585D01*
X345031Y502594D01*
X344995Y502607D01*
X344790Y502647D01*
X344586Y502692D01*
X344548Y502694D01*
X344511Y502702D01*
X344303Y502708D01*
X344094Y502720D01*
X344056Y502716D01*
X344018Y502717D01*
X343811Y502690D01*
X343603Y502668D01*
X343567Y502658D01*
X343529Y502653D01*
X343329Y502592D01*
X343128Y502537D01*
X343093Y502521D01*
X343056Y502510D01*
X342869Y502418D01*
X342679Y502331D01*
X342648Y502310D01*
X342613Y502293D01*
X342443Y502173D01*
X342270Y502056D01*
X342242Y502030D01*
X342211Y502008D01*
X342063Y501861D01*
X341910Y501718D01*
X341887Y501688D01*
X341860Y501661D01*
X341737Y501492D01*
X341610Y501327D01*
X341592Y501293D01*
X341570Y501262D01*
X341476Y501076D01*
X341377Y500892D01*
X341364Y500856D01*
X341347Y500822D01*
X341285Y500623D01*
X341217Y500425D01*
X341211Y500388D01*
X341199Y500351D01*
X341189Y500259D01*
X341134Y499939D01*
X341133Y499767D01*
X341123Y499674D01*
X341123Y449940D01*
X340427Y448260D01*
X338712Y446545D01*
X309105Y416938D01*
X307390Y415223D01*
X305710Y414527D01*
X156594Y414527D01*
X156480Y414518D01*
X156366Y414519D01*
X156235Y414498D01*
X156103Y414487D01*
X155992Y414460D01*
X155879Y414442D01*
X155753Y414401D01*
X155624Y414369D01*
X155519Y414324D01*
X155410Y414288D01*
X155292Y414226D01*
X155170Y414174D01*
X155074Y414113D01*
X154973Y414060D01*
X154899Y414001D01*
X154754Y413909D01*
X154625Y413793D01*
X150202Y413793D01*
G37*
%LPD*%
%LPC*%
G36*
X128630Y353567D02*
X128630Y353567D01*
X126950Y354263D01*
X120583Y360630D01*
X119887Y362310D01*
X119887Y380384D01*
X119878Y380497D01*
X119879Y380612D01*
X119858Y380743D01*
X119847Y380875D01*
X119820Y380986D01*
X119802Y381099D01*
X119761Y381225D01*
X119729Y381354D01*
X119684Y381459D01*
X119648Y381568D01*
X119586Y381686D01*
X119534Y381808D01*
X119473Y381904D01*
X119420Y382005D01*
X119361Y382079D01*
X119269Y382224D01*
X119053Y382466D01*
X118995Y382538D01*
X115838Y385695D01*
X115751Y385769D01*
X115671Y385850D01*
X115564Y385928D01*
X115462Y386014D01*
X115365Y386073D01*
X115272Y386140D01*
X115154Y386200D01*
X115040Y386269D01*
X114934Y386311D01*
X114832Y386363D01*
X114705Y386403D01*
X114582Y386452D01*
X114471Y386477D01*
X114361Y386511D01*
X114268Y386521D01*
X114100Y386559D01*
X113776Y386577D01*
X113684Y386587D01*
X110874Y386587D01*
X110760Y386578D01*
X110646Y386579D01*
X110515Y386558D01*
X110383Y386547D01*
X110272Y386520D01*
X110159Y386502D01*
X110033Y386461D01*
X109904Y386429D01*
X109799Y386384D01*
X109690Y386348D01*
X109572Y386286D01*
X109450Y386234D01*
X109354Y386173D01*
X109253Y386120D01*
X109179Y386061D01*
X109034Y385969D01*
X108905Y385853D01*
X104482Y385853D01*
X101373Y388962D01*
X101373Y393358D01*
X104482Y396467D01*
X108891Y396467D01*
X108994Y396392D01*
X109095Y396306D01*
X109193Y396247D01*
X109286Y396180D01*
X109404Y396120D01*
X109518Y396051D01*
X109624Y396009D01*
X109726Y395957D01*
X109853Y395917D01*
X109976Y395868D01*
X110088Y395843D01*
X110197Y395809D01*
X110290Y395799D01*
X110458Y395761D01*
X110782Y395743D01*
X110874Y395733D01*
X117750Y395733D01*
X119430Y395037D01*
X128337Y386130D01*
X129033Y384450D01*
X129033Y366376D01*
X129042Y366263D01*
X129041Y366148D01*
X129062Y366017D01*
X129073Y365885D01*
X129100Y365774D01*
X129118Y365661D01*
X129159Y365535D01*
X129191Y365406D01*
X129236Y365301D01*
X129272Y365192D01*
X129334Y365074D01*
X129386Y364952D01*
X129447Y364856D01*
X129500Y364755D01*
X129559Y364681D01*
X129651Y364536D01*
X129867Y364294D01*
X129925Y364222D01*
X130542Y363605D01*
X130629Y363531D01*
X130709Y363450D01*
X130816Y363372D01*
X130918Y363286D01*
X131015Y363227D01*
X131108Y363160D01*
X131226Y363100D01*
X131340Y363031D01*
X131446Y362989D01*
X131548Y362937D01*
X131675Y362897D01*
X131798Y362848D01*
X131909Y362823D01*
X132019Y362789D01*
X132112Y362779D01*
X132280Y362741D01*
X132604Y362723D01*
X132696Y362713D01*
X513080Y362713D01*
X513156Y362719D01*
X513232Y362717D01*
X513401Y362739D01*
X513572Y362753D01*
X513646Y362771D01*
X513721Y362781D01*
X513885Y362830D01*
X514051Y362871D01*
X514120Y362901D01*
X514194Y362923D01*
X514347Y362999D01*
X514504Y363066D01*
X514568Y363107D01*
X514637Y363140D01*
X514776Y363239D01*
X514920Y363331D01*
X514977Y363382D01*
X515039Y363426D01*
X515160Y363546D01*
X515288Y363660D01*
X515336Y363719D01*
X515390Y363773D01*
X515491Y363911D01*
X515598Y364044D01*
X515635Y364110D01*
X515680Y364171D01*
X515757Y364324D01*
X515842Y364472D01*
X515868Y364544D01*
X515903Y364612D01*
X515954Y364775D01*
X516013Y364935D01*
X516028Y365010D01*
X516051Y365082D01*
X516063Y365187D01*
X516108Y365419D01*
X516115Y365655D01*
X516127Y365760D01*
X516127Y412390D01*
X516823Y414070D01*
X522368Y419615D01*
X524048Y420311D01*
X535423Y420311D01*
X535537Y420320D01*
X535651Y420319D01*
X535782Y420340D01*
X535915Y420351D01*
X536025Y420378D01*
X536138Y420396D01*
X536265Y420437D01*
X536394Y420469D01*
X536498Y420514D01*
X536607Y420550D01*
X536725Y420612D01*
X536847Y420664D01*
X536943Y420725D01*
X537045Y420778D01*
X537118Y420837D01*
X537263Y420929D01*
X537505Y421145D01*
X537578Y421203D01*
X540399Y424025D01*
X544257Y425623D01*
X544291Y425640D01*
X544327Y425653D01*
X544510Y425753D01*
X544696Y425848D01*
X544727Y425870D01*
X544760Y425889D01*
X544925Y426017D01*
X545093Y426141D01*
X545120Y426168D01*
X545150Y426191D01*
X545292Y426345D01*
X545438Y426494D01*
X545459Y426525D01*
X545485Y426553D01*
X545601Y426727D01*
X545721Y426898D01*
X545737Y426932D01*
X545758Y426964D01*
X545844Y427155D01*
X545935Y427342D01*
X545940Y427361D01*
X545953Y427328D01*
X546027Y427133D01*
X546046Y427100D01*
X546061Y427064D01*
X546170Y426886D01*
X546274Y426706D01*
X546298Y426676D01*
X546318Y426644D01*
X546454Y426485D01*
X546586Y426324D01*
X546615Y426299D01*
X546640Y426270D01*
X546800Y426135D01*
X546956Y425997D01*
X546989Y425977D01*
X547018Y425953D01*
X547100Y425907D01*
X547374Y425735D01*
X547532Y425668D01*
X547615Y425623D01*
X551473Y424025D01*
X554223Y421275D01*
X555711Y417682D01*
X555711Y413794D01*
X554223Y410201D01*
X551473Y407451D01*
X548867Y406372D01*
X548727Y406300D01*
X548583Y406237D01*
X548508Y406188D01*
X548428Y406147D01*
X548301Y406053D01*
X548169Y405967D01*
X548103Y405907D01*
X548031Y405854D01*
X547921Y405741D01*
X547805Y405635D01*
X547749Y405565D01*
X547687Y405501D01*
X547597Y405372D01*
X547498Y405248D01*
X547455Y405170D01*
X547404Y405097D01*
X547335Y404955D01*
X547259Y404817D01*
X547229Y404733D01*
X547190Y404652D01*
X547145Y404501D01*
X547092Y404353D01*
X547076Y404265D01*
X547050Y404179D01*
X547031Y404023D01*
X547002Y403868D01*
X547000Y403778D01*
X546989Y403690D01*
X546995Y403532D01*
X546992Y403374D01*
X547004Y403286D01*
X547007Y403197D01*
X547039Y403042D01*
X547061Y402886D01*
X547088Y402801D01*
X547105Y402713D01*
X547161Y402566D01*
X547208Y402415D01*
X547248Y402335D01*
X547280Y402252D01*
X547359Y402115D01*
X547429Y401974D01*
X547482Y401902D01*
X547526Y401824D01*
X547626Y401702D01*
X547719Y401575D01*
X547782Y401512D01*
X547839Y401443D01*
X547957Y401338D01*
X548069Y401227D01*
X548142Y401175D01*
X548209Y401116D01*
X548342Y401032D01*
X548471Y400941D01*
X548533Y400912D01*
X548627Y400854D01*
X549081Y400662D01*
X549088Y400661D01*
X549092Y400659D01*
X550078Y400338D01*
X551592Y399567D01*
X552966Y398569D01*
X554167Y397368D01*
X555165Y395994D01*
X555936Y394480D01*
X556292Y393385D01*
X545936Y393385D01*
X535580Y393385D01*
X535936Y394480D01*
X536707Y395994D01*
X537705Y397368D01*
X538906Y398569D01*
X540280Y399567D01*
X541794Y400338D01*
X542780Y400659D01*
X542926Y400719D01*
X543075Y400772D01*
X543153Y400814D01*
X543236Y400849D01*
X543369Y400932D01*
X543508Y401007D01*
X543579Y401062D01*
X543654Y401110D01*
X543773Y401213D01*
X543897Y401310D01*
X543958Y401376D01*
X544025Y401435D01*
X544126Y401556D01*
X544233Y401672D01*
X544282Y401746D01*
X544339Y401815D01*
X544418Y401951D01*
X544506Y402083D01*
X544543Y402164D01*
X544587Y402242D01*
X544644Y402389D01*
X544709Y402533D01*
X544732Y402619D01*
X544764Y402702D01*
X544795Y402857D01*
X544836Y403009D01*
X544845Y403098D01*
X544863Y403186D01*
X544870Y403343D01*
X544885Y403500D01*
X544880Y403589D01*
X544883Y403678D01*
X544864Y403835D01*
X544855Y403992D01*
X544835Y404080D01*
X544824Y404168D01*
X544780Y404319D01*
X544745Y404473D01*
X544711Y404556D01*
X544686Y404642D01*
X544618Y404784D01*
X544559Y404930D01*
X544512Y405007D01*
X544474Y405087D01*
X544384Y405217D01*
X544301Y405351D01*
X544243Y405419D01*
X544192Y405492D01*
X544083Y405606D01*
X543980Y405725D01*
X543911Y405783D01*
X543849Y405847D01*
X543723Y405941D01*
X543602Y406042D01*
X543541Y406076D01*
X543453Y406141D01*
X543015Y406368D01*
X543009Y406370D01*
X543005Y406372D01*
X540399Y407451D01*
X537578Y410273D01*
X537491Y410347D01*
X537410Y410428D01*
X537303Y410506D01*
X537202Y410592D01*
X537104Y410651D01*
X537012Y410718D01*
X536893Y410778D01*
X536779Y410847D01*
X536673Y410889D01*
X536571Y410941D01*
X536444Y410981D01*
X536321Y411030D01*
X536210Y411055D01*
X536101Y411089D01*
X536007Y411099D01*
X535839Y411137D01*
X535515Y411155D01*
X535423Y411165D01*
X528320Y411165D01*
X528244Y411159D01*
X528168Y411161D01*
X527999Y411139D01*
X527828Y411125D01*
X527754Y411107D01*
X527679Y411097D01*
X527515Y411048D01*
X527349Y411007D01*
X527280Y410977D01*
X527206Y410955D01*
X527053Y410879D01*
X526896Y410812D01*
X526832Y410771D01*
X526763Y410738D01*
X526624Y410639D01*
X526480Y410547D01*
X526423Y410496D01*
X526361Y410452D01*
X526240Y410332D01*
X526112Y410218D01*
X526064Y410159D01*
X526010Y410105D01*
X525909Y409967D01*
X525802Y409834D01*
X525765Y409768D01*
X525720Y409707D01*
X525643Y409554D01*
X525558Y409406D01*
X525532Y409334D01*
X525497Y409266D01*
X525446Y409103D01*
X525387Y408943D01*
X525372Y408868D01*
X525349Y408796D01*
X525337Y408691D01*
X525292Y408459D01*
X525285Y408223D01*
X525273Y408118D01*
X525273Y357230D01*
X524577Y355550D01*
X523290Y354263D01*
X521610Y353567D01*
X128630Y353567D01*
G37*
%LPD*%
%LPC*%
G36*
X560914Y763249D02*
X560914Y763249D01*
X560711Y763315D01*
X560701Y763316D01*
X560692Y763319D01*
X560652Y763323D01*
X560223Y763388D01*
X560092Y763386D01*
X560014Y763395D01*
X388686Y763395D01*
X386259Y764401D01*
X384401Y766259D01*
X383395Y768686D01*
X383395Y771314D01*
X384401Y773741D01*
X386259Y775599D01*
X388686Y776605D01*
X552985Y776605D01*
X553099Y776614D01*
X553213Y776613D01*
X553344Y776634D01*
X553477Y776645D01*
X553588Y776672D01*
X553700Y776690D01*
X553827Y776731D01*
X553956Y776763D01*
X554060Y776808D01*
X554169Y776844D01*
X554287Y776906D01*
X554409Y776958D01*
X554505Y777019D01*
X554607Y777072D01*
X554680Y777131D01*
X554825Y777223D01*
X555067Y777439D01*
X555140Y777497D01*
X557641Y779999D01*
X560973Y781379D01*
X564579Y781379D01*
X567911Y779999D01*
X570412Y777497D01*
X570499Y777423D01*
X570579Y777342D01*
X570687Y777264D01*
X570788Y777178D01*
X570886Y777119D01*
X570978Y777052D01*
X571097Y776992D01*
X571211Y776923D01*
X571317Y776881D01*
X571419Y776829D01*
X571545Y776789D01*
X571669Y776740D01*
X571780Y776715D01*
X571889Y776681D01*
X571983Y776671D01*
X572150Y776633D01*
X572475Y776615D01*
X572567Y776605D01*
X578385Y776605D01*
X578499Y776614D01*
X578613Y776613D01*
X578744Y776634D01*
X578877Y776645D01*
X578988Y776672D01*
X579100Y776690D01*
X579227Y776731D01*
X579356Y776763D01*
X579460Y776808D01*
X579569Y776844D01*
X579687Y776906D01*
X579809Y776958D01*
X579905Y777019D01*
X580007Y777072D01*
X580080Y777131D01*
X580225Y777223D01*
X580467Y777439D01*
X580540Y777497D01*
X583041Y779999D01*
X586373Y781379D01*
X589979Y781379D01*
X593311Y779999D01*
X595861Y777449D01*
X597241Y774117D01*
X597241Y770511D01*
X595861Y767179D01*
X593311Y764629D01*
X589979Y763249D01*
X586314Y763249D01*
X586111Y763315D01*
X586101Y763316D01*
X586092Y763319D01*
X586052Y763323D01*
X585623Y763388D01*
X585492Y763386D01*
X585414Y763395D01*
X565538Y763395D01*
X565528Y763394D01*
X565518Y763395D01*
X565283Y763375D01*
X565046Y763355D01*
X565037Y763353D01*
X565027Y763352D01*
X564988Y763341D01*
X564618Y763249D01*
X560914Y763249D01*
G37*
%LPD*%
%LPC*%
G36*
X328944Y594693D02*
X328944Y594693D01*
X326994Y595501D01*
X325501Y596994D01*
X324693Y598944D01*
X324693Y601056D01*
X325195Y602268D01*
X325198Y602277D01*
X325203Y602286D01*
X325275Y602513D01*
X325347Y602737D01*
X325348Y602747D01*
X325351Y602756D01*
X325355Y602796D01*
X325420Y603225D01*
X325418Y603356D01*
X325427Y603434D01*
X325427Y610910D01*
X326123Y612590D01*
X347410Y633877D01*
X349090Y634573D01*
X526566Y634573D01*
X526576Y634574D01*
X526586Y634573D01*
X526821Y634593D01*
X527058Y634613D01*
X527067Y634615D01*
X527077Y634616D01*
X527115Y634627D01*
X527537Y634731D01*
X527657Y634783D01*
X527732Y634805D01*
X528944Y635307D01*
X531056Y635307D01*
X533006Y634499D01*
X534499Y633006D01*
X535307Y631056D01*
X535307Y628944D01*
X534499Y626994D01*
X533006Y625501D01*
X531056Y624693D01*
X528944Y624693D01*
X527732Y625195D01*
X527723Y625198D01*
X527714Y625203D01*
X527487Y625275D01*
X527263Y625347D01*
X527253Y625348D01*
X527244Y625351D01*
X527204Y625355D01*
X526775Y625420D01*
X526644Y625418D01*
X526566Y625427D01*
X363505Y625427D01*
X363475Y625425D01*
X363445Y625427D01*
X363229Y625405D01*
X363014Y625387D01*
X362984Y625380D01*
X362954Y625377D01*
X362745Y625321D01*
X362535Y625269D01*
X362507Y625257D01*
X362477Y625249D01*
X362281Y625159D01*
X362082Y625074D01*
X362056Y625058D01*
X362028Y625045D01*
X361848Y624925D01*
X361665Y624809D01*
X361643Y624789D01*
X361617Y624772D01*
X361459Y624624D01*
X361298Y624480D01*
X361278Y624457D01*
X361256Y624436D01*
X361123Y624264D01*
X360988Y624096D01*
X360973Y624070D01*
X360954Y624046D01*
X360851Y623855D01*
X360744Y623668D01*
X360733Y623639D01*
X360719Y623612D01*
X360647Y623408D01*
X360572Y623205D01*
X360566Y623175D01*
X360556Y623146D01*
X360519Y622933D01*
X360477Y622721D01*
X360476Y622691D01*
X360471Y622660D01*
X360469Y622443D01*
X360462Y622228D01*
X360466Y622198D01*
X360466Y622167D01*
X360498Y621953D01*
X360526Y621739D01*
X360535Y621710D01*
X360540Y621679D01*
X360607Y621473D01*
X360669Y621267D01*
X360682Y621239D01*
X360692Y621210D01*
X360791Y621017D01*
X360886Y620823D01*
X360903Y620799D01*
X360917Y620771D01*
X361046Y620597D01*
X361171Y620421D01*
X361193Y620399D01*
X361211Y620375D01*
X361274Y620318D01*
X361518Y620070D01*
X361648Y619976D01*
X361714Y619915D01*
X363378Y618706D01*
X364706Y617378D01*
X365811Y615857D01*
X366664Y614183D01*
X367163Y612647D01*
X355600Y612647D01*
X341784Y612647D01*
X341635Y612698D01*
X341439Y612771D01*
X341402Y612778D01*
X341366Y612791D01*
X341159Y612826D01*
X340955Y612866D01*
X340917Y612867D01*
X340879Y612873D01*
X340670Y612875D01*
X340462Y612881D01*
X340424Y612876D01*
X340386Y612876D01*
X340179Y612844D01*
X339973Y612817D01*
X339936Y612806D01*
X339899Y612800D01*
X339700Y612735D01*
X339501Y612674D01*
X339466Y612657D01*
X339430Y612646D01*
X339245Y612549D01*
X339057Y612457D01*
X339026Y612435D01*
X338992Y612418D01*
X338920Y612360D01*
X338655Y612172D01*
X338533Y612051D01*
X338459Y611992D01*
X335465Y608998D01*
X335391Y608911D01*
X335310Y608831D01*
X335232Y608724D01*
X335146Y608622D01*
X335087Y608525D01*
X335020Y608432D01*
X334960Y608314D01*
X334891Y608200D01*
X334849Y608094D01*
X334797Y607992D01*
X334757Y607865D01*
X334708Y607742D01*
X334683Y607630D01*
X334649Y607521D01*
X334639Y607428D01*
X334601Y607260D01*
X334583Y606936D01*
X334573Y606844D01*
X334573Y603434D01*
X334574Y603424D01*
X334573Y603414D01*
X334593Y603179D01*
X334613Y602942D01*
X334615Y602933D01*
X334616Y602923D01*
X334627Y602885D01*
X334731Y602463D01*
X334783Y602343D01*
X334805Y602268D01*
X335307Y601056D01*
X335307Y598944D01*
X334499Y596994D01*
X333006Y595501D01*
X331056Y594693D01*
X328944Y594693D01*
G37*
%LPD*%
%LPC*%
G36*
X596736Y393385D02*
X596736Y393385D01*
X586380Y393385D01*
X586736Y394480D01*
X587507Y395994D01*
X588505Y397368D01*
X589706Y398569D01*
X591080Y399567D01*
X592594Y400338D01*
X593580Y400659D01*
X593726Y400719D01*
X593875Y400771D01*
X593953Y400814D01*
X594036Y400849D01*
X594169Y400932D01*
X594308Y401007D01*
X594379Y401062D01*
X594454Y401110D01*
X594573Y401213D01*
X594697Y401310D01*
X594758Y401376D01*
X594825Y401435D01*
X594926Y401556D01*
X595033Y401672D01*
X595082Y401746D01*
X595139Y401815D01*
X595218Y401951D01*
X595306Y402083D01*
X595342Y402164D01*
X595387Y402242D01*
X595444Y402389D01*
X595509Y402533D01*
X595532Y402619D01*
X595564Y402702D01*
X595595Y402857D01*
X595636Y403009D01*
X595645Y403098D01*
X595663Y403186D01*
X595670Y403343D01*
X595685Y403500D01*
X595680Y403589D01*
X595683Y403678D01*
X595664Y403835D01*
X595655Y403992D01*
X595635Y404079D01*
X595624Y404168D01*
X595580Y404320D01*
X595545Y404473D01*
X595511Y404556D01*
X595486Y404642D01*
X595418Y404784D01*
X595359Y404930D01*
X595312Y405006D01*
X595274Y405087D01*
X595184Y405217D01*
X595101Y405351D01*
X595043Y405419D01*
X594992Y405492D01*
X594882Y405606D01*
X594780Y405725D01*
X594711Y405783D01*
X594649Y405847D01*
X594523Y405941D01*
X594402Y406042D01*
X594341Y406076D01*
X594253Y406141D01*
X593815Y406368D01*
X593809Y406370D01*
X593805Y406372D01*
X591199Y407451D01*
X588449Y410201D01*
X586961Y413794D01*
X586961Y417682D01*
X588449Y421275D01*
X591199Y424025D01*
X595057Y425623D01*
X595091Y425640D01*
X595127Y425653D01*
X595310Y425753D01*
X595496Y425848D01*
X595527Y425870D01*
X595560Y425889D01*
X595725Y426017D01*
X595893Y426141D01*
X595920Y426168D01*
X595950Y426191D01*
X596092Y426345D01*
X596238Y426494D01*
X596259Y426525D01*
X596285Y426553D01*
X596401Y426727D01*
X596521Y426898D01*
X596537Y426932D01*
X596558Y426964D01*
X596644Y427155D01*
X596735Y427342D01*
X596740Y427361D01*
X596753Y427328D01*
X596827Y427133D01*
X596846Y427100D01*
X596861Y427064D01*
X596970Y426886D01*
X597074Y426706D01*
X597098Y426676D01*
X597118Y426644D01*
X597254Y426485D01*
X597386Y426324D01*
X597415Y426299D01*
X597440Y426270D01*
X597600Y426135D01*
X597756Y425997D01*
X597789Y425977D01*
X597818Y425953D01*
X597900Y425907D01*
X598174Y425735D01*
X598332Y425668D01*
X598415Y425623D01*
X602273Y424025D01*
X605023Y421275D01*
X606511Y417682D01*
X606511Y413794D01*
X605023Y410201D01*
X602273Y407451D01*
X599667Y406372D01*
X599527Y406300D01*
X599383Y406237D01*
X599308Y406188D01*
X599228Y406147D01*
X599101Y406053D01*
X598969Y405967D01*
X598903Y405907D01*
X598831Y405854D01*
X598721Y405741D01*
X598605Y405635D01*
X598549Y405565D01*
X598487Y405501D01*
X598396Y405371D01*
X598299Y405248D01*
X598255Y405170D01*
X598204Y405097D01*
X598135Y404955D01*
X598059Y404817D01*
X598029Y404733D01*
X597990Y404652D01*
X597945Y404501D01*
X597892Y404353D01*
X597876Y404265D01*
X597850Y404179D01*
X597831Y404023D01*
X597802Y403868D01*
X597800Y403778D01*
X597789Y403690D01*
X597795Y403532D01*
X597792Y403374D01*
X597804Y403286D01*
X597808Y403197D01*
X597839Y403042D01*
X597861Y402886D01*
X597888Y402801D01*
X597905Y402713D01*
X597961Y402565D01*
X598008Y402415D01*
X598048Y402335D01*
X598080Y402252D01*
X598159Y402115D01*
X598229Y401974D01*
X598282Y401902D01*
X598326Y401824D01*
X598427Y401702D01*
X598519Y401575D01*
X598582Y401512D01*
X598639Y401443D01*
X598757Y401338D01*
X598869Y401227D01*
X598942Y401175D01*
X599009Y401116D01*
X599142Y401032D01*
X599271Y400941D01*
X599333Y400912D01*
X599427Y400854D01*
X599881Y400662D01*
X599887Y400661D01*
X599892Y400659D01*
X600878Y400338D01*
X602392Y399567D01*
X603766Y398569D01*
X604967Y397368D01*
X605965Y395994D01*
X606736Y394480D01*
X607092Y393385D01*
X596736Y393385D01*
X596736Y393385D01*
G37*
%LPD*%
%LPC*%
G36*
X594792Y355163D02*
X594792Y355163D01*
X591199Y356651D01*
X588449Y359401D01*
X586961Y362994D01*
X586961Y366882D01*
X588449Y370475D01*
X591199Y373225D01*
X593805Y374304D01*
X593945Y374376D01*
X594089Y374439D01*
X594164Y374488D01*
X594244Y374529D01*
X594371Y374623D01*
X594503Y374709D01*
X594569Y374769D01*
X594641Y374822D01*
X594751Y374935D01*
X594867Y375041D01*
X594923Y375111D01*
X594985Y375175D01*
X595076Y375305D01*
X595173Y375428D01*
X595217Y375506D01*
X595268Y375579D01*
X595337Y375721D01*
X595413Y375859D01*
X595443Y375943D01*
X595482Y376024D01*
X595527Y376175D01*
X595580Y376323D01*
X595596Y376411D01*
X595622Y376497D01*
X595641Y376653D01*
X595670Y376808D01*
X595672Y376898D01*
X595683Y376986D01*
X595677Y377144D01*
X595680Y377302D01*
X595668Y377390D01*
X595664Y377479D01*
X595633Y377634D01*
X595611Y377790D01*
X595584Y377875D01*
X595567Y377963D01*
X595511Y378111D01*
X595464Y378261D01*
X595424Y378341D01*
X595392Y378424D01*
X595313Y378561D01*
X595243Y378702D01*
X595190Y378774D01*
X595146Y378852D01*
X595045Y378974D01*
X594953Y379101D01*
X594890Y379164D01*
X594833Y379233D01*
X594715Y379338D01*
X594603Y379449D01*
X594530Y379501D01*
X594463Y379560D01*
X594330Y379644D01*
X594201Y379735D01*
X594139Y379764D01*
X594045Y379822D01*
X593591Y380014D01*
X593585Y380015D01*
X593580Y380017D01*
X592594Y380338D01*
X591080Y381109D01*
X589706Y382107D01*
X588505Y383308D01*
X587507Y384682D01*
X586736Y386196D01*
X586380Y387291D01*
X596736Y387291D01*
X607092Y387291D01*
X606736Y386196D01*
X605965Y384682D01*
X604967Y383308D01*
X603766Y382107D01*
X602392Y381109D01*
X600878Y380338D01*
X599892Y380017D01*
X599746Y379957D01*
X599597Y379905D01*
X599519Y379862D01*
X599436Y379827D01*
X599303Y379744D01*
X599164Y379669D01*
X599093Y379614D01*
X599018Y379566D01*
X598899Y379463D01*
X598775Y379366D01*
X598714Y379300D01*
X598647Y379241D01*
X598546Y379120D01*
X598439Y379004D01*
X598390Y378930D01*
X598333Y378861D01*
X598254Y378725D01*
X598166Y378593D01*
X598130Y378512D01*
X598085Y378434D01*
X598028Y378287D01*
X597963Y378143D01*
X597940Y378057D01*
X597908Y377974D01*
X597877Y377819D01*
X597836Y377667D01*
X597827Y377578D01*
X597809Y377490D01*
X597802Y377333D01*
X597787Y377176D01*
X597792Y377087D01*
X597789Y376998D01*
X597808Y376841D01*
X597817Y376684D01*
X597837Y376597D01*
X597848Y376508D01*
X597892Y376356D01*
X597927Y376203D01*
X597961Y376120D01*
X597986Y376034D01*
X598054Y375892D01*
X598113Y375746D01*
X598160Y375670D01*
X598198Y375589D01*
X598288Y375459D01*
X598371Y375325D01*
X598429Y375257D01*
X598480Y375184D01*
X598590Y375070D01*
X598692Y374951D01*
X598761Y374893D01*
X598823Y374829D01*
X598949Y374735D01*
X599070Y374634D01*
X599131Y374600D01*
X599219Y374535D01*
X599657Y374308D01*
X599663Y374306D01*
X599667Y374304D01*
X602273Y373225D01*
X605023Y370475D01*
X606511Y366882D01*
X606511Y362994D01*
X605023Y359401D01*
X602273Y356651D01*
X598680Y355163D01*
X594792Y355163D01*
G37*
%LPD*%
%LPC*%
G36*
X543992Y355163D02*
X543992Y355163D01*
X540399Y356651D01*
X537649Y359401D01*
X536161Y362994D01*
X536161Y366882D01*
X537649Y370475D01*
X540399Y373225D01*
X543005Y374304D01*
X543145Y374376D01*
X543289Y374439D01*
X543364Y374488D01*
X543444Y374529D01*
X543571Y374623D01*
X543703Y374709D01*
X543769Y374769D01*
X543841Y374822D01*
X543951Y374935D01*
X544067Y375041D01*
X544123Y375111D01*
X544185Y375175D01*
X544276Y375305D01*
X544373Y375428D01*
X544417Y375506D01*
X544468Y375579D01*
X544537Y375721D01*
X544613Y375859D01*
X544643Y375943D01*
X544682Y376024D01*
X544727Y376175D01*
X544780Y376323D01*
X544796Y376411D01*
X544822Y376497D01*
X544841Y376653D01*
X544870Y376808D01*
X544872Y376898D01*
X544883Y376986D01*
X544877Y377144D01*
X544880Y377302D01*
X544868Y377390D01*
X544864Y377479D01*
X544833Y377634D01*
X544811Y377790D01*
X544784Y377875D01*
X544767Y377963D01*
X544711Y378111D01*
X544664Y378261D01*
X544624Y378341D01*
X544592Y378424D01*
X544513Y378561D01*
X544443Y378702D01*
X544390Y378774D01*
X544346Y378852D01*
X544245Y378974D01*
X544153Y379101D01*
X544090Y379164D01*
X544033Y379233D01*
X543915Y379338D01*
X543803Y379449D01*
X543730Y379501D01*
X543663Y379560D01*
X543530Y379644D01*
X543401Y379735D01*
X543339Y379764D01*
X543245Y379822D01*
X542791Y380014D01*
X542785Y380015D01*
X542780Y380017D01*
X541794Y380338D01*
X540280Y381109D01*
X538906Y382107D01*
X537705Y383308D01*
X536707Y384682D01*
X535936Y386196D01*
X535580Y387291D01*
X545936Y387291D01*
X556292Y387291D01*
X555936Y386196D01*
X555165Y384682D01*
X554167Y383308D01*
X552966Y382107D01*
X551592Y381109D01*
X550078Y380338D01*
X549092Y380017D01*
X548946Y379957D01*
X548797Y379905D01*
X548719Y379862D01*
X548636Y379827D01*
X548503Y379744D01*
X548364Y379669D01*
X548293Y379614D01*
X548218Y379566D01*
X548099Y379463D01*
X547975Y379366D01*
X547914Y379300D01*
X547847Y379241D01*
X547746Y379120D01*
X547639Y379004D01*
X547590Y378930D01*
X547533Y378861D01*
X547454Y378725D01*
X547366Y378593D01*
X547330Y378512D01*
X547285Y378434D01*
X547228Y378287D01*
X547163Y378143D01*
X547140Y378057D01*
X547108Y377974D01*
X547077Y377819D01*
X547036Y377667D01*
X547027Y377578D01*
X547009Y377490D01*
X547002Y377333D01*
X546987Y377176D01*
X546992Y377087D01*
X546989Y376998D01*
X547008Y376841D01*
X547017Y376684D01*
X547037Y376597D01*
X547048Y376508D01*
X547092Y376356D01*
X547127Y376203D01*
X547161Y376120D01*
X547186Y376034D01*
X547254Y375892D01*
X547313Y375746D01*
X547360Y375670D01*
X547398Y375589D01*
X547488Y375459D01*
X547571Y375325D01*
X547629Y375257D01*
X547680Y375184D01*
X547790Y375070D01*
X547892Y374951D01*
X547961Y374893D01*
X548023Y374829D01*
X548149Y374735D01*
X548270Y374634D01*
X548331Y374600D01*
X548419Y374535D01*
X548857Y374308D01*
X548863Y374306D01*
X548867Y374304D01*
X551473Y373225D01*
X554223Y370475D01*
X555711Y366882D01*
X555711Y362994D01*
X554223Y359401D01*
X551473Y356651D01*
X547880Y355163D01*
X543992Y355163D01*
G37*
%LPD*%
%LPC*%
G36*
X596719Y429548D02*
X596719Y429548D01*
X596645Y429743D01*
X596626Y429776D01*
X596611Y429812D01*
X596503Y429989D01*
X596398Y430170D01*
X596374Y430200D01*
X596354Y430232D01*
X596218Y430390D01*
X596086Y430552D01*
X596057Y430577D01*
X596032Y430606D01*
X595872Y430740D01*
X595716Y430879D01*
X595683Y430899D01*
X595654Y430923D01*
X595573Y430968D01*
X595298Y431141D01*
X595139Y431208D01*
X595057Y431253D01*
X591199Y432851D01*
X588449Y435601D01*
X586961Y439194D01*
X586961Y443082D01*
X588449Y446675D01*
X591199Y449425D01*
X595057Y451023D01*
X595091Y451040D01*
X595127Y451053D01*
X595310Y451153D01*
X595496Y451248D01*
X595527Y451270D01*
X595560Y451289D01*
X595725Y451417D01*
X595893Y451541D01*
X595920Y451568D01*
X595950Y451591D01*
X596092Y451745D01*
X596238Y451894D01*
X596259Y451925D01*
X596285Y451953D01*
X596401Y452127D01*
X596521Y452298D01*
X596537Y452332D01*
X596558Y452364D01*
X596644Y452555D01*
X596735Y452742D01*
X596740Y452761D01*
X596753Y452728D01*
X596827Y452533D01*
X596846Y452500D01*
X596861Y452464D01*
X596970Y452286D01*
X597074Y452106D01*
X597098Y452076D01*
X597118Y452044D01*
X597254Y451885D01*
X597386Y451724D01*
X597415Y451699D01*
X597440Y451670D01*
X597600Y451535D01*
X597756Y451397D01*
X597789Y451377D01*
X597818Y451353D01*
X597900Y451307D01*
X598174Y451135D01*
X598332Y451068D01*
X598415Y451023D01*
X602273Y449425D01*
X605023Y446675D01*
X606511Y443082D01*
X606511Y439194D01*
X605023Y435601D01*
X602273Y432851D01*
X598415Y431253D01*
X598381Y431236D01*
X598345Y431223D01*
X598161Y431123D01*
X597976Y431028D01*
X597945Y431006D01*
X597912Y430987D01*
X597746Y430859D01*
X597579Y430735D01*
X597552Y430708D01*
X597522Y430685D01*
X597380Y430531D01*
X597234Y430382D01*
X597213Y430351D01*
X597187Y430323D01*
X597071Y430148D01*
X596951Y429978D01*
X596935Y429944D01*
X596914Y429912D01*
X596828Y429721D01*
X596737Y429533D01*
X596732Y429515D01*
X596719Y429548D01*
G37*
%LPD*%
%LPC*%
G36*
X545919Y429548D02*
X545919Y429548D01*
X545845Y429743D01*
X545826Y429776D01*
X545811Y429812D01*
X545703Y429989D01*
X545598Y430170D01*
X545574Y430200D01*
X545554Y430232D01*
X545418Y430390D01*
X545286Y430552D01*
X545257Y430577D01*
X545232Y430606D01*
X545072Y430740D01*
X544916Y430879D01*
X544883Y430899D01*
X544854Y430923D01*
X544773Y430968D01*
X544498Y431141D01*
X544339Y431208D01*
X544257Y431253D01*
X540399Y432851D01*
X537649Y435601D01*
X536161Y439194D01*
X536161Y443082D01*
X537649Y446675D01*
X540399Y449425D01*
X544257Y451023D01*
X544291Y451040D01*
X544327Y451053D01*
X544510Y451153D01*
X544696Y451248D01*
X544727Y451270D01*
X544760Y451289D01*
X544925Y451417D01*
X545093Y451541D01*
X545120Y451568D01*
X545150Y451591D01*
X545292Y451745D01*
X545438Y451894D01*
X545459Y451925D01*
X545485Y451953D01*
X545601Y452127D01*
X545721Y452298D01*
X545737Y452332D01*
X545758Y452364D01*
X545844Y452555D01*
X545935Y452742D01*
X545940Y452761D01*
X545953Y452728D01*
X546027Y452533D01*
X546046Y452500D01*
X546061Y452464D01*
X546170Y452286D01*
X546274Y452106D01*
X546298Y452076D01*
X546318Y452044D01*
X546454Y451885D01*
X546586Y451724D01*
X546615Y451699D01*
X546640Y451670D01*
X546800Y451535D01*
X546956Y451397D01*
X546989Y451377D01*
X547018Y451353D01*
X547100Y451307D01*
X547374Y451135D01*
X547532Y451068D01*
X547615Y451023D01*
X551473Y449425D01*
X554223Y446675D01*
X555711Y443082D01*
X555711Y439194D01*
X554223Y435601D01*
X551473Y432851D01*
X547615Y431253D01*
X547581Y431236D01*
X547545Y431223D01*
X547361Y431123D01*
X547176Y431028D01*
X547145Y431006D01*
X547112Y430987D01*
X546946Y430859D01*
X546779Y430735D01*
X546752Y430708D01*
X546722Y430685D01*
X546580Y430531D01*
X546434Y430382D01*
X546413Y430351D01*
X546387Y430323D01*
X546271Y430148D01*
X546151Y429978D01*
X546135Y429944D01*
X546114Y429912D01*
X546028Y429721D01*
X545937Y429533D01*
X545932Y429515D01*
X545919Y429548D01*
G37*
%LPD*%
%LPC*%
G36*
X596719Y454948D02*
X596719Y454948D01*
X596645Y455143D01*
X596626Y455176D01*
X596611Y455212D01*
X596503Y455389D01*
X596398Y455570D01*
X596374Y455600D01*
X596354Y455632D01*
X596218Y455790D01*
X596086Y455952D01*
X596057Y455977D01*
X596032Y456006D01*
X595872Y456140D01*
X595716Y456279D01*
X595683Y456299D01*
X595654Y456323D01*
X595573Y456368D01*
X595298Y456541D01*
X595139Y456608D01*
X595057Y456653D01*
X591199Y458251D01*
X588449Y461001D01*
X586961Y464594D01*
X586961Y468482D01*
X588449Y472075D01*
X591199Y474825D01*
X594792Y476313D01*
X598680Y476313D01*
X602273Y474825D01*
X605023Y472075D01*
X606511Y468482D01*
X606511Y464594D01*
X605023Y461001D01*
X602273Y458251D01*
X598415Y456653D01*
X598381Y456636D01*
X598345Y456623D01*
X598161Y456523D01*
X597976Y456428D01*
X597945Y456406D01*
X597912Y456387D01*
X597746Y456259D01*
X597579Y456135D01*
X597552Y456108D01*
X597522Y456085D01*
X597380Y455931D01*
X597234Y455782D01*
X597213Y455751D01*
X597187Y455723D01*
X597071Y455548D01*
X596951Y455378D01*
X596935Y455344D01*
X596914Y455312D01*
X596828Y455121D01*
X596737Y454933D01*
X596732Y454915D01*
X596719Y454948D01*
G37*
%LPD*%
%LPC*%
G36*
X545919Y454948D02*
X545919Y454948D01*
X545845Y455143D01*
X545826Y455176D01*
X545811Y455212D01*
X545703Y455389D01*
X545598Y455570D01*
X545574Y455600D01*
X545554Y455632D01*
X545418Y455790D01*
X545286Y455952D01*
X545257Y455977D01*
X545232Y456006D01*
X545072Y456140D01*
X544916Y456279D01*
X544883Y456299D01*
X544854Y456323D01*
X544773Y456368D01*
X544498Y456541D01*
X544339Y456608D01*
X544257Y456653D01*
X540399Y458251D01*
X537649Y461001D01*
X536161Y464594D01*
X536161Y468482D01*
X537649Y472075D01*
X540399Y474825D01*
X543992Y476313D01*
X547880Y476313D01*
X551473Y474825D01*
X554223Y472075D01*
X555711Y468482D01*
X555711Y464594D01*
X554223Y461001D01*
X551473Y458251D01*
X547615Y456653D01*
X547581Y456636D01*
X547545Y456623D01*
X547361Y456523D01*
X547176Y456428D01*
X547145Y456406D01*
X547112Y456387D01*
X546946Y456259D01*
X546779Y456135D01*
X546752Y456108D01*
X546722Y456085D01*
X546580Y455931D01*
X546434Y455782D01*
X546413Y455751D01*
X546387Y455723D01*
X546271Y455548D01*
X546151Y455378D01*
X546135Y455344D01*
X546114Y455312D01*
X546028Y455121D01*
X545937Y454933D01*
X545932Y454915D01*
X545919Y454948D01*
G37*
%LPD*%
%LPC*%
G36*
X591223Y724561D02*
X591223Y724561D01*
X591223Y731123D01*
X592046Y730856D01*
X593459Y730136D01*
X594743Y729203D01*
X595865Y728081D01*
X596798Y726797D01*
X597518Y725384D01*
X597785Y724561D01*
X591223Y724561D01*
G37*
%LPD*%
%LPC*%
G36*
X565823Y724561D02*
X565823Y724561D01*
X565823Y731123D01*
X566646Y730856D01*
X568059Y730136D01*
X569343Y729203D01*
X570465Y728081D01*
X571398Y726797D01*
X572118Y725384D01*
X572385Y724561D01*
X565823Y724561D01*
G37*
%LPD*%
%LPC*%
G36*
X553167Y724561D02*
X553167Y724561D01*
X553434Y725384D01*
X554154Y726797D01*
X555087Y728081D01*
X556209Y729203D01*
X557493Y730136D01*
X558906Y730856D01*
X559729Y731123D01*
X559729Y724561D01*
X553167Y724561D01*
G37*
%LPD*%
%LPC*%
G36*
X578567Y724561D02*
X578567Y724561D01*
X578834Y725384D01*
X579554Y726797D01*
X580487Y728081D01*
X581609Y729203D01*
X582893Y730136D01*
X584306Y730856D01*
X585129Y731123D01*
X585129Y724561D01*
X578567Y724561D01*
G37*
%LPD*%
%LPC*%
G36*
X591223Y718467D02*
X591223Y718467D01*
X597785Y718467D01*
X597518Y717644D01*
X596798Y716231D01*
X595865Y714947D01*
X594743Y713825D01*
X593459Y712892D01*
X592046Y712172D01*
X591223Y711905D01*
X591223Y718467D01*
G37*
%LPD*%
%LPC*%
G36*
X565823Y718467D02*
X565823Y718467D01*
X572385Y718467D01*
X572118Y717644D01*
X571398Y716231D01*
X570465Y714947D01*
X569343Y713825D01*
X568059Y712892D01*
X566646Y712172D01*
X565823Y711905D01*
X565823Y718467D01*
G37*
%LPD*%
%LPC*%
G36*
X584306Y712172D02*
X584306Y712172D01*
X582893Y712892D01*
X581609Y713825D01*
X580487Y714947D01*
X579554Y716231D01*
X578834Y717644D01*
X578567Y718467D01*
X585129Y718467D01*
X585129Y711905D01*
X584306Y712172D01*
G37*
%LPD*%
%LPC*%
G36*
X558906Y712172D02*
X558906Y712172D01*
X557493Y712892D01*
X556209Y713825D01*
X555087Y714947D01*
X554154Y716231D01*
X553434Y717644D01*
X553167Y718467D01*
X559729Y718467D01*
X559729Y711905D01*
X558906Y712172D01*
G37*
%LPD*%
D10*
X355600Y508000D03*
X355600Y533400D03*
X355600Y558800D03*
X355600Y584200D03*
X355600Y609600D03*
X19050Y584200D03*
X19050Y558800D03*
X19050Y533400D03*
X19050Y508000D03*
X19050Y482600D03*
X19050Y457200D03*
X19050Y431800D03*
X19050Y406400D03*
X19050Y381000D03*
X19050Y355600D03*
D11*
X596736Y364938D03*
X545936Y364938D03*
X596736Y390338D03*
X545936Y390338D03*
X596736Y415738D03*
X545936Y415738D03*
X596736Y441138D03*
X545936Y441138D03*
X596736Y466538D03*
X545936Y466538D03*
D12*
X562776Y721514D03*
X562776Y772314D03*
X588176Y721514D03*
X588176Y772314D03*
D13*
X222250Y469900D03*
X241300Y469900D03*
X260350Y488950D03*
X260350Y508000D03*
X260350Y527050D03*
X241300Y558800D03*
X222250Y558800D03*
X101600Y723900D03*
X317500Y419100D03*
D14*
X304800Y406400D01*
X139700Y406400D01*
X120650Y425450D01*
X120650Y444500D01*
X127000Y450850D01*
X209550Y450850D01*
X222250Y463550D01*
X222250Y469900D01*
X44450Y406400D02*
X19050Y381000D01*
X44450Y406400D02*
X139700Y406400D01*
D13*
X374650Y368300D03*
D14*
X368300Y374650D01*
X368300Y400050D01*
X349250Y419100D02*
X317500Y419100D01*
X349250Y419100D02*
X368300Y400050D01*
D13*
X95250Y438150D03*
D14*
X107950Y425450D01*
X120650Y425450D01*
X101600Y723900D02*
X101600Y781050D01*
X95250Y787400D01*
X63500Y787400D02*
X57150Y793750D01*
X25400Y793750D01*
X19050Y800100D01*
X106026Y812800D02*
X177800Y812800D01*
X106026Y812800D02*
X104022Y814804D01*
X177800Y812800D02*
X190500Y800100D01*
X190500Y768350D02*
X184150Y762000D01*
X95250Y787400D02*
X63500Y787400D01*
X190500Y800100D02*
X190500Y768350D01*
D13*
X184150Y762000D03*
D14*
X19050Y800100D02*
X19050Y806450D01*
X27404Y814804D01*
X104022Y814804D01*
D15*
X588486Y721514D02*
X590000Y720000D01*
X605000Y735000D01*
X605000Y855000D01*
X590000Y870000D01*
X450000Y870000D01*
D16*
X450000Y870000D03*
D15*
X610000Y474281D02*
X611590Y472691D01*
X610000Y474281D02*
X610000Y710000D01*
X611590Y405192D02*
X596736Y390338D01*
X611590Y405192D02*
X611590Y472691D01*
X610000Y710000D02*
X600000Y720000D01*
X590000Y720000D01*
D13*
X396700Y923050D03*
X12700Y838200D03*
D14*
X12700Y831850D01*
X19050Y825500D01*
X330200Y850900D02*
X330200Y895350D01*
X357900Y923050D01*
X396700Y923050D01*
X304800Y825500D02*
X19050Y825500D01*
X304800Y825500D02*
X330200Y850900D01*
D13*
X114300Y685800D03*
D14*
X349250Y685800D01*
X371950Y708500D01*
D13*
X371950Y909000D03*
D14*
X371950Y708500D01*
D13*
X165100Y520700D03*
D14*
X31750Y520700D02*
X19050Y508000D01*
X31750Y520700D02*
X165100Y520700D01*
D13*
X38100Y762000D03*
D14*
X38100Y692150D01*
X32258Y635000D02*
X38608Y628650D01*
X196850Y628650D02*
X209550Y615950D01*
X209550Y476250D01*
X196850Y463550D01*
X95250Y463550D01*
X32258Y686308D02*
X38100Y692150D01*
X32258Y686308D02*
X32258Y635000D01*
X38608Y628650D02*
X195580Y628650D01*
D13*
X95250Y463550D03*
D14*
X195580Y628650D02*
X196850Y628650D01*
D13*
X450000Y670000D03*
D14*
X205180Y670000D01*
X195580Y660400D02*
X195580Y628650D01*
X195580Y660400D02*
X205180Y670000D01*
D13*
X38100Y781050D03*
X95250Y501650D03*
D14*
X19050Y762000D02*
X38100Y781050D01*
X19050Y762000D02*
X19050Y622300D01*
X25400Y615950D01*
X184150Y615950D02*
X196850Y603250D01*
X196850Y508000D02*
X190500Y501650D01*
X95250Y501650D01*
X25400Y615950D02*
X184150Y615950D01*
X196850Y603250D02*
X196850Y508000D01*
X524958Y415738D02*
X545936Y415738D01*
X524958Y415738D02*
X520700Y411480D01*
X520700Y358140D01*
X129540Y358140D01*
X124460Y363220D01*
X124460Y383540D01*
D13*
X106680Y391160D03*
D14*
X116840Y391160D01*
X124460Y383540D01*
D13*
X88900Y488950D03*
D14*
X82550Y482600D01*
X19050Y482600D01*
D13*
X152400Y419100D03*
D14*
X304800Y419100D02*
X336550Y450850D01*
X336550Y527050D01*
X342900Y533400D01*
X355600Y533400D01*
X304800Y419100D02*
X152400Y419100D01*
D13*
X88900Y476250D03*
D14*
X69850Y457200D01*
X19050Y457200D01*
D13*
X139700Y438150D03*
D14*
X292100Y438150D01*
X317500Y463550D02*
X317500Y546100D01*
X330200Y558800D02*
X355600Y558800D01*
X317500Y463550D02*
X292100Y438150D01*
X317500Y546100D02*
X330200Y558800D01*
D16*
X390000Y770000D03*
D15*
X560462Y770000D01*
X562776Y772314D01*
X585862Y770000D02*
X588176Y772314D01*
X585862Y770000D02*
X560462Y770000D01*
D13*
X44450Y679450D03*
X31750Y806450D03*
D14*
X57500Y692500D02*
X44450Y679450D01*
X57500Y692500D02*
X63500Y698500D01*
X107950Y698500D01*
X114300Y704850D01*
X114300Y793750D02*
X101600Y806450D01*
X31750Y806450D01*
X114300Y793750D02*
X114300Y704850D01*
D13*
X182880Y556260D03*
D14*
X146050Y533400D02*
X19050Y533400D01*
X146050Y533400D02*
X168910Y556260D01*
X182880Y556260D01*
D13*
X154940Y568960D03*
D14*
X144780Y558800D02*
X19050Y558800D01*
X144780Y558800D02*
X154940Y568960D01*
D13*
X149860Y588010D03*
D14*
X148590Y584200D02*
X19050Y584200D01*
X148590Y584200D02*
X149860Y585470D01*
X149860Y588010D01*
D16*
X330000Y600000D03*
X530000Y630000D03*
D14*
X330000Y610000D02*
X330000Y600000D01*
X330000Y610000D02*
X350000Y630000D01*
X530000Y630000D01*
M02*
