G04 EAGLE Gerber RS-274X export*
G75*
%MOMM*%
%FSLAX34Y34*%
%LPD*%
%INSilkscreen Bottom*%
%IPPOS*%
%AMOC8*
5,1,8,0,0,1.08239X$1,22.5*%
G01*
%ADD10R,15.773400X0.025400*%
%ADD11R,15.748000X0.025400*%
%ADD12R,6.629400X0.025400*%
%ADD13R,0.025400X0.025400*%
%ADD14R,4.927600X0.025400*%
%ADD15R,3.556000X0.025400*%
%ADD16R,1.371600X0.025400*%
%ADD17R,0.127000X0.025400*%
%ADD18R,0.050800X0.025400*%
%ADD19R,0.736600X0.025400*%
%ADD20R,0.406400X0.025400*%
%ADD21R,0.203200X0.025400*%
%ADD22R,0.177800X0.025400*%
%ADD23R,0.279400X0.025400*%
%ADD24R,0.711200X0.025400*%
%ADD25R,1.270000X0.025400*%
%ADD26R,0.762000X0.025400*%
%ADD27R,0.584200X0.025400*%
%ADD28R,1.701800X0.025400*%
%ADD29R,1.879600X0.025400*%
%ADD30R,1.422400X0.025400*%
%ADD31R,1.168400X0.025400*%
%ADD32R,0.508000X0.025400*%
%ADD33R,0.965200X0.025400*%
%ADD34R,0.152400X0.025400*%
%ADD35R,0.558800X0.025400*%
%ADD36R,1.193800X0.025400*%
%ADD37R,0.889000X0.025400*%
%ADD38R,0.482600X0.025400*%
%ADD39R,1.092200X0.025400*%
%ADD40R,0.381000X0.025400*%
%ADD41R,0.812800X0.025400*%
%ADD42R,1.041400X0.025400*%
%ADD43R,0.355600X0.025400*%
%ADD44R,0.533400X0.025400*%
%ADD45R,0.787400X0.025400*%
%ADD46R,0.990600X0.025400*%
%ADD47R,0.330200X0.025400*%
%ADD48R,0.457200X0.025400*%
%ADD49R,0.304800X0.025400*%
%ADD50R,0.431800X0.025400*%
%ADD51R,0.939800X0.025400*%
%ADD52R,0.685800X0.025400*%
%ADD53R,0.914400X0.025400*%
%ADD54R,0.660400X0.025400*%
%ADD55R,0.635000X0.025400*%
%ADD56R,0.228600X0.025400*%
%ADD57R,0.254000X0.025400*%
%ADD58R,0.863600X0.025400*%
%ADD59R,0.838200X0.025400*%
%ADD60R,1.016000X0.025400*%
%ADD61R,1.066800X0.025400*%
%ADD62R,0.101600X0.025400*%
%ADD63R,0.076200X0.025400*%
%ADD64R,0.609600X0.025400*%
%ADD65R,1.117600X0.025400*%
%ADD66R,1.549400X0.025400*%
%ADD67C,0.000000*%


D10*
X253746Y718820D03*
X253746Y719074D03*
D11*
X253619Y719328D03*
X253619Y719582D03*
D10*
X253746Y719836D03*
D11*
X253619Y720090D03*
X253619Y720344D03*
X253619Y720598D03*
D10*
X253746Y720852D03*
D11*
X253619Y721106D03*
X253619Y721360D03*
D10*
X253746Y721614D03*
D11*
X253619Y721868D03*
X253619Y722122D03*
X253619Y722376D03*
D10*
X253746Y722630D03*
D11*
X253619Y722884D03*
D10*
X253746Y723138D03*
D11*
X253619Y723392D03*
X253619Y723646D03*
D10*
X253746Y723900D03*
D11*
X253619Y724154D03*
X253619Y724408D03*
X253619Y724662D03*
X253619Y724916D03*
D10*
X253746Y725170D03*
D11*
X253619Y725424D03*
X253619Y725678D03*
D10*
X253746Y725932D03*
D11*
X253619Y726186D03*
X253619Y726440D03*
X253619Y726694D03*
D10*
X253746Y726948D03*
D11*
X253619Y727202D03*
X253619Y727456D03*
X253619Y727710D03*
X253619Y727964D03*
D10*
X253746Y728218D03*
D11*
X253619Y728472D03*
D10*
X253746Y728726D03*
D11*
X253619Y728980D03*
X253619Y729234D03*
D10*
X253746Y729488D03*
D11*
X253619Y729742D03*
X253619Y729996D03*
D10*
X253746Y730250D03*
D11*
X253619Y730504D03*
D10*
X253746Y730758D03*
D11*
X253619Y731012D03*
X253619Y731266D03*
D10*
X253746Y731520D03*
D11*
X253619Y731774D03*
X253619Y732028D03*
D10*
X253746Y732282D03*
D11*
X253619Y732536D03*
D10*
X253746Y732790D03*
D11*
X253619Y733044D03*
X253619Y733298D03*
D10*
X253746Y733552D03*
D11*
X253619Y733806D03*
X253619Y734060D03*
D10*
X253746Y734314D03*
D11*
X253619Y734568D03*
D10*
X253746Y734822D03*
D11*
X253619Y735076D03*
X253619Y735330D03*
D12*
X208026Y735584D03*
D13*
X243840Y735584D03*
D14*
X269113Y735584D03*
D13*
X294132Y735584D03*
D15*
X314833Y735584D03*
D16*
X181737Y735838D03*
D17*
X189484Y735838D03*
D18*
X190627Y735838D03*
D19*
X194818Y735838D03*
D17*
X199390Y735838D03*
D20*
X202311Y735838D03*
D17*
X205232Y735838D03*
X206756Y735838D03*
D18*
X207899Y735838D03*
D21*
X209423Y735838D03*
D22*
X211582Y735838D03*
D17*
X213360Y735838D03*
D23*
X215646Y735838D03*
D24*
X220853Y735838D03*
D21*
X225679Y735838D03*
D25*
X233299Y735838D03*
D26*
X249301Y735838D03*
D17*
X254000Y735838D03*
X255524Y735838D03*
D18*
X256667Y735838D03*
D21*
X258191Y735838D03*
X260477Y735838D03*
D17*
X262382Y735838D03*
D27*
X266192Y735838D03*
D21*
X270383Y735838D03*
D17*
X272288Y735838D03*
X273812Y735838D03*
D18*
X274955Y735838D03*
D28*
X283972Y735838D03*
D29*
X307721Y735838D03*
D18*
X317627Y735838D03*
D30*
X325247Y735838D03*
D31*
X180721Y736092D03*
D32*
X194183Y736092D03*
D17*
X202438Y736092D03*
D27*
X220218Y736092D03*
D33*
X234061Y736092D03*
D32*
X249047Y736092D03*
D34*
X266573Y736092D03*
D31*
X285877Y736092D03*
D20*
X301371Y736092D03*
D35*
X312801Y736092D03*
D36*
X326644Y736092D03*
D31*
X180721Y736346D03*
D32*
X194437Y736346D03*
D17*
X202438Y736346D03*
D27*
X220218Y736346D03*
D37*
X233680Y736346D03*
D38*
X249428Y736346D03*
D22*
X266700Y736346D03*
D39*
X285496Y736346D03*
D40*
X301752Y736346D03*
D32*
X312801Y736346D03*
D31*
X326517Y736346D03*
X180721Y736600D03*
D38*
X194310Y736600D03*
D34*
X202565Y736600D03*
D27*
X220218Y736600D03*
D41*
X233553Y736600D03*
D20*
X249555Y736600D03*
D34*
X266573Y736600D03*
D42*
X285242Y736600D03*
D43*
X302133Y736600D03*
D44*
X312928Y736600D03*
D31*
X326517Y736600D03*
X180721Y736854D03*
D38*
X194564Y736854D03*
D17*
X202438Y736854D03*
D35*
X220091Y736854D03*
D45*
X233426Y736854D03*
D40*
X249936Y736854D03*
D22*
X266700Y736854D03*
D46*
X284988Y736854D03*
D47*
X302260Y736854D03*
D38*
X312928Y736854D03*
D31*
X326517Y736854D03*
X180721Y737108D03*
D48*
X194437Y737108D03*
D17*
X202438Y737108D03*
D35*
X220091Y737108D03*
D26*
X233299Y737108D03*
D47*
X249936Y737108D03*
D34*
X266573Y737108D03*
D46*
X284988Y737108D03*
D49*
X302641Y737108D03*
D32*
X313055Y737108D03*
D31*
X326517Y737108D03*
X180721Y737362D03*
D50*
X194564Y737362D03*
D17*
X202438Y737362D03*
D35*
X220091Y737362D03*
D24*
X233045Y737362D03*
D49*
X250063Y737362D03*
D22*
X266700Y737362D03*
D51*
X284734Y737362D03*
D49*
X302895Y737362D03*
D38*
X313182Y737362D03*
D36*
X326644Y737362D03*
D31*
X180721Y737616D03*
D50*
X194818Y737616D03*
D17*
X202438Y737616D03*
D35*
X220091Y737616D03*
D52*
X233172Y737616D03*
D49*
X250317Y737616D03*
D34*
X266573Y737616D03*
D53*
X284607Y737616D03*
D23*
X303022Y737616D03*
D48*
X313309Y737616D03*
D31*
X326517Y737616D03*
X180721Y737870D03*
D50*
X194818Y737870D03*
D17*
X202438Y737870D03*
D44*
X219964Y737870D03*
D54*
X233045Y737870D03*
D23*
X250444Y737870D03*
D22*
X266700Y737870D03*
D37*
X284480Y737870D03*
D23*
X303276Y737870D03*
D50*
X313182Y737870D03*
D31*
X326517Y737870D03*
X180721Y738124D03*
D40*
X194818Y738124D03*
D17*
X202438Y738124D03*
D44*
X219964Y738124D03*
D55*
X232918Y738124D03*
D56*
X250444Y738124D03*
D34*
X266573Y738124D03*
D37*
X284480Y738124D03*
D49*
X303403Y738124D03*
D50*
X313436Y738124D03*
D36*
X326644Y738124D03*
D31*
X180721Y738378D03*
D40*
X195072Y738378D03*
D17*
X202438Y738378D03*
D44*
X219964Y738378D03*
D27*
X232918Y738378D03*
D57*
X250571Y738378D03*
D22*
X266700Y738378D03*
D58*
X284353Y738378D03*
D23*
X303530Y738378D03*
D40*
X313436Y738378D03*
D31*
X326517Y738378D03*
X180721Y738632D03*
D43*
X194945Y738632D03*
D17*
X202438Y738632D03*
D32*
X219837Y738632D03*
D27*
X232918Y738632D03*
D21*
X250571Y738632D03*
D34*
X266573Y738632D03*
D58*
X284353Y738632D03*
D23*
X303784Y738632D03*
D20*
X313563Y738632D03*
D31*
X326517Y738632D03*
X180721Y738886D03*
D40*
X195072Y738886D03*
D17*
X202438Y738886D03*
D32*
X219837Y738886D03*
D35*
X232791Y738886D03*
D56*
X250698Y738886D03*
D22*
X266700Y738886D03*
D59*
X284226Y738886D03*
D49*
X303911Y738886D03*
D43*
X313563Y738886D03*
D31*
X326517Y738886D03*
X180721Y739140D03*
D47*
X195072Y739140D03*
D17*
X202438Y739140D03*
D32*
X219837Y739140D03*
D35*
X232791Y739140D03*
D22*
X250698Y739140D03*
D34*
X266573Y739140D03*
D59*
X284226Y739140D03*
D23*
X304038Y739140D03*
D43*
X313817Y739140D03*
D36*
X326644Y739140D03*
D31*
X180721Y739394D03*
D47*
X195326Y739394D03*
D17*
X202438Y739394D03*
D38*
X219710Y739394D03*
D32*
X232791Y739394D03*
D21*
X250825Y739394D03*
D22*
X266700Y739394D03*
D41*
X284099Y739394D03*
D49*
X304165Y739394D03*
D43*
X313817Y739394D03*
D31*
X326517Y739394D03*
X180721Y739648D03*
D49*
X195199Y739648D03*
D17*
X202438Y739648D03*
D38*
X219710Y739648D03*
D32*
X232791Y739648D03*
D34*
X250825Y739648D03*
X266573Y739648D03*
D41*
X284099Y739648D03*
D47*
X304292Y739648D03*
D43*
X313817Y739648D03*
D31*
X326517Y739648D03*
X180721Y739902D03*
D23*
X195326Y739902D03*
D17*
X202438Y739902D03*
D38*
X219710Y739902D03*
X232664Y739902D03*
D17*
X242570Y739902D03*
D22*
X250952Y739902D03*
X266700Y739902D03*
D45*
X283972Y739902D03*
D17*
X295402Y739902D03*
D49*
X304419Y739902D03*
D47*
X313944Y739902D03*
D36*
X326644Y739902D03*
D31*
X180721Y740156D03*
D49*
X195453Y740156D03*
D17*
X202438Y740156D03*
D38*
X219710Y740156D03*
X232918Y740156D03*
D23*
X242570Y740156D03*
D34*
X250825Y740156D03*
X266573Y740156D03*
D45*
X283972Y740156D03*
D23*
X295402Y740156D03*
D47*
X304546Y740156D03*
D49*
X314071Y740156D03*
D31*
X326517Y740156D03*
X180721Y740410D03*
D23*
X195580Y740410D03*
D60*
X206883Y740410D03*
D48*
X219583Y740410D03*
X232791Y740410D03*
D47*
X242570Y740410D03*
D61*
X255397Y740410D03*
D37*
X270256Y740410D03*
D45*
X283972Y740410D03*
D47*
X295402Y740410D03*
D43*
X304673Y740410D03*
D57*
X314071Y740410D03*
D31*
X326517Y740410D03*
X180721Y740664D03*
D57*
X195453Y740664D03*
D42*
X207010Y740664D03*
D48*
X219583Y740664D03*
X232791Y740664D03*
D40*
X242570Y740664D03*
D42*
X255524Y740664D03*
D53*
X270383Y740664D03*
D45*
X283972Y740664D03*
D40*
X295402Y740664D03*
X304800Y740664D03*
D23*
X314198Y740664D03*
D31*
X326517Y740664D03*
X180721Y740918D03*
D56*
X195580Y740918D03*
D60*
X206883Y740918D03*
D48*
X219583Y740918D03*
D50*
X232918Y740918D03*
D20*
X242697Y740918D03*
D42*
X255524Y740918D03*
D37*
X270256Y740918D03*
D45*
X283972Y740918D03*
D50*
X295402Y740918D03*
D40*
X304800Y740918D03*
D56*
X314198Y740918D03*
D36*
X326644Y740918D03*
D31*
X180721Y741172D03*
D57*
X195707Y741172D03*
D42*
X207010Y741172D03*
D50*
X219456Y741172D03*
X232918Y741172D03*
X242570Y741172D03*
D42*
X255524Y741172D03*
D53*
X270383Y741172D03*
D26*
X283845Y741172D03*
D50*
X295402Y741172D03*
D40*
X305054Y741172D03*
D56*
X314198Y741172D03*
D31*
X326517Y741172D03*
X180721Y741426D03*
D56*
X195834Y741426D03*
D42*
X207010Y741426D03*
D50*
X219456Y741426D03*
X232918Y741426D03*
D48*
X242697Y741426D03*
D42*
X255524Y741426D03*
D37*
X270256Y741426D03*
D26*
X283845Y741426D03*
D48*
X295529Y741426D03*
D20*
X305181Y741426D03*
D22*
X314198Y741426D03*
D36*
X326644Y741426D03*
D31*
X180721Y741680D03*
D21*
X195707Y741680D03*
D60*
X206883Y741680D03*
D50*
X219456Y741680D03*
X232918Y741680D03*
D48*
X242697Y741680D03*
D42*
X255524Y741680D03*
D53*
X270383Y741680D03*
D45*
X283972Y741680D03*
D38*
X295402Y741680D03*
D20*
X305181Y741680D03*
D17*
X314198Y741680D03*
D31*
X326517Y741680D03*
X180721Y741934D03*
D22*
X195834Y741934D03*
D60*
X206883Y741934D03*
D20*
X219329Y741934D03*
D40*
X232918Y741934D03*
D38*
X242570Y741934D03*
D42*
X255524Y741934D03*
D53*
X270383Y741934D03*
D26*
X283845Y741934D03*
D38*
X295402Y741934D03*
D50*
X305308Y741934D03*
D62*
X314071Y741934D03*
D31*
X326517Y741934D03*
X180721Y742188D03*
D22*
X196088Y742188D03*
D42*
X207010Y742188D03*
D20*
X219329Y742188D03*
X233045Y742188D03*
D32*
X242697Y742188D03*
D42*
X255524Y742188D03*
D37*
X270256Y742188D03*
D26*
X283845Y742188D03*
D38*
X295402Y742188D03*
D48*
X305435Y742188D03*
D18*
X314071Y742188D03*
D36*
X326644Y742188D03*
D31*
X180721Y742442D03*
D34*
X195961Y742442D03*
D47*
X203454Y742442D03*
D13*
X205486Y742442D03*
X205994Y742442D03*
D63*
X206756Y742442D03*
D62*
X207899Y742442D03*
D18*
X208915Y742442D03*
D13*
X209550Y742442D03*
X210058Y742442D03*
D63*
X210820Y742442D03*
D18*
X211709Y742442D03*
D20*
X219329Y742442D03*
D40*
X232918Y742442D03*
D38*
X242570Y742442D03*
D23*
X251714Y742442D03*
D18*
X253619Y742442D03*
D13*
X254254Y742442D03*
X254762Y742442D03*
D63*
X255524Y742442D03*
D62*
X256667Y742442D03*
D18*
X257683Y742442D03*
D13*
X258318Y742442D03*
X258826Y742442D03*
D63*
X259588Y742442D03*
D13*
X260350Y742442D03*
D53*
X270383Y742442D03*
D26*
X283845Y742442D03*
D38*
X295402Y742442D03*
D48*
X305435Y742442D03*
D13*
X313944Y742442D03*
D31*
X326517Y742442D03*
X180721Y742696D03*
D17*
X196088Y742696D03*
D56*
X202946Y742696D03*
D20*
X219329Y742696D03*
D40*
X233172Y742696D03*
D32*
X242697Y742696D03*
D56*
X251714Y742696D03*
D37*
X270256Y742696D03*
D26*
X283845Y742696D03*
D38*
X295402Y742696D03*
X305562Y742696D03*
D31*
X326517Y742696D03*
X180721Y742950D03*
D17*
X196088Y742950D03*
D57*
X203073Y742950D03*
D40*
X219202Y742950D03*
D43*
X233045Y742950D03*
D32*
X242697Y742950D03*
D57*
X251587Y742950D03*
D53*
X270383Y742950D03*
D26*
X283845Y742950D03*
D38*
X295402Y742950D03*
D32*
X305689Y742950D03*
D31*
X326517Y742950D03*
X180721Y743204D03*
D17*
X196342Y743204D03*
D56*
X202946Y743204D03*
D40*
X219202Y743204D03*
D13*
X226060Y743204D03*
D40*
X233172Y743204D03*
D38*
X242570Y743204D03*
D57*
X251587Y743204D03*
D37*
X270256Y743204D03*
D26*
X283845Y743204D03*
D32*
X295529Y743204D03*
X305689Y743204D03*
D31*
X326517Y743204D03*
X180721Y743458D03*
D17*
X196342Y743458D03*
D56*
X202946Y743458D03*
D43*
X219075Y743458D03*
D18*
X226187Y743458D03*
D43*
X233045Y743458D03*
D32*
X242697Y743458D03*
D57*
X251587Y743458D03*
D53*
X270383Y743458D03*
D26*
X283845Y743458D03*
D38*
X295402Y743458D03*
D44*
X305816Y743458D03*
D36*
X326644Y743458D03*
D31*
X180721Y743712D03*
D63*
X196342Y743712D03*
D57*
X203073Y743712D03*
D43*
X219075Y743712D03*
D18*
X226187Y743712D03*
D47*
X233172Y743712D03*
D32*
X242697Y743712D03*
D56*
X251460Y743712D03*
D37*
X270256Y743712D03*
D26*
X283845Y743712D03*
D38*
X295402Y743712D03*
D35*
X305943Y743712D03*
D31*
X326517Y743712D03*
X180721Y743966D03*
D63*
X196342Y743966D03*
D56*
X202946Y743966D03*
D43*
X219075Y743966D03*
D63*
X226060Y743966D03*
D47*
X233172Y743966D03*
D38*
X242570Y743966D03*
D57*
X251587Y743966D03*
D53*
X270383Y743966D03*
D26*
X283845Y743966D03*
D38*
X295402Y743966D03*
D35*
X305943Y743966D03*
D31*
X326517Y743966D03*
X180721Y744220D03*
D63*
X196596Y744220D03*
D57*
X203073Y744220D03*
D43*
X219075Y744220D03*
D62*
X226187Y744220D03*
D43*
X233299Y744220D03*
D32*
X242697Y744220D03*
D57*
X251587Y744220D03*
D37*
X270256Y744220D03*
D26*
X283845Y744220D03*
D38*
X295402Y744220D03*
D27*
X306070Y744220D03*
D36*
X326644Y744220D03*
D31*
X180721Y744474D03*
D13*
X191516Y744474D03*
D18*
X196723Y744474D03*
D57*
X203073Y744474D03*
D47*
X218948Y744474D03*
D62*
X226187Y744474D03*
D49*
X233299Y744474D03*
D32*
X242697Y744474D03*
D57*
X251587Y744474D03*
D53*
X270383Y744474D03*
D26*
X283845Y744474D03*
D32*
X295529Y744474D03*
D64*
X306197Y744474D03*
D31*
X326517Y744474D03*
X180721Y744728D03*
D18*
X191643Y744728D03*
D13*
X196596Y744728D03*
D56*
X202946Y744728D03*
D47*
X218948Y744728D03*
D62*
X226187Y744728D03*
D49*
X233299Y744728D03*
D32*
X242697Y744728D03*
D21*
X251587Y744728D03*
D37*
X270256Y744728D03*
D26*
X283845Y744728D03*
D38*
X295402Y744728D03*
D64*
X306197Y744728D03*
D31*
X326517Y744728D03*
X180721Y744982D03*
D63*
X191770Y744982D03*
D56*
X202946Y744982D03*
D47*
X218948Y744982D03*
D17*
X226060Y744982D03*
D49*
X233299Y744982D03*
D32*
X242697Y744982D03*
D57*
X251587Y744982D03*
D53*
X270383Y744982D03*
D26*
X283845Y744982D03*
D32*
X295529Y744982D03*
D55*
X306324Y744982D03*
D31*
X326517Y744982D03*
X180721Y745236D03*
D18*
X191897Y745236D03*
D57*
X203073Y745236D03*
D49*
X218821Y745236D03*
D17*
X226060Y745236D03*
D47*
X233426Y745236D03*
D32*
X242697Y745236D03*
D57*
X251587Y745236D03*
D37*
X270256Y745236D03*
D26*
X283845Y745236D03*
D38*
X295402Y745236D03*
D54*
X306451Y745236D03*
D36*
X326644Y745236D03*
D31*
X180721Y745490D03*
D62*
X191897Y745490D03*
D56*
X202946Y745490D03*
D49*
X218821Y745490D03*
D34*
X226187Y745490D03*
D23*
X233426Y745490D03*
D32*
X242697Y745490D03*
D57*
X251587Y745490D03*
D53*
X270383Y745490D03*
D26*
X283845Y745490D03*
D38*
X295402Y745490D03*
D52*
X306578Y745490D03*
D31*
X326517Y745490D03*
X180721Y745744D03*
D62*
X191897Y745744D03*
D56*
X202946Y745744D03*
D49*
X218821Y745744D03*
D34*
X226187Y745744D03*
D23*
X233426Y745744D03*
D38*
X242570Y745744D03*
D57*
X251587Y745744D03*
D37*
X270256Y745744D03*
D26*
X283845Y745744D03*
D44*
X295402Y745744D03*
D52*
X306578Y745744D03*
D31*
X326517Y745744D03*
X180721Y745998D03*
D62*
X192151Y745998D03*
D57*
X203073Y745998D03*
D23*
X218694Y745998D03*
D22*
X226060Y745998D03*
D49*
X233553Y745998D03*
D38*
X242570Y745998D03*
D56*
X251714Y745998D03*
D53*
X270383Y745998D03*
D26*
X283845Y745998D03*
D38*
X295402Y745998D03*
D24*
X306705Y745998D03*
D36*
X326644Y745998D03*
D31*
X180721Y746252D03*
D17*
X192024Y746252D03*
D56*
X202946Y746252D03*
D23*
X218694Y746252D03*
D21*
X226187Y746252D03*
D57*
X233553Y746252D03*
D32*
X242697Y746252D03*
D56*
X251460Y746252D03*
D37*
X270256Y746252D03*
D26*
X283845Y746252D03*
D32*
X295529Y746252D03*
D19*
X306832Y746252D03*
D31*
X326517Y746252D03*
X180721Y746506D03*
D34*
X192151Y746506D03*
D57*
X203073Y746506D03*
D23*
X218694Y746506D03*
D21*
X226187Y746506D03*
D57*
X233553Y746506D03*
D32*
X242697Y746506D03*
D57*
X251587Y746506D03*
D37*
X270256Y746506D03*
D26*
X283845Y746506D03*
D38*
X295402Y746506D03*
D24*
X306705Y746506D03*
D31*
X326517Y746506D03*
X180721Y746760D03*
D17*
X192278Y746760D03*
D42*
X207010Y746760D03*
D23*
X218694Y746760D03*
D21*
X226187Y746760D03*
D57*
X233553Y746760D03*
D32*
X242697Y746760D03*
D42*
X255524Y746760D03*
D53*
X270383Y746760D03*
D26*
X283845Y746760D03*
D38*
X295402Y746760D03*
D52*
X306578Y746760D03*
D31*
X326517Y746760D03*
X180721Y747014D03*
D22*
X192278Y747014D03*
D60*
X206883Y747014D03*
D57*
X218567Y747014D03*
D56*
X226060Y747014D03*
D57*
X233807Y747014D03*
D38*
X242570Y747014D03*
D60*
X255651Y747014D03*
D37*
X270256Y747014D03*
D26*
X283845Y747014D03*
D38*
X295402Y747014D03*
D52*
X306578Y747014D03*
D36*
X326644Y747014D03*
D31*
X180721Y747268D03*
D21*
X192405Y747268D03*
D42*
X207010Y747268D03*
D57*
X218567Y747268D03*
X226187Y747268D03*
D56*
X233680Y747268D03*
D32*
X242697Y747268D03*
D42*
X255524Y747268D03*
D53*
X270383Y747268D03*
D26*
X283845Y747268D03*
D38*
X295402Y747268D03*
D54*
X306451Y747268D03*
D31*
X326517Y747268D03*
X180721Y747522D03*
D22*
X192532Y747522D03*
D42*
X207010Y747522D03*
D57*
X218567Y747522D03*
X226187Y747522D03*
X233807Y747522D03*
D32*
X242697Y747522D03*
D42*
X255524Y747522D03*
D37*
X270256Y747522D03*
D26*
X283845Y747522D03*
D32*
X295529Y747522D03*
D55*
X306324Y747522D03*
D36*
X326644Y747522D03*
D31*
X180721Y747776D03*
D56*
X192532Y747776D03*
D60*
X206883Y747776D03*
D56*
X218440Y747776D03*
D57*
X226187Y747776D03*
D56*
X233680Y747776D03*
D32*
X242697Y747776D03*
D42*
X255524Y747776D03*
D53*
X270383Y747776D03*
D26*
X283845Y747776D03*
D32*
X295275Y747776D03*
D64*
X306197Y747776D03*
D63*
X315214Y747776D03*
D31*
X326517Y747776D03*
X180721Y748030D03*
D56*
X192532Y748030D03*
D60*
X206883Y748030D03*
D56*
X218440Y748030D03*
D23*
X226060Y748030D03*
D21*
X233807Y748030D03*
D32*
X242697Y748030D03*
D42*
X255524Y748030D03*
D37*
X270256Y748030D03*
D26*
X283845Y748030D03*
D38*
X295402Y748030D03*
D27*
X306070Y748030D03*
D63*
X315214Y748030D03*
D31*
X326517Y748030D03*
X180721Y748284D03*
D56*
X192786Y748284D03*
D42*
X207010Y748284D03*
D56*
X218440Y748284D03*
D49*
X226187Y748284D03*
D56*
X233934Y748284D03*
D32*
X242697Y748284D03*
D42*
X255524Y748284D03*
D53*
X270383Y748284D03*
D26*
X283845Y748284D03*
D32*
X295529Y748284D03*
D27*
X306070Y748284D03*
D62*
X315087Y748284D03*
D36*
X326644Y748284D03*
D31*
X180721Y748538D03*
D57*
X192659Y748538D03*
D42*
X207010Y748538D03*
D21*
X218313Y748538D03*
D49*
X226187Y748538D03*
D22*
X233934Y748538D03*
D32*
X242697Y748538D03*
D42*
X255524Y748538D03*
D37*
X270256Y748538D03*
D26*
X283845Y748538D03*
D38*
X295402Y748538D03*
D44*
X305816Y748538D03*
D62*
X314833Y748538D03*
D31*
X326517Y748538D03*
X180721Y748792D03*
D23*
X192786Y748792D03*
D22*
X202692Y748792D03*
D21*
X218313Y748792D03*
D47*
X226060Y748792D03*
D21*
X233807Y748792D03*
D38*
X242570Y748792D03*
D34*
X251333Y748792D03*
D53*
X270383Y748792D03*
D26*
X283845Y748792D03*
D38*
X295402Y748792D03*
D32*
X305689Y748792D03*
D17*
X314960Y748792D03*
D31*
X326517Y748792D03*
X180721Y749046D03*
D57*
X192913Y749046D03*
D34*
X202565Y749046D03*
D21*
X218313Y749046D03*
D47*
X226060Y749046D03*
D22*
X233934Y749046D03*
D38*
X242570Y749046D03*
D34*
X251079Y749046D03*
D37*
X270256Y749046D03*
D26*
X283845Y749046D03*
D38*
X295402Y749046D03*
X305562Y749046D03*
D17*
X314706Y749046D03*
D31*
X326517Y749046D03*
X180721Y749300D03*
D49*
X192913Y749300D03*
D34*
X202565Y749300D03*
D22*
X218186Y749300D03*
D43*
X226187Y749300D03*
D22*
X233934Y749300D03*
D32*
X242697Y749300D03*
D22*
X251206Y749300D03*
D53*
X270383Y749300D03*
D26*
X283845Y749300D03*
D32*
X295529Y749300D03*
D38*
X305562Y749300D03*
D22*
X314706Y749300D03*
D31*
X326517Y749300D03*
X180721Y749554D03*
D49*
X192913Y749554D03*
D34*
X202565Y749554D03*
D22*
X218186Y749554D03*
D43*
X226187Y749554D03*
D22*
X234188Y749554D03*
D32*
X242697Y749554D03*
D22*
X251206Y749554D03*
D37*
X270256Y749554D03*
D26*
X283845Y749554D03*
D38*
X295402Y749554D03*
D50*
X305308Y749554D03*
D21*
X314579Y749554D03*
D36*
X326644Y749554D03*
D31*
X180721Y749808D03*
D49*
X193167Y749808D03*
D34*
X202565Y749808D03*
D22*
X218186Y749808D03*
D43*
X226187Y749808D03*
D34*
X234061Y749808D03*
D32*
X242697Y749808D03*
D17*
X251206Y749808D03*
D53*
X270383Y749808D03*
D26*
X283845Y749808D03*
D32*
X295275Y749808D03*
D50*
X305308Y749808D03*
D56*
X314452Y749808D03*
D31*
X326517Y749808D03*
X180721Y750062D03*
D47*
X193040Y750062D03*
D34*
X202565Y750062D03*
X218059Y750062D03*
D20*
X226187Y750062D03*
D34*
X234061Y750062D03*
D38*
X242570Y750062D03*
D22*
X251206Y750062D03*
D53*
X270383Y750062D03*
D26*
X283845Y750062D03*
D38*
X295402Y750062D03*
D20*
X305181Y750062D03*
D21*
X314325Y750062D03*
D31*
X326517Y750062D03*
X180721Y750316D03*
D43*
X193167Y750316D03*
D34*
X202565Y750316D03*
X218059Y750316D03*
D20*
X226187Y750316D03*
D22*
X234188Y750316D03*
D32*
X242697Y750316D03*
D34*
X251079Y750316D03*
D37*
X270256Y750316D03*
D26*
X283845Y750316D03*
D38*
X295402Y750316D03*
D40*
X305054Y750316D03*
D57*
X314325Y750316D03*
D36*
X326644Y750316D03*
D31*
X180721Y750570D03*
D43*
X193421Y750570D03*
D34*
X202565Y750570D03*
X218059Y750570D03*
D20*
X226187Y750570D03*
D17*
X234188Y750570D03*
D32*
X242697Y750570D03*
D34*
X251079Y750570D03*
D53*
X270383Y750570D03*
D26*
X283845Y750570D03*
D32*
X295529Y750570D03*
D43*
X304927Y750570D03*
D57*
X314071Y750570D03*
D31*
X326517Y750570D03*
X180721Y750824D03*
D40*
X193294Y750824D03*
D34*
X202565Y750824D03*
X218059Y750824D03*
D50*
X226060Y750824D03*
D17*
X234188Y750824D03*
D32*
X242697Y750824D03*
D34*
X251333Y750824D03*
D37*
X270256Y750824D03*
D26*
X283845Y750824D03*
D38*
X295402Y750824D03*
D47*
X304800Y750824D03*
D49*
X314071Y750824D03*
D31*
X326517Y750824D03*
X180721Y751078D03*
D20*
X193421Y751078D03*
D34*
X202565Y751078D03*
D17*
X217932Y751078D03*
D48*
X226187Y751078D03*
D17*
X234188Y751078D03*
D32*
X242697Y751078D03*
D22*
X251206Y751078D03*
D53*
X270383Y751078D03*
D26*
X283845Y751078D03*
D32*
X295529Y751078D03*
D49*
X304673Y751078D03*
X313817Y751078D03*
D31*
X326517Y751078D03*
X180721Y751332D03*
D40*
X193548Y751332D03*
D34*
X202565Y751332D03*
D17*
X217932Y751332D03*
D48*
X226187Y751332D03*
D17*
X234442Y751332D03*
D32*
X242697Y751332D03*
D34*
X251079Y751332D03*
D37*
X270256Y751332D03*
D26*
X283845Y751332D03*
D38*
X295402Y751332D03*
D23*
X304546Y751332D03*
D47*
X313944Y751332D03*
D36*
X326644Y751332D03*
D31*
X180721Y751586D03*
D50*
X193548Y751586D03*
D34*
X202565Y751586D03*
D17*
X217932Y751586D03*
D48*
X226187Y751586D03*
D62*
X234315Y751586D03*
D32*
X242697Y751586D03*
D34*
X251079Y751586D03*
D53*
X270383Y751586D03*
D26*
X283845Y751586D03*
D38*
X295402Y751586D03*
D57*
X304419Y751586D03*
D43*
X313817Y751586D03*
D31*
X326517Y751586D03*
X180721Y751840D03*
D50*
X193548Y751840D03*
D34*
X202565Y751840D03*
D62*
X217805Y751840D03*
D38*
X226060Y751840D03*
D62*
X234315Y751840D03*
D38*
X242570Y751840D03*
D22*
X251206Y751840D03*
D37*
X270256Y751840D03*
D26*
X283845Y751840D03*
D44*
X295402Y751840D03*
D56*
X304292Y751840D03*
D40*
X313690Y751840D03*
D31*
X326517Y751840D03*
X180721Y752094D03*
D50*
X193802Y752094D03*
D34*
X202565Y752094D03*
D62*
X217805Y752094D03*
D32*
X226187Y752094D03*
D62*
X234315Y752094D03*
D32*
X242697Y752094D03*
D22*
X251206Y752094D03*
D53*
X270383Y752094D03*
D26*
X283845Y752094D03*
D38*
X295402Y752094D03*
D21*
X304165Y752094D03*
D20*
X313563Y752094D03*
D31*
X326517Y752094D03*
X180721Y752348D03*
D48*
X193675Y752348D03*
D34*
X202565Y752348D03*
D62*
X217805Y752348D03*
D32*
X226187Y752348D03*
D62*
X234569Y752348D03*
D38*
X242570Y752348D03*
D34*
X251079Y752348D03*
D37*
X270256Y752348D03*
D26*
X283845Y752348D03*
D38*
X295402Y752348D03*
D22*
X304038Y752348D03*
D40*
X313436Y752348D03*
D31*
X326517Y752348D03*
X180721Y752602D03*
D48*
X193929Y752602D03*
D34*
X202565Y752602D03*
D62*
X217805Y752602D03*
D32*
X226187Y752602D03*
D63*
X234442Y752602D03*
D32*
X242697Y752602D03*
D22*
X251206Y752602D03*
D37*
X270256Y752602D03*
D26*
X283845Y752602D03*
D32*
X295529Y752602D03*
D22*
X304038Y752602D03*
D50*
X313436Y752602D03*
D36*
X326644Y752602D03*
D31*
X180721Y752856D03*
D38*
X193802Y752856D03*
D34*
X202565Y752856D03*
D63*
X217678Y752856D03*
D44*
X226060Y752856D03*
D63*
X234442Y752856D03*
D32*
X242697Y752856D03*
D17*
X251206Y752856D03*
D53*
X270383Y752856D03*
D26*
X283845Y752856D03*
D38*
X295402Y752856D03*
D34*
X303911Y752856D03*
D50*
X313182Y752856D03*
D31*
X326517Y752856D03*
X180721Y753110D03*
D13*
X187198Y753110D03*
X187706Y753110D03*
X188214Y753110D03*
X189230Y753110D03*
X189992Y753110D03*
X191008Y753110D03*
D32*
X193929Y753110D03*
D13*
X197104Y753110D03*
X197866Y753110D03*
X199136Y753110D03*
X199898Y753110D03*
X200406Y753110D03*
X201422Y753110D03*
D22*
X202692Y753110D03*
D13*
X203962Y753110D03*
X205232Y753110D03*
X205994Y753110D03*
X206502Y753110D03*
X207518Y753110D03*
X208280Y753110D03*
X209296Y753110D03*
X210058Y753110D03*
X211328Y753110D03*
X212344Y753110D03*
X213360Y753110D03*
X214122Y753110D03*
X215392Y753110D03*
X216154Y753110D03*
X216916Y753110D03*
D62*
X217805Y753110D03*
D13*
X219456Y753110D03*
X220218Y753110D03*
X221488Y753110D03*
X222250Y753110D03*
X222758Y753110D03*
D35*
X226187Y753110D03*
D13*
X229616Y753110D03*
X230378Y753110D03*
X231648Y753110D03*
X232410Y753110D03*
X233172Y753110D03*
D17*
X234442Y753110D03*
D13*
X235966Y753110D03*
X236474Y753110D03*
X237744Y753110D03*
X238506Y753110D03*
X239014Y753110D03*
D44*
X242570Y753110D03*
D13*
X245872Y753110D03*
X246634Y753110D03*
X247904Y753110D03*
X248666Y753110D03*
X249174Y753110D03*
D21*
X251079Y753110D03*
D13*
X252730Y753110D03*
X254000Y753110D03*
X254762Y753110D03*
X255270Y753110D03*
X256286Y753110D03*
X257048Y753110D03*
X258064Y753110D03*
X258826Y753110D03*
X260096Y753110D03*
X260858Y753110D03*
X261366Y753110D03*
X262382Y753110D03*
X263144Y753110D03*
X264160Y753110D03*
X264922Y753110D03*
D53*
X270383Y753110D03*
D13*
X275590Y753110D03*
D18*
X276733Y753110D03*
D13*
X277622Y753110D03*
X278130Y753110D03*
X279400Y753110D03*
D45*
X283972Y753110D03*
D13*
X288544Y753110D03*
X289306Y753110D03*
X289814Y753110D03*
X290830Y753110D03*
X291592Y753110D03*
X292100Y753110D03*
D35*
X295529Y753110D03*
D13*
X298958Y753110D03*
X299466Y753110D03*
X300736Y753110D03*
X301244Y753110D03*
X302006Y753110D03*
X302514Y753110D03*
D34*
X303911Y753110D03*
D13*
X305308Y753110D03*
X305816Y753110D03*
X306578Y753110D03*
X307340Y753110D03*
X308102Y753110D03*
X308610Y753110D03*
X309626Y753110D03*
X310388Y753110D03*
D38*
X313182Y753110D03*
D13*
X316230Y753110D03*
X317246Y753110D03*
X317754Y753110D03*
X318262Y753110D03*
X319278Y753110D03*
X320040Y753110D03*
D36*
X326644Y753110D03*
D11*
X253619Y753364D03*
X253619Y753618D03*
D10*
X253746Y753872D03*
D11*
X253619Y754126D03*
X253619Y754380D03*
D10*
X253746Y754634D03*
D11*
X253619Y754888D03*
D10*
X253746Y755142D03*
D11*
X253619Y755396D03*
X253619Y755650D03*
D10*
X253746Y755904D03*
D11*
X253619Y756158D03*
X253619Y756412D03*
D10*
X253746Y756666D03*
D11*
X253619Y756920D03*
D10*
X253746Y757174D03*
D11*
X253619Y757428D03*
X253619Y757682D03*
D10*
X253746Y757936D03*
D11*
X253619Y758190D03*
X253619Y758444D03*
D10*
X253746Y758698D03*
D11*
X253619Y758952D03*
D10*
X253746Y759206D03*
D11*
X253619Y759460D03*
X253619Y759714D03*
D10*
X253746Y759968D03*
D11*
X253619Y760222D03*
D10*
X253746Y760476D03*
D11*
X253619Y760730D03*
X253619Y760984D03*
X253619Y761238D03*
X253619Y761492D03*
D10*
X253746Y761746D03*
D11*
X253619Y762000D03*
X253619Y762254D03*
D10*
X253746Y762508D03*
D11*
X253619Y762762D03*
X253619Y763016D03*
X253619Y763270D03*
D10*
X253746Y763524D03*
D11*
X253619Y763778D03*
X253619Y764032D03*
D10*
X253746Y764286D03*
D11*
X253619Y764540D03*
X253619Y764794D03*
X253619Y765048D03*
D10*
X253746Y765302D03*
D11*
X253619Y765556D03*
D10*
X253746Y765810D03*
D11*
X253619Y766064D03*
X253619Y766318D03*
D10*
X253746Y766572D03*
D11*
X253619Y766826D03*
X253619Y767080D03*
X253619Y767334D03*
X253619Y767588D03*
D10*
X253746Y767842D03*
D11*
X253619Y768096D03*
X253619Y768350D03*
D10*
X253746Y768604D03*
D11*
X253619Y768858D03*
X253619Y769112D03*
X253619Y769366D03*
D10*
X253746Y769620D03*
D11*
X253619Y769874D03*
X253619Y770128D03*
D13*
X175514Y770382D03*
X176022Y770382D03*
X176784Y770382D03*
X177546Y770382D03*
X178308Y770382D03*
X179070Y770382D03*
X179578Y770382D03*
X180340Y770382D03*
X181102Y770382D03*
X181864Y770382D03*
X182626Y770382D03*
X183388Y770382D03*
X183896Y770382D03*
X184404Y770382D03*
X184912Y770382D03*
X185674Y770382D03*
X186182Y770382D03*
X186944Y770382D03*
X187706Y770382D03*
X188468Y770382D03*
D18*
X189357Y770382D03*
D13*
X189992Y770382D03*
X190500Y770382D03*
X191008Y770382D03*
X191770Y770382D03*
X192532Y770382D03*
X193294Y770382D03*
X194056Y770382D03*
X194818Y770382D03*
X195834Y770382D03*
X196342Y770382D03*
X197104Y770382D03*
X197866Y770382D03*
X198628Y770382D03*
X199390Y770382D03*
X199898Y770382D03*
X200406Y770382D03*
X201168Y770382D03*
X201930Y770382D03*
X202692Y770382D03*
X203454Y770382D03*
X203962Y770382D03*
X204724Y770382D03*
X205486Y770382D03*
X206248Y770382D03*
X207010Y770382D03*
X207772Y770382D03*
X208280Y770382D03*
X208788Y770382D03*
X209296Y770382D03*
X210058Y770382D03*
X210566Y770382D03*
X211328Y770382D03*
X212090Y770382D03*
X212852Y770382D03*
D18*
X213741Y770382D03*
D13*
X214376Y770382D03*
X214884Y770382D03*
X215392Y770382D03*
X216154Y770382D03*
X216916Y770382D03*
X217678Y770382D03*
X218440Y770382D03*
X219202Y770382D03*
X220218Y770382D03*
X220726Y770382D03*
X221488Y770382D03*
X222250Y770382D03*
X223012Y770382D03*
X223774Y770382D03*
X224282Y770382D03*
X224790Y770382D03*
X225552Y770382D03*
X226314Y770382D03*
X227076Y770382D03*
X227838Y770382D03*
X228346Y770382D03*
X228854Y770382D03*
X229616Y770382D03*
X230378Y770382D03*
X231140Y770382D03*
X231902Y770382D03*
X232410Y770382D03*
X232918Y770382D03*
X233680Y770382D03*
X234442Y770382D03*
X235204Y770382D03*
X235966Y770382D03*
X236474Y770382D03*
X237236Y770382D03*
X237998Y770382D03*
X238760Y770382D03*
X239522Y770382D03*
X240284Y770382D03*
X240792Y770382D03*
X241300Y770382D03*
X241808Y770382D03*
X242570Y770382D03*
X243078Y770382D03*
X243840Y770382D03*
X244602Y770382D03*
X245364Y770382D03*
D18*
X246253Y770382D03*
D13*
X246888Y770382D03*
X247396Y770382D03*
X247904Y770382D03*
X248666Y770382D03*
X249428Y770382D03*
X250190Y770382D03*
X250952Y770382D03*
X251714Y770382D03*
X252730Y770382D03*
X253238Y770382D03*
X254000Y770382D03*
X254762Y770382D03*
X255524Y770382D03*
X256286Y770382D03*
X256794Y770382D03*
X257302Y770382D03*
X258064Y770382D03*
X258826Y770382D03*
X259588Y770382D03*
X260350Y770382D03*
X260858Y770382D03*
X261620Y770382D03*
X262382Y770382D03*
X263144Y770382D03*
X263906Y770382D03*
X264668Y770382D03*
X265176Y770382D03*
X265684Y770382D03*
X266192Y770382D03*
X266954Y770382D03*
X267462Y770382D03*
X268224Y770382D03*
X268986Y770382D03*
X269748Y770382D03*
D18*
X270637Y770382D03*
D13*
X271272Y770382D03*
X271780Y770382D03*
X272288Y770382D03*
X273050Y770382D03*
X273812Y770382D03*
X274574Y770382D03*
X275336Y770382D03*
X276098Y770382D03*
X277114Y770382D03*
X277622Y770382D03*
X278384Y770382D03*
X279146Y770382D03*
X279908Y770382D03*
X280670Y770382D03*
X281178Y770382D03*
X281686Y770382D03*
X282448Y770382D03*
X283210Y770382D03*
X283972Y770382D03*
X284734Y770382D03*
X285242Y770382D03*
X286004Y770382D03*
X286766Y770382D03*
X287528Y770382D03*
X288290Y770382D03*
X289052Y770382D03*
X289560Y770382D03*
X290068Y770382D03*
X290576Y770382D03*
X291338Y770382D03*
X291846Y770382D03*
X292608Y770382D03*
X293370Y770382D03*
X294132Y770382D03*
D18*
X295021Y770382D03*
D13*
X295656Y770382D03*
X296164Y770382D03*
X296672Y770382D03*
X297434Y770382D03*
X298196Y770382D03*
X298958Y770382D03*
X299720Y770382D03*
X300482Y770382D03*
X301498Y770382D03*
X302006Y770382D03*
X302768Y770382D03*
X303530Y770382D03*
X304292Y770382D03*
X305054Y770382D03*
X305562Y770382D03*
X306070Y770382D03*
X306832Y770382D03*
X307594Y770382D03*
X308356Y770382D03*
X309118Y770382D03*
X309626Y770382D03*
X310388Y770382D03*
X311150Y770382D03*
X311912Y770382D03*
X312674Y770382D03*
X313436Y770382D03*
X313944Y770382D03*
X314452Y770382D03*
X314960Y770382D03*
X315722Y770382D03*
X316230Y770382D03*
X316992Y770382D03*
X317754Y770382D03*
X318516Y770382D03*
D18*
X319405Y770382D03*
D13*
X320040Y770382D03*
X320548Y770382D03*
X321056Y770382D03*
X321818Y770382D03*
X322580Y770382D03*
X323342Y770382D03*
X324104Y770382D03*
X324866Y770382D03*
X325882Y770382D03*
X326390Y770382D03*
X327152Y770382D03*
X327914Y770382D03*
X328676Y770382D03*
X329438Y770382D03*
X329946Y770382D03*
X330454Y770382D03*
X331216Y770382D03*
X331978Y770382D03*
X254508Y786384D03*
D18*
X254381Y786638D03*
X257937Y786638D03*
D34*
X253619Y786892D03*
D63*
X258064Y786892D03*
D34*
X253619Y787146D03*
D62*
X258445Y787146D03*
D17*
X253746Y787400D03*
D49*
X259461Y787400D03*
D62*
X253619Y787654D03*
D49*
X259461Y787654D03*
D63*
X253746Y787908D03*
D62*
X258191Y787908D03*
D22*
X259842Y787908D03*
D18*
X250825Y788162D03*
D63*
X253746Y788162D03*
D62*
X257937Y788162D03*
D17*
X259588Y788162D03*
D34*
X250571Y788416D03*
D63*
X253746Y788416D03*
D62*
X257683Y788416D03*
X259715Y788416D03*
D22*
X250444Y788670D03*
D63*
X253746Y788670D03*
D17*
X257556Y788670D03*
D62*
X259461Y788670D03*
D17*
X250952Y788924D03*
D63*
X253746Y788924D03*
D62*
X257429Y788924D03*
D18*
X259461Y788924D03*
D34*
X251079Y789178D03*
D63*
X253746Y789178D03*
D17*
X257302Y789178D03*
D63*
X259334Y789178D03*
D13*
X263144Y789178D03*
D17*
X251460Y789432D03*
D18*
X253873Y789432D03*
D17*
X257302Y789432D03*
D63*
X259334Y789432D03*
D13*
X263144Y789432D03*
X248920Y789686D03*
D34*
X251587Y789686D03*
D18*
X253873Y789686D03*
D22*
X257556Y789686D03*
D62*
X259207Y789686D03*
D18*
X263271Y789686D03*
D21*
X248793Y789940D03*
D17*
X251968Y789940D03*
D18*
X253873Y789940D03*
D47*
X258064Y789940D03*
D62*
X263271Y789940D03*
D49*
X248793Y790194D03*
D62*
X252095Y790194D03*
D63*
X254000Y790194D03*
D62*
X256921Y790194D03*
D17*
X258826Y790194D03*
D22*
X263652Y790194D03*
D47*
X248920Y790448D03*
D62*
X252349Y790448D03*
D18*
X253873Y790448D03*
D62*
X256667Y790448D03*
X259207Y790448D03*
D21*
X263779Y790448D03*
D18*
X247269Y790702D03*
D22*
X249936Y790702D03*
D62*
X252603Y790702D03*
D63*
X254000Y790702D03*
D17*
X256540Y790702D03*
D18*
X259207Y790702D03*
D23*
X263906Y790702D03*
D63*
X247142Y790956D03*
D34*
X250317Y790956D03*
D56*
X253238Y790956D03*
D62*
X256413Y790956D03*
D63*
X259080Y790956D03*
D17*
X263144Y790956D03*
X264922Y790956D03*
D18*
X247015Y791210D03*
D34*
X250571Y791210D03*
D22*
X253492Y791210D03*
D17*
X256286Y791210D03*
D63*
X259080Y791210D03*
D17*
X262890Y791210D03*
D62*
X265049Y791210D03*
D18*
X247015Y791464D03*
D17*
X250698Y791464D03*
D34*
X253619Y791464D03*
D17*
X256032Y791464D03*
D62*
X259207Y791464D03*
D17*
X262636Y791464D03*
D63*
X265430Y791464D03*
X246888Y791718D03*
D17*
X250952Y791718D03*
D34*
X253619Y791718D03*
D62*
X255651Y791718D03*
X258953Y791718D03*
X262509Y791718D03*
D63*
X265430Y791718D03*
D62*
X247015Y791972D03*
X251079Y791972D03*
X253873Y791972D03*
D18*
X255397Y791972D03*
D34*
X258953Y791972D03*
D17*
X262382Y791972D03*
D62*
X265557Y791972D03*
X247015Y792226D03*
D17*
X251206Y792226D03*
D63*
X254000Y792226D03*
D34*
X258953Y792226D03*
D62*
X262001Y792226D03*
D63*
X265430Y792226D03*
D62*
X247269Y792480D03*
X251333Y792480D03*
D18*
X254127Y792480D03*
D22*
X258826Y792480D03*
D62*
X262001Y792480D03*
D63*
X265430Y792480D03*
D62*
X247269Y792734D03*
X251333Y792734D03*
D13*
X254254Y792734D03*
D17*
X259334Y792734D03*
D62*
X261747Y792734D03*
X265303Y792734D03*
D18*
X267081Y792734D03*
D17*
X247396Y792988D03*
D63*
X251460Y792988D03*
D18*
X259715Y792988D03*
D17*
X261620Y792988D03*
X265176Y792988D03*
D18*
X267081Y792988D03*
D17*
X247650Y793242D03*
D63*
X251460Y793242D03*
D17*
X261366Y793242D03*
X264922Y793242D03*
D63*
X267208Y793242D03*
D17*
X247650Y793496D03*
D63*
X251460Y793496D03*
D17*
X261112Y793496D03*
X264668Y793496D03*
X267462Y793496D03*
D18*
X243713Y793750D03*
D34*
X248031Y793750D03*
D63*
X251460Y793750D03*
D22*
X260604Y793750D03*
D34*
X264541Y793750D03*
D22*
X267462Y793750D03*
D18*
X243713Y794004D03*
D34*
X248285Y794004D03*
D63*
X251460Y794004D03*
D22*
X260604Y794004D03*
D17*
X264414Y794004D03*
D22*
X267462Y794004D03*
D62*
X243459Y794258D03*
D22*
X248412Y794258D03*
D63*
X251206Y794258D03*
D62*
X260985Y794258D03*
D17*
X264160Y794258D03*
D22*
X267208Y794258D03*
D17*
X243586Y794512D03*
D56*
X248920Y794512D03*
D62*
X250825Y794512D03*
D63*
X261112Y794512D03*
D17*
X263906Y794512D03*
D34*
X266827Y794512D03*
X243713Y794766D03*
D47*
X249682Y794766D03*
D18*
X261239Y794766D03*
D34*
X263779Y794766D03*
X266573Y794766D03*
D17*
X244094Y795020D03*
D21*
X249809Y795020D03*
D13*
X261366Y795020D03*
D62*
X263525Y795020D03*
D34*
X266319Y795020D03*
X244221Y795274D03*
D18*
X247269Y795274D03*
D13*
X249174Y795274D03*
D63*
X249936Y795274D03*
D62*
X263271Y795274D03*
D34*
X266065Y795274D03*
D62*
X244475Y795528D03*
D63*
X247396Y795528D03*
D62*
X263271Y795528D03*
D17*
X265938Y795528D03*
D34*
X269113Y795528D03*
D17*
X244856Y795782D03*
D63*
X247650Y795782D03*
X263144Y795782D03*
D17*
X265684Y795782D03*
D56*
X268986Y795782D03*
D62*
X244983Y796036D03*
X247777Y796036D03*
D18*
X263017Y796036D03*
D17*
X265430Y796036D03*
D49*
X269113Y796036D03*
D13*
X241300Y796290D03*
D34*
X245237Y796290D03*
D17*
X248158Y796290D03*
D18*
X263017Y796290D03*
D17*
X265176Y796290D03*
D43*
X268859Y796290D03*
D17*
X241554Y796544D03*
D62*
X245491Y796544D03*
D22*
X248412Y796544D03*
D18*
X263017Y796544D03*
D34*
X265049Y796544D03*
D56*
X267970Y796544D03*
D63*
X270510Y796544D03*
D17*
X241554Y796798D03*
D62*
X245745Y796798D03*
D17*
X248158Y796798D03*
D34*
X264795Y796798D03*
D22*
X267716Y796798D03*
D63*
X270764Y796798D03*
D17*
X241554Y797052D03*
X246126Y797052D03*
D63*
X247904Y797052D03*
D21*
X264287Y797052D03*
X267335Y797052D03*
D18*
X270891Y797052D03*
D17*
X241554Y797306D03*
D57*
X246761Y797306D03*
D22*
X264414Y797306D03*
D21*
X267335Y797306D03*
D62*
X270891Y797306D03*
D18*
X241681Y797560D03*
D21*
X246761Y797560D03*
D62*
X264541Y797560D03*
D56*
X267462Y797560D03*
D34*
X271145Y797560D03*
X246761Y797814D03*
D63*
X264668Y797814D03*
D57*
X267335Y797814D03*
D22*
X271272Y797814D03*
D62*
X242951Y798068D03*
D17*
X246634Y798068D03*
D63*
X264668Y798068D03*
D17*
X266700Y798068D03*
D62*
X268605Y798068D03*
D34*
X270891Y798068D03*
D17*
X243078Y798322D03*
D63*
X246634Y798322D03*
D13*
X264668Y798322D03*
D34*
X266573Y798322D03*
D63*
X268732Y798322D03*
D17*
X270510Y798322D03*
D13*
X239268Y798576D03*
D17*
X243078Y798576D03*
D63*
X246634Y798576D03*
D62*
X266573Y798576D03*
X269113Y798576D03*
X270383Y798576D03*
D13*
X272542Y798576D03*
D18*
X239141Y798830D03*
D17*
X243078Y798830D03*
D18*
X246507Y798830D03*
D62*
X266319Y798830D03*
D34*
X269621Y798830D03*
D18*
X272669Y798830D03*
X239141Y799084D03*
D62*
X242951Y799084D03*
D13*
X246380Y799084D03*
D63*
X266446Y799084D03*
D17*
X269494Y799084D03*
D63*
X272542Y799084D03*
D62*
X239395Y799338D03*
D13*
X244602Y799338D03*
D63*
X266446Y799338D03*
D17*
X269494Y799338D03*
X272542Y799338D03*
D62*
X239395Y799592D03*
D63*
X244602Y799592D03*
D62*
X266573Y799592D03*
X269113Y799592D03*
D34*
X272669Y799592D03*
D17*
X239268Y799846D03*
X244602Y799846D03*
D63*
X266700Y799846D03*
X268986Y799846D03*
D21*
X272669Y799846D03*
D34*
X239395Y800100D03*
D17*
X244602Y800100D03*
D49*
X267843Y800100D03*
D23*
X272796Y800100D03*
D56*
X239522Y800354D03*
D62*
X244475Y800354D03*
D57*
X267843Y800354D03*
D22*
X272034Y800354D03*
D17*
X273812Y800354D03*
D23*
X239522Y800608D03*
D63*
X244602Y800608D03*
D22*
X267970Y800608D03*
D34*
X271653Y800608D03*
D63*
X274066Y800608D03*
D62*
X238379Y800862D03*
D34*
X240411Y800862D03*
D17*
X267970Y800862D03*
X271272Y800862D03*
D62*
X274193Y800862D03*
D17*
X237998Y801116D03*
D22*
X240792Y801116D03*
D62*
X268097Y801116D03*
D17*
X271018Y801116D03*
D63*
X274320Y801116D03*
D22*
X237998Y801370D03*
D21*
X241173Y801370D03*
D63*
X268224Y801370D03*
D17*
X270764Y801370D03*
D63*
X274320Y801370D03*
X237490Y801624D03*
D18*
X238633Y801624D03*
D49*
X241681Y801624D03*
D13*
X268224Y801624D03*
D34*
X270383Y801624D03*
D62*
X274193Y801624D03*
D63*
X238760Y801878D03*
D43*
X241935Y801878D03*
D13*
X268224Y801878D03*
D34*
X270129Y801878D03*
D62*
X274193Y801878D03*
D63*
X239014Y802132D03*
X240284Y802132D03*
D22*
X242570Y802132D03*
X269748Y802132D03*
D17*
X274066Y802132D03*
D22*
X239522Y802386D03*
D17*
X242570Y802386D03*
D22*
X248412Y802386D03*
D13*
X252984Y802386D03*
X253492Y802386D03*
X255016Y802386D03*
D22*
X269494Y802386D03*
D17*
X273812Y802386D03*
D34*
X239649Y802640D03*
D63*
X242570Y802640D03*
D23*
X248412Y802640D03*
D40*
X254000Y802640D03*
D17*
X258826Y802640D03*
D34*
X264795Y802640D03*
X269367Y802640D03*
X273685Y802640D03*
D17*
X239522Y802894D03*
D63*
X242570Y802894D03*
X247142Y802894D03*
D56*
X248920Y802894D03*
D43*
X253873Y802894D03*
D34*
X258953Y802894D03*
D22*
X264668Y802894D03*
D62*
X269367Y802894D03*
D22*
X273304Y802894D03*
D18*
X235839Y803148D03*
D34*
X239649Y803148D03*
D13*
X242570Y803148D03*
D18*
X246761Y803148D03*
D17*
X249174Y803148D03*
D47*
X253746Y803148D03*
D34*
X258699Y803148D03*
X264795Y803148D03*
D18*
X269367Y803148D03*
D22*
X273050Y803148D03*
D63*
X235966Y803402D03*
D17*
X239776Y803402D03*
D63*
X246634Y803402D03*
X249428Y803402D03*
D43*
X253619Y803402D03*
D22*
X258826Y803402D03*
D17*
X264668Y803402D03*
D18*
X269367Y803402D03*
D21*
X272669Y803402D03*
D13*
X275336Y803402D03*
X275844Y803402D03*
D62*
X236093Y803656D03*
D17*
X240030Y803656D03*
D63*
X246380Y803656D03*
D22*
X252730Y803656D03*
D17*
X254508Y803656D03*
D34*
X258699Y803656D03*
X264795Y803656D03*
D21*
X272415Y803656D03*
D22*
X275590Y803656D03*
D17*
X235966Y803910D03*
D34*
X240157Y803910D03*
D63*
X246380Y803910D03*
X251968Y803910D03*
D18*
X254635Y803910D03*
D43*
X259461Y803910D03*
D13*
X261620Y803910D03*
D17*
X264668Y803910D03*
D22*
X272034Y803910D03*
D56*
X275590Y803910D03*
D22*
X235966Y804164D03*
D62*
X240411Y804164D03*
D63*
X246380Y804164D03*
D13*
X251968Y804164D03*
D18*
X254381Y804164D03*
D20*
X259715Y804164D03*
D22*
X264668Y804164D03*
X272034Y804164D03*
D17*
X274828Y804164D03*
D62*
X276479Y804164D03*
D56*
X235966Y804418D03*
D62*
X240411Y804418D03*
D63*
X246380Y804418D03*
X254254Y804418D03*
D50*
X259588Y804418D03*
D34*
X264795Y804418D03*
X271653Y804418D03*
D62*
X274447Y804418D03*
D63*
X276860Y804418D03*
D62*
X235077Y804672D03*
D34*
X236601Y804672D03*
D62*
X240665Y804672D03*
X246507Y804672D03*
D63*
X254000Y804672D03*
D20*
X259715Y804672D03*
D17*
X264668Y804672D03*
D62*
X271399Y804672D03*
X274447Y804672D03*
D63*
X276860Y804672D03*
X234950Y804926D03*
D62*
X237109Y804926D03*
D63*
X240792Y804926D03*
D17*
X246634Y804926D03*
D63*
X253746Y804926D03*
D21*
X258953Y804926D03*
D18*
X260477Y804926D03*
D63*
X261366Y804926D03*
D34*
X264795Y804926D03*
D63*
X271272Y804926D03*
D62*
X274447Y804926D03*
D63*
X277114Y804926D03*
X234696Y805180D03*
D62*
X237617Y805180D03*
D63*
X240792Y805180D03*
D34*
X246761Y805180D03*
D63*
X253746Y805180D03*
D34*
X258699Y805180D03*
D18*
X261239Y805180D03*
D34*
X264541Y805180D03*
D18*
X271145Y805180D03*
D62*
X274447Y805180D03*
D63*
X277114Y805180D03*
X234696Y805434D03*
D62*
X238125Y805434D03*
D18*
X240919Y805434D03*
D21*
X247015Y805434D03*
D63*
X253492Y805434D03*
D17*
X258826Y805434D03*
D63*
X261112Y805434D03*
D22*
X264668Y805434D03*
D18*
X271145Y805434D03*
D13*
X273050Y805434D03*
D17*
X274574Y805434D03*
D63*
X277368Y805434D03*
X234950Y805688D03*
D62*
X238379Y805688D03*
D18*
X240919Y805688D03*
D43*
X247777Y805688D03*
D62*
X253365Y805688D03*
D34*
X258699Y805688D03*
D18*
X260985Y805688D03*
D17*
X264668Y805688D03*
D13*
X271018Y805688D03*
D63*
X272796Y805688D03*
D34*
X274701Y805688D03*
D17*
X277368Y805688D03*
D62*
X234823Y805942D03*
D34*
X238887Y805942D03*
D40*
X248158Y805942D03*
D62*
X253365Y805942D03*
D22*
X258826Y805942D03*
D18*
X260731Y805942D03*
D22*
X264668Y805942D03*
D62*
X272669Y805942D03*
D17*
X274828Y805942D03*
D34*
X277495Y805942D03*
D63*
X234950Y806196D03*
D22*
X239522Y806196D03*
D47*
X248158Y806196D03*
D62*
X253111Y806196D03*
D17*
X258826Y806196D03*
D63*
X260604Y806196D03*
D17*
X264668Y806196D03*
D34*
X272161Y806196D03*
D17*
X274828Y806196D03*
D22*
X277368Y806196D03*
D62*
X235077Y806450D03*
D22*
X239522Y806450D03*
D49*
X248285Y806450D03*
D17*
X252984Y806450D03*
D34*
X258699Y806450D03*
D18*
X260477Y806450D03*
D34*
X264795Y806450D03*
X272161Y806450D03*
X274955Y806450D03*
D17*
X277114Y806450D03*
X235204Y806704D03*
X239522Y806704D03*
D57*
X248285Y806704D03*
D17*
X252984Y806704D03*
X258826Y806704D03*
D18*
X260223Y806704D03*
D34*
X264541Y806704D03*
D62*
X272415Y806704D03*
D17*
X275082Y806704D03*
D13*
X276606Y806704D03*
D17*
X235458Y806958D03*
D62*
X239395Y806958D03*
D21*
X248539Y806958D03*
D17*
X252984Y806958D03*
D34*
X258699Y806958D03*
D63*
X260096Y806958D03*
D17*
X264668Y806958D03*
D63*
X272542Y806958D03*
D34*
X275209Y806958D03*
D13*
X233426Y807212D03*
D34*
X235839Y807212D03*
D63*
X239268Y807212D03*
D18*
X249301Y807212D03*
D34*
X252857Y807212D03*
D21*
X259207Y807212D03*
D22*
X264668Y807212D03*
D63*
X272542Y807212D03*
D17*
X275082Y807212D03*
D18*
X278511Y807212D03*
X233299Y807466D03*
D22*
X235966Y807466D03*
D63*
X239268Y807466D03*
D18*
X249047Y807466D03*
D34*
X252857Y807466D03*
D13*
X255778Y807466D03*
D21*
X258953Y807466D03*
D17*
X264668Y807466D03*
D63*
X272796Y807466D03*
D17*
X275336Y807466D03*
D63*
X278384Y807466D03*
D18*
X233299Y807720D03*
D22*
X236474Y807720D03*
D62*
X239141Y807720D03*
D18*
X249047Y807720D03*
D34*
X252857Y807720D03*
D13*
X255524Y807720D03*
D22*
X258826Y807720D03*
X264668Y807720D03*
D63*
X272796Y807720D03*
D62*
X275209Y807720D03*
D63*
X278384Y807720D03*
X233426Y807974D03*
D22*
X236728Y807974D03*
D17*
X238760Y807974D03*
D49*
X247777Y807974D03*
D21*
X253111Y807974D03*
D18*
X255397Y807974D03*
D22*
X258826Y807974D03*
D34*
X264795Y807974D03*
D18*
X272923Y807974D03*
D17*
X275082Y807974D03*
D34*
X278257Y807974D03*
D17*
X233426Y808228D03*
D47*
X237490Y808228D03*
D23*
X247650Y808228D03*
D47*
X254000Y808228D03*
D17*
X258826Y808228D03*
D23*
X265176Y808228D03*
D63*
X273304Y808228D03*
D17*
X274828Y808228D03*
D22*
X278384Y808228D03*
D34*
X233553Y808482D03*
D57*
X237617Y808482D03*
D49*
X247523Y808482D03*
X253873Y808482D03*
D17*
X258572Y808482D03*
D57*
X265049Y808482D03*
D56*
X274066Y808482D03*
X278130Y808482D03*
D22*
X233680Y808736D03*
D62*
X237617Y808736D03*
D49*
X247523Y808736D03*
D57*
X253873Y808736D03*
D17*
X258572Y808736D03*
D34*
X264795Y808736D03*
D22*
X274066Y808736D03*
D23*
X278130Y808736D03*
D57*
X233807Y808990D03*
D23*
X247396Y808990D03*
D22*
X254000Y808990D03*
D62*
X258445Y808990D03*
D17*
X264414Y808990D03*
D18*
X274193Y808990D03*
D56*
X277368Y808990D03*
D63*
X232664Y809244D03*
D21*
X234315Y809244D03*
D13*
X254254Y809244D03*
D18*
X258445Y809244D03*
X264287Y809244D03*
D22*
X276860Y809244D03*
D21*
X234823Y809498D03*
D22*
X276606Y809498D03*
D56*
X235458Y809752D03*
D21*
X276225Y809752D03*
D56*
X235712Y810006D03*
D21*
X275717Y810006D03*
D49*
X236601Y810260D03*
D56*
X275082Y810260D03*
D13*
X279654Y810260D03*
D57*
X236855Y810514D03*
D56*
X275082Y810514D03*
D22*
X279654Y810514D03*
X236982Y810768D03*
D17*
X275082Y810768D03*
D56*
X279400Y810768D03*
D17*
X236982Y811022D03*
D62*
X274955Y811022D03*
D23*
X279400Y811022D03*
D62*
X237109Y811276D03*
D18*
X274955Y811276D03*
D34*
X278511Y811276D03*
D62*
X280543Y811276D03*
D13*
X231140Y811530D03*
X234950Y811530D03*
D18*
X237109Y811530D03*
D65*
X257175Y811530D03*
D13*
X274828Y811530D03*
D34*
X278511Y811530D03*
D63*
X280670Y811530D03*
D18*
X231267Y811784D03*
D63*
X235204Y811784D03*
D18*
X237109Y811784D03*
D55*
X251714Y811784D03*
D63*
X255524Y811784D03*
D13*
X256286Y811784D03*
X256794Y811784D03*
X257302Y811784D03*
D52*
X261112Y811784D03*
D13*
X277114Y811784D03*
D17*
X278384Y811784D03*
D63*
X280924Y811784D03*
D18*
X231267Y812038D03*
D62*
X235331Y812038D03*
D48*
X249301Y812038D03*
D49*
X259715Y812038D03*
D47*
X264668Y812038D03*
D13*
X266700Y812038D03*
D62*
X276733Y812038D03*
D17*
X278384Y812038D03*
D63*
X280924Y812038D03*
D62*
X231267Y812292D03*
D17*
X235966Y812292D03*
D32*
X248793Y812292D03*
D57*
X259715Y812292D03*
D48*
X265811Y812292D03*
D56*
X276098Y812292D03*
D17*
X278384Y812292D03*
D63*
X280924Y812292D03*
D34*
X231267Y812546D03*
D22*
X236220Y812546D03*
D13*
X244856Y812546D03*
D27*
X248158Y812546D03*
D21*
X259715Y812546D03*
D49*
X265049Y812546D03*
D62*
X267589Y812546D03*
D22*
X276098Y812546D03*
D17*
X278384Y812546D03*
D18*
X281051Y812546D03*
D21*
X231521Y812800D03*
D17*
X236220Y812800D03*
D54*
X247523Y812800D03*
D22*
X259588Y812800D03*
D49*
X265049Y812800D03*
D18*
X267843Y812800D03*
D17*
X276098Y812800D03*
D34*
X278511Y812800D03*
D62*
X281051Y812800D03*
D23*
X231648Y813054D03*
D63*
X236220Y813054D03*
D62*
X244475Y813054D03*
D32*
X248031Y813054D03*
D22*
X259588Y813054D03*
D47*
X264922Y813054D03*
D18*
X267843Y813054D03*
D63*
X276098Y813054D03*
D17*
X278638Y813054D03*
D62*
X281051Y813054D03*
D56*
X232410Y813308D03*
D62*
X236093Y813308D03*
D13*
X244348Y813308D03*
D32*
X248031Y813308D03*
D22*
X259588Y813308D03*
D47*
X264922Y813308D03*
D13*
X267970Y813308D03*
D63*
X276098Y813308D03*
D17*
X278638Y813308D03*
D22*
X281178Y813308D03*
D21*
X233045Y813562D03*
D63*
X235966Y813562D03*
D18*
X244221Y813562D03*
D35*
X248285Y813562D03*
D21*
X259461Y813562D03*
D49*
X265049Y813562D03*
D63*
X267970Y813562D03*
D18*
X276225Y813562D03*
D17*
X278638Y813562D03*
D22*
X281178Y813562D03*
X233680Y813816D03*
D18*
X235839Y813816D03*
X244221Y813816D03*
D55*
X248666Y813816D03*
D21*
X259461Y813816D03*
D49*
X265049Y813816D03*
D13*
X267970Y813816D03*
D18*
X276225Y813816D03*
D17*
X278892Y813816D03*
X280416Y813816D03*
D22*
X233934Y814070D03*
D63*
X235712Y814070D03*
D18*
X244221Y814070D03*
D55*
X248666Y814070D03*
D49*
X259461Y814070D03*
D40*
X265430Y814070D03*
D18*
X267843Y814070D03*
X276225Y814070D03*
D17*
X278892Y814070D03*
D13*
X280162Y814070D03*
D21*
X234823Y814324D03*
D18*
X244221Y814324D03*
D52*
X249174Y814324D03*
D42*
X262890Y814324D03*
D63*
X276352Y814324D03*
D17*
X278638Y814324D03*
D22*
X234950Y814578D03*
D63*
X244348Y814578D03*
D66*
X252730Y814578D03*
D26*
X264541Y814578D03*
D63*
X276606Y814578D03*
D17*
X278638Y814578D03*
D21*
X231267Y814832D03*
D34*
X235077Y814832D03*
D45*
X247904Y814832D03*
D13*
X252730Y814832D03*
D34*
X253873Y814832D03*
D32*
X257683Y814832D03*
D63*
X261366Y814832D03*
D40*
X266446Y814832D03*
D62*
X276733Y814832D03*
D22*
X278384Y814832D03*
D49*
X231521Y815086D03*
D17*
X235204Y815086D03*
D27*
X246888Y815086D03*
D63*
X250952Y815086D03*
D17*
X259588Y815086D03*
D62*
X261493Y815086D03*
D18*
X263779Y815086D03*
D57*
X265557Y815086D03*
D17*
X267716Y815086D03*
D57*
X277749Y815086D03*
D13*
X282194Y815086D03*
D40*
X231394Y815340D03*
D63*
X235204Y815340D03*
D18*
X244221Y815340D03*
D50*
X247650Y815340D03*
D21*
X251333Y815340D03*
D17*
X259588Y815340D03*
D35*
X263779Y815340D03*
D18*
X268097Y815340D03*
D21*
X277749Y815340D03*
D62*
X282067Y815340D03*
D48*
X231521Y815594D03*
D18*
X235331Y815594D03*
X243967Y815594D03*
D50*
X247904Y815594D03*
D13*
X250698Y815594D03*
D23*
X252476Y815594D03*
D22*
X255016Y815594D03*
D17*
X259588Y815594D03*
D13*
X261366Y815594D03*
D34*
X262509Y815594D03*
D63*
X263906Y815594D03*
D21*
X265557Y815594D03*
D18*
X268351Y815594D03*
D17*
X282194Y815594D03*
D63*
X229616Y815848D03*
D57*
X232791Y815848D03*
D13*
X235204Y815848D03*
D18*
X243967Y815848D03*
D62*
X246253Y815848D03*
D40*
X248920Y815848D03*
D20*
X253111Y815848D03*
D22*
X256286Y815848D03*
D63*
X257810Y815848D03*
X259080Y815848D03*
D18*
X259969Y815848D03*
X262255Y815848D03*
X264033Y815848D03*
D34*
X265557Y815848D03*
D18*
X268351Y815848D03*
D17*
X282194Y815848D03*
D63*
X229362Y816102D03*
D22*
X233172Y816102D03*
D63*
X244094Y816102D03*
D32*
X248031Y816102D03*
D23*
X252476Y816102D03*
D63*
X255016Y816102D03*
D40*
X257556Y816102D03*
D63*
X260096Y816102D03*
D18*
X262001Y816102D03*
D63*
X263144Y816102D03*
D18*
X264287Y816102D03*
D34*
X265811Y816102D03*
D13*
X268224Y816102D03*
D63*
X280162Y816102D03*
D34*
X282067Y816102D03*
D18*
X229235Y816356D03*
D34*
X233553Y816356D03*
D63*
X244348Y816356D03*
D62*
X245999Y816356D03*
D23*
X248158Y816356D03*
D18*
X250317Y816356D03*
D17*
X251714Y816356D03*
X253238Y816356D03*
D18*
X254381Y816356D03*
D63*
X255524Y816356D03*
D21*
X257175Y816356D03*
D22*
X259334Y816356D03*
D17*
X262382Y816356D03*
D18*
X264541Y816356D03*
X265303Y816356D03*
D56*
X267208Y816356D03*
D17*
X280162Y816356D03*
D62*
X282067Y816356D03*
D18*
X229235Y816610D03*
D17*
X233680Y816610D03*
D57*
X245237Y816610D03*
D34*
X247523Y816610D03*
D62*
X249047Y816610D03*
D13*
X250190Y816610D03*
D17*
X251460Y816610D03*
X252984Y816610D03*
D63*
X254254Y816610D03*
X255524Y816610D03*
D62*
X256921Y816610D03*
D21*
X258953Y816610D03*
D23*
X261874Y816610D03*
D22*
X264668Y816610D03*
D56*
X267208Y816610D03*
D17*
X280162Y816610D03*
D13*
X282194Y816610D03*
D18*
X229235Y816864D03*
D62*
X234061Y816864D03*
D23*
X245364Y816864D03*
D18*
X247523Y816864D03*
D63*
X248412Y816864D03*
D23*
X250444Y816864D03*
D17*
X252730Y816864D03*
D40*
X255778Y816864D03*
D17*
X258826Y816864D03*
D56*
X260858Y816864D03*
D23*
X263906Y816864D03*
D57*
X267081Y816864D03*
D17*
X280162Y816864D03*
D63*
X229362Y817118D03*
X234188Y817118D03*
D62*
X244475Y817118D03*
D17*
X245872Y817118D03*
D22*
X247904Y817118D03*
D18*
X249301Y817118D03*
D63*
X250444Y817118D03*
X251460Y817118D03*
X252730Y817118D03*
D34*
X254381Y817118D03*
D19*
X259334Y817118D03*
D63*
X264160Y817118D03*
X265176Y817118D03*
D18*
X266065Y817118D03*
D17*
X267462Y817118D03*
D63*
X278130Y817118D03*
D17*
X280162Y817118D03*
D63*
X229362Y817372D03*
D18*
X234315Y817372D03*
X244475Y817372D03*
D17*
X246380Y817372D03*
D18*
X247777Y817372D03*
D62*
X248793Y817372D03*
X250317Y817372D03*
D18*
X251333Y817372D03*
X252349Y817372D03*
D17*
X253746Y817372D03*
D18*
X257175Y817372D03*
D17*
X258572Y817372D03*
D22*
X260604Y817372D03*
D63*
X262636Y817372D03*
D17*
X264668Y817372D03*
D18*
X266065Y817372D03*
D13*
X267970Y817372D03*
D17*
X278130Y817372D03*
D63*
X280162Y817372D03*
X229616Y817626D03*
D18*
X234315Y817626D03*
X244221Y817626D03*
D22*
X246634Y817626D03*
D62*
X248539Y817626D03*
X250063Y817626D03*
D63*
X251206Y817626D03*
D22*
X252730Y817626D03*
D21*
X255143Y817626D03*
D63*
X256794Y817626D03*
D43*
X259969Y817626D03*
D18*
X262763Y817626D03*
D17*
X264668Y817626D03*
D18*
X266065Y817626D03*
X268097Y817626D03*
D17*
X278130Y817626D03*
D62*
X229743Y817880D03*
D63*
X234442Y817880D03*
D13*
X244348Y817880D03*
D57*
X247015Y817880D03*
D34*
X249301Y817880D03*
X251587Y817880D03*
D18*
X252857Y817880D03*
D63*
X254508Y817880D03*
D34*
X256413Y817880D03*
D17*
X258572Y817880D03*
D63*
X259842Y817880D03*
D21*
X262001Y817880D03*
D13*
X263398Y817880D03*
D17*
X264668Y817880D03*
D18*
X266065Y817880D03*
X267843Y817880D03*
D17*
X278130Y817880D03*
D34*
X229997Y818134D03*
D18*
X234315Y818134D03*
X244221Y818134D03*
D22*
X246380Y818134D03*
D13*
X247904Y818134D03*
D57*
X249809Y818134D03*
D18*
X251587Y818134D03*
X252857Y818134D03*
X254381Y818134D03*
X256921Y818134D03*
D17*
X258572Y818134D03*
D62*
X260223Y818134D03*
D13*
X261112Y818134D03*
D17*
X262128Y818134D03*
D13*
X263398Y818134D03*
D17*
X264668Y818134D03*
D13*
X265938Y818134D03*
X267970Y818134D03*
D17*
X278130Y818134D03*
X282702Y818134D03*
D22*
X230378Y818388D03*
D63*
X234188Y818388D03*
D18*
X244221Y818388D03*
D34*
X246507Y818388D03*
D18*
X248031Y818388D03*
X249047Y818388D03*
X250317Y818388D03*
X251841Y818388D03*
X253111Y818388D03*
X254381Y818388D03*
X256921Y818388D03*
X258191Y818388D03*
D62*
X259461Y818388D03*
D34*
X260985Y818388D03*
D63*
X262382Y818388D03*
D18*
X263271Y818388D03*
D22*
X264668Y818388D03*
D18*
X266065Y818388D03*
X268097Y818388D03*
D56*
X282702Y818388D03*
D57*
X231013Y818642D03*
D62*
X234061Y818642D03*
D18*
X244221Y818642D03*
D34*
X246507Y818642D03*
D18*
X248031Y818642D03*
D62*
X249301Y818642D03*
D18*
X250571Y818642D03*
D13*
X251968Y818642D03*
D18*
X253111Y818642D03*
X254381Y818642D03*
X256667Y818642D03*
D13*
X258064Y818642D03*
D18*
X259461Y818642D03*
D62*
X260985Y818642D03*
D18*
X262001Y818642D03*
D13*
X262636Y818642D03*
D18*
X263271Y818642D03*
D57*
X265049Y818642D03*
D13*
X267970Y818642D03*
D57*
X282575Y818642D03*
D50*
X232156Y818896D03*
D18*
X244221Y818896D03*
D22*
X246634Y818896D03*
D13*
X248158Y818896D03*
X248920Y818896D03*
X249682Y818896D03*
D18*
X250825Y818896D03*
X252095Y818896D03*
X253365Y818896D03*
D13*
X254508Y818896D03*
D18*
X256667Y818896D03*
X257937Y818896D03*
D63*
X259334Y818896D03*
D18*
X260477Y818896D03*
D13*
X261112Y818896D03*
D18*
X261747Y818896D03*
D13*
X262636Y818896D03*
X263398Y818896D03*
D57*
X265049Y818896D03*
D18*
X267843Y818896D03*
D34*
X281813Y818896D03*
D63*
X283718Y818896D03*
D40*
X232156Y819150D03*
D18*
X244221Y819150D03*
D22*
X246634Y819150D03*
D13*
X248158Y819150D03*
D18*
X249047Y819150D03*
D13*
X249936Y819150D03*
X250952Y819150D03*
D18*
X252349Y819150D03*
X253365Y819150D03*
D13*
X254508Y819150D03*
X256540Y819150D03*
D18*
X257937Y819150D03*
X259207Y819150D03*
X260223Y819150D03*
D13*
X260858Y819150D03*
D18*
X261747Y819150D03*
X262509Y819150D03*
D13*
X263144Y819150D03*
D57*
X265049Y819150D03*
D13*
X267970Y819150D03*
D17*
X281686Y819150D03*
D63*
X283718Y819150D03*
D49*
X232283Y819404D03*
D13*
X244348Y819404D03*
D21*
X246761Y819404D03*
D18*
X248285Y819404D03*
D63*
X249174Y819404D03*
D18*
X250063Y819404D03*
X251079Y819404D03*
X252349Y819404D03*
D13*
X253492Y819404D03*
D18*
X254635Y819404D03*
X256413Y819404D03*
D13*
X257810Y819404D03*
D18*
X258953Y819404D03*
D13*
X260096Y819404D03*
D18*
X260731Y819404D03*
X261493Y819404D03*
X262509Y819404D03*
D13*
X263144Y819404D03*
D56*
X264922Y819404D03*
D18*
X267843Y819404D03*
D13*
X279654Y819404D03*
D17*
X281432Y819404D03*
D63*
X283972Y819404D03*
D21*
X232283Y819658D03*
D18*
X244221Y819658D03*
D43*
X247523Y819658D03*
D63*
X250190Y819658D03*
X251460Y819658D03*
D18*
X252603Y819658D03*
D63*
X253492Y819658D03*
D18*
X254635Y819658D03*
X256413Y819658D03*
X257683Y819658D03*
X258953Y819658D03*
X259969Y819658D03*
D13*
X260604Y819658D03*
X261366Y819658D03*
D18*
X262509Y819658D03*
D13*
X263144Y819658D03*
D56*
X264922Y819658D03*
D63*
X267970Y819658D03*
D22*
X279146Y819658D03*
D17*
X281432Y819658D03*
D63*
X283972Y819658D03*
D18*
X244221Y819912D03*
D53*
X250571Y819912D03*
D18*
X256413Y819912D03*
X257683Y819912D03*
X258699Y819912D03*
X259715Y819912D03*
X260477Y819912D03*
X261239Y819912D03*
X262509Y819912D03*
D13*
X263144Y819912D03*
D57*
X265049Y819912D03*
D13*
X267970Y819912D03*
D22*
X279146Y819912D03*
D17*
X281432Y819912D03*
D63*
X283972Y819912D03*
D62*
X230251Y820166D03*
D13*
X244348Y820166D03*
D57*
X247015Y820166D03*
D63*
X249428Y820166D03*
D49*
X251587Y820166D03*
D56*
X254508Y820166D03*
D18*
X256413Y820166D03*
X257683Y820166D03*
X258699Y820166D03*
X259715Y820166D03*
D13*
X260350Y820166D03*
X261112Y820166D03*
D18*
X262509Y820166D03*
D13*
X263144Y820166D03*
D57*
X264795Y820166D03*
D13*
X267970Y820166D03*
D17*
X279146Y820166D03*
X281432Y820166D03*
D18*
X284099Y820166D03*
D21*
X230251Y820420D03*
D18*
X244221Y820420D03*
D62*
X246253Y820420D03*
X247777Y820420D03*
D18*
X249301Y820420D03*
X250825Y820420D03*
D13*
X252222Y820420D03*
X253746Y820420D03*
D63*
X255270Y820420D03*
D13*
X256286Y820420D03*
D18*
X257429Y820420D03*
D13*
X258572Y820420D03*
X259588Y820420D03*
D18*
X260223Y820420D03*
X260985Y820420D03*
D13*
X262382Y820420D03*
X263144Y820420D03*
D57*
X264795Y820420D03*
D18*
X267843Y820420D03*
D17*
X279146Y820420D03*
X281432Y820420D03*
D62*
X284099Y820420D03*
D23*
X230378Y820674D03*
D18*
X244221Y820674D03*
D17*
X246380Y820674D03*
X247904Y820674D03*
D13*
X249428Y820674D03*
X250698Y820674D03*
D18*
X252349Y820674D03*
X253873Y820674D03*
D17*
X255778Y820674D03*
D18*
X257429Y820674D03*
X258445Y820674D03*
D13*
X259334Y820674D03*
X260096Y820674D03*
D62*
X261239Y820674D03*
D18*
X262509Y820674D03*
D13*
X263144Y820674D03*
D57*
X265049Y820674D03*
D18*
X268097Y820674D03*
D63*
X279146Y820674D03*
D62*
X281559Y820674D03*
X284099Y820674D03*
D47*
X230378Y820928D03*
D18*
X244475Y820928D03*
D32*
X248539Y820928D03*
D63*
X252476Y820928D03*
X253746Y820928D03*
D17*
X255778Y820928D03*
D18*
X257429Y820928D03*
X258445Y820928D03*
X259207Y820928D03*
X259969Y820928D03*
X260731Y820928D03*
X261493Y820928D03*
D13*
X262382Y820928D03*
X263144Y820928D03*
D62*
X264033Y820928D03*
D34*
X265557Y820928D03*
D18*
X267843Y820928D03*
D63*
X279146Y820928D03*
D34*
X281559Y820928D03*
D62*
X284099Y820928D03*
D43*
X230505Y821182D03*
D18*
X244221Y821182D03*
D61*
X251079Y821182D03*
D13*
X257302Y821182D03*
D18*
X258191Y821182D03*
X259207Y821182D03*
D13*
X259842Y821182D03*
X260604Y821182D03*
D18*
X261747Y821182D03*
D13*
X262382Y821182D03*
X263144Y821182D03*
D23*
X264922Y821182D03*
D13*
X267970Y821182D03*
D63*
X279146Y821182D03*
D62*
X281559Y821182D03*
D34*
X284099Y821182D03*
D17*
X229108Y821436D03*
D34*
X231775Y821436D03*
D13*
X233426Y821436D03*
D18*
X244221Y821436D03*
D43*
X247523Y821436D03*
D17*
X251968Y821436D03*
D13*
X252984Y821436D03*
D18*
X253873Y821436D03*
D21*
X255397Y821436D03*
D18*
X257175Y821436D03*
X258191Y821436D03*
X258953Y821436D03*
X259715Y821436D03*
X260477Y821436D03*
X261747Y821436D03*
D13*
X262382Y821436D03*
X263144Y821436D03*
D57*
X265049Y821436D03*
D18*
X267843Y821436D03*
D63*
X279146Y821436D03*
D17*
X281432Y821436D03*
D21*
X284099Y821436D03*
D63*
X228854Y821690D03*
D21*
X232537Y821690D03*
D18*
X244221Y821690D03*
D17*
X246380Y821690D03*
D21*
X248285Y821690D03*
D18*
X250317Y821690D03*
D34*
X255905Y821690D03*
D18*
X257175Y821690D03*
D13*
X258064Y821690D03*
D18*
X258953Y821690D03*
D13*
X259588Y821690D03*
X260350Y821690D03*
X261874Y821690D03*
X262382Y821690D03*
D18*
X263017Y821690D03*
D23*
X264922Y821690D03*
D18*
X267843Y821690D03*
D63*
X279146Y821690D03*
D34*
X281559Y821690D03*
D18*
X283337Y821690D03*
X228981Y821944D03*
D34*
X232537Y821944D03*
D63*
X244348Y821944D03*
D57*
X247015Y821944D03*
D18*
X248793Y821944D03*
D22*
X250444Y821944D03*
X255778Y821944D03*
D13*
X257048Y821944D03*
D18*
X257937Y821944D03*
D13*
X258826Y821944D03*
D18*
X259461Y821944D03*
X260223Y821944D03*
D63*
X262128Y821944D03*
D13*
X263144Y821944D03*
D18*
X263779Y821944D03*
D20*
X266319Y821944D03*
D63*
X279400Y821944D03*
D17*
X281432Y821944D03*
D13*
X227584Y822198D03*
D18*
X228981Y822198D03*
X232537Y822198D03*
D20*
X245999Y822198D03*
D34*
X249301Y822198D03*
D62*
X251079Y822198D03*
D57*
X255905Y822198D03*
D18*
X257937Y822198D03*
X258699Y822198D03*
D13*
X259334Y822198D03*
X260096Y822198D03*
D63*
X262128Y822198D03*
D18*
X263017Y822198D03*
X263779Y822198D03*
X264541Y822198D03*
D47*
X266700Y822198D03*
D62*
X279527Y822198D03*
D22*
X281178Y822198D03*
D63*
X227584Y822452D03*
D18*
X228981Y822452D03*
D49*
X245491Y822452D03*
D18*
X247777Y822452D03*
D62*
X249047Y822452D03*
X251587Y822452D03*
D48*
X256667Y822452D03*
D13*
X259334Y822452D03*
D18*
X259969Y822452D03*
X262255Y822452D03*
D63*
X263398Y822452D03*
D18*
X264541Y822452D03*
D47*
X266700Y822452D03*
D57*
X280543Y822452D03*
D21*
X228473Y822706D03*
D23*
X245364Y822706D03*
D13*
X247904Y822706D03*
D63*
X248920Y822706D03*
X251714Y822706D03*
D49*
X255905Y822706D03*
D62*
X258191Y822706D03*
D18*
X259207Y822706D03*
X259969Y822706D03*
X262255Y822706D03*
D63*
X263398Y822706D03*
D18*
X264541Y822706D03*
D47*
X266700Y822706D03*
D21*
X280543Y822706D03*
D57*
X228473Y822960D03*
D49*
X245237Y822960D03*
D13*
X247142Y822960D03*
X247904Y822960D03*
D62*
X248793Y822960D03*
D18*
X252095Y822960D03*
X254635Y822960D03*
D21*
X256413Y822960D03*
D18*
X258445Y822960D03*
D13*
X259080Y822960D03*
D18*
X259715Y822960D03*
X260985Y822960D03*
X262509Y822960D03*
X263271Y822960D03*
X264541Y822960D03*
D17*
X265684Y822960D03*
X267716Y822960D03*
D34*
X280543Y822960D03*
D47*
X228854Y823214D03*
D18*
X243967Y823214D03*
D62*
X246253Y823214D03*
D21*
X248031Y823214D03*
D63*
X252222Y823214D03*
D18*
X254635Y823214D03*
X255905Y823214D03*
D13*
X257302Y823214D03*
D34*
X258953Y823214D03*
D17*
X261112Y823214D03*
D13*
X262382Y823214D03*
D63*
X263398Y823214D03*
D13*
X264668Y823214D03*
D62*
X265557Y823214D03*
D63*
X268224Y823214D03*
D34*
X282829Y823214D03*
D48*
X229235Y823468D03*
D18*
X243967Y823468D03*
D62*
X246253Y823468D03*
X247777Y823468D03*
D13*
X248920Y823468D03*
D63*
X252476Y823468D03*
D18*
X254635Y823468D03*
X255905Y823468D03*
X257429Y823468D03*
D22*
X258826Y823468D03*
D18*
X260477Y823468D03*
X261493Y823468D03*
X262509Y823468D03*
D63*
X263398Y823468D03*
D13*
X264668Y823468D03*
D62*
X265557Y823468D03*
D13*
X268224Y823468D03*
D23*
X282956Y823468D03*
D17*
X227584Y823722D03*
D48*
X230759Y823722D03*
D18*
X243967Y823722D03*
D17*
X246380Y823722D03*
D63*
X247904Y823722D03*
D13*
X248920Y823722D03*
D63*
X252730Y823722D03*
X254762Y823722D03*
D18*
X255905Y823722D03*
D23*
X258318Y823722D03*
D18*
X260223Y823722D03*
X261747Y823722D03*
X262509Y823722D03*
D62*
X263525Y823722D03*
D18*
X264541Y823722D03*
D62*
X265557Y823722D03*
D13*
X268224Y823722D03*
D40*
X282956Y823722D03*
D47*
X231140Y823976D03*
D62*
X244221Y823976D03*
D18*
X245999Y823976D03*
X246761Y823976D03*
D62*
X248539Y823976D03*
D18*
X252857Y823976D03*
D23*
X256032Y823976D03*
D22*
X258572Y823976D03*
D18*
X260223Y823976D03*
X262001Y823976D03*
D13*
X262636Y823976D03*
D22*
X263906Y823976D03*
D34*
X265811Y823976D03*
D18*
X268097Y823976D03*
D50*
X282956Y823976D03*
D56*
X231648Y824230D03*
X245110Y824230D03*
D18*
X246761Y824230D03*
D62*
X248539Y824230D03*
D63*
X252984Y824230D03*
D57*
X255905Y824230D03*
D21*
X258445Y824230D03*
D18*
X259969Y824230D03*
X262001Y824230D03*
D17*
X263144Y824230D03*
D34*
X264795Y824230D03*
D57*
X267081Y824230D03*
D38*
X282956Y824230D03*
D34*
X231775Y824484D03*
D57*
X244983Y824484D03*
D18*
X246761Y824484D03*
D13*
X248158Y824484D03*
X248920Y824484D03*
D18*
X253111Y824484D03*
X254889Y824484D03*
D21*
X258191Y824484D03*
D18*
X259969Y824484D03*
D43*
X263779Y824484D03*
D56*
X267208Y824484D03*
D38*
X282956Y824484D03*
D18*
X227203Y824738D03*
D62*
X232029Y824738D03*
X244475Y824738D03*
X245745Y824738D03*
D18*
X246761Y824738D03*
D13*
X248158Y824738D03*
D18*
X248793Y824738D03*
X253365Y824738D03*
X255143Y824738D03*
D57*
X257937Y824738D03*
D13*
X259842Y824738D03*
D47*
X263652Y824738D03*
D56*
X267208Y824738D03*
D49*
X281813Y824738D03*
D13*
X283718Y824738D03*
D34*
X284861Y824738D03*
D63*
X227330Y824992D03*
D18*
X232283Y824992D03*
X244221Y824992D03*
D62*
X246507Y824992D03*
D13*
X248158Y824992D03*
D18*
X248793Y824992D03*
D34*
X250571Y824992D03*
D63*
X253492Y824992D03*
D18*
X255143Y824992D03*
D57*
X257937Y824992D03*
D18*
X259715Y824992D03*
D22*
X263144Y824992D03*
D62*
X264795Y824992D03*
D18*
X266065Y824992D03*
D63*
X267716Y824992D03*
D34*
X280797Y824992D03*
D62*
X282575Y824992D03*
D63*
X285242Y824992D03*
D18*
X227457Y825246D03*
X232283Y825246D03*
X244221Y825246D03*
D17*
X246380Y825246D03*
D13*
X248158Y825246D03*
D18*
X248793Y825246D03*
D56*
X250698Y825246D03*
D18*
X253619Y825246D03*
X255143Y825246D03*
D43*
X258191Y825246D03*
D34*
X263017Y825246D03*
D17*
X264922Y825246D03*
D13*
X265938Y825246D03*
D18*
X267843Y825246D03*
D62*
X280543Y825246D03*
D63*
X282702Y825246D03*
X285242Y825246D03*
X227584Y825500D03*
D18*
X244221Y825500D03*
D62*
X246253Y825500D03*
D13*
X248158Y825500D03*
X248666Y825500D03*
D18*
X249555Y825500D03*
D63*
X251714Y825500D03*
D18*
X253873Y825500D03*
X255397Y825500D03*
D13*
X256794Y825500D03*
D21*
X258699Y825500D03*
D62*
X260985Y825500D03*
D34*
X263017Y825500D03*
D62*
X264795Y825500D03*
D13*
X266192Y825500D03*
D18*
X267843Y825500D03*
D63*
X280416Y825500D03*
X282702Y825500D03*
X285242Y825500D03*
X227584Y825754D03*
D18*
X244221Y825754D03*
D17*
X246380Y825754D03*
D18*
X248031Y825754D03*
D62*
X249047Y825754D03*
D63*
X252222Y825754D03*
D18*
X253873Y825754D03*
X255397Y825754D03*
X256921Y825754D03*
D40*
X259842Y825754D03*
D62*
X262509Y825754D03*
D18*
X263525Y825754D03*
X264541Y825754D03*
D13*
X265176Y825754D03*
X266192Y825754D03*
D63*
X267970Y825754D03*
D18*
X280289Y825754D03*
X282829Y825754D03*
D63*
X285242Y825754D03*
X227584Y826008D03*
D13*
X229616Y826008D03*
X230378Y826008D03*
X231394Y826008D03*
D18*
X232029Y826008D03*
X244221Y826008D03*
D17*
X246380Y826008D03*
D13*
X248158Y826008D03*
D18*
X248793Y826008D03*
D21*
X250571Y826008D03*
D18*
X252349Y826008D03*
X253873Y826008D03*
X255397Y826008D03*
X256921Y826008D03*
D13*
X258318Y826008D03*
D17*
X260096Y826008D03*
D62*
X262001Y826008D03*
D13*
X263652Y826008D03*
D17*
X264922Y826008D03*
D18*
X266065Y826008D03*
D13*
X267970Y826008D03*
D63*
X280162Y826008D03*
X282956Y826008D03*
D62*
X285115Y826008D03*
D63*
X227584Y826262D03*
D49*
X230759Y826262D03*
D18*
X244221Y826262D03*
D17*
X246380Y826262D03*
D18*
X248031Y826262D03*
X248793Y826262D03*
D63*
X249682Y826262D03*
D13*
X250698Y826262D03*
D63*
X251460Y826262D03*
D18*
X252603Y826262D03*
X254127Y826262D03*
X255397Y826262D03*
D62*
X257175Y826262D03*
D63*
X260096Y826262D03*
X262128Y826262D03*
D21*
X264541Y826262D03*
D18*
X266065Y826262D03*
D13*
X267970Y826262D03*
D18*
X280289Y826262D03*
D63*
X282956Y826262D03*
D17*
X284988Y826262D03*
D63*
X227584Y826516D03*
D23*
X230632Y826516D03*
D18*
X244221Y826516D03*
D17*
X246380Y826516D03*
D13*
X247904Y826516D03*
D62*
X249047Y826516D03*
D63*
X251968Y826516D03*
D18*
X252857Y826516D03*
X254127Y826516D03*
X255651Y826516D03*
D21*
X257683Y826516D03*
D34*
X260477Y826516D03*
D63*
X262382Y826516D03*
D18*
X263779Y826516D03*
D62*
X265049Y826516D03*
D13*
X266192Y826516D03*
D18*
X267843Y826516D03*
D63*
X280416Y826516D03*
D62*
X283083Y826516D03*
D22*
X284734Y826516D03*
D62*
X227457Y826770D03*
D21*
X231013Y826770D03*
D18*
X244221Y826770D03*
D62*
X246253Y826770D03*
D18*
X248031Y826770D03*
D63*
X248920Y826770D03*
X252222Y826770D03*
D18*
X253111Y826770D03*
X254381Y826770D03*
X255651Y826770D03*
D13*
X257048Y826770D03*
D34*
X258445Y826770D03*
D21*
X260477Y826770D03*
D22*
X262890Y826770D03*
D62*
X265049Y826770D03*
D13*
X266192Y826770D03*
X267970Y826770D03*
D63*
X280416Y826770D03*
D49*
X284099Y826770D03*
D62*
X227457Y827024D03*
X231267Y827024D03*
D18*
X244221Y827024D03*
D62*
X246507Y827024D03*
D18*
X248031Y827024D03*
X248793Y827024D03*
X252349Y827024D03*
D13*
X253238Y827024D03*
D18*
X254381Y827024D03*
X255651Y827024D03*
X257175Y827024D03*
D56*
X259588Y827024D03*
D18*
X261493Y827024D03*
D62*
X262763Y827024D03*
D22*
X265430Y827024D03*
D18*
X267843Y827024D03*
D35*
X283083Y827024D03*
D62*
X227203Y827278D03*
D63*
X231394Y827278D03*
D18*
X244221Y827278D03*
D62*
X246507Y827278D03*
D13*
X247904Y827278D03*
D18*
X248793Y827278D03*
X252603Y827278D03*
X253365Y827278D03*
D63*
X254508Y827278D03*
D18*
X255905Y827278D03*
X257175Y827278D03*
D17*
X260350Y827278D03*
D13*
X261620Y827278D03*
D17*
X262890Y827278D03*
D22*
X265430Y827278D03*
D18*
X267843Y827278D03*
D23*
X281940Y827278D03*
D63*
X285750Y827278D03*
D34*
X227203Y827532D03*
D18*
X231521Y827532D03*
X244221Y827532D03*
D62*
X246507Y827532D03*
D13*
X247904Y827532D03*
X248666Y827532D03*
D18*
X252857Y827532D03*
D13*
X253492Y827532D03*
D18*
X254635Y827532D03*
X255905Y827532D03*
X257175Y827532D03*
D38*
X261620Y827532D03*
D22*
X265430Y827532D03*
D13*
X267970Y827532D03*
D21*
X281559Y827532D03*
D34*
X226949Y827786D03*
D18*
X231521Y827786D03*
X244221Y827786D03*
D62*
X246507Y827786D03*
D13*
X247904Y827786D03*
X248666Y827786D03*
D18*
X252857Y827786D03*
X253619Y827786D03*
X254635Y827786D03*
X255905Y827786D03*
X257175Y827786D03*
D21*
X259715Y827786D03*
D47*
X262636Y827786D03*
D22*
X265430Y827786D03*
D18*
X267843Y827786D03*
D17*
X281178Y827786D03*
D22*
X227076Y828040D03*
D18*
X231521Y828040D03*
X244221Y828040D03*
D62*
X246507Y828040D03*
D13*
X247904Y828040D03*
D18*
X248539Y828040D03*
X253111Y828040D03*
D13*
X253746Y828040D03*
D18*
X254889Y828040D03*
D13*
X256032Y828040D03*
X257302Y828040D03*
D56*
X259588Y828040D03*
D32*
X263779Y828040D03*
D18*
X268097Y828040D03*
D62*
X281051Y828040D03*
D21*
X226949Y828294D03*
D18*
X231521Y828294D03*
X244221Y828294D03*
D62*
X246507Y828294D03*
D13*
X247904Y828294D03*
X248666Y828294D03*
D62*
X253619Y828294D03*
D18*
X254889Y828294D03*
X256159Y828294D03*
X257429Y828294D03*
D57*
X259715Y828294D03*
D38*
X263906Y828294D03*
D13*
X267970Y828294D03*
D18*
X280797Y828294D03*
D13*
X286004Y828294D03*
D56*
X227076Y828548D03*
D18*
X231521Y828548D03*
X244221Y828548D03*
D62*
X246507Y828548D03*
D13*
X247904Y828548D03*
D63*
X253746Y828548D03*
D18*
X254889Y828548D03*
X256159Y828548D03*
X257429Y828548D03*
X258699Y828548D03*
D22*
X260096Y828548D03*
D48*
X263779Y828548D03*
D18*
X267843Y828548D03*
D13*
X280670Y828548D03*
D63*
X285750Y828548D03*
D17*
X226568Y828802D03*
D63*
X228092Y828802D03*
X231394Y828802D03*
D13*
X244094Y828802D03*
D62*
X246507Y828802D03*
D18*
X247777Y828802D03*
D62*
X250317Y828802D03*
X253873Y828802D03*
D18*
X255143Y828802D03*
X256159Y828802D03*
X257429Y828802D03*
X258699Y828802D03*
D22*
X260096Y828802D03*
D56*
X262636Y828802D03*
D21*
X265049Y828802D03*
D18*
X268097Y828802D03*
D62*
X285623Y828802D03*
X226441Y829056D03*
D34*
X228473Y829056D03*
D63*
X231394Y829056D03*
D18*
X244221Y829056D03*
D62*
X246507Y829056D03*
D18*
X247777Y829056D03*
D56*
X250444Y829056D03*
D63*
X254000Y829056D03*
D18*
X255143Y829056D03*
X256413Y829056D03*
D13*
X257556Y829056D03*
D18*
X258699Y829056D03*
D13*
X259334Y829056D03*
D17*
X260604Y829056D03*
D22*
X262636Y829056D03*
D21*
X265049Y829056D03*
D18*
X267843Y829056D03*
D62*
X285369Y829056D03*
X226441Y829310D03*
D43*
X229743Y829310D03*
D18*
X244221Y829310D03*
D62*
X246507Y829310D03*
D18*
X247777Y829310D03*
X249301Y829310D03*
D17*
X251460Y829310D03*
D62*
X254127Y829310D03*
D18*
X255143Y829310D03*
X256413Y829310D03*
X257683Y829310D03*
D62*
X258953Y829310D03*
D47*
X261620Y829310D03*
D56*
X265176Y829310D03*
D18*
X267843Y829310D03*
D34*
X285115Y829310D03*
D63*
X226314Y829564D03*
D47*
X229870Y829564D03*
D18*
X244221Y829564D03*
D34*
X246507Y829564D03*
D18*
X247777Y829564D03*
X249047Y829564D03*
D63*
X251968Y829564D03*
X254254Y829564D03*
D18*
X255397Y829564D03*
X256413Y829564D03*
X257683Y829564D03*
D63*
X259080Y829564D03*
X260604Y829564D03*
D18*
X262001Y829564D03*
D63*
X262890Y829564D03*
D57*
X265303Y829564D03*
D62*
X267589Y829564D03*
D63*
X281178Y829564D03*
D57*
X284607Y829564D03*
D18*
X226441Y829818D03*
D49*
X229997Y829818D03*
X245491Y829818D03*
D18*
X247777Y829818D03*
D13*
X248920Y829818D03*
D22*
X250190Y829818D03*
D18*
X252349Y829818D03*
D63*
X254508Y829818D03*
D18*
X255397Y829818D03*
D13*
X256540Y829818D03*
D18*
X257683Y829818D03*
D62*
X259207Y829818D03*
D18*
X260477Y829818D03*
D13*
X261874Y829818D03*
D48*
X266065Y829818D03*
D44*
X283464Y829818D03*
D56*
X229870Y830072D03*
D47*
X245364Y830072D03*
D18*
X247777Y830072D03*
D47*
X250190Y830072D03*
D18*
X252603Y830072D03*
D63*
X254508Y830072D03*
D13*
X255524Y830072D03*
D63*
X256540Y830072D03*
D13*
X257810Y830072D03*
D18*
X258953Y830072D03*
D62*
X259969Y830072D03*
D18*
X261747Y830072D03*
D44*
X265684Y830072D03*
D32*
X283591Y830072D03*
D13*
X229870Y830326D03*
D18*
X230505Y830326D03*
D43*
X245491Y830326D03*
D18*
X247777Y830326D03*
D62*
X249047Y830326D03*
D18*
X251841Y830326D03*
X252857Y830326D03*
D23*
X255524Y830326D03*
D13*
X257810Y830326D03*
D18*
X258953Y830326D03*
D49*
X260985Y830326D03*
D44*
X265684Y830326D03*
D49*
X282575Y830326D03*
D63*
X286004Y830326D03*
D47*
X245364Y830580D03*
D18*
X247777Y830580D03*
D63*
X248920Y830580D03*
D22*
X250444Y830580D03*
D63*
X252222Y830580D03*
D18*
X253111Y830580D03*
D22*
X255270Y830580D03*
D18*
X256921Y830580D03*
X257937Y830580D03*
D38*
X261112Y830580D03*
D18*
X264287Y830580D03*
D21*
X265811Y830580D03*
D62*
X267843Y830580D03*
D34*
X281813Y830580D03*
D18*
X286131Y830580D03*
D13*
X226568Y830834D03*
D18*
X243967Y830834D03*
D17*
X246380Y830834D03*
D18*
X247777Y830834D03*
D63*
X248666Y830834D03*
D18*
X249809Y830834D03*
D63*
X251206Y830834D03*
D18*
X252349Y830834D03*
X253365Y830834D03*
D63*
X254762Y830834D03*
D13*
X255778Y830834D03*
D18*
X256921Y830834D03*
X257937Y830834D03*
D62*
X258953Y830834D03*
X260223Y830834D03*
D63*
X262890Y830834D03*
D18*
X264287Y830834D03*
D17*
X265430Y830834D03*
D18*
X268351Y830834D03*
D62*
X281559Y830834D03*
D63*
X286258Y830834D03*
D18*
X226441Y831088D03*
X231267Y831088D03*
X243967Y831088D03*
D17*
X246380Y831088D03*
D18*
X247777Y831088D03*
X248539Y831088D03*
X249555Y831088D03*
D63*
X251714Y831088D03*
D18*
X252857Y831088D03*
X253619Y831088D03*
D13*
X254508Y831088D03*
D21*
X257683Y831088D03*
D13*
X259842Y831088D03*
X260604Y831088D03*
D63*
X262890Y831088D03*
D18*
X264287Y831088D03*
D17*
X265430Y831088D03*
D18*
X268351Y831088D03*
D62*
X281305Y831088D03*
D63*
X286258Y831088D03*
D62*
X226695Y831342D03*
D17*
X230886Y831342D03*
D63*
X244094Y831342D03*
D17*
X246380Y831342D03*
D18*
X247777Y831342D03*
X248539Y831342D03*
X249301Y831342D03*
X252095Y831342D03*
D13*
X252984Y831342D03*
D34*
X254127Y831342D03*
D63*
X257048Y831342D03*
D62*
X258191Y831342D03*
D18*
X263017Y831342D03*
D21*
X265049Y831342D03*
D18*
X268351Y831342D03*
D63*
X281178Y831342D03*
D62*
X286131Y831342D03*
D35*
X228727Y831596D03*
D62*
X244221Y831596D03*
D17*
X246380Y831596D03*
D18*
X247777Y831596D03*
D13*
X248412Y831596D03*
X249174Y831596D03*
D49*
X253619Y831596D03*
D13*
X256794Y831596D03*
D63*
X258064Y831596D03*
X260350Y831596D03*
X262890Y831596D03*
D56*
X265176Y831596D03*
D18*
X268351Y831596D03*
D63*
X281178Y831596D03*
D17*
X286004Y831596D03*
D44*
X228600Y831850D03*
D47*
X245364Y831850D03*
D62*
X248031Y831850D03*
D18*
X249047Y831850D03*
D62*
X252857Y831850D03*
D34*
X254889Y831850D03*
D63*
X256540Y831850D03*
X257810Y831850D03*
D18*
X260223Y831850D03*
X263017Y831850D03*
D57*
X265303Y831850D03*
D13*
X266954Y831850D03*
D18*
X268097Y831850D03*
D63*
X281432Y831850D03*
D62*
X285877Y831850D03*
D44*
X228600Y832104D03*
D49*
X245491Y832104D03*
D62*
X248031Y832104D03*
D13*
X248920Y832104D03*
D63*
X252984Y832104D03*
D49*
X256667Y832104D03*
D62*
X260223Y832104D03*
D63*
X262890Y832104D03*
D34*
X264795Y832104D03*
D57*
X267335Y832104D03*
D62*
X281559Y832104D03*
D34*
X285623Y832104D03*
D62*
X226441Y832358D03*
D43*
X229489Y832358D03*
D56*
X245110Y832358D03*
D63*
X246888Y832358D03*
D34*
X248285Y832358D03*
D18*
X249809Y832358D03*
D21*
X253619Y832358D03*
D63*
X258064Y832358D03*
X259842Y832358D03*
D13*
X260604Y832358D03*
D18*
X263017Y832358D03*
D34*
X264795Y832358D03*
D18*
X266319Y832358D03*
D63*
X267208Y832358D03*
D18*
X268097Y832358D03*
D17*
X281686Y832358D03*
D56*
X285242Y832358D03*
D18*
X226187Y832612D03*
X228727Y832612D03*
D62*
X230759Y832612D03*
D18*
X244221Y832612D03*
X245999Y832612D03*
X246761Y832612D03*
D17*
X248158Y832612D03*
D18*
X249555Y832612D03*
D49*
X254127Y832612D03*
D34*
X256667Y832612D03*
D21*
X259207Y832612D03*
D13*
X260604Y832612D03*
D18*
X263017Y832612D03*
D34*
X264795Y832612D03*
D63*
X266192Y832612D03*
D62*
X267843Y832612D03*
D38*
X283718Y832612D03*
D18*
X226187Y832866D03*
X228727Y832866D03*
X231013Y832866D03*
X244221Y832866D03*
D13*
X246126Y832866D03*
D63*
X246888Y832866D03*
D17*
X248158Y832866D03*
D18*
X249301Y832866D03*
D22*
X253492Y832866D03*
X255778Y832866D03*
D63*
X257302Y832866D03*
D13*
X258826Y832866D03*
D63*
X260350Y832866D03*
D18*
X263017Y832866D03*
D34*
X264795Y832866D03*
D18*
X266065Y832866D03*
X267843Y832866D03*
D48*
X283591Y832866D03*
D63*
X226314Y833120D03*
D18*
X228727Y833120D03*
D13*
X244094Y833120D03*
X246888Y833120D03*
X247650Y833120D03*
D17*
X248666Y833120D03*
D63*
X252984Y833120D03*
D34*
X254381Y833120D03*
D18*
X256159Y833120D03*
D62*
X257937Y833120D03*
X259715Y833120D03*
D13*
X260604Y833120D03*
D18*
X263017Y833120D03*
D34*
X264795Y833120D03*
D18*
X266065Y833120D03*
X268097Y833120D03*
D20*
X283591Y833120D03*
D62*
X226441Y833374D03*
D18*
X228727Y833374D03*
D13*
X244094Y833374D03*
X246126Y833374D03*
D18*
X246761Y833374D03*
D13*
X247650Y833374D03*
D62*
X248539Y833374D03*
D56*
X253746Y833374D03*
D22*
X256540Y833374D03*
X258572Y833374D03*
D18*
X259969Y833374D03*
D13*
X260858Y833374D03*
D18*
X263017Y833374D03*
D13*
X264160Y833374D03*
D62*
X265049Y833374D03*
D18*
X266065Y833374D03*
D13*
X267970Y833374D03*
D47*
X283718Y833374D03*
D22*
X226822Y833628D03*
D63*
X228600Y833628D03*
D18*
X244221Y833628D03*
D62*
X246507Y833628D03*
D34*
X248285Y833628D03*
D49*
X254127Y833628D03*
D18*
X257937Y833628D03*
D34*
X259715Y833628D03*
D13*
X260858Y833628D03*
D18*
X263017Y833628D03*
D34*
X264795Y833628D03*
D18*
X266065Y833628D03*
X268097Y833628D03*
D34*
X283337Y833628D03*
D47*
X227330Y833882D03*
D13*
X244094Y833882D03*
D62*
X246507Y833882D03*
D34*
X248031Y833882D03*
D57*
X253873Y833882D03*
X257175Y833882D03*
D17*
X259588Y833882D03*
D13*
X260858Y833882D03*
D18*
X263017Y833882D03*
D13*
X264160Y833882D03*
D22*
X265430Y833882D03*
D18*
X267843Y833882D03*
D63*
X226060Y834136D03*
D21*
X227965Y834136D03*
D13*
X244094Y834136D03*
D62*
X246507Y834136D03*
D18*
X247777Y834136D03*
X248539Y834136D03*
D21*
X253619Y834136D03*
D17*
X255778Y834136D03*
X257810Y834136D03*
D18*
X259461Y834136D03*
X260223Y834136D03*
X263017Y834136D03*
D13*
X264160Y834136D03*
D34*
X265557Y834136D03*
D18*
X268097Y834136D03*
D13*
X284226Y834136D03*
X284734Y834136D03*
D18*
X225933Y834390D03*
D56*
X228600Y834390D03*
D13*
X244094Y834390D03*
D62*
X246507Y834390D03*
X248031Y834390D03*
D49*
X254127Y834390D03*
D22*
X258064Y834390D03*
D13*
X259588Y834390D03*
X260350Y834390D03*
X260858Y834390D03*
D18*
X263017Y834390D03*
D13*
X264160Y834390D03*
D22*
X265430Y834390D03*
D18*
X267843Y834390D03*
D57*
X284099Y834390D03*
D13*
X225806Y834644D03*
D23*
X229108Y834644D03*
D18*
X244221Y834644D03*
D23*
X247142Y834644D03*
D57*
X253873Y834644D03*
X258445Y834644D03*
D63*
X260604Y834644D03*
D18*
X263017Y834644D03*
D13*
X264160Y834644D03*
D17*
X265430Y834644D03*
D13*
X267970Y834644D03*
D43*
X284099Y834644D03*
D23*
X229362Y834898D03*
D13*
X244094Y834898D03*
D56*
X247142Y834898D03*
D57*
X253873Y834898D03*
D18*
X257429Y834898D03*
X259461Y834898D03*
D63*
X260604Y834898D03*
D18*
X263017Y834898D03*
D34*
X264795Y834898D03*
D18*
X266065Y834898D03*
D13*
X267970Y834898D03*
D20*
X284099Y834898D03*
D56*
X229870Y835152D03*
D13*
X244094Y835152D03*
D22*
X246888Y835152D03*
D13*
X248158Y835152D03*
D22*
X253746Y835152D03*
D18*
X255143Y835152D03*
X257429Y835152D03*
D17*
X260350Y835152D03*
D18*
X263017Y835152D03*
D13*
X264160Y835152D03*
D62*
X265049Y835152D03*
D18*
X266065Y835152D03*
X268097Y835152D03*
D48*
X284099Y835152D03*
D21*
X230251Y835406D03*
D18*
X244221Y835406D03*
D62*
X246507Y835406D03*
D63*
X247904Y835406D03*
D17*
X253492Y835406D03*
D63*
X254762Y835406D03*
D47*
X258826Y835406D03*
D18*
X260985Y835406D03*
X263017Y835406D03*
D13*
X264160Y835406D03*
D63*
X265176Y835406D03*
D18*
X266065Y835406D03*
X268097Y835406D03*
D32*
X284099Y835406D03*
D63*
X230886Y835660D03*
D13*
X244094Y835660D03*
D17*
X246380Y835660D03*
D18*
X247777Y835660D03*
D62*
X253365Y835660D03*
D18*
X254889Y835660D03*
D63*
X257556Y835660D03*
D34*
X259715Y835660D03*
D13*
X260858Y835660D03*
D18*
X263017Y835660D03*
D13*
X264160Y835660D03*
D63*
X265176Y835660D03*
D18*
X266065Y835660D03*
D13*
X267970Y835660D03*
D44*
X284226Y835660D03*
D18*
X231013Y835914D03*
D13*
X244094Y835914D03*
D17*
X246380Y835914D03*
D18*
X247523Y835914D03*
D62*
X249555Y835914D03*
D56*
X254000Y835914D03*
D18*
X257429Y835914D03*
D13*
X259588Y835914D03*
D18*
X260223Y835914D03*
X263017Y835914D03*
D13*
X264160Y835914D03*
D62*
X265049Y835914D03*
D13*
X265938Y835914D03*
X267970Y835914D03*
D17*
X281940Y835914D03*
D63*
X284226Y835914D03*
D17*
X286258Y835914D03*
D13*
X244094Y836168D03*
D21*
X246761Y836168D03*
D56*
X249682Y836168D03*
D21*
X253873Y836168D03*
D18*
X257429Y836168D03*
X259715Y836168D03*
D13*
X260350Y836168D03*
D18*
X260985Y836168D03*
X263017Y836168D03*
X264033Y836168D03*
D62*
X265049Y836168D03*
D18*
X266065Y836168D03*
D63*
X267970Y836168D03*
X281686Y836168D03*
X284226Y836168D03*
X286512Y836168D03*
D62*
X225933Y836422D03*
D18*
X244221Y836422D03*
D49*
X247269Y836422D03*
D63*
X250698Y836422D03*
D17*
X253492Y836422D03*
D18*
X254635Y836422D03*
X257429Y836422D03*
D62*
X259969Y836422D03*
D18*
X260985Y836422D03*
X263017Y836422D03*
D13*
X264160Y836422D03*
D62*
X265049Y836422D03*
D18*
X266065Y836422D03*
D13*
X267970Y836422D03*
D63*
X281686Y836422D03*
X284226Y836422D03*
D62*
X286639Y836422D03*
D56*
X226568Y836676D03*
D62*
X230759Y836676D03*
D13*
X244094Y836676D03*
D22*
X246634Y836676D03*
D56*
X248920Y836676D03*
D63*
X253238Y836676D03*
D13*
X254000Y836676D03*
X254508Y836676D03*
D18*
X257429Y836676D03*
D62*
X259969Y836676D03*
D18*
X260985Y836676D03*
X263017Y836676D03*
X264033Y836676D03*
D22*
X265430Y836676D03*
D18*
X268097Y836676D03*
X281559Y836676D03*
D63*
X284226Y836676D03*
X286766Y836676D03*
D44*
X228346Y836930D03*
D13*
X244094Y836930D03*
D22*
X246634Y836930D03*
D23*
X249174Y836930D03*
D18*
X253111Y836930D03*
X254381Y836930D03*
D13*
X257556Y836930D03*
X259588Y836930D03*
D18*
X260223Y836930D03*
X263017Y836930D03*
X264033Y836930D03*
D13*
X264668Y836930D03*
D18*
X265303Y836930D03*
X266065Y836930D03*
X268097Y836930D03*
D63*
X281686Y836930D03*
X284226Y836930D03*
D18*
X286639Y836930D03*
D44*
X228346Y837184D03*
D18*
X244221Y837184D03*
D49*
X247269Y837184D03*
D63*
X250444Y837184D03*
D13*
X252984Y837184D03*
D62*
X254127Y837184D03*
D18*
X257683Y837184D03*
D13*
X259588Y837184D03*
D18*
X260223Y837184D03*
X260985Y837184D03*
X263017Y837184D03*
X264033Y837184D03*
D62*
X265049Y837184D03*
D18*
X266065Y837184D03*
D63*
X267716Y837184D03*
X281686Y837184D03*
D18*
X284099Y837184D03*
X286639Y837184D03*
D17*
X226314Y837438D03*
D13*
X227330Y837438D03*
D34*
X229997Y837438D03*
D63*
X244094Y837438D03*
D49*
X247015Y837438D03*
D18*
X250825Y837438D03*
D62*
X253365Y837438D03*
D18*
X254381Y837438D03*
D13*
X255016Y837438D03*
D18*
X257683Y837438D03*
D13*
X259588Y837438D03*
D18*
X260223Y837438D03*
D13*
X261112Y837438D03*
X263144Y837438D03*
D18*
X264033Y837438D03*
D63*
X264922Y837438D03*
X266192Y837438D03*
D34*
X267589Y837438D03*
D62*
X281813Y837438D03*
D63*
X284226Y837438D03*
D62*
X286385Y837438D03*
X226187Y837692D03*
X230505Y837692D03*
D43*
X245745Y837692D03*
D18*
X248031Y837692D03*
D63*
X253238Y837692D03*
D13*
X254254Y837692D03*
X255016Y837692D03*
D18*
X257683Y837692D03*
D13*
X259588Y837692D03*
D18*
X260223Y837692D03*
D13*
X261112Y837692D03*
D63*
X263144Y837692D03*
D18*
X264033Y837692D03*
D13*
X264668Y837692D03*
X265176Y837692D03*
D23*
X267208Y837692D03*
D34*
X282321Y837692D03*
D62*
X284099Y837692D03*
X286131Y837692D03*
D63*
X226060Y837946D03*
D18*
X230759Y837946D03*
D48*
X245999Y837946D03*
D18*
X253111Y837946D03*
X254127Y837946D03*
X254889Y837946D03*
X257683Y837946D03*
D13*
X259588Y837946D03*
D18*
X260223Y837946D03*
X263017Y837946D03*
D13*
X263906Y837946D03*
D63*
X264922Y837946D03*
D23*
X266954Y837946D03*
D32*
X284099Y837946D03*
D63*
X225806Y838200D03*
D18*
X230759Y838200D03*
D17*
X244348Y838200D03*
D57*
X246761Y838200D03*
D13*
X253238Y838200D03*
D18*
X254127Y838200D03*
D13*
X254762Y838200D03*
D18*
X257683Y838200D03*
D13*
X259588Y838200D03*
D18*
X260223Y838200D03*
D13*
X263144Y838200D03*
X263906Y838200D03*
D63*
X264922Y838200D03*
X265938Y838200D03*
D62*
X268097Y838200D03*
D32*
X284099Y838200D03*
D63*
X225806Y838454D03*
D18*
X230759Y838454D03*
X243967Y838454D03*
D21*
X247015Y838454D03*
D18*
X253365Y838454D03*
D13*
X254000Y838454D03*
D18*
X254635Y838454D03*
X257683Y838454D03*
D13*
X259588Y838454D03*
D18*
X260223Y838454D03*
X263017Y838454D03*
D13*
X263906Y838454D03*
D63*
X264922Y838454D03*
X265938Y838454D03*
X268224Y838454D03*
D32*
X284099Y838454D03*
D63*
X225806Y838708D03*
X230886Y838708D03*
D13*
X243840Y838708D03*
D34*
X246761Y838708D03*
D13*
X247904Y838708D03*
D18*
X253365Y838708D03*
D63*
X254254Y838708D03*
D18*
X257937Y838708D03*
D62*
X259969Y838708D03*
D18*
X263017Y838708D03*
X263779Y838708D03*
D63*
X264668Y838708D03*
D18*
X265811Y838708D03*
X268351Y838708D03*
D34*
X282321Y838708D03*
D13*
X283464Y838708D03*
X283972Y838708D03*
D21*
X285623Y838708D03*
D62*
X225933Y838962D03*
D63*
X230886Y838962D03*
D13*
X243840Y838962D03*
D62*
X246507Y838962D03*
D63*
X247650Y838962D03*
D17*
X253746Y838962D03*
D18*
X257937Y838962D03*
D62*
X259969Y838962D03*
D18*
X263017Y838962D03*
D13*
X263652Y838962D03*
D63*
X264668Y838962D03*
D18*
X265811Y838962D03*
X268351Y838962D03*
X281813Y838962D03*
D63*
X286512Y838962D03*
D17*
X226314Y839216D03*
D62*
X230505Y839216D03*
D18*
X243967Y839216D03*
D63*
X246634Y839216D03*
D18*
X247523Y839216D03*
D34*
X253619Y839216D03*
D63*
X257810Y839216D03*
D62*
X259969Y839216D03*
D18*
X264541Y839216D03*
X265811Y839216D03*
D63*
X268224Y839216D03*
D13*
X286766Y839216D03*
D22*
X226568Y839470D03*
D34*
X230251Y839470D03*
D18*
X243967Y839470D03*
D62*
X246507Y839470D03*
D18*
X247523Y839470D03*
D22*
X253492Y839470D03*
D63*
X257810Y839470D03*
D62*
X259969Y839470D03*
D13*
X264414Y839470D03*
D63*
X265684Y839470D03*
D18*
X268097Y839470D03*
D13*
X281686Y839470D03*
D32*
X228473Y839724D03*
D40*
X245872Y839724D03*
D56*
X253238Y839724D03*
D63*
X257810Y839724D03*
X260096Y839724D03*
D13*
X264414Y839724D03*
D34*
X265811Y839724D03*
D13*
X266954Y839724D03*
X267462Y839724D03*
D63*
X268224Y839724D03*
X281686Y839724D03*
D48*
X228473Y839978D03*
D47*
X245618Y839978D03*
D18*
X247777Y839978D03*
D23*
X252984Y839978D03*
D62*
X257683Y839978D03*
X259969Y839978D03*
D18*
X264287Y839978D03*
D43*
X266573Y839978D03*
D21*
X282321Y839978D03*
D20*
X228473Y840232D03*
D63*
X244348Y840232D03*
D21*
X247015Y840232D03*
D63*
X251460Y840232D03*
D18*
X252349Y840232D03*
D62*
X253619Y840232D03*
D34*
X257429Y840232D03*
D62*
X260223Y840232D03*
D13*
X264160Y840232D03*
D57*
X266065Y840232D03*
D18*
X268097Y840232D03*
D22*
X282448Y840232D03*
D34*
X285369Y840232D03*
D49*
X228473Y840486D03*
D18*
X244221Y840486D03*
X246507Y840486D03*
X247269Y840486D03*
X248031Y840486D03*
X251079Y840486D03*
X251841Y840486D03*
D34*
X253365Y840486D03*
X257429Y840486D03*
D63*
X260096Y840486D03*
D18*
X264033Y840486D03*
D34*
X265303Y840486D03*
D18*
X268097Y840486D03*
D22*
X282448Y840486D03*
D56*
X285242Y840486D03*
D22*
X228600Y840740D03*
D18*
X244221Y840740D03*
D62*
X246507Y840740D03*
D13*
X247396Y840740D03*
D63*
X248158Y840740D03*
D13*
X250698Y840740D03*
D18*
X251587Y840740D03*
X252603Y840740D03*
X253873Y840740D03*
D17*
X257556Y840740D03*
X260096Y840740D03*
D63*
X263906Y840740D03*
D34*
X265303Y840740D03*
D18*
X268097Y840740D03*
D17*
X282194Y840740D03*
D57*
X285369Y840740D03*
D63*
X244348Y840994D03*
X246380Y840994D03*
D18*
X247523Y840994D03*
D62*
X248539Y840994D03*
D17*
X250952Y840994D03*
D63*
X252222Y840994D03*
X253746Y840994D03*
D62*
X257683Y840994D03*
D34*
X260477Y840994D03*
D63*
X263652Y840994D03*
D18*
X264795Y840994D03*
D63*
X265684Y840994D03*
D18*
X268097Y840994D03*
D62*
X282067Y840994D03*
D49*
X285369Y840994D03*
D18*
X244221Y841248D03*
D63*
X246380Y841248D03*
X247396Y841248D03*
D34*
X248793Y841248D03*
D63*
X250190Y841248D03*
D13*
X250952Y841248D03*
D18*
X251841Y841248D03*
D17*
X253492Y841248D03*
D22*
X257302Y841248D03*
D56*
X260604Y841248D03*
D22*
X263144Y841248D03*
D63*
X264668Y841248D03*
X265684Y841248D03*
D18*
X268097Y841248D03*
D62*
X281813Y841248D03*
D17*
X284480Y841248D03*
D63*
X286512Y841248D03*
D18*
X244475Y841502D03*
D13*
X245110Y841502D03*
D63*
X246126Y841502D03*
X247396Y841502D03*
D22*
X249174Y841502D03*
D13*
X250698Y841502D03*
D63*
X251460Y841502D03*
X252984Y841502D03*
D13*
X253746Y841502D03*
D22*
X257302Y841502D03*
D50*
X261620Y841502D03*
D63*
X264668Y841502D03*
D18*
X265811Y841502D03*
X268097Y841502D03*
D63*
X281686Y841502D03*
D62*
X284353Y841502D03*
D63*
X286766Y841502D03*
D18*
X230505Y841756D03*
D57*
X245237Y841756D03*
D62*
X247523Y841756D03*
D22*
X249174Y841756D03*
D13*
X250444Y841756D03*
D18*
X251079Y841756D03*
D63*
X252476Y841756D03*
D13*
X253746Y841756D03*
D56*
X257048Y841756D03*
D23*
X260858Y841756D03*
D13*
X262636Y841756D03*
D18*
X263525Y841756D03*
D63*
X264668Y841756D03*
D34*
X266319Y841756D03*
D63*
X267716Y841756D03*
D18*
X281559Y841756D03*
D17*
X284226Y841756D03*
D63*
X286766Y841756D03*
D17*
X230632Y842010D03*
D50*
X245872Y842010D03*
D34*
X249047Y842010D03*
D63*
X250698Y842010D03*
X251968Y842010D03*
X253492Y842010D03*
D21*
X257175Y842010D03*
D22*
X260096Y842010D03*
D18*
X261747Y842010D03*
X263525Y842010D03*
D62*
X264541Y842010D03*
D49*
X266827Y842010D03*
D63*
X281432Y842010D03*
D17*
X284226Y842010D03*
D63*
X286766Y842010D03*
X226314Y842264D03*
D62*
X228473Y842264D03*
D17*
X230632Y842264D03*
X244348Y842264D03*
D13*
X245872Y842264D03*
D22*
X247142Y842264D03*
D17*
X249174Y842264D03*
D18*
X251587Y842264D03*
D62*
X253111Y842264D03*
D22*
X257302Y842264D03*
X259842Y842264D03*
D57*
X262509Y842264D03*
D62*
X264541Y842264D03*
D49*
X266827Y842264D03*
D18*
X281559Y842264D03*
D62*
X284099Y842264D03*
D63*
X286766Y842264D03*
D17*
X226314Y842518D03*
X228600Y842518D03*
X230632Y842518D03*
D62*
X244221Y842518D03*
D22*
X247396Y842518D03*
D62*
X249047Y842518D03*
D18*
X251333Y842518D03*
X252603Y842518D03*
X253365Y842518D03*
D17*
X257048Y842518D03*
D21*
X259461Y842518D03*
D18*
X261493Y842518D03*
D13*
X262128Y842518D03*
D62*
X264287Y842518D03*
X265811Y842518D03*
D34*
X267843Y842518D03*
D18*
X281559Y842518D03*
D17*
X283972Y842518D03*
D62*
X286639Y842518D03*
D34*
X226441Y842772D03*
X228473Y842772D03*
D17*
X230632Y842772D03*
D63*
X244094Y842772D03*
D17*
X247142Y842772D03*
D13*
X248158Y842772D03*
D62*
X249047Y842772D03*
D63*
X250952Y842772D03*
D18*
X252349Y842772D03*
D50*
X255270Y842772D03*
D18*
X258445Y842772D03*
D63*
X260350Y842772D03*
X261366Y842772D03*
D13*
X262636Y842772D03*
D17*
X263652Y842772D03*
D13*
X264668Y842772D03*
D62*
X265557Y842772D03*
D18*
X268351Y842772D03*
X281559Y842772D03*
D34*
X283845Y842772D03*
D62*
X286639Y842772D03*
D17*
X226314Y843026D03*
X228600Y843026D03*
D63*
X230632Y843026D03*
D18*
X243967Y843026D03*
D62*
X247015Y843026D03*
D13*
X248158Y843026D03*
D62*
X249301Y843026D03*
D18*
X252095Y843026D03*
D50*
X254762Y843026D03*
D17*
X258318Y843026D03*
D13*
X260350Y843026D03*
D47*
X262636Y843026D03*
D13*
X264668Y843026D03*
D63*
X265684Y843026D03*
D18*
X268351Y843026D03*
D63*
X281686Y843026D03*
D34*
X283845Y843026D03*
D17*
X286258Y843026D03*
D62*
X226441Y843280D03*
X228473Y843280D03*
D18*
X244221Y843280D03*
X246507Y843280D03*
D17*
X247650Y843280D03*
D62*
X249301Y843280D03*
D18*
X251841Y843280D03*
D57*
X253873Y843280D03*
D49*
X258191Y843280D03*
D17*
X260858Y843280D03*
D13*
X263906Y843280D03*
X264668Y843280D03*
D18*
X265557Y843280D03*
X268351Y843280D03*
D23*
X282956Y843280D03*
D22*
X286004Y843280D03*
D13*
X228600Y843534D03*
D18*
X244475Y843534D03*
X246253Y843534D03*
D34*
X247777Y843534D03*
D17*
X249428Y843534D03*
D43*
X253111Y843534D03*
D23*
X258318Y843534D03*
D34*
X260985Y843534D03*
D13*
X262128Y843534D03*
X262636Y843534D03*
X263144Y843534D03*
D18*
X263779Y843534D03*
D13*
X264668Y843534D03*
D62*
X265557Y843534D03*
D18*
X268097Y843534D03*
D23*
X282956Y843534D03*
D21*
X285877Y843534D03*
D56*
X245364Y843788D03*
D62*
X247523Y843788D03*
D13*
X248412Y843788D03*
D63*
X249174Y843788D03*
D21*
X252349Y843788D03*
D62*
X254127Y843788D03*
D40*
X258064Y843788D03*
X262128Y843788D03*
D57*
X265557Y843788D03*
D63*
X267716Y843788D03*
D56*
X282956Y843788D03*
D22*
X285750Y843788D03*
D34*
X245491Y844042D03*
X247777Y844042D03*
D18*
X249301Y844042D03*
D23*
X252984Y844042D03*
D18*
X256667Y844042D03*
D62*
X257937Y844042D03*
D23*
X260350Y844042D03*
D40*
X265938Y844042D03*
D34*
X283083Y844042D03*
X286131Y844042D03*
D22*
X247904Y844296D03*
D18*
X249555Y844296D03*
D17*
X251968Y844296D03*
X253746Y844296D03*
D13*
X256286Y844296D03*
X257048Y844296D03*
D38*
X259842Y844296D03*
D13*
X263144Y844296D03*
X263652Y844296D03*
D22*
X264922Y844296D03*
D18*
X267081Y844296D03*
D63*
X286766Y844296D03*
D17*
X229870Y844550D03*
D34*
X247523Y844550D03*
D13*
X248666Y844550D03*
D57*
X250825Y844550D03*
D21*
X253873Y844550D03*
D27*
X258572Y844550D03*
D21*
X262763Y844550D03*
D22*
X264922Y844550D03*
D18*
X286893Y844550D03*
D56*
X229870Y844804D03*
D34*
X247523Y844804D03*
D18*
X248793Y844804D03*
D22*
X250444Y844804D03*
D18*
X251841Y844804D03*
D17*
X252984Y844804D03*
D34*
X254635Y844804D03*
D48*
X258445Y844804D03*
D18*
X261239Y844804D03*
D22*
X262636Y844804D03*
X264922Y844804D03*
D57*
X229997Y845058D03*
D63*
X247142Y845058D03*
D18*
X248285Y845058D03*
X249047Y845058D03*
D49*
X253365Y845058D03*
D34*
X255905Y845058D03*
D43*
X258953Y845058D03*
D63*
X261620Y845058D03*
D18*
X263271Y845058D03*
X264287Y845058D03*
X265811Y845058D03*
D62*
X226187Y845312D03*
D13*
X227838Y845312D03*
D23*
X229870Y845312D03*
D63*
X247142Y845312D03*
D18*
X248285Y845312D03*
X249047Y845312D03*
D47*
X253238Y845312D03*
D62*
X257937Y845312D03*
D63*
X259334Y845312D03*
D18*
X260477Y845312D03*
D63*
X262128Y845312D03*
D18*
X263017Y845312D03*
D63*
X264160Y845312D03*
D13*
X265684Y845312D03*
D56*
X226822Y845566D03*
D49*
X229997Y845566D03*
D18*
X247269Y845566D03*
D63*
X248158Y845566D03*
D18*
X249301Y845566D03*
D63*
X251968Y845566D03*
D62*
X253111Y845566D03*
D17*
X254508Y845566D03*
D18*
X256667Y845566D03*
D63*
X257810Y845566D03*
D18*
X259461Y845566D03*
D63*
X260604Y845566D03*
D17*
X262636Y845566D03*
D13*
X263906Y845566D03*
X264414Y845566D03*
D18*
X265557Y845566D03*
D63*
X281686Y845566D03*
D22*
X226822Y845820D03*
X229108Y845820D03*
D63*
X231140Y845820D03*
D22*
X247904Y845820D03*
D18*
X249555Y845820D03*
D21*
X252603Y845820D03*
D17*
X254762Y845820D03*
D18*
X256667Y845820D03*
X257937Y845820D03*
D13*
X258826Y845820D03*
X259588Y845820D03*
D63*
X260604Y845820D03*
D34*
X262509Y845820D03*
D18*
X263779Y845820D03*
D34*
X265049Y845820D03*
D62*
X281813Y845820D03*
D18*
X283845Y845820D03*
D34*
X226695Y846074D03*
X228981Y846074D03*
D63*
X231394Y846074D03*
D17*
X247650Y846074D03*
D13*
X248666Y846074D03*
D18*
X249809Y846074D03*
D63*
X251968Y846074D03*
D34*
X253619Y846074D03*
D63*
X255016Y846074D03*
D18*
X256921Y846074D03*
D63*
X257810Y846074D03*
D13*
X258572Y846074D03*
D18*
X259461Y846074D03*
D63*
X260604Y846074D03*
D18*
X262001Y846074D03*
D63*
X263398Y846074D03*
D22*
X264922Y846074D03*
D17*
X281686Y846074D03*
D62*
X283845Y846074D03*
X226695Y846328D03*
D17*
X228854Y846328D03*
D63*
X231394Y846328D03*
D56*
X248158Y846328D03*
D18*
X249809Y846328D03*
X252095Y846328D03*
D22*
X253492Y846328D03*
D62*
X255143Y846328D03*
D18*
X256921Y846328D03*
X257683Y846328D03*
D13*
X258572Y846328D03*
D17*
X259842Y846328D03*
D13*
X260858Y846328D03*
D18*
X262255Y846328D03*
D63*
X263144Y846328D03*
D18*
X264287Y846328D03*
D63*
X265430Y846328D03*
D17*
X281686Y846328D03*
X283718Y846328D03*
D13*
X286004Y846328D03*
D63*
X226568Y846582D03*
D17*
X228854Y846582D03*
D63*
X231394Y846582D03*
D34*
X247777Y846582D03*
D18*
X249047Y846582D03*
D63*
X249936Y846582D03*
D18*
X251841Y846582D03*
D62*
X253111Y846582D03*
D13*
X254000Y846582D03*
D17*
X255270Y846582D03*
D13*
X257048Y846582D03*
X257810Y846582D03*
D18*
X258445Y846582D03*
D17*
X259842Y846582D03*
D18*
X260985Y846582D03*
D22*
X262636Y846582D03*
D63*
X264160Y846582D03*
D18*
X265303Y846582D03*
D17*
X281686Y846582D03*
D34*
X283845Y846582D03*
D17*
X286004Y846582D03*
D62*
X226441Y846836D03*
D17*
X228854Y846836D03*
D63*
X231394Y846836D03*
X247396Y846836D03*
D18*
X248285Y846836D03*
X249301Y846836D03*
X250317Y846836D03*
X251841Y846836D03*
D63*
X252730Y846836D03*
D13*
X253492Y846836D03*
D17*
X254508Y846836D03*
D18*
X255905Y846836D03*
X257683Y846836D03*
X258699Y846836D03*
D63*
X259588Y846836D03*
D18*
X260731Y846836D03*
D57*
X262763Y846836D03*
D13*
X265430Y846836D03*
D62*
X281813Y846836D03*
D17*
X283718Y846836D03*
X286004Y846836D03*
D62*
X226441Y847090D03*
X228727Y847090D03*
D63*
X231394Y847090D03*
D18*
X247269Y847090D03*
D63*
X248412Y847090D03*
D18*
X249555Y847090D03*
X250571Y847090D03*
D17*
X252476Y847090D03*
D13*
X253492Y847090D03*
D17*
X254508Y847090D03*
D18*
X256159Y847090D03*
D13*
X257556Y847090D03*
D18*
X258699Y847090D03*
D63*
X259588Y847090D03*
D62*
X261239Y847090D03*
D22*
X262890Y847090D03*
D13*
X264414Y847090D03*
X265430Y847090D03*
D62*
X283845Y847090D03*
D17*
X286004Y847090D03*
D63*
X226314Y847344D03*
D17*
X228854Y847344D03*
D63*
X231140Y847344D03*
D18*
X247269Y847344D03*
D62*
X248539Y847344D03*
D13*
X249682Y847344D03*
D18*
X250825Y847344D03*
D21*
X252603Y847344D03*
D18*
X254127Y847344D03*
X254889Y847344D03*
X256159Y847344D03*
X257429Y847344D03*
X258699Y847344D03*
D63*
X259588Y847344D03*
D62*
X260985Y847344D03*
D18*
X262255Y847344D03*
D13*
X263652Y847344D03*
X264414Y847344D03*
D18*
X265303Y847344D03*
D13*
X283972Y847344D03*
D34*
X285877Y847344D03*
D63*
X226314Y847598D03*
D17*
X228600Y847598D03*
D62*
X231267Y847598D03*
D18*
X247269Y847598D03*
X248285Y847598D03*
X249047Y847598D03*
X249809Y847598D03*
D63*
X250952Y847598D03*
D17*
X252476Y847598D03*
D13*
X253492Y847598D03*
X254000Y847598D03*
D63*
X255016Y847598D03*
D18*
X256159Y847598D03*
X257429Y847598D03*
X258699Y847598D03*
D63*
X259588Y847598D03*
D62*
X260731Y847598D03*
D18*
X262001Y847598D03*
D13*
X263652Y847598D03*
X264414Y847598D03*
D63*
X265430Y847598D03*
D17*
X286004Y847598D03*
D63*
X226314Y847852D03*
D34*
X228727Y847852D03*
D17*
X231140Y847852D03*
D18*
X247269Y847852D03*
X248285Y847852D03*
X249047Y847852D03*
X250063Y847852D03*
D63*
X251206Y847852D03*
D18*
X252095Y847852D03*
D62*
X253111Y847852D03*
D13*
X254000Y847852D03*
D63*
X255016Y847852D03*
D18*
X256159Y847852D03*
D13*
X257556Y847852D03*
D34*
X258953Y847852D03*
D62*
X260731Y847852D03*
D18*
X262001Y847852D03*
D17*
X263906Y847852D03*
D13*
X265430Y847852D03*
D62*
X226441Y848106D03*
D17*
X228600Y848106D03*
D22*
X230886Y848106D03*
D18*
X247269Y848106D03*
X248285Y848106D03*
X249301Y848106D03*
X250317Y848106D03*
D62*
X251587Y848106D03*
X253111Y848106D03*
D13*
X254000Y848106D03*
D18*
X254889Y848106D03*
D63*
X256286Y848106D03*
D18*
X257683Y848106D03*
D13*
X258318Y848106D03*
D63*
X259334Y848106D03*
D13*
X260350Y848106D03*
D18*
X260985Y848106D03*
D57*
X263271Y848106D03*
D13*
X265430Y848106D03*
D62*
X226695Y848360D03*
D22*
X228346Y848360D03*
D21*
X231013Y848360D03*
D18*
X247269Y848360D03*
D63*
X248412Y848360D03*
D18*
X249555Y848360D03*
X250317Y848360D03*
X251841Y848360D03*
D62*
X253111Y848360D03*
D13*
X254000Y848360D03*
D18*
X254889Y848360D03*
D63*
X256540Y848360D03*
D18*
X257429Y848360D03*
X258191Y848360D03*
D63*
X259334Y848360D03*
D13*
X260096Y848360D03*
D18*
X260985Y848360D03*
D34*
X262509Y848360D03*
D63*
X263906Y848360D03*
D18*
X265557Y848360D03*
D13*
X280924Y848360D03*
D49*
X227711Y848614D03*
D18*
X231775Y848614D03*
X247269Y848614D03*
D63*
X248412Y848614D03*
D18*
X249555Y848614D03*
X250571Y848614D03*
D13*
X251968Y848614D03*
D18*
X252603Y848614D03*
X253365Y848614D03*
D13*
X254000Y848614D03*
D18*
X255143Y848614D03*
X256159Y848614D03*
D63*
X257048Y848614D03*
D13*
X258064Y848614D03*
D62*
X259715Y848614D03*
D63*
X260858Y848614D03*
D18*
X262001Y848614D03*
D63*
X263906Y848614D03*
D18*
X265303Y848614D03*
D63*
X280924Y848614D03*
D57*
X227711Y848868D03*
D21*
X248031Y848868D03*
D18*
X249809Y848868D03*
X250825Y848868D03*
D63*
X251968Y848868D03*
D13*
X252730Y848868D03*
X253492Y848868D03*
D17*
X254508Y848868D03*
D63*
X256032Y848868D03*
D18*
X257937Y848868D03*
D63*
X259588Y848868D03*
D18*
X260731Y848868D03*
D17*
X262128Y848868D03*
D18*
X263525Y848868D03*
X264287Y848868D03*
D13*
X265430Y848868D03*
D62*
X281305Y848868D03*
D21*
X227711Y849122D03*
D13*
X231648Y849122D03*
D21*
X248031Y849122D03*
D18*
X249809Y849122D03*
X250825Y849122D03*
D62*
X251841Y849122D03*
D13*
X252984Y849122D03*
D62*
X254381Y849122D03*
D63*
X256540Y849122D03*
D18*
X257683Y849122D03*
X259461Y849122D03*
D13*
X260350Y849122D03*
X260858Y849122D03*
X261620Y849122D03*
D18*
X262509Y849122D03*
D62*
X263779Y849122D03*
D63*
X265430Y849122D03*
D17*
X281432Y849122D03*
X227838Y849376D03*
D18*
X231775Y849376D03*
X247269Y849376D03*
D13*
X248412Y849376D03*
D18*
X249047Y849376D03*
X250063Y849376D03*
D63*
X251206Y849376D03*
D62*
X252603Y849376D03*
D18*
X253873Y849376D03*
D62*
X257175Y849376D03*
D13*
X259588Y849376D03*
X260350Y849376D03*
D62*
X261239Y849376D03*
D63*
X262636Y849376D03*
X263906Y849376D03*
D13*
X265430Y849376D03*
D22*
X281686Y849376D03*
D63*
X231648Y849630D03*
D18*
X247269Y849630D03*
D13*
X248412Y849630D03*
D18*
X249047Y849630D03*
D63*
X250190Y849630D03*
D18*
X251333Y849630D03*
D13*
X251968Y849630D03*
D22*
X253238Y849630D03*
D63*
X257048Y849630D03*
X259842Y849630D03*
X261112Y849630D03*
X262636Y849630D03*
D18*
X264287Y849630D03*
D13*
X265430Y849630D03*
D21*
X281559Y849630D03*
D34*
X284353Y849630D03*
X231521Y849884D03*
D18*
X247269Y849884D03*
X248285Y849884D03*
X249301Y849884D03*
X250317Y849884D03*
X251333Y849884D03*
D63*
X252984Y849884D03*
D13*
X254000Y849884D03*
D63*
X255524Y849884D03*
D18*
X256667Y849884D03*
D63*
X259588Y849884D03*
D18*
X260985Y849884D03*
D63*
X262382Y849884D03*
D18*
X264033Y849884D03*
X265557Y849884D03*
D34*
X281305Y849884D03*
D56*
X284480Y849884D03*
D22*
X231394Y850138D03*
D18*
X247269Y850138D03*
D13*
X248412Y850138D03*
D63*
X249428Y850138D03*
D18*
X250571Y850138D03*
X251587Y850138D03*
D34*
X253365Y850138D03*
D56*
X255524Y850138D03*
D62*
X259461Y850138D03*
D13*
X261112Y850138D03*
D17*
X262382Y850138D03*
D63*
X263906Y850138D03*
D18*
X265303Y850138D03*
D62*
X280797Y850138D03*
D57*
X284353Y850138D03*
D13*
X227076Y850392D03*
D57*
X231267Y850392D03*
D18*
X247269Y850392D03*
X248539Y850392D03*
X249555Y850392D03*
X250825Y850392D03*
X251841Y850392D03*
D21*
X253619Y850392D03*
D18*
X256159Y850392D03*
D62*
X259461Y850392D03*
X261493Y850392D03*
D18*
X263017Y850392D03*
D63*
X263906Y850392D03*
D13*
X265430Y850392D03*
D62*
X280797Y850392D03*
D49*
X284353Y850392D03*
D17*
X227330Y850646D03*
D49*
X231013Y850646D03*
D18*
X247269Y850646D03*
X248539Y850646D03*
X249809Y850646D03*
X250825Y850646D03*
D57*
X252857Y850646D03*
D63*
X256032Y850646D03*
X259334Y850646D03*
X261620Y850646D03*
X262890Y850646D03*
D13*
X264160Y850646D03*
D18*
X265557Y850646D03*
D63*
X280670Y850646D03*
D47*
X284480Y850646D03*
D50*
X229108Y850900D03*
D13*
X231648Y850900D03*
D18*
X232283Y850900D03*
X247269Y850900D03*
D63*
X248666Y850900D03*
X249936Y850900D03*
D18*
X251079Y850900D03*
X252095Y850900D03*
D62*
X253619Y850900D03*
X255651Y850900D03*
D18*
X256667Y850900D03*
X258953Y850900D03*
D13*
X259588Y850900D03*
X260604Y850900D03*
D18*
X261493Y850900D03*
D63*
X262890Y850900D03*
D21*
X264795Y850900D03*
D63*
X280416Y850900D03*
D34*
X283337Y850900D03*
D62*
X285623Y850900D03*
D47*
X228854Y851154D03*
D56*
X248158Y851154D03*
D18*
X250063Y851154D03*
D63*
X251206Y851154D03*
D13*
X252222Y851154D03*
D63*
X253746Y851154D03*
X255270Y851154D03*
D18*
X256667Y851154D03*
X258699Y851154D03*
D13*
X259588Y851154D03*
X260604Y851154D03*
X261366Y851154D03*
D63*
X262890Y851154D03*
D21*
X264795Y851154D03*
D63*
X280416Y851154D03*
D34*
X283337Y851154D03*
D63*
X285750Y851154D03*
D47*
X228854Y851408D03*
D56*
X248158Y851408D03*
D18*
X250317Y851408D03*
X251333Y851408D03*
X252349Y851408D03*
D13*
X252984Y851408D03*
D62*
X253873Y851408D03*
D18*
X254889Y851408D03*
D13*
X256794Y851408D03*
D18*
X258699Y851408D03*
X259461Y851408D03*
X260223Y851408D03*
D13*
X261366Y851408D03*
D43*
X264033Y851408D03*
D18*
X280543Y851408D03*
D34*
X283083Y851408D03*
D63*
X285750Y851408D03*
D22*
X228346Y851662D03*
D62*
X229997Y851662D03*
D22*
X247904Y851662D03*
D18*
X249301Y851662D03*
D63*
X250444Y851662D03*
D18*
X251587Y851662D03*
D13*
X252476Y851662D03*
D34*
X254381Y851662D03*
D13*
X256794Y851662D03*
X258572Y851662D03*
X259334Y851662D03*
D18*
X259969Y851662D03*
X261239Y851662D03*
X262509Y851662D03*
D23*
X264414Y851662D03*
D63*
X280670Y851662D03*
D17*
X282956Y851662D03*
D63*
X285750Y851662D03*
D17*
X228092Y851916D03*
D63*
X230124Y851916D03*
D18*
X247269Y851916D03*
X248539Y851916D03*
X249555Y851916D03*
X250571Y851916D03*
X251587Y851916D03*
D63*
X252730Y851916D03*
D17*
X254000Y851916D03*
D18*
X256921Y851916D03*
X258445Y851916D03*
D13*
X259334Y851916D03*
D63*
X260350Y851916D03*
D13*
X261366Y851916D03*
D18*
X262255Y851916D03*
D63*
X263144Y851916D03*
D21*
X265049Y851916D03*
D63*
X280670Y851916D03*
D34*
X282829Y851916D03*
D63*
X285750Y851916D03*
D18*
X227965Y852170D03*
X230251Y852170D03*
X247269Y852170D03*
X248539Y852170D03*
X249555Y852170D03*
X250825Y852170D03*
X251841Y852170D03*
D21*
X253619Y852170D03*
D63*
X256794Y852170D03*
D18*
X258445Y852170D03*
D62*
X259715Y852170D03*
D13*
X260604Y852170D03*
D18*
X262001Y852170D03*
X263017Y852170D03*
D63*
X264922Y852170D03*
D18*
X265811Y852170D03*
D49*
X281813Y852170D03*
D18*
X285623Y852170D03*
X227965Y852424D03*
D63*
X230378Y852424D03*
X247142Y852424D03*
D18*
X248793Y852424D03*
X249809Y852424D03*
X250825Y852424D03*
X251841Y852424D03*
D17*
X253238Y852424D03*
D13*
X254254Y852424D03*
D62*
X256667Y852424D03*
D18*
X258191Y852424D03*
D63*
X259842Y852424D03*
D18*
X260985Y852424D03*
D63*
X261874Y852424D03*
D18*
X263017Y852424D03*
X264795Y852424D03*
X265811Y852424D03*
D23*
X281940Y852424D03*
D62*
X285369Y852424D03*
X228219Y852678D03*
D57*
X231013Y852678D03*
D18*
X247269Y852678D03*
X248793Y852678D03*
D63*
X249936Y852678D03*
D18*
X251079Y852678D03*
X252095Y852678D03*
D62*
X253365Y852678D03*
D13*
X257048Y852678D03*
X258064Y852678D03*
D18*
X259715Y852678D03*
X260731Y852678D03*
X261747Y852678D03*
X262763Y852678D03*
D13*
X264668Y852678D03*
D18*
X265557Y852678D03*
X280035Y852678D03*
D56*
X281940Y852678D03*
D62*
X285369Y852678D03*
D32*
X230251Y852932D03*
D18*
X247269Y852932D03*
D13*
X247904Y852932D03*
D62*
X248793Y852932D03*
D63*
X250190Y852932D03*
X251206Y852932D03*
D18*
X252095Y852932D03*
D17*
X253492Y852932D03*
D13*
X257048Y852932D03*
D18*
X257937Y852932D03*
D13*
X258826Y852932D03*
D63*
X259842Y852932D03*
D18*
X260731Y852932D03*
X261493Y852932D03*
X262763Y852932D03*
X264795Y852932D03*
X265557Y852932D03*
X280035Y852932D03*
D22*
X281940Y852932D03*
D17*
X284988Y852932D03*
D44*
X230378Y853186D03*
D56*
X248158Y853186D03*
D18*
X250317Y853186D03*
X251333Y853186D03*
X252349Y853186D03*
D34*
X253619Y853186D03*
D13*
X257048Y853186D03*
D18*
X257937Y853186D03*
X259461Y853186D03*
D63*
X260350Y853186D03*
D18*
X261493Y853186D03*
X262763Y853186D03*
D17*
X265176Y853186D03*
D63*
X280162Y853186D03*
D22*
X284734Y853186D03*
D35*
X230505Y853440D03*
D56*
X248412Y853440D03*
D63*
X250444Y853440D03*
D18*
X251587Y853440D03*
X252349Y853440D03*
D34*
X253873Y853440D03*
D13*
X256032Y853440D03*
D18*
X256921Y853440D03*
D63*
X258064Y853440D03*
D18*
X259207Y853440D03*
X260223Y853440D03*
X261239Y853440D03*
D62*
X262763Y853440D03*
D17*
X265176Y853440D03*
D63*
X280162Y853440D03*
D22*
X284734Y853440D03*
D18*
X227965Y853694D03*
D23*
X230378Y853694D03*
D13*
X232156Y853694D03*
D63*
X232918Y853694D03*
D22*
X248158Y853694D03*
D18*
X249555Y853694D03*
D63*
X250698Y853694D03*
D18*
X251587Y853694D03*
X252603Y853694D03*
D34*
X253873Y853694D03*
D18*
X255905Y853694D03*
X256921Y853694D03*
D62*
X258191Y853694D03*
D18*
X259207Y853694D03*
X259969Y853694D03*
X260985Y853694D03*
X262255Y853694D03*
D62*
X263271Y853694D03*
D34*
X264795Y853694D03*
D17*
X280416Y853694D03*
D63*
X285242Y853694D03*
D18*
X227965Y853948D03*
D13*
X247396Y853948D03*
D18*
X248793Y853948D03*
X249809Y853948D03*
X250825Y853948D03*
X251841Y853948D03*
X252603Y853948D03*
D22*
X254000Y853948D03*
D13*
X257048Y853948D03*
D18*
X257683Y853948D03*
D63*
X258826Y853948D03*
D18*
X259969Y853948D03*
X260985Y853948D03*
X262001Y853948D03*
D56*
X263906Y853948D03*
D13*
X265430Y853948D03*
D22*
X280924Y853948D03*
D18*
X285369Y853948D03*
X227711Y854202D03*
X247269Y854202D03*
X248793Y854202D03*
D63*
X249936Y854202D03*
X250952Y854202D03*
D18*
X251841Y854202D03*
D13*
X252730Y854202D03*
D34*
X254127Y854202D03*
D18*
X256159Y854202D03*
D63*
X257302Y854202D03*
D18*
X258953Y854202D03*
X259715Y854202D03*
X260731Y854202D03*
X262001Y854202D03*
X263017Y854202D03*
D13*
X264668Y854202D03*
D18*
X265557Y854202D03*
D21*
X281051Y854202D03*
D18*
X227711Y854456D03*
X233045Y854456D03*
D13*
X247396Y854456D03*
D18*
X248793Y854456D03*
X250063Y854456D03*
X251079Y854456D03*
X252095Y854456D03*
X252857Y854456D03*
D56*
X254508Y854456D03*
D62*
X257175Y854456D03*
D13*
X258826Y854456D03*
D18*
X259715Y854456D03*
X260731Y854456D03*
X261747Y854456D03*
X263271Y854456D03*
D17*
X264922Y854456D03*
D56*
X281432Y854456D03*
D18*
X233045Y854710D03*
X247269Y854710D03*
X248793Y854710D03*
X250317Y854710D03*
X251333Y854710D03*
D13*
X252222Y854710D03*
D18*
X252857Y854710D03*
D57*
X254889Y854710D03*
D63*
X257048Y854710D03*
D18*
X258699Y854710D03*
X259461Y854710D03*
X260477Y854710D03*
X261493Y854710D03*
D23*
X264414Y854710D03*
D56*
X281940Y854710D03*
D62*
X232791Y854964D03*
D13*
X247396Y854964D03*
D18*
X248793Y854964D03*
D63*
X250444Y854964D03*
D18*
X251587Y854964D03*
X252349Y854964D03*
X253111Y854964D03*
D20*
X255651Y854964D03*
D18*
X258699Y854964D03*
X259461Y854964D03*
X260477Y854964D03*
D63*
X261366Y854964D03*
D17*
X263144Y854964D03*
D18*
X265303Y854964D03*
D56*
X282194Y854964D03*
D17*
X232664Y855218D03*
D18*
X247269Y855218D03*
D63*
X248920Y855218D03*
X250698Y855218D03*
D18*
X251587Y855218D03*
D13*
X252476Y855218D03*
D18*
X253111Y855218D03*
D21*
X254635Y855218D03*
D18*
X256413Y855218D03*
D62*
X257683Y855218D03*
D13*
X258572Y855218D03*
X259334Y855218D03*
D18*
X260223Y855218D03*
X261239Y855218D03*
D17*
X262890Y855218D03*
D63*
X265176Y855218D03*
D56*
X282448Y855218D03*
D22*
X232410Y855472D03*
D13*
X247396Y855472D03*
D18*
X249047Y855472D03*
X250825Y855472D03*
X251841Y855472D03*
X252603Y855472D03*
D13*
X253238Y855472D03*
D34*
X254635Y855472D03*
D62*
X256159Y855472D03*
D18*
X257175Y855472D03*
D62*
X258191Y855472D03*
D18*
X259207Y855472D03*
D63*
X260096Y855472D03*
D18*
X260985Y855472D03*
X262255Y855472D03*
X263525Y855472D03*
D13*
X264160Y855472D03*
D63*
X265430Y855472D03*
D56*
X282702Y855472D03*
D18*
X284861Y855472D03*
D57*
X232283Y855726D03*
D13*
X247396Y855726D03*
D63*
X248920Y855726D03*
D18*
X251079Y855726D03*
X251841Y855726D03*
D13*
X252730Y855726D03*
D18*
X253365Y855726D03*
D56*
X255016Y855726D03*
D13*
X257048Y855726D03*
X258318Y855726D03*
D18*
X259207Y855726D03*
X259969Y855726D03*
X260985Y855726D03*
D63*
X262128Y855726D03*
X263398Y855726D03*
D18*
X264287Y855726D03*
X265303Y855726D03*
D56*
X282702Y855726D03*
D63*
X284734Y855726D03*
D17*
X228600Y855980D03*
D47*
X231902Y855980D03*
D18*
X247269Y855980D03*
D62*
X249301Y855980D03*
D18*
X251333Y855980D03*
X252095Y855980D03*
D34*
X253365Y855980D03*
D63*
X255270Y855980D03*
D18*
X256921Y855980D03*
D13*
X257556Y855980D03*
D18*
X258191Y855980D03*
X258953Y855980D03*
D13*
X259842Y855980D03*
D18*
X260731Y855980D03*
X261747Y855980D03*
D17*
X263144Y855980D03*
D13*
X264160Y855980D03*
D63*
X265430Y855980D03*
D47*
X283210Y855980D03*
D34*
X228727Y856234D03*
D63*
X230632Y856234D03*
D21*
X232791Y856234D03*
D13*
X247396Y856234D03*
D34*
X249555Y856234D03*
D18*
X251333Y856234D03*
D13*
X252222Y856234D03*
D18*
X252857Y856234D03*
D62*
X253873Y856234D03*
D18*
X255397Y856234D03*
X256921Y856234D03*
X258191Y856234D03*
X258953Y856234D03*
X259715Y856234D03*
X260477Y856234D03*
X261493Y856234D03*
X262763Y856234D03*
D62*
X263779Y856234D03*
D18*
X265303Y856234D03*
X279019Y856234D03*
X281813Y856234D03*
D22*
X283718Y856234D03*
D62*
X228981Y856488D03*
D17*
X233426Y856488D03*
D13*
X247396Y856488D03*
D22*
X249682Y856488D03*
D18*
X251587Y856488D03*
X252349Y856488D03*
X253111Y856488D03*
D63*
X254000Y856488D03*
D18*
X255397Y856488D03*
X256921Y856488D03*
D13*
X258064Y856488D03*
D18*
X258953Y856488D03*
D13*
X259588Y856488D03*
D18*
X260477Y856488D03*
D63*
X261366Y856488D03*
X262382Y856488D03*
X263906Y856488D03*
D18*
X265303Y856488D03*
D17*
X279400Y856488D03*
D63*
X281686Y856488D03*
D34*
X283845Y856488D03*
D62*
X228981Y856742D03*
X233553Y856742D03*
D13*
X247396Y856742D03*
D18*
X249047Y856742D03*
D62*
X250571Y856742D03*
D18*
X251841Y856742D03*
D62*
X252857Y856742D03*
D21*
X254635Y856742D03*
D34*
X257429Y856742D03*
D18*
X258699Y856742D03*
X259461Y856742D03*
X260223Y856742D03*
X260985Y856742D03*
D63*
X262128Y856742D03*
D62*
X263779Y856742D03*
D18*
X265303Y856742D03*
D34*
X279527Y856742D03*
D18*
X281559Y856742D03*
D62*
X284099Y856742D03*
X229235Y856996D03*
X233553Y856996D03*
D18*
X247523Y856996D03*
D63*
X249174Y856996D03*
D62*
X250825Y856996D03*
D13*
X251968Y856996D03*
D18*
X252603Y856996D03*
D22*
X254000Y856996D03*
D63*
X255524Y856996D03*
D18*
X256667Y856996D03*
D63*
X257810Y856996D03*
D18*
X258699Y856996D03*
D13*
X259334Y856996D03*
D18*
X259969Y856996D03*
X260985Y856996D03*
X261747Y856996D03*
D34*
X263525Y856996D03*
D13*
X264668Y856996D03*
X265430Y856996D03*
D47*
X280416Y856996D03*
D63*
X283972Y856996D03*
D62*
X229235Y857250D03*
D17*
X233680Y857250D03*
D18*
X247269Y857250D03*
D62*
X249301Y857250D03*
D63*
X251206Y857250D03*
D18*
X252095Y857250D03*
D21*
X253619Y857250D03*
D18*
X255651Y857250D03*
D13*
X256540Y857250D03*
D18*
X257937Y857250D03*
D13*
X258572Y857250D03*
D18*
X259207Y857250D03*
X259969Y857250D03*
D13*
X260604Y857250D03*
D18*
X261493Y857250D03*
D21*
X263271Y857250D03*
D13*
X264668Y857250D03*
D18*
X265557Y857250D03*
D50*
X280670Y857250D03*
D62*
X284099Y857250D03*
X229235Y857504D03*
X233807Y857504D03*
D18*
X247523Y857504D03*
D34*
X249555Y857504D03*
D63*
X251460Y857504D03*
D57*
X253365Y857504D03*
D13*
X255016Y857504D03*
D18*
X255651Y857504D03*
D13*
X256540Y857504D03*
D18*
X257175Y857504D03*
D13*
X257810Y857504D03*
D18*
X258445Y857504D03*
D62*
X259461Y857504D03*
D18*
X260477Y857504D03*
X261239Y857504D03*
D63*
X262382Y857504D03*
D34*
X264287Y857504D03*
D13*
X265430Y857504D03*
D27*
X281432Y857504D03*
D63*
X229362Y857758D03*
D17*
X233680Y857758D03*
D63*
X247396Y857758D03*
D21*
X249809Y857758D03*
D63*
X251714Y857758D03*
D13*
X252476Y857758D03*
D21*
X253873Y857758D03*
D18*
X255905Y857758D03*
D13*
X256540Y857758D03*
X257810Y857758D03*
D18*
X258445Y857758D03*
D63*
X259334Y857758D03*
D18*
X260223Y857758D03*
X260985Y857758D03*
D63*
X262128Y857758D03*
D22*
X264160Y857758D03*
D18*
X265557Y857758D03*
D13*
X280670Y857758D03*
D47*
X282702Y857758D03*
D17*
X229362Y858012D03*
X233680Y858012D03*
D18*
X247523Y858012D03*
D62*
X249047Y858012D03*
X250571Y858012D03*
D49*
X253365Y858012D03*
D18*
X255651Y858012D03*
D13*
X256540Y858012D03*
D18*
X257683Y858012D03*
D34*
X258953Y858012D03*
D13*
X260096Y858012D03*
D18*
X260731Y858012D03*
X261747Y858012D03*
D17*
X263906Y858012D03*
D13*
X264922Y858012D03*
D18*
X265557Y858012D03*
D56*
X283210Y858012D03*
D62*
X229489Y858266D03*
D17*
X233680Y858266D03*
D57*
X248285Y858266D03*
D62*
X251079Y858266D03*
D26*
X255651Y858266D03*
D62*
X260223Y858266D03*
D63*
X261366Y858266D03*
D17*
X263906Y858266D03*
D18*
X265557Y858266D03*
X278511Y858266D03*
D34*
X283591Y858266D03*
X229489Y858520D03*
D17*
X233426Y858520D03*
D23*
X248412Y858520D03*
D63*
X251460Y858520D03*
D57*
X253619Y858520D03*
D62*
X256159Y858520D03*
D63*
X257302Y858520D03*
D57*
X259207Y858520D03*
D18*
X260985Y858520D03*
D34*
X263779Y858520D03*
D13*
X264922Y858520D03*
D18*
X265557Y858520D03*
D62*
X278765Y858520D03*
D17*
X283718Y858520D03*
D34*
X229743Y858774D03*
X233299Y858774D03*
D47*
X248666Y858774D03*
D13*
X250698Y858774D03*
D63*
X251714Y858774D03*
D57*
X253619Y858774D03*
D17*
X256032Y858774D03*
D18*
X257429Y858774D03*
D56*
X259080Y858774D03*
D18*
X260731Y858774D03*
X261747Y858774D03*
X263017Y858774D03*
D34*
X264287Y858774D03*
D18*
X265557Y858774D03*
D34*
X278765Y858774D03*
D62*
X283591Y858774D03*
D56*
X229870Y859028D03*
D13*
X231394Y859028D03*
D21*
X232791Y859028D03*
D18*
X247269Y859028D03*
D47*
X250698Y859028D03*
D56*
X253746Y859028D03*
D18*
X255651Y859028D03*
D63*
X256540Y859028D03*
D18*
X257429Y859028D03*
D32*
X260477Y859028D03*
D13*
X263652Y859028D03*
D18*
X264287Y859028D03*
D63*
X265684Y859028D03*
D56*
X278892Y859028D03*
D18*
X283591Y859028D03*
D38*
X231394Y859282D03*
D18*
X247269Y859282D03*
D34*
X249809Y859282D03*
D62*
X251333Y859282D03*
D43*
X253873Y859282D03*
D63*
X257048Y859282D03*
D64*
X260731Y859282D03*
D18*
X264287Y859282D03*
D63*
X265684Y859282D03*
D23*
X279146Y859282D03*
D48*
X231267Y859536D03*
D13*
X234950Y859536D03*
D18*
X247269Y859536D03*
X250063Y859536D03*
D63*
X250952Y859536D03*
D40*
X253492Y859536D03*
D18*
X257175Y859536D03*
D57*
X258953Y859536D03*
D13*
X260604Y859536D03*
D21*
X262509Y859536D03*
D62*
X264541Y859536D03*
D13*
X265684Y859536D03*
D47*
X279400Y859536D03*
D17*
X229616Y859790D03*
D56*
X231902Y859790D03*
D18*
X234823Y859790D03*
X247269Y859790D03*
D35*
X252603Y859790D03*
D18*
X257175Y859790D03*
D50*
X259842Y859790D03*
D62*
X262763Y859790D03*
X264795Y859790D03*
D13*
X265684Y859790D03*
D23*
X280162Y859790D03*
D62*
X229743Y860044D03*
D63*
X231902Y860044D03*
X234696Y860044D03*
X247396Y860044D03*
D35*
X252603Y860044D03*
D32*
X259461Y860044D03*
D49*
X263779Y860044D03*
D18*
X265811Y860044D03*
D40*
X280416Y860044D03*
D17*
X229870Y860298D03*
X234696Y860298D03*
D49*
X248539Y860298D03*
D62*
X251079Y860298D03*
D47*
X253746Y860298D03*
D43*
X258699Y860298D03*
D18*
X261493Y860298D03*
D47*
X263652Y860298D03*
D18*
X265811Y860298D03*
D62*
X279019Y860298D03*
D40*
X281940Y860298D03*
D63*
X229870Y860552D03*
D22*
X234442Y860552D03*
D13*
X247396Y860552D03*
D21*
X249047Y860552D03*
D57*
X251841Y860552D03*
D21*
X254381Y860552D03*
D40*
X258826Y860552D03*
D63*
X261366Y860552D03*
D18*
X262255Y860552D03*
D22*
X263906Y860552D03*
D63*
X265430Y860552D03*
D62*
X278765Y860552D03*
D57*
X282321Y860552D03*
D63*
X230124Y860806D03*
D56*
X234442Y860806D03*
D18*
X247523Y860806D03*
X249809Y860806D03*
D21*
X252095Y860806D03*
X254381Y860806D03*
D23*
X258318Y860806D03*
D18*
X260477Y860806D03*
D17*
X261620Y860806D03*
D21*
X263779Y860806D03*
D13*
X265430Y860806D03*
D63*
X278638Y860806D03*
D56*
X282448Y860806D03*
D13*
X230124Y861060D03*
D49*
X234315Y861060D03*
D23*
X248666Y861060D03*
D56*
X252222Y861060D03*
D62*
X254127Y861060D03*
D18*
X255397Y861060D03*
D40*
X258572Y861060D03*
D17*
X261366Y861060D03*
D21*
X263779Y861060D03*
D18*
X265557Y861060D03*
D62*
X278511Y861060D03*
D17*
X282702Y861060D03*
D23*
X233680Y861314D03*
D13*
X235458Y861314D03*
D47*
X248666Y861314D03*
D22*
X252476Y861314D03*
D63*
X254254Y861314D03*
D18*
X255397Y861314D03*
X256921Y861314D03*
D40*
X259842Y861314D03*
D62*
X263017Y861314D03*
X264287Y861314D03*
D18*
X265811Y861314D03*
D63*
X278638Y861314D03*
D17*
X282702Y861314D03*
D56*
X232918Y861568D03*
D17*
X247650Y861568D03*
D22*
X249428Y861568D03*
D57*
X252857Y861568D03*
D22*
X255270Y861568D03*
D18*
X256667Y861568D03*
D34*
X258445Y861568D03*
X260731Y861568D03*
D18*
X263017Y861568D03*
D13*
X264668Y861568D03*
D18*
X265811Y861568D03*
D62*
X278511Y861568D03*
D63*
X282702Y861568D03*
D40*
X231648Y861822D03*
D18*
X247269Y861822D03*
X250063Y861822D03*
D22*
X252984Y861822D03*
D13*
X254254Y861822D03*
D18*
X254889Y861822D03*
D17*
X256286Y861822D03*
D13*
X257810Y861822D03*
D63*
X258826Y861822D03*
D34*
X260477Y861822D03*
D18*
X263017Y861822D03*
D34*
X265303Y861822D03*
D63*
X278638Y861822D03*
X282702Y861822D03*
D47*
X231394Y862076D03*
D18*
X235331Y862076D03*
X247269Y862076D03*
D63*
X249936Y862076D03*
D22*
X252984Y862076D03*
D13*
X254254Y862076D03*
D47*
X256286Y862076D03*
D56*
X259588Y862076D03*
D18*
X263017Y862076D03*
D62*
X265049Y862076D03*
D17*
X278892Y862076D03*
D63*
X282702Y862076D03*
D56*
X231394Y862330D03*
D21*
X235077Y862330D03*
D18*
X247523Y862330D03*
X249809Y862330D03*
D34*
X253365Y862330D03*
D62*
X255143Y862330D03*
X257429Y862330D03*
D18*
X258445Y862330D03*
D34*
X259715Y862330D03*
D18*
X263271Y862330D03*
D63*
X265176Y862330D03*
D34*
X279019Y862330D03*
D18*
X282575Y862330D03*
D22*
X231140Y862584D03*
D57*
X235077Y862584D03*
D18*
X247777Y862584D03*
X249555Y862584D03*
X253111Y862584D03*
D13*
X254000Y862584D03*
D18*
X254635Y862584D03*
D17*
X258064Y862584D03*
X259588Y862584D03*
D62*
X263525Y862584D03*
X265049Y862584D03*
D18*
X276733Y862584D03*
D22*
X279400Y862584D03*
D63*
X282448Y862584D03*
D62*
X231013Y862838D03*
D49*
X235077Y862838D03*
D63*
X247904Y862838D03*
X249174Y862838D03*
D18*
X253111Y862838D03*
D63*
X254254Y862838D03*
X258318Y862838D03*
D62*
X259461Y862838D03*
D57*
X264541Y862838D03*
D18*
X276733Y862838D03*
D50*
X280670Y862838D03*
D18*
X230759Y863092D03*
D22*
X234442Y863092D03*
D62*
X236093Y863092D03*
D17*
X248666Y863092D03*
D18*
X253365Y863092D03*
X254127Y863092D03*
X258191Y863092D03*
D63*
X259080Y863092D03*
D17*
X264668Y863092D03*
D62*
X276987Y863092D03*
D40*
X280670Y863092D03*
D18*
X230759Y863346D03*
D17*
X234188Y863346D03*
D62*
X236347Y863346D03*
D13*
X248412Y863346D03*
D18*
X253365Y863346D03*
X254127Y863346D03*
D17*
X258572Y863346D03*
D18*
X265049Y863346D03*
X266065Y863346D03*
D34*
X276987Y863346D03*
D49*
X280797Y863346D03*
D13*
X230632Y863600D03*
D34*
X234061Y863600D03*
D63*
X236474Y863600D03*
D62*
X253619Y863600D03*
D17*
X258572Y863600D03*
D22*
X265430Y863600D03*
D21*
X277241Y863600D03*
D57*
X280797Y863600D03*
D34*
X234061Y863854D03*
D18*
X236601Y863854D03*
D62*
X253873Y863854D03*
X258445Y863854D03*
D17*
X265430Y863854D03*
D49*
X277241Y863854D03*
D22*
X280924Y863854D03*
D18*
X232791Y864108D03*
D17*
X234188Y864108D03*
D62*
X236601Y864108D03*
D63*
X253746Y864108D03*
D13*
X256032Y864108D03*
D62*
X258445Y864108D03*
X265557Y864108D03*
D43*
X277495Y864108D03*
D63*
X232410Y864362D03*
D34*
X234315Y864362D03*
D63*
X236728Y864362D03*
X254000Y864362D03*
D22*
X256032Y864362D03*
D63*
X258318Y864362D03*
X265684Y864362D03*
D57*
X278257Y864362D03*
D13*
X230886Y864616D03*
D17*
X231902Y864616D03*
X234188Y864616D03*
D62*
X236601Y864616D03*
D63*
X254000Y864616D03*
X255016Y864616D03*
D13*
X255778Y864616D03*
D62*
X256921Y864616D03*
D63*
X258318Y864616D03*
D34*
X265557Y864616D03*
D56*
X278892Y864616D03*
D22*
X231648Y864870D03*
D34*
X234315Y864870D03*
D17*
X236728Y864870D03*
D34*
X254381Y864870D03*
D22*
X257810Y864870D03*
D63*
X265176Y864870D03*
D18*
X266065Y864870D03*
D57*
X279527Y864870D03*
D18*
X281559Y864870D03*
D34*
X231775Y865124D03*
D17*
X234442Y865124D03*
D22*
X236982Y865124D03*
D17*
X254000Y865124D03*
D62*
X257937Y865124D03*
D22*
X265684Y865124D03*
D47*
X280162Y865124D03*
D17*
X231902Y865378D03*
X234442Y865378D03*
D21*
X236855Y865378D03*
D63*
X254000Y865378D03*
X258318Y865378D03*
D21*
X265557Y865378D03*
D34*
X276733Y865378D03*
D57*
X280289Y865378D03*
D63*
X231902Y865632D03*
D17*
X234442Y865632D03*
D62*
X236347Y865632D03*
D63*
X253746Y865632D03*
D18*
X258191Y865632D03*
D63*
X264922Y865632D03*
D62*
X266065Y865632D03*
D57*
X276733Y865632D03*
D21*
X280543Y865632D03*
D63*
X232156Y865886D03*
D17*
X234442Y865886D03*
D18*
X235839Y865886D03*
D13*
X237998Y865886D03*
D63*
X253746Y865886D03*
D18*
X258445Y865886D03*
D21*
X265557Y865886D03*
D43*
X276733Y865886D03*
D34*
X280543Y865886D03*
D63*
X232156Y866140D03*
D17*
X234442Y866140D03*
D63*
X237998Y866140D03*
D18*
X253619Y866140D03*
X258445Y866140D03*
D21*
X265557Y866140D03*
D20*
X276733Y866140D03*
D62*
X280543Y866140D03*
D63*
X232156Y866394D03*
D22*
X234442Y866394D03*
D63*
X237998Y866394D03*
D18*
X253619Y866394D03*
X255905Y866394D03*
X258445Y866394D03*
D34*
X265557Y866394D03*
D62*
X275209Y866394D03*
D49*
X277495Y866394D03*
D63*
X280670Y866394D03*
D18*
X232283Y866648D03*
D34*
X234315Y866648D03*
D17*
X237744Y866648D03*
D18*
X253619Y866648D03*
D34*
X255905Y866648D03*
D13*
X258572Y866648D03*
D63*
X265938Y866648D03*
X275082Y866648D03*
D57*
X278003Y866648D03*
D18*
X280797Y866648D03*
D23*
X233426Y866902D03*
D17*
X237490Y866902D03*
D18*
X253619Y866902D03*
D34*
X255905Y866902D03*
D13*
X258572Y866902D03*
D18*
X266065Y866902D03*
D63*
X274828Y866902D03*
D57*
X278257Y866902D03*
D13*
X280670Y866902D03*
D57*
X233553Y867156D03*
D17*
X237490Y867156D03*
D18*
X253365Y867156D03*
X258699Y867156D03*
X266065Y867156D03*
D63*
X274828Y867156D03*
D57*
X278257Y867156D03*
D21*
X233553Y867410D03*
D17*
X237236Y867410D03*
D18*
X253365Y867410D03*
X258699Y867410D03*
X266065Y867410D03*
D63*
X274828Y867410D03*
D23*
X278384Y867410D03*
D63*
X233426Y867664D03*
D17*
X236982Y867664D03*
D18*
X253365Y867664D03*
D34*
X255905Y867664D03*
D18*
X258699Y867664D03*
X266065Y867664D03*
D62*
X274701Y867664D03*
X277241Y867664D03*
D34*
X279019Y867664D03*
D62*
X236855Y867918D03*
D18*
X253365Y867918D03*
D63*
X255524Y867918D03*
D18*
X256413Y867918D03*
X258699Y867918D03*
X266065Y867918D03*
D34*
X274701Y867918D03*
D63*
X277114Y867918D03*
D17*
X279146Y867918D03*
X236728Y868172D03*
D13*
X239522Y868172D03*
D18*
X253365Y868172D03*
D13*
X258826Y868172D03*
D18*
X266319Y868172D03*
D56*
X274574Y868172D03*
D63*
X276860Y868172D03*
D17*
X279146Y868172D03*
X236728Y868426D03*
D18*
X239395Y868426D03*
X253365Y868426D03*
X258953Y868426D03*
X266319Y868426D03*
D57*
X274701Y868426D03*
D62*
X276733Y868426D03*
D17*
X279400Y868426D03*
D13*
X234950Y868680D03*
D18*
X235585Y868680D03*
D62*
X236601Y868680D03*
D63*
X239522Y868680D03*
D18*
X253365Y868680D03*
D63*
X258826Y868680D03*
X266192Y868680D03*
D23*
X275590Y868680D03*
D62*
X279273Y868680D03*
D57*
X235839Y868934D03*
D62*
X239395Y868934D03*
D63*
X253238Y868934D03*
D18*
X258953Y868934D03*
D63*
X266446Y868934D03*
X267716Y868934D03*
D18*
X273431Y868934D03*
D22*
X275844Y868934D03*
D62*
X279527Y868934D03*
D23*
X235712Y869188D03*
D62*
X239395Y869188D03*
D18*
X253111Y869188D03*
D63*
X258826Y869188D03*
X265176Y869188D03*
D21*
X266827Y869188D03*
D18*
X273431Y869188D03*
D22*
X276098Y869188D03*
D63*
X279400Y869188D03*
D23*
X235458Y869442D03*
D34*
X239395Y869442D03*
D63*
X253238Y869442D03*
D62*
X254635Y869442D03*
X257175Y869442D03*
D18*
X258953Y869442D03*
D34*
X265557Y869442D03*
D62*
X267335Y869442D03*
D63*
X273558Y869442D03*
D22*
X276606Y869442D03*
D62*
X279273Y869442D03*
D34*
X234823Y869696D03*
D18*
X236601Y869696D03*
D21*
X239141Y869696D03*
D63*
X253238Y869696D03*
D62*
X254635Y869696D03*
X257175Y869696D03*
D63*
X258826Y869696D03*
X265430Y869696D03*
D13*
X266446Y869696D03*
D62*
X273431Y869696D03*
D47*
X277876Y869696D03*
D17*
X234696Y869950D03*
D13*
X236728Y869950D03*
D57*
X239141Y869950D03*
D63*
X253238Y869950D03*
D13*
X254762Y869950D03*
D18*
X256159Y869950D03*
D13*
X257048Y869950D03*
D63*
X258826Y869950D03*
D18*
X265557Y869950D03*
D62*
X266573Y869950D03*
D18*
X267589Y869950D03*
D34*
X273431Y869950D03*
D23*
X277876Y869950D03*
D62*
X234569Y870204D03*
D22*
X238506Y870204D03*
D13*
X239776Y870204D03*
D63*
X253238Y870204D03*
D18*
X254127Y870204D03*
D13*
X255270Y870204D03*
X256286Y870204D03*
X257810Y870204D03*
D62*
X258953Y870204D03*
D43*
X267081Y870204D03*
D21*
X273431Y870204D03*
X278003Y870204D03*
D62*
X234569Y870458D03*
D22*
X237998Y870458D03*
D13*
X240792Y870458D03*
D63*
X253238Y870458D03*
D17*
X254762Y870458D03*
D22*
X257048Y870458D03*
D13*
X259080Y870458D03*
D34*
X265557Y870458D03*
D63*
X267208Y870458D03*
D62*
X268351Y870458D03*
D56*
X273558Y870458D03*
D34*
X278003Y870458D03*
D62*
X234569Y870712D03*
D22*
X237490Y870712D03*
D18*
X240665Y870712D03*
D63*
X253238Y870712D03*
D13*
X254762Y870712D03*
D63*
X257048Y870712D03*
D18*
X258445Y870712D03*
X259207Y870712D03*
D22*
X265430Y870712D03*
D18*
X267081Y870712D03*
X268097Y870712D03*
D34*
X274193Y870712D03*
D62*
X278003Y870712D03*
X234823Y870966D03*
D22*
X237236Y870966D03*
D18*
X240665Y870966D03*
D62*
X253365Y870966D03*
D13*
X258318Y870966D03*
X259080Y870966D03*
D47*
X266446Y870966D03*
D22*
X274574Y870966D03*
D62*
X278003Y870966D03*
D47*
X236220Y871220D03*
D62*
X240919Y871220D03*
X253365Y871220D03*
D18*
X258191Y871220D03*
D63*
X259080Y871220D03*
D18*
X265811Y871220D03*
D63*
X266954Y871220D03*
D18*
X267843Y871220D03*
D34*
X274955Y871220D03*
D18*
X278003Y871220D03*
D57*
X236093Y871474D03*
D17*
X240792Y871474D03*
X253492Y871474D03*
D63*
X258064Y871474D03*
D18*
X258953Y871474D03*
D17*
X266192Y871474D03*
D13*
X267208Y871474D03*
D18*
X268097Y871474D03*
D34*
X275463Y871474D03*
D13*
X278130Y871474D03*
D56*
X235966Y871728D03*
D22*
X240792Y871728D03*
D17*
X253746Y871728D03*
D18*
X257937Y871728D03*
X258953Y871728D03*
X265557Y871728D03*
X266319Y871728D03*
D17*
X267716Y871728D03*
D34*
X275717Y871728D03*
X236093Y871982D03*
D56*
X240792Y871982D03*
D34*
X253873Y871982D03*
D63*
X257556Y871982D03*
D18*
X258953Y871982D03*
D63*
X265684Y871982D03*
X266954Y871982D03*
D62*
X268097Y871982D03*
D13*
X272034Y871982D03*
D22*
X276098Y871982D03*
D17*
X235966Y872236D03*
D23*
X240792Y872236D03*
D21*
X254127Y872236D03*
D62*
X257175Y872236D03*
D63*
X258826Y872236D03*
D18*
X265557Y872236D03*
D63*
X266954Y872236D03*
D18*
X268351Y872236D03*
D22*
X271780Y872236D03*
D57*
X276733Y872236D03*
D63*
X235966Y872490D03*
D62*
X239649Y872490D03*
D63*
X241808Y872490D03*
D23*
X254508Y872490D03*
D17*
X256794Y872490D03*
D62*
X258699Y872490D03*
D13*
X266954Y872490D03*
D21*
X271907Y872490D03*
D56*
X276860Y872490D03*
D63*
X235966Y872744D03*
D62*
X239141Y872744D03*
D18*
X241935Y872744D03*
D40*
X255270Y872744D03*
D62*
X258699Y872744D03*
D18*
X267081Y872744D03*
D57*
X271907Y872744D03*
D34*
X276733Y872744D03*
D13*
X235966Y872998D03*
D17*
X239014Y872998D03*
D63*
X242062Y872998D03*
D47*
X255016Y872998D03*
D62*
X258445Y872998D03*
D13*
X266954Y872998D03*
D22*
X272542Y872998D03*
D62*
X276733Y872998D03*
D13*
X235966Y873252D03*
D21*
X238633Y873252D03*
D63*
X242062Y873252D03*
D49*
X254889Y873252D03*
D18*
X257937Y873252D03*
X258699Y873252D03*
D22*
X272796Y873252D03*
D63*
X276606Y873252D03*
D23*
X238252Y873506D03*
D62*
X241935Y873506D03*
D18*
X253873Y873506D03*
D62*
X254889Y873506D03*
D18*
X256159Y873506D03*
D63*
X257556Y873506D03*
D13*
X258572Y873506D03*
D22*
X273050Y873506D03*
D63*
X276606Y873506D03*
D21*
X237109Y873760D03*
D62*
X239395Y873760D03*
X241681Y873760D03*
D13*
X254000Y873760D03*
D49*
X256159Y873760D03*
D18*
X258445Y873760D03*
D34*
X273177Y873760D03*
D63*
X276606Y873760D03*
D34*
X237109Y874014D03*
D62*
X239395Y874014D03*
D17*
X241554Y874014D03*
D18*
X254381Y874014D03*
D21*
X256159Y874014D03*
D18*
X258191Y874014D03*
D17*
X270764Y874014D03*
D22*
X273558Y874014D03*
D63*
X276352Y874014D03*
D17*
X237236Y874268D03*
D62*
X239649Y874268D03*
D34*
X241427Y874268D03*
D63*
X254508Y874268D03*
D18*
X257937Y874268D03*
D56*
X270764Y874268D03*
D22*
X273812Y874268D03*
D62*
X276225Y874268D03*
D63*
X237236Y874522D03*
D23*
X240792Y874522D03*
D62*
X255143Y874522D03*
X257683Y874522D03*
D23*
X270764Y874522D03*
D43*
X274955Y874522D03*
D18*
X237363Y874776D03*
D56*
X240792Y874776D03*
D23*
X256286Y874776D03*
D43*
X270637Y874776D03*
D23*
X275082Y874776D03*
D18*
X237363Y875030D03*
D56*
X240792Y875030D03*
D22*
X256286Y875030D03*
D17*
X269494Y875030D03*
D22*
X271780Y875030D03*
D56*
X275082Y875030D03*
D63*
X237490Y875284D03*
D57*
X240411Y875284D03*
D62*
X269113Y875284D03*
D34*
X272161Y875284D03*
D62*
X274955Y875284D03*
D20*
X239395Y875538D03*
D18*
X244475Y875538D03*
D63*
X268986Y875538D03*
D17*
X272288Y875538D03*
D40*
X239268Y875792D03*
D17*
X244094Y875792D03*
D62*
X268859Y875792D03*
X272415Y875792D03*
D49*
X239141Y876046D03*
D22*
X243840Y876046D03*
D17*
X268732Y876046D03*
D62*
X272669Y876046D03*
D23*
X239268Y876300D03*
D56*
X243332Y876300D03*
D17*
X268478Y876300D03*
D62*
X272669Y876300D03*
D18*
X274193Y876300D03*
D34*
X239141Y876554D03*
D49*
X242951Y876554D03*
D21*
X268351Y876554D03*
D62*
X272669Y876554D03*
D63*
X274066Y876554D03*
D43*
X242443Y876808D03*
D21*
X268351Y876808D03*
D22*
X273304Y876808D03*
D23*
X241300Y877062D03*
D62*
X243713Y877062D03*
D34*
X268605Y877062D03*
D22*
X273304Y877062D03*
D47*
X240538Y877316D03*
D62*
X243713Y877316D03*
D18*
X267081Y877316D03*
D62*
X268859Y877316D03*
D21*
X273177Y877316D03*
D23*
X240284Y877570D03*
D62*
X243459Y877570D03*
D18*
X267081Y877570D03*
D62*
X269113Y877570D03*
D22*
X273050Y877570D03*
D21*
X240157Y877824D03*
D62*
X243459Y877824D03*
D18*
X246507Y877824D03*
D62*
X267081Y877824D03*
D18*
X269367Y877824D03*
D22*
X273050Y877824D03*
D17*
X240030Y878078D03*
D62*
X243205Y878078D03*
D63*
X246634Y878078D03*
D34*
X266827Y878078D03*
D18*
X269621Y878078D03*
D22*
X272796Y878078D03*
D63*
X240030Y878332D03*
D62*
X243205Y878332D03*
X246761Y878332D03*
D22*
X266954Y878332D03*
D13*
X269748Y878332D03*
D22*
X272542Y878332D03*
D18*
X239903Y878586D03*
D62*
X242951Y878586D03*
D34*
X246761Y878586D03*
D21*
X267081Y878586D03*
D34*
X272415Y878586D03*
D62*
X242951Y878840D03*
D22*
X246888Y878840D03*
D18*
X265557Y878840D03*
D22*
X267462Y878840D03*
X272034Y878840D03*
D17*
X242824Y879094D03*
D21*
X246761Y879094D03*
D18*
X265557Y879094D03*
D34*
X267589Y879094D03*
D22*
X271780Y879094D03*
D62*
X242697Y879348D03*
D34*
X246253Y879348D03*
D13*
X248158Y879348D03*
D63*
X265684Y879348D03*
D22*
X267970Y879348D03*
D17*
X271526Y879348D03*
X242570Y879602D03*
D34*
X246253Y879602D03*
D18*
X248285Y879602D03*
D63*
X265684Y879602D03*
D34*
X268097Y879602D03*
X271399Y879602D03*
D17*
X242316Y879856D03*
D34*
X245999Y879856D03*
D18*
X248285Y879856D03*
D62*
X265811Y879856D03*
D34*
X268351Y879856D03*
D62*
X271145Y879856D03*
D21*
X241935Y880110D03*
D34*
X245745Y880110D03*
D18*
X248285Y880110D03*
D17*
X265938Y880110D03*
D34*
X268605Y880110D03*
D62*
X271145Y880110D03*
D22*
X242062Y880364D03*
D34*
X245491Y880364D03*
D63*
X248158Y880364D03*
D62*
X266065Y880364D03*
D34*
X268859Y880364D03*
D18*
X271145Y880364D03*
D17*
X242062Y880618D03*
D34*
X245237Y880618D03*
D63*
X248158Y880618D03*
D17*
X266192Y880618D03*
D22*
X269240Y880618D03*
D18*
X271145Y880618D03*
D62*
X242189Y880872D03*
D34*
X244983Y880872D03*
D17*
X247904Y880872D03*
D18*
X263525Y880872D03*
D17*
X266446Y880872D03*
D22*
X269494Y880872D03*
D13*
X271272Y880872D03*
D63*
X242316Y881126D03*
D34*
X244729Y881126D03*
D17*
X247904Y881126D03*
D18*
X250063Y881126D03*
D62*
X263525Y881126D03*
D17*
X266446Y881126D03*
D22*
X269748Y881126D03*
D18*
X242189Y881380D03*
D22*
X244348Y881380D03*
D34*
X247523Y881380D03*
D63*
X249936Y881380D03*
D34*
X263271Y881380D03*
X266573Y881380D03*
D21*
X270129Y881380D03*
D18*
X242443Y881634D03*
D56*
X244094Y881634D03*
D34*
X247269Y881634D03*
D63*
X250190Y881634D03*
D22*
X263398Y881634D03*
D34*
X266573Y881634D03*
D22*
X270256Y881634D03*
D56*
X243586Y881888D03*
D21*
X247015Y881888D03*
D17*
X250190Y881888D03*
D56*
X263398Y881888D03*
D21*
X266573Y881888D03*
D17*
X270002Y881888D03*
D34*
X243713Y882142D03*
D21*
X246761Y882142D03*
D22*
X250444Y882142D03*
D13*
X262636Y882142D03*
D34*
X263779Y882142D03*
D56*
X266446Y882142D03*
D63*
X270002Y882142D03*
D17*
X243840Y882396D03*
D34*
X246507Y882396D03*
D22*
X250444Y882396D03*
D57*
X264795Y882396D03*
D34*
X267081Y882396D03*
D18*
X269875Y882396D03*
D63*
X243840Y882650D03*
D34*
X246253Y882650D03*
D17*
X249936Y882650D03*
D18*
X262001Y882650D03*
D22*
X264922Y882650D03*
D17*
X267208Y882650D03*
D18*
X269875Y882650D03*
X243967Y882904D03*
D34*
X245999Y882904D03*
D17*
X249682Y882904D03*
D21*
X261747Y882904D03*
D17*
X264922Y882904D03*
D62*
X267335Y882904D03*
D18*
X243967Y883158D03*
D17*
X245872Y883158D03*
X249428Y883158D03*
D23*
X261874Y883158D03*
D62*
X265049Y883158D03*
X267335Y883158D03*
X245745Y883412D03*
X249301Y883412D03*
D49*
X261747Y883412D03*
D62*
X265303Y883412D03*
D22*
X267970Y883412D03*
D63*
X245618Y883666D03*
D62*
X249047Y883666D03*
D13*
X252984Y883666D03*
D63*
X260350Y883666D03*
D56*
X262636Y883666D03*
D62*
X265557Y883666D03*
D22*
X267970Y883666D03*
D62*
X245491Y883920D03*
X248793Y883920D03*
D18*
X253111Y883920D03*
D62*
X260223Y883920D03*
D22*
X262890Y883920D03*
D62*
X265811Y883920D03*
D34*
X267589Y883920D03*
D63*
X245618Y884174D03*
D62*
X248539Y884174D03*
D63*
X252984Y884174D03*
D17*
X259842Y884174D03*
D22*
X263144Y884174D03*
D57*
X266827Y884174D03*
D63*
X245618Y884428D03*
D62*
X248539Y884428D03*
D17*
X252730Y884428D03*
D22*
X259588Y884428D03*
X263144Y884428D03*
D56*
X266700Y884428D03*
D18*
X245745Y884682D03*
D17*
X248158Y884682D03*
X252476Y884682D03*
D21*
X259715Y884682D03*
D22*
X263398Y884682D03*
D21*
X266827Y884682D03*
D62*
X245999Y884936D03*
D34*
X247777Y884936D03*
X252349Y884936D03*
X259969Y884936D03*
D21*
X263271Y884936D03*
D22*
X266700Y884936D03*
D23*
X247142Y885190D03*
D21*
X252095Y885190D03*
D17*
X260096Y885190D03*
D57*
X263271Y885190D03*
D34*
X266573Y885190D03*
D56*
X247142Y885444D03*
X251968Y885444D03*
D62*
X260223Y885444D03*
D49*
X263017Y885444D03*
D62*
X266573Y885444D03*
D34*
X247269Y885698D03*
D62*
X251079Y885698D03*
D63*
X252476Y885698D03*
D57*
X256413Y885698D03*
D56*
X261112Y885698D03*
D34*
X263779Y885698D03*
D62*
X266319Y885698D03*
D17*
X247396Y885952D03*
X250698Y885952D03*
D63*
X252476Y885952D03*
D21*
X256413Y885952D03*
X260985Y885952D03*
D34*
X264033Y885952D03*
D63*
X266192Y885952D03*
X247396Y886206D03*
D17*
X250190Y886206D03*
D63*
X252476Y886206D03*
D34*
X256413Y886206D03*
X260985Y886206D03*
D17*
X263906Y886206D03*
D63*
X247650Y886460D03*
D34*
X250063Y886460D03*
D62*
X252349Y886460D03*
D34*
X256413Y886460D03*
D62*
X260985Y886460D03*
D34*
X264033Y886460D03*
D13*
X247650Y886714D03*
D21*
X249555Y886714D03*
D62*
X252349Y886714D03*
D17*
X256540Y886714D03*
D62*
X260985Y886714D03*
X264033Y886714D03*
D56*
X249174Y886968D03*
D62*
X252349Y886968D03*
D17*
X256540Y886968D03*
X261112Y886968D03*
D62*
X264033Y886968D03*
D22*
X248920Y887222D03*
D63*
X252222Y887222D03*
D13*
X254000Y887222D03*
D17*
X256540Y887222D03*
D13*
X259080Y887222D03*
D17*
X261366Y887222D03*
X263906Y887222D03*
X249174Y887476D03*
D62*
X252095Y887476D03*
D18*
X254127Y887476D03*
D62*
X256413Y887476D03*
D18*
X258953Y887476D03*
D34*
X261747Y887476D03*
D62*
X263779Y887476D03*
D63*
X249174Y887730D03*
D62*
X252095Y887730D03*
D17*
X254508Y887730D03*
D34*
X256413Y887730D03*
D17*
X258572Y887730D03*
D47*
X262636Y887730D03*
D13*
X249428Y887984D03*
D62*
X252095Y887984D03*
D44*
X256540Y887984D03*
D23*
X262382Y887984D03*
D62*
X252095Y888238D03*
D44*
X256540Y888238D03*
D21*
X262255Y888238D03*
D62*
X251841Y888492D03*
D44*
X256540Y888492D03*
D17*
X261874Y888492D03*
X251714Y888746D03*
D32*
X256413Y888746D03*
D18*
X261747Y888746D03*
D22*
X251714Y889000D03*
D34*
X254635Y889000D03*
D22*
X256540Y889000D03*
D34*
X258445Y889000D03*
D18*
X261747Y889000D03*
D34*
X251587Y889254D03*
D18*
X253873Y889254D03*
D62*
X256413Y889254D03*
D63*
X258826Y889254D03*
D13*
X261620Y889254D03*
D17*
X251714Y889508D03*
D13*
X254000Y889508D03*
D62*
X256413Y889508D03*
D63*
X251968Y889762D03*
D62*
X256413Y889762D03*
D18*
X252095Y890016D03*
D62*
X256413Y890016D03*
D34*
X256413Y890270D03*
X256413Y890524D03*
D21*
X256413Y890778D03*
X256413Y891032D03*
X256413Y891286D03*
D67*
X155166Y702310D02*
X155053Y702310D01*
X155033Y702312D01*
X155014Y702317D01*
X154997Y702325D01*
X154980Y702336D01*
X154966Y702350D01*
X154955Y702367D01*
X154947Y702384D01*
X154942Y702403D01*
X154940Y702423D01*
X154940Y702705D01*
X154942Y702725D01*
X154947Y702744D01*
X154955Y702761D01*
X154966Y702778D01*
X154980Y702792D01*
X154996Y702803D01*
X155014Y702811D01*
X155033Y702816D01*
X155053Y702818D01*
X155166Y702818D01*
X155327Y702381D02*
X155327Y702352D01*
X155327Y702381D02*
X155355Y702381D01*
X155355Y702352D01*
X155327Y702352D01*
X155327Y702578D02*
X155327Y702606D01*
X155355Y702606D01*
X155355Y702578D01*
X155327Y702578D01*
X155518Y702254D02*
X155743Y702874D01*
X155916Y702818D02*
X155916Y702451D01*
X155918Y702429D01*
X155923Y702407D01*
X155931Y702387D01*
X155943Y702368D01*
X155957Y702351D01*
X155974Y702337D01*
X155993Y702325D01*
X156013Y702317D01*
X156035Y702312D01*
X156057Y702310D01*
X156079Y702312D01*
X156101Y702317D01*
X156121Y702325D01*
X156140Y702337D01*
X156157Y702351D01*
X156171Y702368D01*
X156183Y702387D01*
X156191Y702407D01*
X156196Y702429D01*
X156198Y702451D01*
X156198Y702818D01*
X156428Y702508D02*
X156570Y702451D01*
X156429Y702507D02*
X156414Y702515D01*
X156401Y702526D01*
X156392Y702540D01*
X156386Y702556D01*
X156383Y702573D01*
X156384Y702589D01*
X156390Y702605D01*
X156398Y702620D01*
X156410Y702632D01*
X156424Y702641D01*
X156440Y702646D01*
X156457Y702648D01*
X156456Y702648D02*
X156489Y702646D01*
X156521Y702640D01*
X156553Y702632D01*
X156583Y702620D01*
X156569Y702451D02*
X156584Y702443D01*
X156597Y702432D01*
X156606Y702418D01*
X156612Y702402D01*
X156615Y702385D01*
X156614Y702369D01*
X156608Y702353D01*
X156600Y702338D01*
X156588Y702326D01*
X156574Y702317D01*
X156558Y702312D01*
X156541Y702310D01*
X156502Y702312D01*
X156463Y702318D01*
X156424Y702326D01*
X156386Y702338D01*
X156867Y702310D02*
X157008Y702310D01*
X156867Y702310D02*
X156850Y702312D01*
X156834Y702316D01*
X156820Y702324D01*
X156807Y702335D01*
X156796Y702348D01*
X156788Y702362D01*
X156784Y702378D01*
X156782Y702395D01*
X156782Y702536D01*
X156784Y702556D01*
X156789Y702575D01*
X156797Y702593D01*
X156808Y702609D01*
X156822Y702623D01*
X156839Y702634D01*
X156856Y702642D01*
X156875Y702647D01*
X156895Y702649D01*
X156915Y702647D01*
X156934Y702642D01*
X156952Y702634D01*
X156968Y702623D01*
X156982Y702609D01*
X156993Y702593D01*
X157001Y702575D01*
X157006Y702556D01*
X157008Y702536D01*
X157008Y702479D01*
X156782Y702479D01*
X157195Y702310D02*
X157195Y702649D01*
X157364Y702649D01*
X157364Y702592D01*
X157541Y702508D02*
X157682Y702451D01*
X157541Y702507D02*
X157526Y702515D01*
X157513Y702526D01*
X157504Y702540D01*
X157498Y702556D01*
X157495Y702573D01*
X157496Y702589D01*
X157502Y702605D01*
X157510Y702620D01*
X157522Y702632D01*
X157536Y702641D01*
X157552Y702646D01*
X157569Y702648D01*
X157602Y702646D01*
X157634Y702640D01*
X157666Y702632D01*
X157696Y702620D01*
X157682Y702451D02*
X157697Y702443D01*
X157710Y702432D01*
X157719Y702418D01*
X157725Y702402D01*
X157728Y702385D01*
X157727Y702369D01*
X157721Y702353D01*
X157713Y702338D01*
X157701Y702326D01*
X157687Y702317D01*
X157671Y702312D01*
X157654Y702310D01*
X157615Y702312D01*
X157576Y702318D01*
X157537Y702326D01*
X157499Y702338D01*
X157880Y702254D02*
X158105Y702874D01*
X158276Y702649D02*
X158276Y702310D01*
X158276Y702649D02*
X158417Y702649D01*
X158434Y702647D01*
X158450Y702643D01*
X158464Y702635D01*
X158477Y702624D01*
X158488Y702611D01*
X158496Y702597D01*
X158500Y702581D01*
X158502Y702564D01*
X158502Y702310D01*
X158693Y702310D02*
X158693Y702649D01*
X158679Y702790D02*
X158679Y702818D01*
X158708Y702818D01*
X158708Y702790D01*
X158679Y702790D01*
X158955Y702310D02*
X159096Y702310D01*
X158955Y702310D02*
X158938Y702312D01*
X158922Y702316D01*
X158908Y702324D01*
X158895Y702335D01*
X158884Y702348D01*
X158876Y702362D01*
X158872Y702378D01*
X158870Y702395D01*
X158870Y702536D01*
X158872Y702556D01*
X158877Y702575D01*
X158885Y702593D01*
X158896Y702609D01*
X158910Y702623D01*
X158927Y702634D01*
X158944Y702642D01*
X158963Y702647D01*
X158983Y702649D01*
X159003Y702647D01*
X159022Y702642D01*
X159040Y702634D01*
X159056Y702623D01*
X159070Y702609D01*
X159081Y702593D01*
X159089Y702575D01*
X159094Y702556D01*
X159096Y702536D01*
X159096Y702479D01*
X158870Y702479D01*
X159277Y702395D02*
X159277Y702818D01*
X159277Y702395D02*
X159279Y702378D01*
X159283Y702362D01*
X159291Y702348D01*
X159302Y702335D01*
X159315Y702324D01*
X159329Y702316D01*
X159345Y702312D01*
X159362Y702310D01*
X159608Y702310D02*
X159495Y702649D01*
X159721Y702649D02*
X159608Y702310D01*
X159861Y702254D02*
X160086Y702874D01*
X160263Y702818D02*
X160263Y702310D01*
X160263Y702818D02*
X160404Y702818D01*
X160426Y702816D01*
X160448Y702811D01*
X160468Y702803D01*
X160487Y702791D01*
X160504Y702777D01*
X160518Y702760D01*
X160530Y702741D01*
X160538Y702721D01*
X160543Y702699D01*
X160545Y702677D01*
X160543Y702655D01*
X160538Y702633D01*
X160530Y702613D01*
X160518Y702594D01*
X160504Y702577D01*
X160487Y702563D01*
X160468Y702551D01*
X160448Y702543D01*
X160426Y702538D01*
X160404Y702536D01*
X160263Y702536D01*
X160705Y702649D02*
X160705Y702310D01*
X160691Y702790D02*
X160691Y702818D01*
X160719Y702818D01*
X160719Y702790D01*
X160691Y702790D01*
X160967Y702310D02*
X161079Y702310D01*
X160967Y702310D02*
X160950Y702312D01*
X160934Y702316D01*
X160920Y702324D01*
X160907Y702335D01*
X160896Y702348D01*
X160888Y702362D01*
X160884Y702378D01*
X160882Y702395D01*
X160882Y702564D01*
X160884Y702581D01*
X160888Y702597D01*
X160896Y702611D01*
X160907Y702624D01*
X160920Y702635D01*
X160934Y702643D01*
X160950Y702647D01*
X160967Y702649D01*
X161079Y702649D01*
X161198Y702649D02*
X161367Y702649D01*
X161254Y702818D02*
X161254Y702395D01*
X161256Y702378D01*
X161260Y702362D01*
X161268Y702348D01*
X161279Y702335D01*
X161292Y702324D01*
X161306Y702316D01*
X161322Y702312D01*
X161339Y702310D01*
X161367Y702310D01*
X161537Y702395D02*
X161537Y702649D01*
X161537Y702395D02*
X161539Y702378D01*
X161543Y702362D01*
X161551Y702348D01*
X161562Y702335D01*
X161575Y702324D01*
X161589Y702316D01*
X161605Y702312D01*
X161622Y702310D01*
X161763Y702310D01*
X161763Y702649D01*
X161965Y702649D02*
X161965Y702310D01*
X161965Y702649D02*
X162134Y702649D01*
X162134Y702592D01*
X162353Y702310D02*
X162494Y702310D01*
X162353Y702310D02*
X162336Y702312D01*
X162320Y702316D01*
X162306Y702324D01*
X162293Y702335D01*
X162282Y702348D01*
X162274Y702362D01*
X162270Y702378D01*
X162268Y702395D01*
X162268Y702536D01*
X162270Y702556D01*
X162275Y702575D01*
X162283Y702593D01*
X162294Y702609D01*
X162308Y702623D01*
X162325Y702634D01*
X162342Y702642D01*
X162361Y702647D01*
X162381Y702649D01*
X162401Y702647D01*
X162420Y702642D01*
X162438Y702634D01*
X162454Y702623D01*
X162468Y702609D01*
X162479Y702593D01*
X162487Y702575D01*
X162492Y702556D01*
X162494Y702536D01*
X162494Y702479D01*
X162268Y702479D01*
X162707Y702508D02*
X162848Y702451D01*
X162707Y702507D02*
X162692Y702515D01*
X162679Y702526D01*
X162670Y702540D01*
X162664Y702556D01*
X162661Y702573D01*
X162662Y702589D01*
X162668Y702605D01*
X162676Y702620D01*
X162688Y702632D01*
X162702Y702641D01*
X162718Y702646D01*
X162735Y702648D01*
X162768Y702646D01*
X162800Y702640D01*
X162832Y702632D01*
X162862Y702620D01*
X162848Y702451D02*
X162863Y702443D01*
X162876Y702432D01*
X162885Y702418D01*
X162891Y702402D01*
X162894Y702385D01*
X162893Y702369D01*
X162887Y702353D01*
X162879Y702338D01*
X162867Y702326D01*
X162853Y702317D01*
X162837Y702312D01*
X162820Y702310D01*
X162781Y702312D01*
X162742Y702318D01*
X162703Y702326D01*
X162665Y702338D01*
X163046Y702254D02*
X163271Y702874D01*
X163469Y702508D02*
X163610Y702451D01*
X163469Y702507D02*
X163454Y702515D01*
X163441Y702526D01*
X163432Y702540D01*
X163426Y702556D01*
X163423Y702573D01*
X163424Y702589D01*
X163430Y702605D01*
X163438Y702620D01*
X163450Y702632D01*
X163464Y702641D01*
X163480Y702646D01*
X163497Y702648D01*
X163530Y702646D01*
X163562Y702640D01*
X163594Y702632D01*
X163624Y702620D01*
X163610Y702451D02*
X163625Y702443D01*
X163638Y702432D01*
X163647Y702418D01*
X163653Y702402D01*
X163656Y702385D01*
X163655Y702369D01*
X163649Y702353D01*
X163641Y702338D01*
X163629Y702326D01*
X163615Y702317D01*
X163599Y702312D01*
X163582Y702310D01*
X163543Y702312D01*
X163504Y702318D01*
X163465Y702326D01*
X163427Y702338D01*
X163829Y702310D02*
X163829Y702649D01*
X163815Y702790D02*
X163815Y702818D01*
X163843Y702818D01*
X163843Y702790D01*
X163815Y702790D01*
X164021Y702649D02*
X164021Y702310D01*
X164021Y702649D02*
X164162Y702649D01*
X164179Y702647D01*
X164195Y702643D01*
X164209Y702635D01*
X164222Y702624D01*
X164233Y702611D01*
X164241Y702597D01*
X164245Y702581D01*
X164247Y702564D01*
X164247Y702310D01*
X164517Y702310D02*
X164630Y702310D01*
X164517Y702310D02*
X164500Y702312D01*
X164484Y702316D01*
X164470Y702324D01*
X164457Y702335D01*
X164446Y702348D01*
X164438Y702362D01*
X164434Y702378D01*
X164432Y702395D01*
X164433Y702395D02*
X164433Y702564D01*
X164432Y702564D02*
X164434Y702581D01*
X164438Y702597D01*
X164446Y702611D01*
X164457Y702624D01*
X164470Y702635D01*
X164484Y702643D01*
X164500Y702647D01*
X164517Y702649D01*
X164630Y702649D01*
X164868Y702310D02*
X165009Y702310D01*
X164868Y702310D02*
X164851Y702312D01*
X164835Y702316D01*
X164821Y702324D01*
X164808Y702335D01*
X164797Y702348D01*
X164789Y702362D01*
X164785Y702378D01*
X164783Y702395D01*
X164783Y702536D01*
X164785Y702556D01*
X164790Y702575D01*
X164798Y702593D01*
X164809Y702609D01*
X164823Y702623D01*
X164840Y702634D01*
X164857Y702642D01*
X164876Y702647D01*
X164896Y702649D01*
X164916Y702647D01*
X164935Y702642D01*
X164953Y702634D01*
X164969Y702623D01*
X164983Y702609D01*
X164994Y702593D01*
X165002Y702575D01*
X165007Y702556D01*
X165009Y702536D01*
X165009Y702479D01*
X164783Y702479D01*
X165196Y702310D02*
X165196Y702649D01*
X165365Y702649D01*
X165365Y702592D01*
X165584Y702310D02*
X165725Y702310D01*
X165584Y702310D02*
X165567Y702312D01*
X165551Y702316D01*
X165537Y702324D01*
X165524Y702335D01*
X165513Y702348D01*
X165505Y702362D01*
X165501Y702378D01*
X165499Y702395D01*
X165499Y702536D01*
X165501Y702556D01*
X165506Y702575D01*
X165514Y702593D01*
X165525Y702609D01*
X165539Y702623D01*
X165556Y702634D01*
X165573Y702642D01*
X165592Y702647D01*
X165612Y702649D01*
X165632Y702647D01*
X165651Y702642D01*
X165669Y702634D01*
X165685Y702623D01*
X165699Y702609D01*
X165710Y702593D01*
X165718Y702575D01*
X165723Y702556D01*
X165725Y702536D01*
X165725Y702479D01*
X165499Y702479D01*
X165880Y702254D02*
X166106Y702254D01*
X166278Y702141D02*
X166278Y702649D01*
X166419Y702649D01*
X166436Y702647D01*
X166452Y702643D01*
X166466Y702635D01*
X166479Y702624D01*
X166490Y702611D01*
X166498Y702597D01*
X166502Y702581D01*
X166504Y702564D01*
X166503Y702564D02*
X166503Y702395D01*
X166504Y702395D02*
X166502Y702378D01*
X166498Y702362D01*
X166490Y702348D01*
X166479Y702335D01*
X166466Y702324D01*
X166452Y702316D01*
X166436Y702312D01*
X166419Y702310D01*
X166278Y702310D01*
X166770Y702508D02*
X166897Y702508D01*
X166770Y702508D02*
X166752Y702506D01*
X166734Y702501D01*
X166718Y702493D01*
X166703Y702482D01*
X166691Y702469D01*
X166681Y702453D01*
X166675Y702436D01*
X166671Y702418D01*
X166671Y702400D01*
X166675Y702382D01*
X166681Y702365D01*
X166691Y702349D01*
X166703Y702336D01*
X166718Y702325D01*
X166734Y702317D01*
X166752Y702312D01*
X166770Y702310D01*
X166897Y702310D01*
X166897Y702564D01*
X166898Y702564D02*
X166896Y702581D01*
X166892Y702597D01*
X166884Y702611D01*
X166873Y702624D01*
X166860Y702635D01*
X166846Y702643D01*
X166830Y702647D01*
X166813Y702649D01*
X166700Y702649D01*
X167101Y702649D02*
X167101Y702310D01*
X167101Y702649D02*
X167270Y702649D01*
X167270Y702592D01*
X167370Y702649D02*
X167539Y702649D01*
X167426Y702818D02*
X167426Y702395D01*
X167428Y702378D01*
X167432Y702362D01*
X167440Y702348D01*
X167451Y702335D01*
X167464Y702324D01*
X167478Y702316D01*
X167494Y702312D01*
X167511Y702310D01*
X167539Y702310D01*
X167709Y702310D02*
X167709Y702649D01*
X167850Y702649D01*
X167867Y702647D01*
X167883Y702643D01*
X167897Y702635D01*
X167910Y702624D01*
X167921Y702611D01*
X167929Y702597D01*
X167933Y702581D01*
X167935Y702564D01*
X167935Y702310D01*
X168205Y702310D02*
X168346Y702310D01*
X168205Y702310D02*
X168188Y702312D01*
X168172Y702316D01*
X168158Y702324D01*
X168145Y702335D01*
X168134Y702348D01*
X168126Y702362D01*
X168122Y702378D01*
X168120Y702395D01*
X168120Y702536D01*
X168122Y702556D01*
X168127Y702575D01*
X168135Y702593D01*
X168146Y702609D01*
X168160Y702623D01*
X168177Y702634D01*
X168194Y702642D01*
X168213Y702647D01*
X168233Y702649D01*
X168253Y702647D01*
X168272Y702642D01*
X168290Y702634D01*
X168306Y702623D01*
X168320Y702609D01*
X168331Y702593D01*
X168339Y702575D01*
X168344Y702556D01*
X168346Y702536D01*
X168346Y702479D01*
X168120Y702479D01*
X168533Y702310D02*
X168533Y702649D01*
X168702Y702649D01*
X168702Y702592D01*
X168879Y702508D02*
X169020Y702451D01*
X168879Y702507D02*
X168864Y702515D01*
X168851Y702526D01*
X168842Y702540D01*
X168836Y702556D01*
X168833Y702573D01*
X168834Y702589D01*
X168840Y702605D01*
X168848Y702620D01*
X168860Y702632D01*
X168874Y702641D01*
X168890Y702646D01*
X168907Y702648D01*
X168940Y702646D01*
X168972Y702640D01*
X169004Y702632D01*
X169034Y702620D01*
X169020Y702451D02*
X169035Y702443D01*
X169048Y702432D01*
X169057Y702418D01*
X169063Y702402D01*
X169066Y702385D01*
X169065Y702369D01*
X169059Y702353D01*
X169051Y702338D01*
X169039Y702326D01*
X169025Y702317D01*
X169009Y702312D01*
X168992Y702310D01*
X168953Y702312D01*
X168914Y702318D01*
X168875Y702326D01*
X168837Y702338D01*
X169218Y702254D02*
X169443Y702254D01*
X169619Y702310D02*
X169619Y702818D01*
X169902Y702818D02*
X169619Y702508D01*
X169732Y702620D02*
X169902Y702310D01*
X170073Y702451D02*
X170073Y702818D01*
X170073Y702451D02*
X170075Y702429D01*
X170080Y702407D01*
X170088Y702387D01*
X170100Y702368D01*
X170114Y702351D01*
X170131Y702337D01*
X170150Y702325D01*
X170170Y702317D01*
X170192Y702312D01*
X170214Y702310D01*
X170236Y702312D01*
X170258Y702317D01*
X170278Y702325D01*
X170297Y702337D01*
X170314Y702351D01*
X170328Y702368D01*
X170340Y702387D01*
X170348Y702407D01*
X170353Y702429D01*
X170355Y702451D01*
X170355Y702818D01*
X170548Y702508D02*
X170887Y702508D01*
X171079Y702310D02*
X171079Y702818D01*
X171079Y702310D02*
X171305Y702310D01*
X171542Y702310D02*
X171684Y702310D01*
X171542Y702310D02*
X171525Y702312D01*
X171509Y702316D01*
X171495Y702324D01*
X171482Y702335D01*
X171471Y702348D01*
X171463Y702362D01*
X171459Y702378D01*
X171457Y702395D01*
X171458Y702395D02*
X171458Y702536D01*
X171460Y702556D01*
X171465Y702575D01*
X171473Y702593D01*
X171484Y702609D01*
X171498Y702623D01*
X171515Y702634D01*
X171532Y702642D01*
X171551Y702647D01*
X171571Y702649D01*
X171591Y702647D01*
X171610Y702642D01*
X171628Y702634D01*
X171644Y702623D01*
X171658Y702609D01*
X171669Y702593D01*
X171677Y702575D01*
X171682Y702556D01*
X171684Y702536D01*
X171684Y702479D01*
X171458Y702479D01*
X171869Y702395D02*
X171869Y702649D01*
X171869Y702395D02*
X171871Y702378D01*
X171875Y702362D01*
X171883Y702348D01*
X171894Y702335D01*
X171907Y702324D01*
X171921Y702316D01*
X171937Y702312D01*
X171954Y702310D01*
X172095Y702310D01*
X172095Y702649D01*
X172265Y702649D02*
X172378Y702310D01*
X172491Y702649D01*
X172731Y702310D02*
X172872Y702310D01*
X172731Y702310D02*
X172714Y702312D01*
X172698Y702316D01*
X172684Y702324D01*
X172671Y702335D01*
X172660Y702348D01*
X172652Y702362D01*
X172648Y702378D01*
X172646Y702395D01*
X172646Y702536D01*
X172648Y702556D01*
X172653Y702575D01*
X172661Y702593D01*
X172672Y702609D01*
X172686Y702623D01*
X172703Y702634D01*
X172720Y702642D01*
X172739Y702647D01*
X172759Y702649D01*
X172779Y702647D01*
X172798Y702642D01*
X172816Y702634D01*
X172832Y702623D01*
X172846Y702609D01*
X172857Y702593D01*
X172865Y702575D01*
X172870Y702556D01*
X172872Y702536D01*
X172872Y702479D01*
X172646Y702479D01*
X173058Y702310D02*
X173058Y702649D01*
X173199Y702649D01*
X173216Y702647D01*
X173232Y702643D01*
X173246Y702635D01*
X173259Y702624D01*
X173270Y702611D01*
X173278Y702597D01*
X173282Y702581D01*
X173284Y702564D01*
X173284Y702310D01*
X173725Y702564D02*
X173727Y702606D01*
X173732Y702648D01*
X173741Y702689D01*
X173754Y702729D01*
X173770Y702768D01*
X173790Y702805D01*
X173812Y702841D01*
X173838Y702874D01*
X173725Y702564D02*
X173727Y702522D01*
X173732Y702480D01*
X173741Y702439D01*
X173754Y702399D01*
X173770Y702360D01*
X173790Y702323D01*
X173812Y702287D01*
X173838Y702254D01*
X174287Y702691D02*
X174285Y702711D01*
X174281Y702730D01*
X174273Y702749D01*
X174263Y702766D01*
X174250Y702781D01*
X174235Y702794D01*
X174218Y702804D01*
X174199Y702812D01*
X174180Y702816D01*
X174160Y702818D01*
X174137Y702816D01*
X174115Y702812D01*
X174094Y702804D01*
X174074Y702793D01*
X174055Y702780D01*
X174039Y702764D01*
X174025Y702746D01*
X174013Y702726D01*
X174005Y702705D01*
X174245Y702593D02*
X174259Y702609D01*
X174271Y702627D01*
X174280Y702648D01*
X174285Y702669D01*
X174287Y702691D01*
X174245Y702592D02*
X174005Y702310D01*
X174287Y702310D01*
X174454Y702254D02*
X174480Y702287D01*
X174502Y702323D01*
X174522Y702360D01*
X174538Y702399D01*
X174551Y702439D01*
X174560Y702480D01*
X174565Y702522D01*
X174567Y702564D01*
X174565Y702606D01*
X174560Y702648D01*
X174551Y702689D01*
X174538Y702729D01*
X174522Y702768D01*
X174502Y702805D01*
X174480Y702841D01*
X174454Y702874D01*
X174742Y702338D02*
X174742Y702310D01*
X174742Y702338D02*
X174770Y702338D01*
X174770Y702310D01*
X174742Y702310D01*
X174949Y702310D02*
X174949Y702818D01*
X174949Y702310D02*
X175090Y702310D01*
X175107Y702312D01*
X175123Y702316D01*
X175137Y702324D01*
X175150Y702335D01*
X175161Y702348D01*
X175169Y702362D01*
X175173Y702378D01*
X175175Y702395D01*
X175174Y702395D02*
X175174Y702564D01*
X175175Y702564D02*
X175173Y702581D01*
X175169Y702597D01*
X175161Y702611D01*
X175150Y702624D01*
X175137Y702635D01*
X175123Y702643D01*
X175107Y702647D01*
X175090Y702649D01*
X174949Y702649D01*
X175364Y702649D02*
X175364Y702310D01*
X175364Y702649D02*
X175618Y702649D01*
X175635Y702647D01*
X175651Y702643D01*
X175665Y702635D01*
X175678Y702624D01*
X175689Y702611D01*
X175697Y702597D01*
X175701Y702581D01*
X175703Y702564D01*
X175702Y702564D02*
X175702Y702310D01*
X175533Y702310D02*
X175533Y702649D01*
X175909Y702649D02*
X175909Y702141D01*
X175909Y702649D02*
X176050Y702649D01*
X176067Y702647D01*
X176083Y702643D01*
X176097Y702635D01*
X176110Y702624D01*
X176121Y702611D01*
X176129Y702597D01*
X176133Y702581D01*
X176135Y702564D01*
X176135Y702395D01*
X176133Y702378D01*
X176129Y702362D01*
X176121Y702348D01*
X176110Y702335D01*
X176097Y702324D01*
X176083Y702316D01*
X176067Y702312D01*
X176050Y702310D01*
X175909Y702310D01*
M02*
