G04 EAGLE Gerber RS-274X export*
G75*
%MOMM*%
%FSLAX34Y34*%
%LPD*%
%INSoldermask Bottom*%
%IPPOS*%
%AMOC8*
5,1,8,0,0,1.08239X$1,22.5*%
G01*
%ADD10C,3.203194*%
%ADD11C,2.082800*%
%ADD12C,3.203200*%
%ADD13C,1.853200*%
%ADD14C,1.711200*%
%ADD15P,1.038661X8X22.500000*%
%ADD16C,0.959600*%


D10*
X25400Y311150D03*
X605790Y971550D03*
X25400Y971550D03*
D11*
X355600Y508000D03*
X355600Y533400D03*
X355600Y558800D03*
X355600Y584200D03*
X355600Y609600D03*
X19050Y584200D03*
X19050Y558800D03*
X19050Y533400D03*
X19050Y508000D03*
X19050Y482600D03*
X19050Y457200D03*
X19050Y431800D03*
X19050Y406400D03*
X19050Y381000D03*
X19050Y355600D03*
D12*
X69850Y747950D03*
D13*
X596736Y364938D03*
X545936Y364938D03*
X596736Y390338D03*
X545936Y390338D03*
X596736Y415738D03*
X545936Y415738D03*
X596736Y441138D03*
X545936Y441138D03*
X596736Y466538D03*
X545936Y466538D03*
D14*
X562776Y721514D03*
X562776Y772314D03*
X588176Y721514D03*
X588176Y772314D03*
D15*
X222250Y469900D03*
X241300Y469900D03*
X260350Y488950D03*
X260350Y508000D03*
X260350Y527050D03*
X241300Y558800D03*
X222250Y558800D03*
X101600Y723900D03*
X317500Y419100D03*
X374650Y368300D03*
X95250Y438150D03*
X184150Y762000D03*
D16*
X450000Y870000D03*
D15*
X396700Y923050D03*
X12700Y838200D03*
X114300Y685800D03*
X371950Y909000D03*
X165100Y520700D03*
X38100Y762000D03*
X95250Y463550D03*
X450000Y670000D03*
X38100Y781050D03*
X95250Y501650D03*
X106680Y391160D03*
X88900Y488950D03*
X152400Y419100D03*
X88900Y476250D03*
X139700Y438150D03*
D16*
X390000Y770000D03*
D15*
X44450Y679450D03*
X31750Y806450D03*
X182880Y556260D03*
X154940Y568960D03*
X149860Y588010D03*
D16*
X330000Y600000D03*
X530000Y630000D03*
M02*
