G04 EAGLE Gerber RS-274X export*
G75*
%MOMM*%
%FSLAX34Y34*%
%LPD*%
%INSoldermask Top*%
%IPPOS*%
%AMOC8*
5,1,8,0,0,1.08239X$1,22.5*%
G01*
%ADD10C,3.203194*%
%ADD11R,1.703200X1.503200*%
%ADD12R,3.853200X2.053200*%
%ADD13R,1.503200X1.703200*%
%ADD14R,1.203200X2.403200*%
%ADD15R,1.203200X1.303200*%
%ADD16C,2.082800*%
%ADD17R,1.803200X1.503200*%
%ADD18R,1.603200X2.303200*%
%ADD19R,1.727200X1.219200*%
%ADD20R,1.219200X1.727200*%
%ADD21C,0.344606*%
%ADD22R,2.203200X1.103200*%
%ADD23R,1.103200X2.203200*%
%ADD24R,1.533200X1.533200*%
%ADD25R,1.000000X1.600000*%
%ADD26R,1.003200X1.603200*%
%ADD27C,1.721103*%
%ADD28R,1.353200X0.803200*%
%ADD29C,1.853200*%
%ADD30C,1.711200*%
%ADD31C,1.524000*%
%ADD32P,1.038661X8X22.500000*%
%ADD33C,0.959600*%


D10*
X25400Y311150D03*
X605790Y971550D03*
X25400Y971550D03*
D11*
X330200Y447650D03*
X330200Y428650D03*
X351250Y447650D03*
X351250Y428650D03*
D12*
X510300Y717550D03*
X455300Y717550D03*
D13*
X435950Y787400D03*
X454950Y787400D03*
X513050Y787400D03*
X494050Y787400D03*
D11*
X391950Y835000D03*
X391950Y816000D03*
X474450Y896800D03*
X474450Y877800D03*
D13*
X415950Y336550D03*
X434950Y336550D03*
X415950Y635000D03*
X434950Y635000D03*
D14*
X251700Y977900D03*
X281700Y977900D03*
D15*
X266700Y962400D03*
D16*
X355600Y508000D03*
X355600Y533400D03*
X355600Y558800D03*
X355600Y584200D03*
X355600Y609600D03*
X19050Y584200D03*
X19050Y558800D03*
X19050Y533400D03*
X19050Y508000D03*
X19050Y482600D03*
X19050Y457200D03*
X19050Y431800D03*
X19050Y406400D03*
X19050Y381000D03*
X19050Y355600D03*
D17*
X372300Y428650D03*
X372300Y447650D03*
D18*
X402950Y513300D03*
X402950Y604300D03*
X447950Y513300D03*
X447950Y604300D03*
X447950Y458250D03*
X447950Y367250D03*
X402950Y458250D03*
X402950Y367250D03*
D19*
X363900Y692150D03*
X363900Y755650D03*
X363900Y768350D03*
X363900Y781050D03*
X363900Y819150D03*
X363900Y831850D03*
X363900Y933450D03*
D20*
X313100Y946150D03*
X300400Y946150D03*
X287700Y946150D03*
X275000Y946150D03*
X262300Y946150D03*
X249600Y946150D03*
X236900Y946150D03*
D19*
X186100Y933450D03*
X186100Y882650D03*
X186100Y869950D03*
X186100Y857250D03*
X186100Y768350D03*
X186100Y692150D03*
X363900Y704850D03*
X363900Y717550D03*
X363900Y793750D03*
X363900Y806450D03*
X363900Y844550D03*
X363900Y857250D03*
X186100Y844550D03*
X186100Y831850D03*
X186100Y819150D03*
X186100Y806450D03*
X186100Y793750D03*
X186100Y781050D03*
X186100Y742950D03*
X186100Y730250D03*
X186100Y717550D03*
X186100Y704850D03*
X186100Y895350D03*
X186100Y908050D03*
X186100Y920750D03*
X363900Y920750D03*
X363900Y908050D03*
X363900Y895350D03*
X363900Y882650D03*
X363900Y869950D03*
X363900Y742950D03*
X363900Y730250D03*
X186100Y755650D03*
D21*
X423043Y858407D02*
X423043Y869093D01*
X423043Y858407D02*
X418657Y858407D01*
X418657Y869093D01*
X423043Y869093D01*
X423043Y861681D02*
X418657Y861681D01*
X418657Y864955D02*
X423043Y864955D01*
X423043Y868229D02*
X418657Y868229D01*
X432543Y869093D02*
X432543Y858407D01*
X428157Y858407D01*
X428157Y869093D01*
X432543Y869093D01*
X432543Y861681D02*
X428157Y861681D01*
X428157Y864955D02*
X432543Y864955D01*
X432543Y868229D02*
X428157Y868229D01*
X442043Y869093D02*
X442043Y858407D01*
X437657Y858407D01*
X437657Y869093D01*
X442043Y869093D01*
X442043Y861681D02*
X437657Y861681D01*
X437657Y864955D02*
X442043Y864955D01*
X442043Y868229D02*
X437657Y868229D01*
X423043Y883507D02*
X423043Y894193D01*
X423043Y883507D02*
X418657Y883507D01*
X418657Y894193D01*
X423043Y894193D01*
X423043Y886781D02*
X418657Y886781D01*
X418657Y890055D02*
X423043Y890055D01*
X423043Y893329D02*
X418657Y893329D01*
X432543Y894193D02*
X432543Y883507D01*
X428157Y883507D01*
X428157Y894193D01*
X432543Y894193D01*
X432543Y886781D02*
X428157Y886781D01*
X428157Y890055D02*
X432543Y890055D01*
X432543Y893329D02*
X428157Y893329D01*
X442043Y894193D02*
X442043Y883507D01*
X437657Y883507D01*
X437657Y894193D01*
X442043Y894193D01*
X442043Y886781D02*
X437657Y886781D01*
X437657Y890055D02*
X442043Y890055D01*
X442043Y893329D02*
X437657Y893329D01*
D22*
X292100Y438150D03*
X292100Y450850D03*
X292100Y463550D03*
X292100Y476250D03*
X292100Y488950D03*
X292100Y501650D03*
X292100Y514350D03*
X292100Y527050D03*
X292100Y539750D03*
X292100Y552450D03*
X292100Y565150D03*
X292100Y577850D03*
X292100Y590550D03*
X292100Y603250D03*
D23*
X264250Y613250D03*
X251550Y613250D03*
X238850Y613250D03*
X226150Y613250D03*
X213450Y613250D03*
X200750Y613250D03*
X188050Y613250D03*
X175350Y613250D03*
X162650Y613250D03*
X149950Y613250D03*
D22*
X122100Y603250D03*
X122100Y590550D03*
X122100Y577850D03*
X122100Y565150D03*
X122100Y552450D03*
X122100Y539750D03*
X122100Y527050D03*
X122100Y514350D03*
X122100Y501650D03*
X122100Y488950D03*
X122100Y476250D03*
X122100Y463550D03*
X122100Y450850D03*
X122100Y438150D03*
D24*
X242100Y488150D03*
X242100Y513150D03*
X242100Y538150D03*
X217100Y538150D03*
X217100Y513150D03*
X217100Y488150D03*
X192100Y488150D03*
X192100Y513150D03*
X192100Y538150D03*
D25*
X474500Y812050D03*
D26*
X459260Y812800D03*
X489740Y812800D03*
D27*
X477071Y830589D02*
X471929Y830589D01*
X471929Y851911D01*
X477071Y851911D01*
X477071Y830589D01*
X477071Y846939D02*
X471929Y846939D01*
D28*
X216100Y333350D03*
X216100Y323850D03*
X216100Y314350D03*
X241100Y314350D03*
X241100Y333350D03*
D21*
X62343Y824543D02*
X51657Y824543D01*
X62343Y824543D02*
X62343Y820157D01*
X51657Y820157D01*
X51657Y824543D01*
X51657Y823431D02*
X62343Y823431D01*
X62343Y834043D02*
X51657Y834043D01*
X62343Y834043D02*
X62343Y829657D01*
X51657Y829657D01*
X51657Y834043D01*
X51657Y832931D02*
X62343Y832931D01*
X62343Y843543D02*
X51657Y843543D01*
X62343Y843543D02*
X62343Y839157D01*
X51657Y839157D01*
X51657Y843543D01*
X51657Y842431D02*
X62343Y842431D01*
X37243Y824543D02*
X26557Y824543D01*
X37243Y824543D02*
X37243Y820157D01*
X26557Y820157D01*
X26557Y824543D01*
X26557Y823431D02*
X37243Y823431D01*
X37243Y834043D02*
X26557Y834043D01*
X37243Y834043D02*
X37243Y829657D01*
X26557Y829657D01*
X26557Y834043D01*
X26557Y832931D02*
X37243Y832931D01*
X37243Y843543D02*
X26557Y843543D01*
X37243Y843543D02*
X37243Y839157D01*
X26557Y839157D01*
X26557Y843543D01*
X26557Y842431D02*
X37243Y842431D01*
D11*
X76200Y860450D03*
X76200Y879450D03*
X19050Y860450D03*
X19050Y879450D03*
D29*
X596736Y364938D03*
X545936Y364938D03*
X596736Y390338D03*
X545936Y390338D03*
X596736Y415738D03*
X545936Y415738D03*
X596736Y441138D03*
X545936Y441138D03*
X596736Y466538D03*
X545936Y466538D03*
D30*
X562776Y721514D03*
X562776Y772314D03*
X588176Y721514D03*
X588176Y772314D03*
D11*
X43180Y418440D03*
X43180Y399440D03*
X83820Y390500D03*
X83820Y371500D03*
D31*
X26500Y721796D02*
X26500Y735004D01*
X51900Y735004D02*
X51900Y721796D01*
X77300Y721796D02*
X77300Y735004D01*
X102700Y735004D02*
X102700Y721796D01*
X128100Y721796D02*
X128100Y735004D01*
X153500Y735004D02*
X153500Y721796D01*
X26500Y924996D02*
X26500Y938204D01*
X51900Y938204D02*
X51900Y924996D01*
X77300Y924996D02*
X77300Y938204D01*
X102700Y938204D02*
X102700Y924996D01*
X128100Y924996D02*
X128100Y938204D01*
X153500Y938204D02*
X153500Y924996D01*
D32*
X222250Y469900D03*
X241300Y469900D03*
X260350Y488950D03*
X260350Y508000D03*
X260350Y527050D03*
X241300Y558800D03*
X222250Y558800D03*
X317500Y419100D03*
X374650Y368300D03*
X95250Y438150D03*
X264150Y762000D03*
D33*
X500000Y870000D03*
D32*
X69150Y786000D03*
D33*
X265000Y870000D03*
D32*
X18700Y845200D03*
D33*
X398000Y923000D03*
D32*
X114300Y685800D03*
X401950Y909000D03*
X165100Y520700D03*
X60100Y710000D03*
X95250Y463550D03*
X450000Y670000D03*
X95250Y501650D03*
X106680Y391160D03*
D33*
X104000Y758000D03*
D32*
X88900Y488950D03*
X152400Y419100D03*
X88900Y476250D03*
X139700Y438150D03*
D33*
X420000Y770000D03*
D32*
X44450Y679450D03*
X31750Y806450D03*
X182880Y556260D03*
X154940Y568960D03*
X149860Y588010D03*
D33*
X330000Y600000D03*
X530000Y630000D03*
X50000Y777000D03*
X95000Y777000D03*
M02*
